<svg width="85" height="84" viewBox="0 0 85 84" fill="none" xmlns="http://www.w3.org/2000/svg">
<path d="M37.1574 0.571922C34.6339 0.926687 30.2598 2.00965 27.9979 2.84989C22.521 4.86644 17.0627 8.39542 12.8568 12.6153C4.89365 20.5881 0.519531 31.1004 0.519531 42.3035C0.519531 58.3239 9.77246 73.0186 24.1659 79.8525C30.1102 82.672 35.9985 83.9977 42.4849 83.9977C57.3082 83.9977 70.7857 76.3982 78.7115 63.5894C81.478 59.1081 83.5716 53.0584 84.3754 47.2515C84.7306 44.6374 84.768 39.5961 84.4689 37.2621C83.6464 31.1751 81.7958 25.5735 79.048 20.9989C72.5803 10.1506 62.5422 3.20465 49.8685 0.814656C47.2141 0.310517 40.0361 0.179814 37.1574 0.571922ZM47.8497 6.92035C59.0841 8.61948 68.4118 15.0426 74.0383 24.9573C75.8702 28.1876 77.5525 33.3597 78.0946 37.4488C78.4124 39.7641 78.3563 44.6561 78.0012 47.0461C77.0478 53.4132 74.4121 59.4442 70.524 64.2429C64.8788 71.2075 57.2709 75.6327 48.2609 77.2385C45.1205 77.7986 40.0361 77.7986 36.7836 77.2571C28.9513 75.9501 22.1097 72.3838 16.7636 66.8196C11.4735 61.3114 8.27704 54.7389 7.13678 46.9714C6.72554 44.096 6.85639 38.4011 7.41717 35.675C8.9126 28.4116 12.2586 22.1192 17.3244 17.0965C23.1378 11.3456 30.3906 7.81659 38.5594 6.77097C40.1669 6.56558 46.0926 6.65894 47.8497 6.92035Z" fill="#EDEDED"/>
<path d="M26.166 21.2043C24.0164 21.9698 22.3714 23.6503 20.7638 26.7498C17.8851 32.2767 16.3897 38.3637 16.3897 44.6374C16.371 54.9256 20.0722 62.2263 26.9698 65.5499C29.6803 66.8382 31.4935 67.0997 32.9702 66.3715L33.774 65.998L34.7647 66.7449C35.7368 67.4731 37.6621 68.444 38.1481 68.444C38.279 68.444 38.9145 68.7801 39.5875 69.1909C41.0829 70.1245 42.111 70.4606 43.9429 70.666C51.3265 71.4875 60.6916 65.6059 64.7293 57.6144C67.3836 52.3676 67.9444 45.459 66.3929 37.1127C64.5984 27.3473 59.7944 21.9512 53.9809 23.1462C51.4387 23.669 48.1861 25.6855 44.8401 28.8037C43.7933 29.7747 43.0456 30.3535 42.9896 30.2041C42.5222 28.7851 35.9985 23.0901 33.5123 21.9325C31.0636 20.7935 28.1288 20.4948 26.166 21.2043ZM30.7084 27.6274C31.7552 28.1129 34.1853 30.0734 36.877 32.5941C37.8677 33.509 38.7837 34.2746 38.9332 34.2746C39.0828 34.2746 39.2136 34.3493 39.2136 34.4426C39.2136 34.648 37.3817 37.1314 37.1761 37.206C37.12 37.2434 36.9331 36.4032 36.7649 35.3762C36.4471 33.453 36.1667 32.8555 35.2694 32.1833C33.9796 31.2311 31.9795 31.7912 31.3253 33.3036C30.8953 34.2559 30.8953 33.8825 31.5496 40.0255C31.7552 42.0047 32.073 44.0213 32.2225 44.4881C32.5029 45.291 32.5029 45.4403 32.1851 46.4673C31.7552 47.905 31.7365 47.849 31.0075 42.4902C30.1289 36.1044 30.1102 35.9737 29.7738 35.4696C28.727 33.8638 26.1847 33.9011 25.1566 35.5629C24.7641 36.1791 24.7267 36.4405 24.7641 38.3824C24.8202 41.4632 25.68 49.5855 26.0352 50.4444C26.7829 52.2555 28.5587 53.0584 30.0354 52.2929L30.5775 52.0315L30.4841 54.8696C30.4093 57.0169 30.4467 58.0998 30.6897 59.2762C30.8392 60.1537 30.9327 60.9006 30.8766 60.9566C30.6149 61.218 28.5213 59.8363 27.2502 58.548C24.222 55.5231 22.7453 50.9672 22.7453 44.6374C22.7453 40.4176 23.4182 36.8139 24.9323 32.9115C25.8109 30.6149 27.1941 28.0008 27.7549 27.5527C28.4092 27.0486 29.5494 27.0672 30.7084 27.6274ZM56.8222 30.1294C59.3084 32.5007 61.1216 40.1749 60.8412 47.0648C60.6169 52.5356 58.9719 56.27 55.2894 59.7243C53.5136 61.3861 51.3452 62.7865 49.2143 63.6267C47.9805 64.1122 47.4011 64.2242 45.8496 64.2802C44.242 64.3549 43.8868 64.2989 43.326 63.9815C41.4754 62.9358 40.7651 62.6558 39.8492 62.6558C39.0454 62.6558 38.8398 62.5811 38.3164 62.0396C37.2135 60.9006 36.8957 59.8737 36.8209 56.9795C36.7275 53.936 36.9518 52.3116 37.8117 49.6602C38.8211 46.598 40.8212 42.9756 43.3073 39.7267C47.4198 34.3306 53.9809 28.8597 55.7567 29.3639C55.9624 29.4199 56.4484 29.756 56.8222 30.1294Z" fill="#EDEDED"/>
<path d="M47.3076 39.6707C45.9243 40.3056 44.6906 42.4528 41.9801 48.932C40.0548 53.4879 39.5875 54.8696 39.5875 55.8965C39.5875 57.6144 40.6156 58.7533 42.2792 58.8654C44.2046 59.0147 45.214 57.9505 46.4103 54.5148C47.9245 50.2016 49.3825 46.4859 50.2611 44.6748C51.2705 42.6209 51.3826 41.8553 50.8405 40.8097C50.4854 40.1375 49.1769 39.316 48.4665 39.316C48.2609 39.316 47.7375 39.484 47.3076 39.6707Z" fill="#EDEDED"/>
<path d="M52.0182 47.793C51.7191 47.9237 51.2705 48.2411 51.0461 48.4838C50.5788 49.0067 48.0927 54.4215 47.7936 55.6165C47.5132 56.7555 47.8123 57.7824 48.6535 58.5293C49.4199 59.2015 50.018 59.3882 50.934 59.2388C52.4481 58.9774 53.1024 58.0625 54.7286 53.936C55.4763 52.0128 55.8502 50.7805 55.8502 50.2577C55.8502 48.3158 53.794 47.0088 52.0182 47.793Z" fill="#EDEDED"/>
</svg>
