<svg width="85" height="86" viewBox="0 0 85 86" fill="none" xmlns="http://www.w3.org/2000/svg">
<path d="M38.5172 1.07007C29.9643 1.95217 22.1617 5.16151 15.5407 10.5104C13.6275 12.0494 10.045 15.7467 8.61956 17.6423C2.93638 25.2434 0.0666504 33.7641 0.0666504 43.1106C0.0666504 48.0466 0.704367 52.138 2.14861 56.4922C4.13678 62.5355 7.62547 68.1472 12.2583 72.7641C18.5229 79.0514 25.9504 82.9177 35.0473 84.6256C37.0167 85.0009 37.8983 85.0572 42.0809 85.0572C47.2389 85.0572 49.0958 84.832 53.0909 83.7435C56.861 82.73 61.7751 80.5529 65.1513 78.3758C75.5423 71.7319 82.6135 60.4147 84.2077 47.9527C84.6204 44.6308 84.4891 39.113 83.9264 35.9036C82.9323 30.2732 80.5315 24.2111 77.5305 19.7255C70.9845 9.90983 60.3496 3.15332 48.6457 1.35159C46.2824 0.994995 40.7305 0.84485 38.5172 1.07007ZM45.7572 7.46998C54.5539 8.31455 62.0752 11.9743 68.2461 18.3742C70.9657 21.1894 72.5225 23.4229 74.3419 27.0639C75.9925 30.4233 76.7427 32.5254 77.4742 35.9787C77.9431 38.137 77.9806 38.6813 77.9994 42.829C77.9994 46.8266 77.9431 47.5774 77.568 49.4917C75.486 59.7391 69.4277 68.4099 60.631 73.6838C57.086 75.8046 53.3723 77.2309 49.1146 78.1506C46.8263 78.6385 46.3949 78.6573 42.0809 78.6573C37.767 78.6573 37.3356 78.6385 35.0473 78.1506C30.3019 77.1371 26.0255 75.3541 22.2742 72.8204C14.1339 67.3589 8.91966 59.5326 6.969 49.8671C6.59387 47.9715 6.5376 47.1645 6.5376 43.2044C6.5376 37.9869 6.80019 36.2602 8.24443 31.8873C10.0263 26.4257 12.896 21.8463 17.1162 17.661C24.5625 10.2477 35.2911 6.43774 45.7572 7.46998Z" fill="#EDEDED"/>
<path d="M50.4275 12.8752C49.5647 13.0816 49.002 13.4382 48.1205 14.264C47.539 14.8271 47.2577 14.996 47.0889 14.8646C44.5755 12.969 42.8124 12.7063 40.5242 13.8511C39.38 14.4329 36.6791 17.2669 35.2724 19.4065C31.8587 24.5302 31.3148 29.1846 33.6406 33.7828L34.4096 35.3218L33.4342 37.1048C31.4648 40.7082 31.6899 40.4267 30.7333 40.5206C29.4579 40.6707 28.4451 41.4402 27.8636 42.6977C27.4135 43.6548 27.3572 43.9927 27.3572 45.8319C27.3572 47.3897 27.451 48.1216 27.7136 48.8536C28.0699 49.792 28.0699 49.8295 27.676 51.9503C27.0196 55.4412 26.8883 57.0552 26.8883 61.4094C26.8883 65.6698 27.1134 69.1607 27.4885 70.6809C28.22 73.7401 30.1894 75.7858 33.3592 76.8368C34.6347 77.2685 35.1973 77.3248 37.2043 77.3435C39.8489 77.3623 40.7305 77.0995 41.8371 75.9547C43.1876 74.5659 43.4126 73.0456 43.0188 68.3161L42.7937 65.6135L43.844 64.5062C44.4255 63.9056 45.082 63.0047 45.2883 62.498C45.7759 61.3719 45.9635 59.3637 45.6446 58.4253C45.3633 57.5432 44.5005 56.5485 43.769 56.2482C43.075 55.9667 43.075 55.8916 43.5814 52.4946C43.7878 51.1058 44.0504 49.3228 44.1629 48.5533C44.2754 47.7838 44.4255 45.9258 44.5005 44.4431L44.613 41.7405L45.6446 41.4965C47.2389 41.1024 49.9399 39.6572 51.6654 38.2684C53.5598 36.7294 55.2854 34.5335 56.167 32.5066C56.7484 31.1178 56.8047 30.855 56.8047 29.0345C56.8047 26.8386 56.6359 26.3319 55.4917 25.2246L54.8353 24.5865L55.2104 23.8357C55.8294 22.5407 56.0169 21.4334 55.9231 19.5003C55.7356 15.9907 54.4226 13.6071 52.3407 12.9878C51.3091 12.6875 51.2528 12.6875 50.4275 12.8752ZM43.2813 21.0956C43.7315 22.5032 43.8253 23.7982 43.5814 25.2433C43.3189 26.8011 42.6811 27.9272 41.4995 28.8844C40.8055 29.4474 38.9111 30.5359 38.6298 30.5359C38.461 30.5359 38.2921 29.4474 38.3109 28.3776C38.3109 27.0075 38.6673 25.9753 39.6614 24.3049C40.5054 22.8786 42.5686 20.2135 42.8124 20.2135C42.9062 20.2135 43.1125 20.6076 43.2813 21.0956ZM49.5647 31.3242C48.852 32.6567 45.082 35.3406 44.1441 35.1904C43.844 35.1529 44.0128 34.9464 45.0069 34.1957C46.5074 33.0509 49.5647 30.9113 49.696 30.9113C49.7523 30.9113 49.6773 31.099 49.5647 31.3242ZM38.0858 44.1803C38.0296 45.9258 37.7857 48.4219 37.5794 49.7732C37.3543 51.1058 37.0542 53.1327 36.9042 54.2776C36.5103 57.2242 36.3602 64.7689 36.6228 68.1472C36.7541 69.6862 36.8104 70.9624 36.7729 70.9999C36.6041 71.1688 34.7472 70.6433 34.3158 70.3055C33.5093 69.6674 33.3592 68.4287 33.3592 61.7848C33.3592 56.2107 33.3967 55.6101 33.8094 53.5831L34.2408 51.3685L34.9723 51.1808C36.3978 50.7867 37.3731 49.1914 37.0917 47.6524C37.0355 47.2771 36.8104 46.5639 36.6041 46.0571L36.229 45.175L36.6416 44.1803C37.5231 42.0783 38.0108 41.0461 38.1046 41.0461C38.1609 41.0461 38.1421 42.4537 38.0858 44.1803Z" fill="#EDEDED"/>
</svg>
