<svg width="85" height="85" viewBox="0 0 85 85" fill="none" xmlns="http://www.w3.org/2000/svg">
<path d="M37.294 1.14195C34.7619 1.49854 30.3729 2.58709 28.1034 3.43166C22.6077 5.45861 17.1309 9.00578 12.9107 13.2474C4.92049 21.2613 0.531494 31.8278 0.531494 43.0886C0.531494 59.1916 9.8159 73.9621 24.2583 80.8312C30.2228 83.6652 36.1311 84.9977 42.6396 84.9977C57.5134 84.9977 71.0367 77.3591 78.9894 64.4842C81.7653 59.9799 83.8661 53.899 84.6726 48.0622C85.029 45.4346 85.0665 40.3672 84.7664 38.0212C83.9411 31.9028 82.0842 26.2724 79.327 21.6742C72.8373 10.77 62.7651 3.78825 50.0483 1.38594C47.3849 0.879198 40.1825 0.747821 37.294 1.14195ZM48.0226 7.5231C59.2952 9.23099 68.6546 15.6872 74.3003 25.6531C76.1384 28.8999 77.8265 34.0987 78.3704 38.2089C78.6893 40.5362 78.633 45.4534 78.2767 47.8557C77.3201 54.2556 74.6754 60.3177 70.7741 65.1411C65.1097 72.1416 57.4758 76.5896 48.4353 78.2037C45.2842 78.7667 40.1825 78.7667 36.9189 78.2225C29.0599 76.9087 22.1951 73.324 16.8308 67.7311C11.5227 62.1945 8.31539 55.5882 7.17125 47.7806C6.75861 44.8903 6.8899 39.1661 7.4526 36.4259C8.95311 29.1252 12.3105 22.8003 17.3935 17.7517C23.2267 11.9711 30.5042 8.42397 38.7007 7.37295C40.3138 7.16651 46.2595 7.26035 48.0226 7.5231Z" fill="#EDEDED"/>
<path d="M42.8271 19.6097C41.2703 20.0602 40.145 20.5857 38.6632 21.5616C35.8497 23.4009 32.8675 26.4976 31.7421 28.7686C31.1607 29.8946 30.8793 30.2325 29.9978 30.8143C28.2909 31.9404 27.2593 32.8788 25.7213 34.6993C19.044 42.6569 17.4685 51.0275 21.1635 58.8163C23.9207 64.6344 29.7914 69.1387 35.8873 70.1334C37.5753 70.3962 41.5704 70.246 43.146 69.8519C46.297 69.0636 49.917 67.5247 52.2991 65.9481C53.8371 64.9534 56.3129 62.4948 57.307 61.0121C59.0701 58.3846 61.1146 53.3923 61.1146 51.6656C61.1146 51.234 61.2084 50.502 61.3209 50.0516C61.4522 49.451 61.4147 48.3249 61.1146 45.5848C60.6269 40.9866 60.1955 38.7156 59.3327 36.2758C58.9388 35.2248 58.0948 32.8037 57.4383 30.8894C56.7631 28.975 55.9003 26.7604 55.4877 25.9721C53.7433 22.4813 51.3237 20.3605 48.2289 19.5534C46.7472 19.1593 44.2526 19.1968 42.8271 19.6097ZM47.3286 25.9909C48.8292 26.6665 49.6919 28.0929 51.1549 32.3345C51.7551 34.0612 52.5992 36.3884 53.0118 37.477C54.0809 40.3109 54.306 41.4558 54.925 47.4991C55.0375 48.5314 55.2251 49.8451 55.3376 50.4082C55.5439 51.4216 55.5252 51.4967 54.7562 53.2609C53.2932 56.6016 51.5863 58.7412 48.9417 60.5242C46.7847 61.9881 43.7837 63.2455 41.2516 63.7523C39.6198 64.0713 36.3749 63.8836 34.9494 63.3769C31.8546 62.2884 28.7598 59.6421 27.2781 56.8081C24.1833 50.8774 25.44 44.7214 31.0856 38.2277C32.0985 37.0641 33.9178 35.7127 35.1933 35.2248C36.5062 34.6805 37.3878 33.0852 37.1814 31.565C37.0689 30.7767 37.0689 30.7767 38.7382 29.2002C42.0206 26.0847 45.0591 24.9586 47.3286 25.9909Z" fill="#EDEDED"/>
<path d="M39.7323 38.6218C34.5743 40.4235 30.5605 47.2364 31.4795 52.604C32.1547 56.6579 35.1558 59.6421 38.832 59.9236C40.5576 60.055 41.7768 59.7922 43.6712 58.8913C45.528 58.028 47.8351 55.7571 48.6979 53.9741C49.8983 51.4967 50.1046 49.6574 49.5044 47.105C49.3168 46.298 49.0542 45.1343 48.9229 44.5338C48.4165 42.0376 46.6159 39.5977 44.6465 38.7344C43.296 38.1338 41.2703 38.0775 39.7323 38.6218Z" fill="#EDEDED"/>
</svg>
