<svg width="85" height="84" viewBox="0 0 85 84" fill="none" xmlns="http://www.w3.org/2000/svg">
<path d="M37.1563 0.57485C34.6328 0.929613 30.2586 2.01257 27.9968 2.8528C22.5197 4.86934 17.0614 8.39829 12.8554 12.6181C4.89223 20.5909 0.518066 31.1031 0.518066 42.3061C0.518066 58.3264 9.7711 73.021 24.1647 79.8549C30.1091 82.6743 35.9974 84 42.4838 84C57.3074 84 70.785 76.4006 78.7109 63.5918C81.4774 59.1106 83.5711 53.061 84.3749 47.2541C84.73 44.6401 84.7674 39.5987 84.4683 37.2647C83.6458 31.1778 81.7952 25.5763 79.0474 21.0017C72.5796 10.1534 62.5414 3.20756 49.8676 0.817582C47.2132 0.313447 40.0351 0.182745 37.1563 0.57485ZM47.8487 6.92323C59.0832 8.62235 68.411 15.0454 74.0376 24.9601C75.8695 28.1903 77.5519 33.3623 78.094 37.4515C78.4118 39.7667 78.3557 44.6587 78.0005 47.0487C77.0472 53.4158 74.4115 59.4467 70.5233 64.2453C64.8781 71.2099 57.27 75.6351 48.26 77.2408C45.1196 77.801 40.0351 77.801 36.7825 77.2595C28.9501 75.9525 22.1085 72.3862 16.7623 66.822C11.4722 61.3139 8.27566 54.7414 7.13539 46.974C6.72414 44.0986 6.85499 38.4037 7.41578 35.6776C8.91122 28.4143 12.2573 22.122 17.3231 17.0993C23.1366 11.3484 30.3895 7.81947 38.5583 6.77385C40.1659 6.56847 46.0916 6.66182 47.8487 6.92323Z" fill="#EDEDED"/>
<path d="M28.7445 13.8504C27.2677 14.2425 25.9032 15.1201 24.2769 16.7259C19.2485 21.6739 16.9679 29.7027 18.4447 37.2647C18.9494 39.8414 19.9401 42.9783 20.8374 44.8641L21.5103 46.2271L21.0243 47.3101C20.1831 49.1586 19.9027 50.7457 19.9027 53.6025C19.884 56.5526 20.1457 57.9343 21.1738 60.1562C22.3328 62.6956 24.6694 65.5897 26.4639 66.7473C28.3706 67.961 30.4082 67.849 31.7541 66.4486C32.67 65.4963 32.9317 64.9362 33.6234 62.4342C33.9411 61.2765 34.2589 60.1749 34.2963 59.9882C34.4272 59.5774 34.5954 59.5774 35.0253 60.0629C35.6796 60.7911 38.1658 62.7703 39.9603 64.0026C43.2316 66.2619 46.858 67.8116 50.1667 68.3718C52.8398 68.8199 57.1765 68.6519 59.6814 68.017C63.8499 66.9154 67.3082 64.5628 68.598 61.9487C69.1214 60.9031 69.1961 60.5297 69.1961 59.4094C69.1588 56.2165 67.5885 54.2746 61.775 50.1855L60.2983 49.1586L60.4104 48.3931C60.6534 46.862 59.7936 43.7998 58.3168 40.8124C57.4196 39.0012 55.4755 36.9847 53.8866 36.2378C51.7556 35.2295 48.7647 35.3789 45.8299 36.6299L44.3158 37.2834L42.5586 35.5283C39.6986 32.6528 39.2687 31.7379 37.3807 24.568C35.6983 18.1823 35.1749 16.8379 33.7729 15.3255C32.4457 13.8878 30.6138 13.3463 28.7445 13.8504ZM30.1091 21.9913C30.3708 22.8502 30.9877 25.0534 31.455 26.9019C32.4831 30.9164 32.8943 32.242 33.7168 34.0532C34.6702 36.1258 35.9226 37.8809 37.7545 39.7107L39.4182 41.3538L38.7452 42.2127C38.3901 42.6982 37.7919 43.7251 37.418 44.5094C37.0255 45.2936 36.7077 45.9844 36.6703 46.0031C36.6516 46.0404 36.1656 45.7417 35.6235 45.3122C34.3711 44.3787 31.8101 43.165 30.2212 42.7542C29.4174 42.5488 28.5576 42.4741 27.5855 42.5302L26.1462 42.6235L25.8471 41.8953C24.819 39.3186 24.146 34.8934 24.3329 31.9993C24.5386 28.6758 25.2489 26.2858 26.763 23.7651C27.5294 22.4954 29.1931 20.4602 29.4922 20.4602C29.567 20.4602 29.8474 21.1511 30.1091 21.9913ZM51.9238 42.6235C52.8024 43.6131 54.0922 46.6006 53.6623 46.6006C53.5688 46.6006 52.1107 46.3205 50.4284 45.9657C48.7273 45.611 46.5963 45.2749 45.6617 45.2002L43.998 45.0508L44.727 44.416C46.1477 43.1837 49.0077 41.9513 50.4471 41.9327C51.2322 41.9327 51.4004 42.0073 51.9238 42.6235ZM29.3053 48.6731C30.3147 48.8972 32.2962 49.7748 32.2962 49.9802C32.2962 50.0548 31.8662 50.8204 31.3428 51.6793C30.2025 53.5465 29.0623 55.8991 28.3706 57.7849C27.8659 59.1666 27.8659 59.1666 27.5668 58.7185C26.4266 56.982 25.9779 54.6854 26.2957 52.2021C26.5574 50.1295 26.95 49.1026 27.6042 48.7478C28.1837 48.4304 28.2398 48.4304 29.3053 48.6731ZM51.6434 52.6689C52.3724 52.8183 53.3445 52.9676 53.8305 53.0423C54.5221 53.1357 55.2325 53.5091 57.1952 54.8161C59.9618 56.6646 62.3545 58.4758 62.6536 58.9612C63.0835 59.6521 60.8591 61.1272 58.3729 61.8367C56.6905 62.3035 52.5407 62.3968 50.634 62.0234C47.2879 61.3512 42.7829 58.9612 38.8948 55.8057C37.9414 55.0402 37.1563 54.3867 37.1563 54.3493C37.1563 54.2373 38.334 52.3888 38.3901 52.3888C38.4275 52.3888 38.8387 52.7996 39.3247 53.3224C39.7921 53.8265 40.8389 54.6668 41.6427 55.1709C43.9232 56.6273 49.1199 59.428 50.0171 59.6708C52.5033 60.3243 54.5221 58.0463 53.5314 55.675C53.1762 54.8161 52.2229 54.1066 49.961 52.9676C48.8769 52.4448 47.9983 51.978 47.9983 51.922C47.9983 51.8847 48.5217 51.978 49.1759 52.1274C49.8115 52.2954 50.9331 52.5195 51.6434 52.6689Z" fill="#EDEDED"/>
</svg>
