<svg width="85" height="86" viewBox="0 0 85 86" fill="none" xmlns="http://www.w3.org/2000/svg">
<path d="M38.6057 0.997809C38.3432 1.03535 37.4241 1.16672 36.5425 1.27933C30.9344 2.01129 23.9945 4.60128 19.1929 7.77309C14.335 11.0012 9.98351 15.3366 6.85119 20.1225C5.18188 22.6937 3.11868 26.9916 2.14334 29.957C-1.70171 41.7433 -0.351254 53.905 6.04467 64.7717C9.27077 70.2333 14.6351 75.6197 20.2432 78.9979C32.5099 86.4113 47.7964 87.1058 60.6632 80.8372C65.99 78.2285 70.8479 74.4748 74.4679 70.1582C85.3654 57.1144 87.6161 39.3598 80.2449 24.4391C77.8441 19.5782 75.5558 16.4439 71.5607 12.5777C65.5024 6.74084 58.0186 2.96846 49.4844 1.44824C47.6651 1.12919 46.2396 1.01658 43.1073 0.979041C40.894 0.941505 38.8683 0.941505 38.6057 0.997809ZM48.4528 7.69801C56.1242 9.16192 62.5389 12.4839 67.7719 17.7202C70.7542 20.7043 72.8174 23.6509 74.7305 27.6297C80.0198 38.7029 79.157 51.8593 72.4422 62.2193C67.9407 69.1822 61.3009 74.3247 53.4983 76.8772C44.3264 79.8988 34.6106 79.2044 26.0015 74.9253C17.6736 70.7775 11.1652 63.2891 8.22041 54.4305C4.76924 44.0142 6.23223 32.7534 12.2343 23.5946C15.4229 18.7524 19.418 14.9425 24.2571 12.1648C28.8524 9.53728 32.8663 8.20475 38.6995 7.37896C39.9937 7.19128 47.0086 7.43526 48.4528 7.69801Z" fill="#EDEDED"/>
<path d="M57.0808 18.2832C53.9672 18.9776 50.7974 20.8169 47.8151 23.6884C45.3205 26.0907 43.5574 28.3617 42.0757 31.1206L41.2691 32.6408L40.6502 31.7399C39.4498 29.9382 37.5554 27.8549 36.0736 26.6725C31.1407 22.6937 25.8889 22.1119 21.4999 25.0209C19.3429 26.4661 17.5798 28.8121 16.6233 31.4772C16.2481 32.5469 16.1919 33.0537 16.1919 35.5123C16.1919 38.2524 16.2106 38.3651 16.8108 39.829C17.5423 41.6495 18.8365 43.4137 20.2245 44.4647C22.8504 46.4353 27.8208 48.0869 32.3786 48.481L33.9166 48.6124L33.2602 49.3819C28.6461 54.7308 26.189 62.7073 27.5207 67.9436C27.9896 69.7453 28.4773 70.7025 29.4339 71.6596C31.8534 74.0807 35.6797 73.8367 43.201 70.7963C52.4104 67.0802 58.6188 62.5383 60.9446 57.8463C62.5389 54.6182 62.6139 51.3526 61.1884 48.5186C60.3069 46.7732 57.8873 44.5585 55.8241 43.6013C55.4302 43.4324 55.1113 43.2448 55.1113 43.1884C55.1113 43.1509 55.674 42.738 56.3868 42.3064C63.4767 37.7457 68.2971 30.0508 67.3217 24.8333C66.7403 21.6615 64.4895 19.2404 61.3947 18.4334C60.3631 18.1706 57.9623 18.0768 57.0808 18.2832ZM60.4944 24.9834C61.3009 25.6778 61.2259 26.9728 60.2881 28.981C59.5941 30.4637 59.2377 30.7827 59.2377 29.9382C59.2377 29.3939 58.1311 28.3617 57.3058 28.1364C55.6365 27.6672 54.1735 28.5118 49.8596 32.4719C48.3215 33.8983 47.0461 35.0056 47.0461 34.9493C47.0461 34.7428 48.4153 32.7159 49.4844 31.2895C50.7599 29.6379 53.2732 27.1793 54.755 26.1658C57.0995 24.5705 59.4441 24.0825 60.4944 24.9834ZM29.4151 29.957C31.347 30.6889 34.4043 33.3352 36.0736 35.7C37.0302 37.0701 38.1181 38.9844 38.0055 39.097C37.9117 39.1721 35.2483 37.3516 32.8288 35.5498C32.1723 35.0806 31.347 34.5927 30.9906 34.4988C29.5652 34.1047 27.8958 35.1932 27.6333 36.6759C27.4269 37.9522 27.9709 38.8906 29.8653 40.4858C30.7656 41.2366 31.4596 41.8747 31.422 41.9122C31.2907 42.0436 29.3401 41.6119 27.8208 41.124C23.7132 39.7914 22.4753 38.4777 22.4753 35.3997C22.4753 33.1475 23.4693 31.2707 25.27 30.1446C25.9639 29.6942 26.3203 29.6004 27.2956 29.6004C27.9896 29.6004 28.8524 29.7505 29.4151 29.957ZM51.2475 48.5561C53.4795 49.457 54.136 49.8511 54.98 50.7895C56.6119 52.61 55.7115 55.5003 52.6543 58.2029C49.2969 61.1683 41.3254 65.2034 36.2237 66.4984C33.7666 67.1178 33.7853 67.1178 33.6165 66.0667C32.9976 61.9002 35.7173 55.444 39.6561 51.7467C40.7627 50.6957 41.9819 49.7573 41.9819 49.945C41.9819 50.0013 41.3817 51.2963 40.6502 52.8165C38.9809 56.3449 38.7183 57.1519 38.8683 58.278C39.0746 59.892 40.125 60.8304 41.6818 60.8304C43.4074 60.8304 44.3264 59.8733 45.5831 56.8516C47.0649 53.2857 47.2712 52.7602 47.9839 50.996C48.9405 48.6124 49.2969 47.8054 49.3531 47.8054C49.3906 47.8054 50.2347 48.1432 51.2475 48.5561Z" fill="#EDEDED"/>
</svg>
