<svg width="85" height="85" viewBox="0 0 85 85" fill="none" xmlns="http://www.w3.org/2000/svg">
<path d="M38.7781 0.603148C33.0207 1.29401 28.7775 2.52635 23.9173 4.89767C14.6644 9.39758 7.14989 17.5012 3.35525 27.0798C0.270941 34.866 -0.383307 44.1272 1.57944 52.3055C4.08427 62.7243 10.5333 71.8175 19.5245 77.6058C33.245 86.4189 51.0032 86.5123 64.8172 77.8299C67.5089 76.1307 69.3034 74.7303 71.6587 72.471C75.4347 68.8114 78.0703 65.2264 80.2761 60.7078C82.3697 56.4133 83.6969 52.0441 84.295 47.4881C84.6689 44.6313 84.6502 39.7953 84.2764 36.8639C82.5192 23.1401 73.7523 10.9287 61.3964 4.89767C57.2466 2.86244 53.994 1.81682 49.5265 1.01393C47.545 0.677836 40.4978 0.397758 38.7781 0.603148ZM47.3768 7.10095C51.2088 7.62376 54.3492 8.55735 57.9756 10.2938C62.0132 12.2357 65.0415 14.3456 68.0323 17.3891C72.1073 21.4783 75.1169 26.557 76.7992 32.1399C77.9208 35.8556 78.1264 37.4053 78.1264 42.4094C78.1077 46.5359 78.0704 47.0773 77.603 49.2433C76.5002 54.4527 74.0701 59.8302 70.9858 63.8447C69.7521 65.4691 66.6117 68.662 64.948 70.0064C53.994 78.8568 38.6286 80.4439 26.067 74.0208C15.6551 68.718 8.77616 59.0273 7.07512 47.3574C6.64518 44.3699 6.79473 38.7684 7.3742 35.8742C9.67342 24.3911 17.001 15.0738 27.6559 10.0884C30.7215 8.66938 34.8152 7.47438 38.2173 7.04493C40.1801 6.78353 45.2645 6.82087 47.3768 7.10095Z" fill="#EDEDED"/>
<path d="M51.7696 18.9762C47.9189 19.499 44.7037 20.9368 37.7687 25.2126C30.5906 29.6378 27.039 31.4677 20.9265 33.895C16.8141 35.5195 15.5243 36.2477 14.0101 37.8535C12.0848 39.8887 11.2997 42.0173 11.2997 45.1168C11.2997 47.2827 11.7483 49.2806 12.7577 51.6333C13.6924 53.7619 15.786 57.3655 17.487 59.7368C18.5712 61.2493 18.8142 61.7161 18.8703 62.4256C19.0198 64.2928 21.7863 67.8591 23.8052 68.8114C25.2632 69.4835 27.525 69.5582 30.0672 69.0354L31.9178 68.6433L34.2731 69.0914C37.7313 69.7636 40.0305 70.0064 43.0774 70.025C50.162 70.0624 56.3493 67.6537 63.1722 62.1642C67.8641 58.3925 70.3502 54.8822 72.0326 49.6354C73.285 45.7143 73.6028 43.8284 73.6215 40.1688C73.6401 38.1895 73.5467 36.5651 73.3971 35.8742C72.0886 29.8619 68.6492 25.2126 62.9666 21.777C61.1347 20.6567 60.0505 20.1899 58.9663 20.0032C58.499 19.9285 58.0317 19.7978 57.9195 19.7044C57.2279 19.1443 53.6389 18.7148 51.7696 18.9762ZM56.6297 25.3246C56.9475 25.6047 57.5643 26.0342 58.0317 26.2582C59.8262 27.1545 62.1067 28.7976 63.4526 30.1607C66.4247 33.1668 67.8641 37.6294 67.2659 42.0173L67.1351 42.8948L66.7425 42.5401C66.0883 41.9426 65.5835 41.7559 64.6302 41.7559C63.3778 41.7559 62.6488 42.26 60.5926 44.482C58.4055 46.8719 55.1343 49.8781 52.8725 51.5773C48.704 54.7141 45.1523 56.1705 39.8436 56.9547C37.6004 57.2908 33.0581 57.3468 31.0206 57.0668C28.1419 56.656 27.3194 56.656 26.6278 57.0108C26.2726 57.1975 25.7679 57.6643 25.5249 58.0564L25.0576 58.7659L24.1603 57.8697C22.291 56.0585 19.0759 50.7183 18.1412 47.8802C17.6178 46.3305 17.487 44.2766 17.8609 43.3056C18.3282 42.0359 19.618 41.1584 22.7771 39.9447C28.6279 37.6854 34.217 34.922 38.6285 32.1212C39.3015 31.6731 41.4885 30.3474 43.4513 29.1524C49.9564 25.2313 51.8257 24.4844 54.7604 24.7085C55.8633 24.7832 56.1624 24.8765 56.6297 25.3246ZM65.1536 49.9715C63.6582 53.4818 60.2187 56.9734 55.1904 60.0916C50.9097 62.743 46.4421 63.9567 41.8998 63.6953C39.4136 63.5459 38.0117 63.2658 39.6567 63.2471C42.4419 63.1911 47.8815 61.7721 50.8162 60.297C52.7229 59.3447 54.91 58.0004 56.5736 56.7493C58.5364 55.2556 63.5834 50.737 64.6676 49.486C65.1536 48.9259 65.5836 48.4964 65.6396 48.5337C65.677 48.5898 65.4714 49.2246 65.1536 49.9715Z" fill="#EDEDED"/>
<path d="M51.0219 28.3308C48.8161 28.9657 45.9748 30.254 41.3016 32.7934C38.8342 34.1191 36.0116 35.5568 35.0395 35.9489C34.0675 36.3597 32.1421 37.1626 30.7776 37.7414C29.413 38.3016 27.768 39.1045 27.1138 39.5152C26.2726 40.0567 25.5436 40.3368 24.5342 40.5235C21.2069 41.1584 19.7301 42.7268 19.7114 45.6956C19.7114 47.3201 20.1975 48.7018 21.4125 50.4569C23.0575 52.8283 24.4781 53.8552 27.469 54.8448C29.0018 55.349 30.6093 55.3863 37.5631 55.0689C42.4045 54.8448 43.3952 54.6208 47.1525 53.0336C52.2182 50.8677 56.1437 48.3844 57.2653 46.6479C57.6578 46.013 58.256 45.4902 59.2093 44.8741C60.9291 43.7911 62.3871 42.26 63.0226 40.8783C63.9012 38.9738 63.8077 36.3597 62.7983 34.2311C61.7328 31.9718 59.3028 29.7499 57.2279 29.1524C56.6858 29.003 55.8446 28.6669 55.3399 28.4055C54.1996 27.8267 52.8911 27.808 51.0219 28.3308ZM53.4519 34.3618C53.8258 34.6232 54.4426 34.922 54.8165 35.0527C56.2185 35.5008 57.284 36.7145 57.284 37.8908C57.284 38.4696 56.5549 39.1231 54.667 40.2621L53.2837 41.1023H51.3023C48.5357 41.1023 47.7506 40.6542 46.4795 38.3576L45.9 37.2933L47.3955 36.4344C49.2461 35.3701 52.2182 33.9137 52.536 33.9137C52.6668 33.9137 53.0781 34.1191 53.4519 34.3618Z" fill="#EDEDED"/>
</svg>
