<svg width="85" height="85" viewBox="0 0 85 85" fill="none" xmlns="http://www.w3.org/2000/svg">
<path d="M38.7781 0.603148C33.0207 1.29401 28.7775 2.52635 23.9173 4.89767C14.6644 9.39758 7.14989 17.5012 3.35525 27.0798C0.270941 34.866 -0.383307 44.1272 1.57944 52.3055C4.08427 62.7243 10.5333 71.8175 19.5245 77.6058C33.245 86.4189 51.0032 86.5123 64.8172 77.8299C67.5089 76.1307 69.3034 74.7303 71.6587 72.471C75.4347 68.8114 78.0703 65.2264 80.2761 60.7078C82.3697 56.4133 83.6969 52.0441 84.295 47.4881C84.6689 44.6313 84.6502 39.7953 84.2764 36.8639C82.5192 23.1401 73.7523 10.9287 61.3964 4.89767C57.2466 2.86244 53.994 1.81682 49.5265 1.01393C47.545 0.677836 40.4978 0.397758 38.7781 0.603148ZM47.3768 7.10095C51.2088 7.62376 54.3492 8.55735 57.9756 10.2938C62.0132 12.2357 65.0415 14.3456 68.0323 17.3891C72.1073 21.4783 75.1169 26.557 76.7992 32.1399C77.9208 35.8556 78.1264 37.4053 78.1264 42.4094C78.1077 46.5359 78.0704 47.0773 77.603 49.2433C76.5002 54.4527 74.0701 59.8302 70.9858 63.8447C69.7521 65.4691 66.6117 68.662 64.948 70.0064C53.994 78.8568 38.6286 80.4439 26.067 74.0208C15.6551 68.718 8.77616 59.0273 7.07512 47.3574C6.64518 44.3699 6.79473 38.7684 7.3742 35.8742C9.67342 24.3911 17.001 15.0738 27.6559 10.0884C30.7215 8.66938 34.8152 7.47438 38.2173 7.04493C40.1801 6.78353 45.2645 6.82087 47.3768 7.10095Z" fill="#EDEDED"/>
<path d="M46.8908 17.8372C45.2832 18.4347 43.9747 19.387 41.2642 22.0011C38.3481 24.8018 36.9275 25.9782 33.4506 28.4989C32.1234 29.4511 30.2916 30.9822 29.3943 31.8971C28.0297 33.2602 27.6185 33.839 26.9269 35.2581C25.9361 37.3306 25.6371 38.675 25.7305 40.6542L25.7866 42.1293L24.0108 42.7641C21.076 43.7724 20.347 44.2392 19.861 45.4342C19.7301 45.7516 19.2441 46.2931 18.7955 46.6292C17.0571 47.9549 16.1785 50.569 16.5524 53.3137C17.3001 58.8406 21.0947 64.106 26.1604 66.6454C28.927 68.0085 33.3011 69.0167 36.5723 69.0167C38.236 69.0167 41.1708 68.5873 43.0774 68.0645C49.6199 66.3093 54.4987 60.6891 54.4987 54.9195C54.4987 52.1001 53.6202 50.0462 51.6387 48.179C51.1153 47.6935 50.7789 47.2454 50.9097 47.208C51.0219 47.1707 51.564 46.8346 52.106 46.4798C56.0315 43.8098 58.7233 40.5982 60.4991 36.4904C62.9292 30.8515 62.4619 25.6794 59.2093 22.4305C57.583 20.8061 55.3773 19.5364 54.1809 19.5364C53.9006 19.5364 53.4145 19.2936 53.0594 18.9762C51.9004 17.9679 50.9658 17.6132 49.3395 17.5385C48.2179 17.5011 47.6011 17.5758 46.8908 17.8372ZM49.9003 23.6442C50.2181 23.8496 50.6106 24.0176 50.7789 24.0176C50.9658 24.0176 51.5266 24.3724 52.0313 24.8018C52.536 25.25 53.4145 25.9221 53.9753 26.2956C55.3212 27.2105 55.6764 27.976 55.6577 29.8246C55.639 31.561 55.2464 32.9801 54.1809 35.034C51.5826 40.0941 46.1617 43.623 40.5352 43.9405C37.6752 44.1085 35.1891 43.567 33.5815 42.4654C31.9365 41.3264 31.6374 40.0007 32.6095 38.0588C33.3011 36.7145 34.5722 35.4821 37.3948 33.4469C39.3202 32.0652 39.3763 32.0278 38.965 32.7C38.1051 34.1004 38.6099 35.9489 40.0305 36.6211C41.2081 37.1813 42.4606 37.0692 44.2738 36.1917C48.3862 34.2311 50.162 32.2332 49.6199 30.198C49.3956 29.3204 48.3862 28.3868 47.5076 28.2188C46.6478 28.0507 45.5262 28.3868 44.6476 29.059C43.1896 30.1793 41.4512 31.281 40.9091 31.4117C40.61 31.4677 40.18 31.6544 39.9557 31.7851C39.1332 32.3079 39.5445 31.8785 40.7969 30.9262C41.4885 30.4034 43.5261 28.4615 45.3206 26.613C47.4142 24.4657 48.7226 23.2707 48.9657 23.2707C49.1713 23.2707 49.6012 23.4388 49.9003 23.6442ZM29.9551 47.7122C31.0019 48.4404 32.8712 49.2433 34.5161 49.6914C36.4789 50.2142 37.1705 50.6437 35.7125 50.4196C35.1891 50.3449 34.3292 50.0835 33.7684 49.8221C31.544 48.8138 29.4691 50.1208 29.6747 52.4361C29.8429 54.3033 31.4879 55.4236 35.2825 56.2265C38.7781 56.9734 40.0118 56.7867 40.9838 55.3863C41.5259 54.5834 41.5446 53.2017 41.0212 52.5295C40.8156 52.2681 40.6474 52.0067 40.6474 51.9507C40.6474 51.8947 41.7876 51.8386 43.1896 51.8386C46.0496 51.8386 46.6104 52.0067 47.5637 53.071C48.0684 53.6498 48.1245 53.8552 48.1245 54.9008C48.1245 58.1497 44.9093 61.1932 40.367 62.2389C38.1986 62.7243 34.3666 62.687 32.2356 62.1455C28.9457 61.3053 26.31 59.5314 24.4594 56.9547C23.4313 55.517 22.5901 53.5938 22.4219 52.3054L22.291 51.3719L23.2444 51.0358C24.1977 50.6997 24.7585 50.1208 25.0389 49.2246C25.2632 48.4964 25.4501 48.3283 26.6838 47.9362C27.6933 47.6001 28.2167 47.5068 29.2074 47.3761C29.3569 47.3761 29.6934 47.5068 29.9551 47.7122Z" fill="#EDEDED"/>
</svg>
