<svg width="85" height="84" viewBox="0 0 85 84" fill="none" xmlns="http://www.w3.org/2000/svg">
<path d="M38.0146 0.103721C36.5752 0.234423 32.9488 0.925281 31.1917 1.39208C18.275 4.86504 7.63878 14.369 2.77865 26.7671C1.75055 29.4372 0.628983 33.8624 0.255127 36.9433C-0.174808 40.3229 -0.043958 45.9618 0.516826 49.0799C2.74127 61.1419 9.45198 71.0007 19.8826 77.5545C26.9111 81.9797 36.6126 84.3324 44.8187 83.6415C50.7817 83.1187 55.3989 81.8864 60.4459 79.4217C69.0259 75.2579 75.9796 68.2746 79.9986 59.8162C84.8213 49.6588 85.4382 38.4557 81.7557 27.7754C78.4845 18.3274 71.2504 9.85042 62.2217 4.93973C57.9785 2.64309 52.6136 0.943953 47.3797 0.253095C45.3795 -0.00831041 40.1269 -0.0829978 38.0146 0.103721ZM47.2488 6.62019C62.3713 8.82347 74.1664 20.0266 77.2134 35.0761C77.5872 36.9806 77.6433 37.7275 77.6433 41.7979C77.6246 46.0364 77.5872 46.5406 77.1386 48.7252C76.017 53.9533 73.5683 59.3308 70.5026 63.3266C69.2315 64.9883 66.6893 67.6024 64.82 69.1522C58.1841 74.6977 48.8564 77.8346 40.3512 77.3864C32.4254 76.957 25.0979 74.1749 19.3218 69.4136C17.8637 68.2186 15.0224 65.3618 13.8635 63.924C10.667 59.9656 8.12479 54.4574 6.94715 48.8932C6.47983 46.746 6.44244 46.2045 6.42375 42.078C6.42375 38.1569 6.47983 37.3354 6.83499 35.5242C8.49865 27.4019 12.3307 20.6241 18.2937 15.3399C23.4903 10.7093 30.3692 7.55378 37.2669 6.60152C39.7156 6.24675 44.8561 6.26543 47.2488 6.62019Z" fill="#EDEDED"/>
<path d="M32.5376 11.9417C31.173 12.6325 30.0141 14.8171 29.0421 18.5888C28.2757 21.539 28.4813 22.8647 29.8085 23.7049L30.4066 24.0597L29.9019 24.9746C29.6402 25.4787 29.3972 25.8708 29.3598 25.8335C29.3038 25.7962 28.7991 24.6758 28.2009 23.3501C26.3316 19.1116 25.0044 17.5432 23.0417 17.2445C22.2379 17.1138 21.135 17.4498 20.4808 18.0473C19.49 18.9436 19.0227 20.9602 19.3966 22.7526C19.9948 25.6094 21.7519 28.6529 24.2754 31.1923C26.0325 32.9661 26.6868 33.2649 27.9766 32.8728C28.3504 32.7607 28.6682 32.6861 28.6869 32.7047C28.6869 32.7234 28.7617 32.9475 28.8177 33.2089L28.9299 33.6757H26.9298C24.481 33.6757 23.3781 33.9371 21.1724 35.0014C17.3965 36.7939 13.9383 41.2751 12.6485 46.0364C12.1438 47.9783 12.1064 51.4139 12.5737 53.2811C13.6953 57.6316 16.8917 61.6461 20.7798 63.5506C24.8736 65.5485 30.4814 65.4925 34.7434 63.4012L36.0145 62.7851L36.7809 63.9427C38.295 66.2207 40.912 68.0879 43.9963 69.0588C45.8469 69.6376 49.2677 69.787 51.3986 69.3575C55.2494 68.5733 58.4084 66.8929 61.1002 64.2041C66.409 58.9013 67.138 52.2915 63.0256 46.8393C62.0722 45.5696 60.2216 43.9265 58.8945 43.1796C58.4084 42.8996 57.9785 42.6381 57.9411 42.6195C57.9037 42.5821 58.315 42.022 58.8384 41.3871C60.0721 39.8934 61.175 37.6528 61.6797 35.6362C62.0161 34.3105 62.0722 33.6757 61.9975 31.7151C61.9227 29.6612 61.8292 29.1571 61.2497 27.458C60.1095 24.153 57.9598 21.0722 55.3802 19.0183C54.6138 18.4021 53.6792 17.8233 53.2866 17.7299C52.1837 17.4312 45.4917 17.0951 43.342 17.2445C41.2485 17.3752 38.6128 17.8606 37.4538 18.3461C37.0613 18.5141 36.7248 18.6262 36.7061 18.6075C36.6874 18.5702 36.7809 17.7859 36.9491 16.871C37.1547 15.5827 37.1734 15.0225 37.0052 14.425C36.3696 12.091 34.4069 10.9894 32.5376 11.9417ZM52.5389 24.1904C53.2866 24.8999 54.4643 26.7671 55.0624 28.1862C55.5484 29.2878 55.5858 29.5679 55.5858 31.9952C55.5858 34.5159 55.5671 34.6466 55.0437 35.6922C54.5016 36.7939 53.4922 37.9142 51.4734 39.7253C50.4453 40.6403 50.221 40.7523 48.763 41.051C46.7441 41.4805 44.8935 42.1714 43.3047 43.1049C42.6317 43.5157 42.0149 43.8518 41.9588 43.8518C41.9027 43.8518 41.7345 43.5904 41.5662 43.2917C41.2858 42.7689 41.3045 42.6942 41.6784 42.19C41.9214 41.8539 42.127 41.2564 42.1644 40.7336C42.3139 39.1278 41.6223 38.3996 39.0427 37.3354C38.1828 36.9806 36.2762 35.02 35.6593 33.8624C33.1919 29.2504 36.3883 24.3771 42.2766 23.7049C43.0243 23.6302 45.5104 23.5929 47.8283 23.6302L52.0155 23.6862L52.5389 24.1904ZM30.0328 40.2295C30.8179 40.5842 32.2198 41.7606 34.1639 43.6651C35.2855 44.7667 36.2388 46.4845 36.6874 48.221C36.9491 49.2293 36.9491 49.2293 36.2388 50.9098C35.8275 51.8434 35.3602 53.3371 35.1733 54.2334C34.8555 55.7831 34.7994 55.8765 34.0143 56.474C32.9489 57.2955 31.173 58.1171 29.8645 58.4158C29.2477 58.5466 28.0327 58.6212 26.8737 58.5839C25.1166 58.5092 24.7801 58.4345 23.6959 57.893C21.4902 56.8287 19.9574 55.1109 19.0414 52.7209C18.4246 51.0778 18.4432 48.5384 19.0788 46.7273C20.2751 43.4224 22.6117 40.9577 25.4904 39.9868C26.5185 39.6507 29.0234 39.7814 30.0328 40.2295ZM52.6698 46.7273C52.8006 46.8767 53.6605 47.4368 54.6138 47.997C58.9692 50.5363 60.2777 53.6172 58.5393 57.2582C57.7355 58.92 55.5858 60.9739 53.6231 61.9262C51.3613 63.0278 49.9967 63.3452 47.8283 63.2145C44.987 63.0651 42.7813 61.9262 41.8466 60.115C41.1737 58.7706 41.1924 58.2665 42.0149 56.5673C42.4261 55.7271 42.856 54.5508 42.9869 53.972C43.3234 52.3102 43.286 52.3475 43.9028 52.8703C44.2019 53.1317 44.5384 53.3745 44.6505 53.4118C44.7814 53.4491 44.7627 53.6919 44.5571 54.1587C43.6785 56.2873 44.8375 58.4158 46.8937 58.4158C47.9592 58.4158 48.819 57.9677 49.6789 56.9781L50.3892 56.1379L51.3613 56.474C53.6979 57.2395 55.6793 56.0445 55.6793 53.8786C55.6793 52.9823 55.0064 51.8434 54.1278 51.2645C53.7913 51.0405 53.6792 50.8538 53.7539 50.5737C53.81 50.3683 53.7165 49.8081 53.5296 49.3413C53.1184 48.2584 52.165 47.5862 51.0435 47.5862C50.1275 47.5862 49.6415 47.7916 48.9125 48.4824L48.4078 48.9492L47.5292 48.5571L46.632 48.1837L47.7909 47.6049C49.8284 46.5779 52.2024 46.1485 52.6698 46.7273Z" fill="#EDEDED"/>
<path d="M41.9214 24.5078C40.6503 25.068 39.996 26.9165 40.6316 28.1861C40.8185 28.5409 41.0802 28.9517 41.2111 29.1197C41.4541 29.3811 41.3606 29.5305 40.4447 30.3147C39.8652 30.8002 39.2857 31.435 39.1362 31.7151C38.5006 32.9475 38.9866 34.7586 40.1082 35.3188C41.5102 36.0283 42.3326 35.8416 44.501 34.3665C45.2674 33.825 45.959 33.3956 46.0338 33.3956C46.1273 33.3956 46.5011 33.657 46.8937 33.9557C48.7816 35.4495 50.5575 35.4495 51.8286 33.9557C52.5389 33.0968 52.5202 31.6965 51.7538 30.5761C51.2678 29.8293 51.2304 29.7172 51.4921 29.3811C52.7071 27.7567 52.5015 26.0762 50.95 24.9186C50.1275 24.3024 48.7443 24.3958 47.3236 25.18L46.1833 25.8148L45.5104 25.292C44.1645 24.2837 43.043 24.0223 41.9214 24.5078Z" fill="#EDEDED"/>
<path d="M25.6213 41.6112C24.6492 42.2087 24.238 43.0303 24.3315 44.1879C24.4062 45.1402 24.3688 45.1962 23.5838 45.9804C22.5743 46.9887 22.4248 48.1837 23.1538 49.36C23.7146 50.2749 24.5371 50.6297 26.1073 50.667C27.2288 50.6857 27.5279 50.7604 27.6775 51.0218C28.1448 51.8434 29.229 52.833 29.8832 53.0197C31.7338 53.5798 33.6218 52.1421 33.6218 50.1816C33.6218 49.8455 33.7713 49.416 33.9396 49.2293C34.1078 49.0426 34.276 48.4638 34.3134 47.9036C34.4443 46.2978 33.5844 45.3082 31.7151 44.8974C30.8366 44.692 30.7244 44.5987 29.9206 43.385C29.4346 42.6755 28.7617 41.8913 28.4065 41.6672C27.6027 41.1257 26.4624 41.1071 25.6213 41.6112Z" fill="#EDEDED"/>
</svg>
