<svg width="86" height="85" viewBox="0 0 86 85" fill="none" xmlns="http://www.w3.org/2000/svg">
<path d="M39.1104 0.490242C37.6662 0.621618 34.0274 1.31604 32.2643 1.78524C19.3037 5.2761 8.63131 14.8291 3.75466 27.2911C2.72306 29.9749 1.59767 34.4229 1.22255 37.5197C0.791151 40.9167 0.922445 46.5846 1.48514 49.7189C3.71714 61.8431 10.4507 71.7526 20.9167 78.3402C27.9691 82.7883 37.7037 85.1531 45.9377 84.4586C51.921 83.9331 56.5538 82.6944 61.6181 80.217C70.2272 76.0318 77.2046 69.0125 81.2372 60.5106C86.0764 50.3007 86.6953 39.0399 83.0003 28.3045C79.718 18.8079 72.4593 10.2872 63.3999 5.35117C59.1422 3.0427 53.7591 1.33481 48.5074 0.640386C46.5004 0.377633 41.2299 0.302561 39.1104 0.490242ZM48.3761 7.0403C63.55 9.25493 75.3852 20.5158 78.4425 35.6429C78.8177 37.5572 78.8739 38.3079 78.8739 42.3994C78.8552 46.6597 78.8177 47.1665 78.3675 49.3623C77.2421 54.6174 74.785 60.0226 71.709 64.039C70.4336 65.7093 67.8827 68.3369 66.0071 69.8946C59.3485 75.4687 49.9891 78.6218 41.455 78.1713C33.5023 77.7397 26.1498 74.9432 20.354 70.1574C18.8911 68.9562 16.0401 66.0847 14.8772 64.6395C11.6698 60.6607 9.11898 55.1241 7.93733 49.5312C7.46842 47.3729 7.43091 46.8286 7.41215 42.6809C7.41215 38.7396 7.46842 37.9138 7.82479 36.0933C9.49411 27.9292 13.3392 21.1164 19.3224 15.805C24.5367 11.1505 31.4391 7.9787 38.3602 7.02153C40.8172 6.66494 45.9753 6.68371 48.3761 7.0403Z" fill="#EDEDED"/>
<path d="M57.5667 19.202C56.3475 19.5586 54.697 20.3281 53.1777 21.2853C52.465 21.7357 51.3958 22.2987 50.8332 22.5427C50.2705 22.8055 49.0888 23.4061 48.2448 23.894C47.382 24.382 44.7186 25.8084 42.3365 27.0471C34.2713 31.2511 27.7253 34.9484 24.2179 37.2757C17.7844 41.5548 14.3333 47.9735 15.665 53.191C16.584 56.7945 19.7914 60.2103 24.2741 62.3686C27.2001 63.7762 31.139 64.8835 34.6089 65.2964C36.7846 65.5404 41.8489 65.5404 43.8933 65.2964C52.2586 64.2829 59.5361 60.1727 63.6625 54.1482C66.6635 49.7564 68.5392 42.831 68.783 35.2675C68.8955 31.2887 68.6142 28.7737 67.7139 26.1274C66.2697 21.8108 63.3812 19.1832 59.8737 19.0143C59.0109 18.9768 58.0919 19.0519 57.5667 19.202ZM60.2676 25.7145C61.1679 26.409 62.2745 29.2992 62.2745 30.9133C62.2745 31.345 62.012 31.6265 60.549 32.6775C57.1165 35.1173 55.2784 37.0317 52.8026 40.729C50.0641 44.8204 50.0266 44.8392 46.2754 43.3378C42.4491 41.7988 40.0107 41.4422 36.447 41.9114C35.1903 42.0803 34.0837 42.2117 33.9712 42.2117C33.8399 42.2117 33.7836 41.6299 33.8024 40.5413L33.8399 38.871L35.3404 38.0264C36.1844 37.5572 38.3789 36.356 40.2358 35.3613C42.0927 34.3666 45.225 32.5837 47.1944 31.4013C49.8391 29.8247 50.9645 29.2617 51.4146 29.2617C52.2399 29.2429 53.159 28.8113 55.4472 27.3849C57.4354 26.1087 58.9922 25.3204 59.4798 25.3204C59.6487 25.3204 60.005 25.4893 60.2676 25.7145ZM58.1481 44.5952C57.8105 45.1958 57.3416 45.8902 57.079 46.153C56.5351 46.6972 56.5914 46.5471 57.7167 44.7829C58.1669 44.0885 58.5795 43.5254 58.6358 43.5254C58.6921 43.5254 58.4858 44.0134 58.1481 44.5952ZM25.0994 48.0298C22.9987 49.4186 22.2672 51.2016 22.9799 53.191C23.13 53.6039 23.2613 53.9605 23.2613 53.998C23.2613 54.242 22.2672 52.8156 22.0421 52.2714C21.2731 50.4509 22.3047 47.5418 24.5367 45.1583L25.0431 44.6328L25.287 46.1905C25.5308 47.7295 25.5121 47.7483 25.0994 48.0298ZM55.3347 53.923C55.3347 54.1106 53.1214 55.6309 51.9023 56.2877C48.6949 58.0144 45.2813 58.8777 40.9861 59.0466C39.448 59.103 38.2101 59.103 38.2664 59.0466C38.3227 58.9903 39.0354 58.7651 39.8607 58.5587C40.686 58.3522 44.4372 57.2074 48.2073 56.025C55.0909 53.8667 55.3347 53.7916 55.3347 53.923Z" fill="#EDEDED"/>
</svg>
