<svg width="85" height="86" viewBox="0 0 85 86" fill="none" xmlns="http://www.w3.org/2000/svg">
<path d="M38.6059 0.997809C38.3433 1.03535 37.4242 1.16672 36.5427 1.27933C30.9345 2.01129 23.9946 4.60128 19.193 7.77309C14.3351 11.0012 9.98363 15.3366 6.85132 20.1225C5.182 22.6937 3.1188 26.9916 2.14347 29.957C-1.70159 41.7433 -0.351131 53.905 6.04479 64.7717C9.27089 70.2333 14.6352 75.6197 20.2434 78.9979C32.51 86.4113 47.7965 87.1058 60.6634 80.8372C65.9902 78.2285 70.8481 74.4748 74.468 70.1582C85.3655 57.1144 87.6163 39.3598 80.245 24.4391C77.8442 19.5782 75.5559 16.4439 71.5608 12.5777C65.5025 6.74084 58.0187 2.96846 49.4846 1.44824C47.6652 1.12919 46.2397 1.01658 43.1074 0.979041C40.8941 0.941505 38.8685 0.941505 38.6059 0.997809ZM48.453 7.69801C56.1243 9.16192 62.539 12.4839 67.772 17.7202C70.7543 20.7043 72.8175 23.6509 74.7306 27.6297C80.0199 38.7029 79.1571 51.8593 72.4424 62.2193C67.9408 69.1822 61.3011 74.3247 53.4984 76.8772C44.3266 79.8988 34.6107 79.2044 26.0016 74.9253C17.6737 70.7775 11.1653 63.2891 8.22053 54.4305C4.76936 44.0142 6.23236 32.7534 12.2344 23.5946C15.423 18.7524 19.4181 14.9425 24.2572 12.1648C28.8525 9.53728 32.8664 8.20475 38.6996 7.37896C39.9938 7.19128 47.0087 7.43526 48.453 7.69801Z" fill="#EDEDED"/>
<path d="M41.3068 14.2856C38.9435 14.8299 36.8052 16.2563 35.6799 18.0392L35.1734 18.8463L34.0293 18.3771C32.5288 17.7577 30.4281 17.6263 29.0026 18.0392C27.6146 18.4334 25.814 19.672 24.8574 20.8732C24.0884 21.8491 24.0509 21.8679 22.8505 21.9993C17.9363 22.4873 14.2413 24.6268 12.5345 28.0051C11.9343 29.1875 11.878 29.4502 11.878 30.8954C11.878 32.2654 11.953 32.6596 12.3844 33.5417C12.6658 34.1047 13.0222 35.2871 13.191 36.1504C13.8662 39.6788 15.6105 42.4002 18.1427 43.9392C20.9561 45.6471 24.97 45.572 27.352 43.789L28.0085 43.2823L28.1398 44.277C28.7775 49.1567 28.9088 52.1971 28.815 59.9108C28.7588 64.2462 28.7963 68.0374 28.8901 68.3752C28.9651 68.713 29.3402 69.2385 29.6966 69.5388C30.0342 69.8579 30.5031 70.4585 30.7282 70.8714C31.1783 71.7722 32.1912 72.4854 33.3541 72.7482C33.823 72.842 35.436 73.0672 36.9553 73.2362C40.0689 73.5927 41.1005 73.4801 42.3384 72.6543C43.4075 71.9599 43.9702 71.0215 44.5141 69.0133C44.7955 68.0374 45.1331 66.855 45.3019 66.3858C45.8083 64.9407 47.065 62.651 47.4214 62.5383C48.0966 62.3319 48.7531 61.6375 49.7659 60.1173C50.3661 59.1789 51.9229 57.3771 53.6485 55.6129L56.5182 52.6476L57.381 52.854C58.8627 53.1918 63.7019 53.3232 64.9586 53.0605C67.8283 52.4599 69.4226 50.9021 70.6793 47.4488C72.6674 42.0061 71.8984 37.3516 68.3347 33.2601C67.7908 32.6408 67.1156 31.6649 66.8342 31.1018C65.1274 27.7236 62.6515 25.5089 59.4254 24.5142C58.2813 24.1764 58.3188 24.2139 58.6377 23.0691C58.844 22.3934 58.844 22.0931 58.5814 21.2298C57.7749 18.4709 53.4046 15.1302 49.7471 14.4921C47.4026 14.0792 42.6947 13.9666 41.3068 14.2856ZM46.6336 20.5166C47.9465 20.6668 49.0907 20.8732 49.2032 20.9858C49.297 21.0797 49.222 21.1547 48.9594 21.1547C48.2091 21.1547 46.7461 22.0368 45.8646 23.0128L45.0205 23.9699L44.4016 23.3694C43.6888 22.7125 42.0945 21.9054 41.4943 21.9054C41.288 21.9054 40.9504 21.7928 40.7628 21.6427C40.4065 21.3799 40.4065 21.3612 40.7441 20.9858C41.4756 20.1788 42.9573 20.0474 46.6336 20.5166ZM32.1349 24.533C32.4538 24.7207 33.4103 25.4526 34.2919 26.1283C35.9987 27.442 36.899 27.8174 38.7747 28.0238L39.9563 28.1552L39.8813 28.9435C39.825 29.3751 39.3374 30.7828 38.7747 32.059C37.9119 34.0484 37.7618 34.5551 37.7618 35.5498V36.6947L36.899 36.6009C35.9425 36.4882 35.2297 36.7698 34.517 37.5393C33.8417 38.2524 33.7104 39.1909 34.0293 40.9363C34.1794 41.7808 34.592 44.7462 34.9484 47.5614C35.6611 53.342 35.98 54.4305 37.1616 55.3689C38.437 56.42 40.444 56.0258 41.3068 54.5619C41.9445 53.4546 41.8882 52.1971 40.9692 46.867C40.4815 44.1269 39.9376 41.199 39.7312 40.3357C39.5249 39.4724 39.3561 38.7029 39.3561 38.6278C39.3561 38.5527 39.8063 38.5152 40.3502 38.5527C41.9257 38.6653 42.751 38.046 44.1577 35.6812C44.3641 35.3434 44.4016 35.3622 44.8142 35.8689C45.2831 36.4507 46.521 37.0888 47.215 37.1076C47.5527 37.1076 47.6277 37.1827 47.5151 37.4267C47.4401 37.6143 47.3088 38.0085 47.215 38.3088C47.14 38.609 46.9337 38.9844 46.7836 39.1533C46.521 39.4348 44.7955 42.7943 44.7955 43.0195C44.7955 43.0758 44.2703 44.3145 43.6326 45.7785C42.601 48.1808 42.4697 48.5937 42.4697 49.7761C42.4509 51.4089 42.8823 52.1221 44.1577 52.61C44.8705 52.8728 45.1518 52.9103 45.8083 52.7414C46.2209 52.61 46.5961 52.5537 46.6336 52.5913C46.6711 52.6288 46.371 53.0229 45.9771 53.4734C44.2328 55.3877 41.6631 59.1601 40.4252 61.5999C40.0126 62.4257 39.3936 63.9459 39.056 64.9782L38.437 66.855L37.3492 66.8175C36.749 66.7987 35.98 66.7236 35.6236 66.6673L35.0046 66.5547L35.1359 64.5465C35.3798 61.2434 35.2672 53.4171 34.9484 50.5455C34.4044 45.6658 33.2978 39.7727 32.6976 38.609C32.36 37.9522 31.7973 37.5393 30.897 37.2953C30.0154 37.0513 29.1339 37.3328 28.3461 38.0835C27.8585 38.5527 27.6709 38.6278 27.5021 38.4589C27.3708 38.3275 26.8456 38.2337 26.3204 38.2337C25.5889 38.2337 25.195 38.3651 24.5386 38.7967C23.6008 39.4161 22.813 39.5099 21.8564 39.097C20.5247 38.534 19.7745 37.1451 19.3055 34.3675C19.118 33.2414 18.7804 31.9651 18.574 31.5522L18.1989 30.8015L18.6303 30.2197C19.4181 29.225 21.1062 28.6244 23.9384 28.3617C26.1891 28.1552 26.5268 28.0614 27.3145 27.5546C27.8209 27.2356 28.6087 26.4473 29.1151 25.7529C29.6028 25.096 30.1467 24.4579 30.3155 24.3453C30.822 24.0638 31.5347 24.1201 32.1349 24.533ZM52.8232 29.1499C53.2733 29.4127 54.5863 29.8631 55.7304 30.1446C56.8933 30.4262 58.15 30.8203 58.5251 30.9892C59.5005 31.4584 60.3633 32.4906 61.3011 34.2548C61.7325 35.0806 62.6328 36.3944 63.2892 37.1451C64.9961 39.0782 65.3149 39.829 65.3149 41.7996C65.3149 42.9257 65.2024 43.789 64.9211 44.7087C64.2646 46.7732 64.152 46.867 62.5015 46.867C61.5449 46.867 61.076 46.7919 61.0385 46.623C60.9822 46.5104 60.9072 46.1538 60.8322 45.8348C60.7571 45.5345 60.4008 44.9714 60.0069 44.6148C59.613 44.2395 59.1441 43.6764 58.9378 43.3198C58.5064 42.5879 57.7561 42.0999 56.612 41.7996C54.6613 41.2929 53.0483 39.8665 53.0483 38.6466C53.0483 37.1264 51.8103 35.7938 50.3661 35.7938C49.7471 35.7938 49.6534 35.7375 49.7659 35.456C50.1223 34.5551 50.0848 33.917 49.5971 32.9223C49.297 32.2842 49.1094 31.5522 49.1094 31.0643C49.1094 30.032 49.5033 28.4743 49.9347 27.8174L50.2536 27.3294L51.1351 27.9863C51.6228 28.3617 52.373 28.8872 52.8232 29.1499ZM51.4915 46.0412C51.9229 46.379 52.3918 46.6793 52.5231 46.7356C52.6731 46.7732 52.4105 47.1298 51.8291 47.6365C51.3227 48.0869 50.1973 49.1192 49.3345 49.945L47.7777 51.4464L48.2279 50.4329C48.4717 49.8699 48.9594 48.6312 49.297 47.7116C49.6346 46.7732 49.991 45.8348 50.066 45.5908C50.2536 45.1028 50.2723 45.1216 51.4915 46.0412Z" fill="#EDEDED"/>
</svg>
