<svg width="85" height="84" viewBox="0 0 85 84" fill="none" xmlns="http://www.w3.org/2000/svg">
<path d="M38.4734 0.0446981C38.2117 0.0820417 37.2958 0.212745 36.4172 0.324776C30.8281 1.05298 23.9117 3.62969 19.1264 6.78523C14.2849 9.99679 9.94821 14.31 6.82651 19.0713C5.16285 21.6293 3.10664 25.9052 2.13462 28.8553C-1.6974 40.5812 -0.351523 52.6806 6.02272 63.4916C9.23788 68.9251 14.584 74.2839 20.1732 77.6448C32.3983 85.0202 47.6329 85.7111 60.4561 79.4747C65.7649 76.8793 70.6063 73.1449 74.214 68.8504C85.0745 55.8735 87.3177 38.2099 79.9714 23.3658C77.5787 18.5298 75.2982 15.4116 71.3167 11.5652C65.2789 5.75828 57.8205 2.00524 49.3152 0.492822C47.502 0.175401 46.0814 0.0633699 42.9597 0.0260262C40.7539 -0.0113174 38.7351 -0.0113174 38.4734 0.0446981ZM48.2871 6.71054C55.9325 8.16695 62.3254 11.4719 67.5407 16.6813C70.5129 19.6501 72.5691 22.5816 74.4757 26.54C79.7471 37.5564 78.8872 50.6454 72.1952 60.9522C67.7089 67.8795 61.0917 72.9956 53.3155 75.5349C44.1747 78.5411 34.4918 77.8502 25.9119 73.5931C17.6123 69.4666 11.1259 62.0165 8.19108 53.2034C4.75161 42.8405 6.20965 31.6374 12.1913 22.5256C15.3691 17.7083 19.3507 13.9179 24.1734 11.1544C28.7532 8.54038 32.7534 7.21468 38.5669 6.39312C39.8567 6.2064 46.8478 6.44914 48.2871 6.71054Z" fill="#EDEDED"/>
<path d="M42.212 24.8782C41.9503 24.9156 41.1278 25.0463 40.3614 25.1583C37.0341 25.6438 31.7814 27.8097 28.5849 29.9943C26.4913 31.432 24.2108 33.766 23.5566 35.1851C22.9023 36.5855 22.8649 38.49 23.4631 39.629C24.08 40.7866 25.2015 41.6455 26.753 42.1497C29.4074 43.0086 35.09 42.5418 39.9314 41.0854C45.5767 39.3676 49.6143 36.7722 51.1471 33.822C51.5397 33.0565 51.6331 32.627 51.6518 31.4694C51.6518 30.2184 51.5958 29.957 51.091 29.1541C50.4181 28.0711 49.2778 27.3056 47.8385 26.9695C47.0908 26.7828 46.7917 26.6147 46.5861 26.2226C46.1748 25.4384 45.2028 24.9529 43.8569 24.8596C43.2214 24.8222 42.4737 24.8222 42.212 24.8782ZM42.212 31.0213C42.212 31.1706 42.5484 31.6188 42.9597 32.0295L43.7074 32.7391L42.0624 33.5046C39.9875 34.4569 37.9874 35.1291 35.8003 35.6145C34.0245 35.988 30.9963 36.3054 30.9963 36.1C30.9963 35.8759 34.6788 33.5606 36.3424 32.7204C38.1743 31.8055 41.0904 30.7599 41.8007 30.7412C42.0437 30.7412 42.212 30.8532 42.212 31.0213Z" fill="#EDEDED"/>
<path d="M59.6897 35.1478C57.9513 35.5772 56.4933 36.1934 50.3059 39.1622C45.801 41.3095 42.8475 43.6995 41.6138 46.1828C41.0717 47.3031 40.9969 47.6205 40.9969 48.9462C40.9969 50.7201 41.3895 51.6163 42.6045 52.6619C45.9131 55.4814 52.9229 54.5104 59.3159 50.328C61.2225 49.0769 64.6807 45.6227 65.6153 44.0355C67.1295 41.4028 67.2416 38.9755 65.9144 37.127C64.9611 35.8199 63.5778 35.1664 61.5964 35.1104C60.7552 35.0731 59.8953 35.0917 59.6897 35.1478ZM58.2878 43.0833C55.8951 45.2305 52.6239 47.0791 50.1564 47.6392C48.0441 48.1247 47.9133 47.9753 49.4087 46.799C50.6424 45.8094 50.7546 45.772 52.0818 45.66C53.3903 45.548 53.5211 45.492 55.1661 44.353C58.3999 42.1124 60.1384 41.4028 58.2878 43.0833Z" fill="#EDEDED"/>
<path d="M22.678 46.3135C22.1733 46.5376 21.4256 47.0791 21.0517 47.5085C18.416 50.44 20.6779 55.3507 26.4353 59.1784C33.4264 63.8277 40.4548 64.1825 42.6045 60.0186C43.1279 58.9917 43.0905 57.2552 42.4924 55.9669C42.0624 55.0333 39.6511 52.4005 39.2398 52.4005C39.1464 52.4005 38.9407 52.0271 38.7725 51.5603C38.2491 50.1973 37.0154 49.3944 32.9403 47.8073C28.1737 45.9401 24.5847 45.4173 22.678 46.3135Z" fill="#EDEDED"/>
</svg>
