<svg width="85" height="85" viewBox="0 0 85 85" fill="none" xmlns="http://www.w3.org/2000/svg">
<path d="M38.614 0.157708C32.837 0.852127 28.5793 2.09082 23.7027 4.47437C14.4183 8.99747 6.87819 17.1428 3.07065 26.7708C-0.0241544 34.5971 -0.680627 43.9061 1.28879 52.1265C3.80215 62.5991 10.2731 71.7392 19.2949 77.5573C33.0621 86.4158 50.8806 86.5097 64.7416 77.7825C67.4425 76.0746 69.2431 74.667 71.6064 72.396C75.3952 68.7175 78.0399 65.114 80.2531 60.5722C82.3538 56.2555 83.6855 51.8638 84.2857 47.2844C84.6609 44.4128 84.6421 39.5519 84.267 36.6053C82.5039 22.8108 73.7072 10.5365 61.3092 4.47437C57.1453 2.42865 53.8817 1.37763 49.3989 0.570606C47.4107 0.232781 40.3396 -0.0487407 38.614 0.157708ZM47.2419 6.689C51.087 7.21451 54.238 8.15291 57.8768 9.89834C61.9282 11.8502 64.9667 13.971 67.9677 17.0302C72.0566 21.1404 75.0764 26.2453 76.7644 31.857C77.8898 35.5918 78.0961 37.1496 78.0961 42.1794C78.0774 46.3272 78.0399 46.8715 77.571 49.0486C76.4643 54.2849 74.026 59.6901 70.9312 63.7252C69.6933 65.358 66.5422 68.5674 64.8729 69.9187C53.8817 78.8147 38.4639 80.41 25.8596 73.9538C15.4123 68.6237 8.51 58.883 6.80317 47.153C6.37177 44.1501 6.52182 38.5197 7.10327 35.6106C9.4103 24.0682 16.7628 14.703 27.4539 9.69189C30.53 8.26552 34.6376 7.06436 38.0513 6.6327C40.0207 6.36994 45.1224 6.40748 47.2419 6.689Z" fill="#EDEDED"/>
<path d="M44.5222 11.0619C42.9279 11.3998 40.5646 12.3006 38.4264 13.3704C36.607 14.2713 32.4431 16.8801 30.3799 18.4003C27.5477 20.4835 25.4282 23.1298 24.7905 25.4383C24.5654 26.2641 24.4154 26.4893 24.1903 26.4142C22.2771 25.8324 19.745 25.945 18.057 26.6958C15.5999 27.7655 14.1369 30.4681 13.9118 34.2968C13.818 36.1173 13.7805 36.1924 13.1616 36.8493C12.2425 37.8252 11.9987 38.8763 11.8674 42.536C11.6798 47.6034 12.1112 51.1693 13.4054 55.0356C15.3373 60.7974 18.6197 64.4759 24.4529 67.385C32.1805 71.2324 39.9081 72.0019 46.0977 69.5433C47.2419 69.0929 47.3169 69.0741 47.9171 69.3744C48.9862 69.8624 49.9053 69.9187 51.9497 69.5808C55.4759 68.999 58.5332 67.7979 61.0278 66.0149C62.6221 64.8888 66.2421 61.0789 67.6863 59.0144C69.8808 55.8989 71.3251 52.6145 72.1128 49.0298C72.5255 47.1154 72.6755 42.3859 72.3942 40.0774C72.0941 37.7502 71.3438 33.7713 70.8374 31.9508C69.8058 28.1409 67.9864 26.3579 65.0417 26.1703L63.635 26.0952L63.091 25.0254C62.7346 24.3685 61.7218 23.1298 60.3526 21.7222C58.8708 20.1832 57.7267 18.7569 56.7139 17.2366C54.9132 14.4777 53.4127 12.9575 51.6121 12.0004C49.3238 10.7992 47.0918 10.4989 44.5222 11.0619ZM48.8737 17.7997C49.5864 18.2314 50.1491 18.9258 51.6496 21.1029C52.6812 22.6231 53.7316 24.087 53.9942 24.3498L54.4631 24.8377L53.1689 24.2747C50.5618 23.0923 49.4364 22.8483 46.6792 22.8483C43.153 22.8483 41.0335 23.4677 38.1638 25.3257C36.2319 26.5832 34.994 27.8031 34.0186 29.4547C34.0186 29.4734 33.1558 29.2295 32.1242 28.8916C30.4362 28.3474 30.2674 28.2347 30.2111 27.7843C30.1736 27.5028 30.2861 27.0148 30.4549 26.6958C30.8863 25.87 32.762 24.0682 34.0561 23.2424C36.0443 21.985 39.9832 19.7516 42.0839 18.7193C45.6101 16.9927 47.2044 16.7674 48.8737 17.7997ZM48.9675 29.4359C50.1304 29.7925 51.8747 30.6558 53.0188 31.4253L53.8441 31.9884L52.3624 33.5273C50.543 35.4042 49.4551 36.6992 48.236 38.4634L47.2981 39.8147L46.5667 38.7449C45.535 37.2434 42.1589 33.9027 40.5271 32.7954L39.1391 31.857L39.8706 31.2376C40.8647 30.3931 43.0029 29.3608 44.2409 29.1544C45.535 28.9292 47.6733 29.0605 48.9675 29.4359ZM25.1094 33.3584C26.8162 33.9027 29.2545 34.691 30.5487 35.1039C34.4875 36.3613 36.5507 37.4874 38.8953 39.6645C42.2152 42.78 45.0099 48.1477 46.1353 53.6092C46.5667 55.7488 46.8292 60.0466 46.5479 60.5534C46.3978 60.8349 46.3228 60.7974 45.9102 60.2343C45.6663 59.8777 43.7344 57.6631 41.615 55.2983C39.0641 52.4643 37.7699 50.8878 37.7887 50.6438C37.8074 50.4186 38.2013 49.255 38.6702 48.0351C39.1579 46.8339 39.5893 45.4263 39.6643 44.9383C39.9457 42.7237 38.1826 40.9783 36.1944 41.5225C35.2003 41.7853 34.0374 43.1178 33.606 44.4504C33.4372 45.0134 33.2496 45.4638 33.1934 45.4638C32.9683 45.4638 30.061 41.3912 28.6168 39.1015C26.9287 36.3989 26.5536 35.9484 25.7283 35.5918C24.903 35.2352 24.4341 35.254 23.4963 35.7232C22.4835 36.1924 21.8082 37.4311 21.977 38.4634C22.2584 40.19 25.9346 46.2709 29.4796 50.8878C30.8676 52.6896 30.9426 52.8209 30.4362 52.7083C28.8606 52.2954 19.5012 50.1746 19.1073 50.1183C18.4133 50.0245 18.3008 49.0673 18.282 43.9061C18.282 39.7771 18.3008 39.4018 18.6197 39.2328C19.2761 38.8575 19.67 37.6 19.67 35.7983C19.67 33.959 19.8951 32.8892 20.364 32.42C20.7579 32.0071 21.3018 32.1197 25.1094 33.3584ZM64.6853 33.5837C66.2984 40.0023 66.5797 45.2011 65.5481 48.9922C65.2855 49.9494 64.9291 50.9817 64.7791 51.282C64.5165 51.7887 64.4602 51.8075 63.9163 51.6198C63.5974 51.5072 62.7909 51.4696 62.1344 51.5259C61.478 51.5635 60.934 51.5822 60.934 51.5447C60.934 51.5072 61.478 50.6814 62.1532 49.7054C63.71 47.4533 64.3852 46.0081 64.3852 44.882C64.3852 42.0293 61.1216 41.1284 58.9834 43.3806C58.6645 43.6996 58.3644 43.9624 58.2894 43.9624C58.2331 43.9624 58.1206 43.3431 58.0831 42.5736C57.9705 40.8094 57.5204 39.8897 56.47 39.3455L55.6823 38.9326L57.1828 37.5437C59.4335 35.4417 63.4099 32.7203 64.2352 32.7015C64.3664 32.7015 64.554 33.0957 64.6853 33.5837ZM52.4937 44.0938C52.4937 44.6944 52.625 46.7401 52.775 48.6357C52.9626 51.0755 52.9813 52.2016 52.8313 52.4643C52.5875 52.9335 52.3811 52.6333 52.1936 51.5635C52.1373 51.1506 51.7434 49.7805 51.3308 48.5043C50.6931 46.4961 50.618 46.102 50.8056 45.5952C51.0682 44.8257 52.1561 43.024 52.3436 43.024C52.4186 43.024 52.4937 43.512 52.4937 44.0938ZM25.5783 57.7569C27.9041 58.4326 30.0048 58.9769 30.2486 58.9769C30.53 58.9769 30.8676 59.2021 31.1864 59.6338C31.4678 59.9903 31.8617 60.3657 32.0492 60.4783C32.6119 60.7786 36.8696 61.6044 37.8637 61.6044C38.7452 61.6044 38.8015 61.6419 39.9832 62.9557L41.2211 64.3258L40.4333 64.4571C36.9259 65.0202 31.9179 63.9879 27.5477 61.7921C25.3157 60.6848 24.2466 59.9903 22.9899 58.808C21.8645 57.7569 20.8892 56.537 21.1518 56.537C21.2643 56.537 23.2712 57.0813 25.5783 57.7569ZM60.0712 58.3012C59.321 59.2021 57.1828 61.0226 56.3387 61.473C55.2509 62.0548 53.7316 62.7117 53.6378 62.6366C53.544 62.524 54.6507 60.6097 55.6823 59.0707L56.5638 57.7569L60.5589 57.7194L60.0712 58.3012Z" fill="#EDEDED"/>
</svg>
