<svg width="85" height="86" viewBox="0 0 85 86" fill="none" xmlns="http://www.w3.org/2000/svg">
<path d="M38.6059 0.997809C38.3433 1.03535 37.4242 1.16672 36.5427 1.27933C30.9345 2.01129 23.9946 4.60128 19.193 7.77309C14.3351 11.0012 9.98363 15.3366 6.85132 20.1225C5.182 22.6937 3.1188 26.9916 2.14347 29.957C-1.70159 41.7433 -0.351131 53.905 6.04479 64.7717C9.27089 70.2333 14.6352 75.6197 20.2434 78.9979C32.51 86.4113 47.7965 87.1058 60.6634 80.8372C65.9902 78.2285 70.8481 74.4748 74.468 70.1582C85.3655 57.1144 87.6163 39.3598 80.245 24.4391C77.8442 19.5782 75.5559 16.4439 71.5608 12.5777C65.5025 6.74084 58.0187 2.96846 49.4846 1.44824C47.6652 1.12919 46.2397 1.01658 43.1074 0.979041C40.8941 0.941505 38.8685 0.941505 38.6059 0.997809ZM48.453 7.69801C56.1243 9.16192 62.539 12.4839 67.772 17.7202C70.7543 20.7043 72.8175 23.6509 74.7306 27.6297C80.0199 38.7029 79.1571 51.8593 72.4424 62.2193C67.9408 69.1822 61.3011 74.3247 53.4984 76.8772C44.3266 79.8988 34.6107 79.2044 26.0016 74.9253C17.6737 70.7775 11.1653 63.2891 8.22053 54.4305C4.76936 44.0142 6.23236 32.7534 12.2344 23.5946C15.423 18.7524 19.4181 14.9425 24.2572 12.1648C28.8525 9.53728 32.8664 8.20475 38.6996 7.37896C39.9938 7.19128 47.0087 7.43526 48.453 7.69801Z" fill="#EDEDED"/>
<path d="M42.7323 14.8862C40.9129 15.5431 39.2248 17.2885 38.4933 19.2779C37.9869 20.6292 38.0619 23.2943 38.6621 25.5277C38.9435 26.5599 39.1685 27.442 39.1685 27.5359C39.1685 27.611 38.7184 27.8174 38.1932 28.0051C35.511 28.8684 32.9227 31.008 31.1221 33.8232C27.5021 39.4911 24.9137 51.559 24.8574 63.1014C24.8387 67.9623 25.2326 69.6515 26.7893 71.3406C28.121 72.7857 30.2405 73.4051 32.4538 72.9546C38.362 71.8098 45.1143 65.0345 52.6356 52.7414C55.9555 47.355 57.5123 43.5451 57.6811 40.4671L57.7936 38.6654L58.6564 38.2337C61.845 36.6947 64.7522 34.3299 65.5775 32.5845C66.0464 31.6086 66.1215 30.0883 65.7463 29.1687C65.5963 28.8309 65.1461 28.2491 64.7147 27.8737C63.6456 26.8978 62.3139 26.5412 60.0631 26.635C58.5439 26.6913 58.3188 26.6538 58.4126 26.4098C58.8627 25.3212 59.2566 22.3934 59.2004 20.7794C59.0878 17.9454 58.0937 16.1437 56.1431 15.224C54.0986 14.2481 51.9229 14.9237 49.8972 17.1196L48.8093 18.302L48.4154 17.4387C47.9465 16.4439 47.065 15.4492 46.2209 15.0176C45.3957 14.5859 43.7263 14.5296 42.7323 14.8862ZM45.6207 33.7669C47.4213 34.2173 48.3217 34.8367 49.6158 36.507C51.1914 38.5715 51.4352 39.1346 51.2852 40.5609C51.0788 42.6254 48.8281 47.0547 45.2269 52.5725C44.0077 54.4305 41.4943 57.9965 40.9316 58.6721C40.8941 58.7097 39.9563 58.2217 38.8309 57.5836C36.6177 56.3449 35.9049 56.1947 34.742 56.739C34.4044 56.9079 33.9543 57.3021 33.748 57.6399C32.7164 59.3102 33.2228 60.6991 35.4735 62.2005L36.9178 63.1765L35.6611 64.2275C34.1981 65.4474 32.7164 66.3295 31.9098 66.4984L31.3471 66.611L31.2158 65.1283C31.0845 63.4392 31.3471 58.3343 31.7785 54.5619C32.1724 50.9397 32.2099 50.752 32.5851 50.9209C33.7855 51.4276 34.4232 51.5778 35.0797 51.4652C37.0303 51.1274 37.8556 48.969 36.7302 47.1673C36.5239 46.8107 35.7361 46.135 34.9859 45.6283C34.2544 45.1403 33.5979 44.7087 33.5604 44.6711C33.5229 44.6524 33.7104 43.9204 33.9918 43.0383L34.4795 41.443L36.13 42.2125C38.437 43.2823 40.0313 43.8641 40.6315 43.8641C40.9129 43.8641 41.4756 43.6952 41.907 43.5075C43.9139 42.5879 44.0827 39.7539 42.1883 38.4777C41.8507 38.2525 40.6691 37.7082 39.5812 37.2765C38.4746 36.8636 37.4992 36.4319 37.3867 36.3193C37.1429 36.0754 38.6996 34.649 39.7875 34.1235C41.288 33.3915 43.6326 33.2414 45.6207 33.7669Z" fill="#EDEDED"/>
</svg>
