<svg width="86" height="85" viewBox="0 0 86 85" fill="none" xmlns="http://www.w3.org/2000/svg">
<path d="M39.1104 0.490486C37.6662 0.621862 34.0274 1.31628 32.2643 1.78548C19.3037 5.27635 8.63131 14.8293 3.75466 27.2913C2.72306 29.9751 1.59767 34.4232 1.22255 37.5199C0.791151 40.9169 0.922445 46.5849 1.48514 49.7192C3.71714 61.8433 10.4507 71.7529 20.9167 78.3405C27.9691 82.7885 37.7037 85.1533 45.9377 84.4589C51.921 83.9334 56.5538 82.6947 61.6181 80.2173C70.2272 76.032 77.2046 69.0127 81.2372 60.5108C86.0764 50.301 86.6953 39.0401 83.0003 28.3048C79.718 18.8081 72.4593 10.2874 63.3999 5.35142C59.1422 3.04294 53.7591 1.33505 48.5074 0.64063C46.5004 0.377877 41.2299 0.302805 39.1104 0.490486ZM48.3761 7.04055C63.55 9.25518 75.3852 20.516 78.4425 35.6431C78.8177 37.5574 78.8739 38.3082 78.8739 42.3996C78.8552 46.66 78.8177 47.1667 78.3675 49.3626C77.2421 54.6176 74.785 60.0228 71.709 64.0392C70.4336 65.7096 67.8827 68.3371 66.0071 69.8948C59.3485 75.469 49.9891 78.622 41.455 78.1716C33.5023 77.7399 26.1498 74.9435 20.354 70.1576C18.8911 68.9564 16.0401 66.0849 14.8772 64.6398C11.6698 60.661 9.11898 55.1244 7.93733 49.5315C7.46842 47.3732 7.43091 46.8289 7.41215 42.6811C7.41215 38.7398 7.46842 37.914 7.82479 36.0935C9.49411 27.9294 13.3392 21.1166 19.3224 15.8052C24.5367 11.1508 31.4391 7.97895 38.3602 7.02178C40.8172 6.66518 45.9753 6.68395 48.3761 7.04055Z" fill="#EDEDED"/>
<path d="M31.0452 16.5184C27.0689 17.1002 23.13 19.0896 20.823 21.6984C17.5406 25.4145 15.4587 31.4578 15.8338 36.1123C16.1714 40.2037 17.6156 42.85 20.2228 44.1263C21.2919 44.6518 21.6483 44.7456 22.8862 44.7456C25.6621 44.7456 27.594 43.3005 30.3137 39.2278C31.1765 37.9328 32.1143 36.6003 32.3957 36.2624L32.9208 35.6618L34.4214 36.4126C37.2911 37.8202 40.8923 38.3832 43.5182 37.8202C47.232 37.0319 49.614 34.8361 50.2892 31.5704C50.5894 30.1065 50.3268 28.5112 49.5202 26.9347C49.2201 26.3341 48.9575 25.5459 48.9575 25.1893C48.9575 24.8327 48.8263 24.3072 48.6762 24.0256C48.0385 22.7682 44.1184 19.8028 41.3612 18.4703C37.5912 16.6498 34.3838 16.0304 31.0452 16.5184ZM36.9535 23.1811C38.1539 23.5377 40.7423 24.7951 41.53 25.3769C41.9239 25.696 42.074 25.9775 42.1115 26.5593C42.1865 27.479 42.5616 28.2485 43.3494 29.1681C44.6999 30.7071 43.612 31.8895 40.8548 31.8895C39.8982 31.8707 39.5794 31.8332 39.7857 31.7018C39.9545 31.6079 40.2358 31.2889 40.4234 31.0074C41.9989 28.605 39.8982 25.6209 37.0848 26.259C35.9219 26.503 33.3898 27.6103 31.908 28.4924C29.2446 30.069 27.4252 31.9833 24.8931 35.8495C24.1054 37.0507 23.3363 38.0829 23.1863 38.1392C22.1359 38.5521 21.8358 34.4607 22.6986 31.4203C23.205 29.6373 24.3867 27.3101 25.362 26.184C26.7312 24.5887 29.0945 23.2937 31.3828 22.8808C32.7145 22.6368 35.6968 22.8057 36.9535 23.1811Z" fill="#EDEDED"/>
<path d="M59.1422 30.8572C56.9102 31.4578 54.153 33.3346 50.0829 36.9944C44.3622 42.1181 41.2674 43.9198 33.2959 46.7163C28.2317 48.4804 25.7746 49.813 23.7489 51.8962C20.3728 55.3683 20.4853 60.4545 24.0303 64.2456C25.3995 65.7283 26.1873 66.2914 28.3067 67.3611C30.7076 68.5811 33.6336 69.5007 37.2348 70.1951C38.0601 70.364 39.8794 70.4579 42.2052 70.4579C45.5439 70.4391 46.0503 70.4016 48.0947 69.9136C58.1669 67.5488 65.9883 62.0122 69.6833 54.6364C71.6715 50.6576 72.4968 46.8664 72.3655 42.3433C72.2904 39.8659 72.2154 39.3029 71.7653 37.9891C71.09 35.9997 70.1897 34.5921 68.858 33.3346C67.8264 32.3962 66.4947 31.7018 65.6694 31.7018C65.5006 31.7018 65.1255 31.5704 64.8067 31.4015C63.2686 30.5945 60.9428 30.388 59.1422 30.8572ZM62.6872 37.0319C63.0998 37.3885 63.6813 37.7451 63.9814 37.8014C64.6566 37.9516 65.4069 38.9087 65.7632 40.0724C66.1196 41.2547 66.1008 44.7644 65.7257 46.7163C65.1443 49.8318 63.8688 52.5719 61.8994 55.0305C58.6546 59.0657 52.4837 62.519 46.2378 63.7952C44.4747 64.1706 43.837 64.2081 41.2862 64.1143C34.6276 63.8703 28.6444 61.3554 27.7628 58.4088C27.4252 57.2827 27.8754 56.4757 29.5072 55.3308C30.2387 54.8241 30.8951 54.4112 30.9702 54.4112C31.0452 54.4112 30.9889 54.7115 30.8389 55.0681C30.4825 55.9314 30.5012 56.4006 30.9702 57.339C32.6582 60.8674 41.9989 59.3659 49.4264 54.3736C52.6525 52.1965 53.459 51.2581 53.459 49.6441C53.459 47.6359 51.3771 46.2658 49.4077 46.9602C48.995 47.1104 47.5133 47.9925 46.1253 48.9309C41.9614 51.7273 38.5665 53.2288 35.9031 53.4165C33.446 53.6041 33.6336 53.3414 36.6721 52.2716C44.6436 49.4752 48.6949 46.979 55.2409 40.8231C60.1551 36.2249 61.1492 35.7182 62.6872 37.0319Z" fill="#EDEDED"/>
<path d="M60.6803 39.0212C60.474 39.0963 58.936 40.5227 57.2667 42.1555C54.6783 44.6892 54.2094 45.2335 54.0218 45.9279C53.3466 48.4991 55.7474 50.3759 58.1295 49.1747C58.936 48.7618 63.0436 44.7267 63.8501 43.5443C64.938 41.9866 64.6379 40.1098 63.1749 39.2089C62.5372 38.8148 61.3555 38.7397 60.6803 39.0212Z" fill="#EDEDED"/>
</svg>
