<svg width="85" height="84" viewBox="0 0 85 84" fill="none" xmlns="http://www.w3.org/2000/svg">
<path d="M37.1562 0.57485C34.6327 0.929613 30.2585 2.01257 27.9967 2.8528C22.5196 4.86934 17.0612 8.39829 12.8553 12.6181C4.89211 20.5909 0.517944 31.1031 0.517944 42.3061C0.517944 58.3264 9.77098 73.021 24.1646 79.8549C30.109 82.6743 35.9973 84 42.4837 84C57.3073 84 70.7849 76.4006 78.7108 63.5918C81.4773 59.1106 83.5709 53.061 84.3747 47.2541C84.7299 44.6401 84.7673 39.5987 84.4682 37.2647C83.6457 31.1778 81.7951 25.5763 79.0472 21.0017C72.5795 10.1534 62.5413 3.20756 49.8675 0.817582C47.2131 0.313447 40.0349 0.182745 37.1562 0.57485ZM47.8486 6.92323C59.0831 8.62235 68.4109 15.0454 74.0375 24.9601C75.8694 28.1903 77.5518 33.3624 78.0939 37.4515C78.4117 39.7667 78.3556 44.6587 78.0004 47.0487C77.0471 53.4158 74.4114 59.4467 70.5232 64.2453C64.8779 71.2099 57.2699 75.6351 48.2599 77.2408C45.1194 77.801 40.0349 77.801 36.7824 77.2595C28.95 75.9525 22.1084 72.3862 16.7622 66.822C11.472 61.3139 8.27554 54.7414 7.13527 46.974C6.72402 44.0986 6.85487 38.4037 7.41566 35.6776C8.9111 28.4143 12.2571 22.122 17.323 17.0993C23.1365 11.3484 30.3894 7.81947 38.5582 6.77385C40.1658 6.56847 46.0915 6.66182 47.8486 6.92323Z" fill="#EDEDED"/>
<path d="M44.8764 14.9334C44.5586 15.0828 43.7548 15.7176 43.1006 16.3524C42.4463 16.9686 41.0817 18.1449 40.0536 18.9478C39.0255 19.732 37.044 21.2631 35.6608 22.3461C30.9127 26.0057 25.3796 30.7483 19.8652 35.8644C18.538 37.0967 16.7434 38.7211 15.9023 39.468C13.5096 41.6152 13.1731 43.165 14.6498 45.2936C14.9676 45.779 15.2106 46.6006 15.4723 48.0943C16.4817 53.7705 18.5941 59.7828 20.482 62.3595C21.3793 63.5918 23.0056 64.6188 24.6506 64.9922C26.5199 65.403 30.6697 65.6457 36.5019 65.6457C42.0725 65.6457 44.4652 65.4777 49.288 64.7868C55.5501 63.8906 59.3635 62.901 61.644 61.5379C63.0834 60.6977 64.8966 58.8679 65.7191 57.4115C67.0276 55.1149 68.467 50.4283 69.3082 45.7977C69.8129 42.997 70.1307 38.161 69.8876 36.854C69.1399 32.7462 65.7565 28.377 58.2793 21.8419C52.4845 16.7632 49.587 14.9707 46.8766 14.784C45.8858 14.7093 45.3063 14.7467 44.8764 14.9334ZM48.4281 22.01C50.2787 23.205 55.3819 27.6301 58.2793 30.5243C61.8683 34.1279 64.0554 37.1901 63.3264 37.6382C63.1395 37.7502 60.7281 38.049 59.513 38.105C59.4383 38.105 59.2139 37.6942 59.027 37.2087C58.2606 35.2295 56.5035 33.5304 54.5033 32.8582C52.9892 32.3541 50.6152 32.5595 49.0823 33.3063C46.97 34.352 45.1381 36.6486 44.8577 38.6091C44.8016 39.0946 44.6708 39.3186 44.4652 39.3186C43.9231 39.3186 37.8665 39.8788 34.2588 40.2522C30.4454 40.6443 24.0711 41.0551 23.9216 40.9057C23.8094 40.8124 25.1927 39.524 29.2491 35.9017L32.1091 33.381L32.9877 33.6611C34.1653 34.0159 36.4459 33.8852 37.5488 33.381C39.7358 32.3914 41.3434 30.5056 42.1285 28.0036C42.4837 26.8833 42.5959 26.1738 42.5211 25.5763L42.4276 24.7547L44.5025 22.9062C46.8205 20.815 46.6335 20.871 48.4281 22.01ZM52.391 38.7585C52.1854 38.8518 51.8115 38.9265 51.5498 38.9265C51.1759 38.9452 51.1386 38.9078 51.3629 38.7585C51.5124 38.6651 51.905 38.5904 52.2041 38.5904C52.6901 38.5904 52.7088 38.6278 52.391 38.7585ZM63.046 44.9575C62.8778 45.9471 61.5132 51.4179 61.3636 51.6419C61.2889 51.754 60.5598 51.7726 59.6065 51.698C57.6998 51.5673 56.5221 51.866 55.4566 52.7436C54.5594 53.4904 53.7556 55.0402 53.5126 56.4779L53.3069 57.6916L52.0171 57.9343C48.6898 58.5505 41.5117 59.4094 41.306 59.2227C41.2687 59.1853 41.493 58.8119 41.7921 58.3824C43.5118 56.0111 42.9323 52.5195 40.3714 49.7374C39.1003 48.3744 37.8291 47.7396 36.0533 47.5902C30.7071 47.1421 26.3143 51.978 27.7162 56.7953C27.8845 57.3928 28.1836 58.121 28.3892 58.3824C28.5761 58.6625 28.7443 58.9426 28.7443 59.0173C28.7443 59.26 26.2395 58.9239 25.8095 58.6252C24.8562 58.009 22.0149 51.1005 21.3606 47.7956L21.2485 47.2168L22.613 47.3101C24.501 47.4221 30.0342 47.0674 36.5954 46.3952C39.6237 46.0965 44.7643 45.6857 47.9981 45.4803C53.5873 45.1255 58.4288 44.6961 60.7094 44.36C61.2702 44.2853 62.0553 44.2106 62.4478 44.1919L63.1769 44.1733L63.046 44.9575ZM35.8477 54.1626C36.0907 54.6107 36.2402 55.0402 36.1842 55.1149C35.9412 55.3576 34.4083 55.4136 33.9971 55.2082C33.455 54.9095 33.5111 54.5174 34.1466 53.8639C34.913 53.0983 35.3056 53.173 35.8477 54.1626Z" fill="#EDEDED"/>
</svg>
