<svg width="85" height="85" viewBox="0 0 85 85" fill="none" xmlns="http://www.w3.org/2000/svg">
<path d="M39.024 1.04901C30.5 1.92659 22.7238 5.11947 16.1253 10.4409C14.2186 11.972 10.6483 15.6504 9.22765 17.5362C3.56373 25.0983 0.703735 33.5754 0.703735 42.8739C0.703735 47.7846 1.33929 51.8551 2.77864 56.1869C4.76007 62.1993 8.23693 67.7822 12.854 72.3754C19.0974 78.6305 26.4998 82.4769 35.5658 84.176C37.5285 84.5495 38.4071 84.6055 42.5756 84.6055C47.7161 84.6055 49.5667 84.3814 53.5483 83.2984C57.3055 82.2902 62.203 80.1242 65.5677 77.9583C75.9235 71.3485 82.9707 60.0894 84.5596 47.6913C84.9708 44.3863 84.84 38.8968 84.2792 35.7039C83.2885 30.1024 80.8958 24.0714 77.905 19.6088C71.3812 9.84345 60.7824 3.12159 49.1181 1.32909C46.7628 0.974326 41.2297 0.824952 39.024 1.04901ZM46.2394 7.41611C55.0063 8.25634 62.5021 11.8974 68.652 18.2644C71.3625 21.0652 72.914 23.2872 74.7272 26.9095C76.3722 30.2518 77.1199 32.343 77.8489 35.7786C78.3162 37.9259 78.3536 38.4674 78.3723 42.5938C78.3723 46.5709 78.3162 47.3178 77.9424 49.2223C75.8675 59.4172 69.8297 68.0436 61.0628 73.2903C57.5298 75.4003 53.8286 76.8193 49.5854 77.7342C47.3049 78.2197 46.8749 78.2384 42.5756 78.2384C38.2762 78.2384 37.8463 78.2197 35.5658 77.7342C30.8365 76.726 26.5746 74.9521 22.836 72.4314C14.7233 66.9979 9.52673 59.2118 7.58268 49.5958C7.20883 47.7099 7.15275 46.907 7.15275 42.9673C7.15275 37.7765 7.41445 36.0587 8.85379 31.7082C10.6296 26.2747 13.4896 21.7187 17.6955 17.5549C25.1165 10.1795 35.8088 6.38916 46.2394 7.41611Z" fill="#EDEDED"/>
<path d="M33.6404 22.7457C30.1075 23.3058 27.5653 26.9655 27.1353 32.1003C26.911 35.0131 27.6213 37.7205 29.042 39.3076C30.5561 40.9881 32.8927 41.7723 35.3228 41.3802C41.1736 40.4839 45.5664 35.3305 44.6505 30.4198C44.2019 28.0111 42.5382 25.5465 41.1362 25.2104C40.8558 25.1543 40.3138 24.8556 39.9586 24.5755C38.0893 23.1378 35.6592 22.4096 33.6404 22.7457ZM36.1826 28.9261C36.407 29.1688 36.2761 29.2808 35.2106 29.785C34.5377 30.1024 33.9208 30.3638 33.8647 30.3638C33.6778 30.3638 33.9582 29.4302 34.2947 28.9261C34.5564 28.5339 34.7059 28.4779 35.2667 28.5713C35.6219 28.6273 36.0331 28.7954 36.1826 28.9261Z" fill="#EDEDED"/>
<path d="M50.52 33.8554C49.5293 34.0981 47.2488 36.6188 45.7534 39.1395C43.1738 43.4714 43.9962 47.2058 47.9778 49.2223C49.9966 50.2306 51.7164 50.604 54.4455 50.604C57.1747 50.6227 58.2775 50.4173 60.2777 49.5024C63.3994 48.0833 64.9509 45.3386 64.4275 42.1457C63.7545 37.8885 60.0347 34.9944 54.7259 34.5463C53.9595 34.4903 52.9314 34.2849 52.4454 34.0795C51.5668 33.7247 51.2304 33.6874 50.52 33.8554ZM56.4269 41.3241C57.4924 41.8096 58.0906 42.4258 58.0906 43.0793C58.0906 43.9195 57.0999 44.2556 54.6324 44.2743C52.1463 44.2743 50.4266 43.8448 50.4266 43.2287C50.4266 42.8552 51.0434 41.5109 51.4173 41.0254C51.7538 40.6146 55.3241 40.8387 56.4269 41.3241Z" fill="#EDEDED"/>
<path d="M32.7245 47.7286C30.0888 48.3448 28.4812 51.407 28.2382 56.2243C27.9765 61.5271 30.0514 64.7573 34.1639 65.4668C37.3042 66.0083 42.1644 63.8611 44.071 61.0976C46.1833 58.0168 45.6412 53.7969 42.7625 50.9028C41.0241 49.1477 38.6875 48.1207 35.5658 47.7473C33.6965 47.5232 33.5844 47.5232 32.7245 47.7286ZM37.3416 54.7679C38.538 55.3654 39.1735 56.2803 38.9492 57.1205C38.7997 57.774 37.5472 58.6703 36.2761 59.0437C35.005 59.4172 34.5938 59.2678 34.3508 58.4089C34.1452 57.6433 34.0891 54.8426 34.2947 54.3571C34.4629 53.8903 35.9957 54.1144 37.3416 54.7679Z" fill="#EDEDED"/>
</svg>
