<svg width="85" height="85" viewBox="0 0 85 85" fill="none" xmlns="http://www.w3.org/2000/svg">
<path d="M39.0238 1.05292C30.4998 1.93049 22.7235 5.12335 16.1248 10.4448C14.2182 11.9759 10.6478 15.6542 9.22713 17.54C3.56315 25.1021 0.703125 33.579 0.703125 42.8775C0.703125 47.7882 1.33869 51.8586 2.77805 56.1904C4.75951 62.2027 8.2364 67.7856 12.8536 72.3788C19.097 78.6338 26.4995 82.4802 35.5656 84.1793C37.5283 84.5527 38.4069 84.6088 42.5754 84.6088C47.716 84.6088 49.5666 84.3847 53.5482 83.3017C57.3055 82.2935 62.2031 80.1276 65.5678 77.9616C75.9237 71.3519 82.971 60.0928 84.5599 47.6948C84.9712 44.3899 84.8403 38.9004 84.2795 35.7076C83.2888 30.1061 80.8961 24.0751 77.9052 19.6126C71.3813 9.84729 60.7824 3.12548 49.118 1.33299C46.7627 0.978232 41.2295 0.828859 39.0238 1.05292ZM46.2393 7.41997C55.0063 8.26019 62.5022 11.9012 68.6522 18.2682C71.3627 21.069 72.9142 23.2909 74.7274 26.9132C76.3724 30.2555 77.1201 32.3467 77.8491 35.7823C78.3164 37.9295 78.3538 38.471 78.3725 42.5974C78.3725 46.5745 78.3164 47.3214 77.9426 49.2259C75.8677 59.4206 69.8298 68.047 61.0628 73.2937C57.5298 75.4036 53.8286 76.8227 49.5853 77.7376C47.3048 78.223 46.8748 78.2417 42.5754 78.2417C38.276 78.2417 37.8461 78.223 35.5656 77.7376C30.8362 76.7293 26.5742 74.9555 22.8356 72.4348C14.7229 67.0014 9.52622 59.2153 7.58215 49.5993C7.20829 47.7135 7.15221 46.9106 7.15221 42.9709C7.15221 37.7801 7.41391 36.0624 8.85327 31.7118C10.6291 26.2784 13.4891 21.7225 17.6951 17.5587C25.1162 10.1834 35.8086 6.39302 46.2393 7.41997Z" fill="#EDEDED"/>
<path d="M48.0899 17.316C43.5849 17.8201 39.0612 19.7433 35.3226 22.7681C31.2288 26.073 28.3501 32.272 28.294 37.9295C28.2753 39.3859 28.3501 39.9274 28.6118 40.3942L28.9296 40.9917L27.9201 42.9709C26.3686 45.9583 25.9948 48.1989 26.5743 50.925C26.836 52.1573 27.5837 53.8751 28.1258 54.4913C28.2753 54.6593 28.3688 54.9207 28.3314 55.0514C28.3127 55.2008 27.6211 55.929 26.836 56.6759L25.3966 58.0389L23.7516 57.3294C21.6954 56.4518 19.5644 56.2464 18.1437 56.7879C15.3771 57.8522 14.0499 61.1944 15.3585 63.8458C16.2744 65.713 18.5363 67.3934 21.0224 68.0656C21.6019 68.2337 21.9945 68.5137 22.4992 69.1672C24.3872 71.5385 25.4153 72.3414 27.1724 72.8642C29.0043 73.3871 31.2288 72.8829 32.7803 71.5759C33.9767 70.5676 35.0796 67.6548 35.0983 65.5263C35.0983 64.7421 35.1169 64.7234 37.3227 62.9682C38.5378 61.9973 39.6033 61.1197 39.678 61.0077C39.7528 60.877 40.594 60.8023 41.8838 60.8023C46.4075 60.8023 49.361 59.514 54.3707 55.3875C56.2774 53.8191 57.156 52.5681 57.156 51.4478C57.156 50.9997 57.3616 50.8503 59.2683 49.9167C62.9508 48.0869 65.0631 46.1077 66.5025 43.1576C67.6428 40.8236 68.0166 39.1245 68.1288 35.8569C68.5213 25.0834 63.0256 18.4736 52.7631 17.2973C50.8565 17.0919 50.2022 17.0919 48.0899 17.316ZM54.4829 24.0378C57.0812 24.6913 58.7636 25.8116 60.0534 27.7534C61.2685 29.5833 61.661 31.077 61.7732 34.1952C61.9601 39.7033 60.6329 42.2427 56.483 44.2779C55.0811 44.9501 51.7911 46.1077 51.5107 46.0143C51.4359 45.977 52.1089 45.3982 53.0248 44.6887C55.4923 42.8215 59.2309 39.3485 59.8478 38.3216C61.6049 35.4835 59.1188 32.5894 56.1279 34.0271C55.7166 34.2138 53.9221 35.7823 52.1276 37.5187C49.9218 39.6473 48.3142 41.029 47.1552 41.7759C45.2299 43.0269 44.7438 43.6617 44.7438 44.9501C44.7438 46.6118 45.9776 47.6388 47.8282 47.5081L48.8937 47.4334L48.5385 48.0869C48.0712 48.9645 48.0899 50.0288 48.5946 50.925L49.0058 51.6532L48.5759 51.9893C46.1832 53.7444 44.2578 54.4539 41.8464 54.4539C39.1173 54.4539 36.8554 53.7258 34.6309 52.12C33.285 51.1677 32.7616 50.4395 32.4812 49.1138C32.2195 47.9002 32.4439 46.8919 33.4159 44.894C34.5001 42.6721 34.7992 41.5892 34.5375 40.6556C34.4253 40.2448 34.2571 39.8527 34.1636 39.7967C33.8458 39.61 33.958 37.4627 34.3505 35.7823C35.3787 31.4691 38.1826 27.8841 42.239 25.6995C44.4074 24.5419 46.3888 23.9444 49.3984 23.571C50.4265 23.4403 53.1183 23.683 54.4829 24.0378ZM28.9483 63.0056C28.8361 63.2296 28.7426 63.9765 28.7426 64.7047C28.7426 66.7773 28.6679 66.7773 27.3033 64.9661C26.0322 63.267 26.0135 63.0616 27.1537 63.0429C27.4715 63.0243 28.0136 62.9122 28.3688 62.7815C29.1539 62.5014 29.21 62.5201 28.9483 63.0056Z" fill="#EDEDED"/>
</svg>
