<svg width="85" height="84" viewBox="0 0 85 84" fill="none" xmlns="http://www.w3.org/2000/svg">
<path d="M38.3128 0.0699453C32.5554 0.760803 28.3121 1.99314 23.452 4.36447C14.1991 8.86438 6.68456 16.968 2.88992 26.5466C-0.194391 34.3328 -0.848639 43.594 1.1141 51.7723C3.61894 62.1911 10.068 71.2843 19.0592 77.0726C32.7797 85.8857 50.5379 85.9791 64.3518 77.2967C67.0436 75.5975 68.8381 74.1971 71.1934 71.9378C74.9693 68.2782 77.605 64.6932 79.8108 60.1746C81.9044 55.8801 83.2315 51.5108 83.8297 46.9549C84.2036 44.0981 84.1849 39.2621 83.811 36.3307C82.0539 22.6069 73.287 10.3955 60.931 4.36447C56.7812 2.32924 53.5287 1.28361 49.0611 0.480726C47.0797 0.144633 40.0325 -0.135445 38.3128 0.0699453ZM46.9114 6.56774C50.7435 7.09056 53.8839 8.02415 57.5103 9.76063C61.5479 11.7025 64.5761 13.8124 67.567 16.8559C71.642 20.9451 74.6516 26.0238 76.3339 31.6067C77.4555 35.3224 77.6611 36.8721 77.6611 41.8762C77.6424 46.0027 77.605 46.5441 77.1377 48.7101C76.0348 53.9195 73.6048 59.297 70.5204 63.3114C69.2867 64.9359 66.1463 68.1288 64.4827 69.4732C53.5287 78.3236 38.1632 79.9107 25.6017 73.4876C15.1898 68.1848 8.31083 58.4941 6.60979 46.8242C6.17985 43.8367 6.32939 38.2352 6.90887 35.341C9.20808 23.8579 16.5357 14.5406 27.1905 9.55524C30.2562 8.13618 34.3499 6.94118 37.752 6.51173C39.7147 6.25032 44.7992 6.28767 46.9114 6.56774Z" fill="#EDEDED"/>
<path d="M57.3233 16.053C56.8373 16.1651 55.7531 16.5945 54.8932 17.024C52.4632 18.2376 47.0236 22.0654 45.2291 23.8205C43.9766 25.0528 43.5841 25.3329 43.3598 25.1835C41.7709 24.0819 40.2942 23.3724 38.1258 22.6815C37.0416 22.3268 36.4248 22.2894 32.2189 22.2707L27.527 22.2521L26.6297 21.4679C25.3399 20.3289 23.5267 19.526 22.0313 19.414C20.4985 19.3019 19.6199 19.582 18.6479 20.4596C17.3768 21.5986 17.0216 22.6442 16.6478 26.3972C16.4982 27.891 16.2178 28.9179 15.3393 31.476C13.6756 36.1999 13.2644 38.7206 13.6382 41.6521C14.1243 45.6105 16.2365 48.8781 19.5452 50.8573C21.7322 52.1457 23.4893 52.6311 26.7419 52.8926L28.3495 53.0233L28.1625 54.0876C27.9569 55.4319 28.1065 57.99 28.499 59.5211C28.8168 60.7721 29.3402 61.9111 30.3683 63.6289C30.7048 64.189 31.2842 65.5147 31.6768 66.579C32.0506 67.6433 32.6675 69.025 33.0227 69.6599C36.0509 74.8506 43.1915 76.7178 49.2667 73.8984C53.3978 71.9938 55.9213 69.3051 58.0523 64.5998C58.557 63.4982 59.7347 61.0708 60.6693 59.2223C62.6134 55.4132 62.9498 54.2743 62.6134 52.7432C62.5012 52.2204 62.2208 51.4362 61.9778 51.0254L61.5292 50.2785L63.0433 49.737C69.7727 47.403 72.7822 43.3886 72.1093 37.675C71.885 35.7892 71.399 34.3701 69.7914 30.9531C69.0624 29.366 67.9221 26.5093 67.2866 24.6047C66.651 22.7002 65.8846 20.665 65.5668 20.0861C63.7536 16.6879 60.931 15.3061 57.3233 16.053ZM59.9403 23.0176C60.1646 23.4284 60.8936 25.3703 61.5666 27.3495C62.2395 29.31 63.3798 32.1855 64.0901 33.7352C65.6042 36.9655 65.8285 37.6937 65.8098 39.1874C65.8098 40.9239 65.1182 41.8575 63.0807 42.8658C59.7347 44.5276 56.1643 44.957 53.566 44.0234C52.8744 43.7807 52.2389 43.4633 52.2015 43.3139C51.9398 42.6791 53.4913 39.953 55.6783 37.2082C56.3326 36.3867 56.8934 35.4717 57.0242 35.0049C57.9589 31.5506 54.1642 29.7582 51.6594 32.4842C50.6874 33.5299 49.2106 35.6585 48.3134 37.3202C47.6217 38.5526 47.4722 38.758 47.5657 38.2352C47.9395 36.0319 48.0143 34.7062 47.8274 33.1564C47.547 30.7478 47.9208 29.2167 49.0985 28.115C49.6779 27.5735 55.2297 24.0259 57.2859 22.8869C58.9122 21.9907 59.3795 22.0093 59.9403 23.0176ZM24.0688 26.1918C24.4053 26.3039 24.9474 26.6773 25.2838 26.9947C26.1811 27.8536 26.6858 27.9657 29.6767 27.9657C34.6676 27.9657 37.1912 28.5071 39.1539 29.9822C42.2943 32.3349 42.4251 36.6481 39.4717 39.6542C38.4062 40.7185 37.5837 41.2973 35.135 42.623L33.1722 43.6873L32.574 42.9965C31.8076 42.1002 31.0973 40.3264 30.7235 38.2912C30.3309 36.0692 29.9944 35.1917 29.2841 34.5008C27.8448 33.1004 25.3025 33.5485 24.5548 35.3597C23.751 37.2642 24.9661 42.2123 27.0036 45.3491C27.9382 46.8055 27.9943 46.7495 25.882 46.4508C23.4893 46.096 21.2649 44.6769 20.4611 42.9778C19.5078 40.9613 19.7134 38.1045 21.0967 34.146C22.1808 31.0838 22.5547 29.4781 22.7229 27.3308C22.8351 25.9491 22.8912 25.725 23.1529 25.8371C23.3211 25.9118 23.7323 26.0611 24.0688 26.1918ZM48.1264 49.7183C49.7901 50.1851 51.5285 51.0627 52.2015 51.7909C53.5474 53.266 53.8278 53.4901 54.8745 53.8261C55.4914 54.0315 56.0148 54.1996 56.0335 54.2183C56.0709 54.2556 55.6036 55.2639 54.9867 56.4775C54.3511 57.6912 53.1735 60.0812 52.351 61.7803C51.0799 64.4131 50.6687 65.0666 49.734 66.0189C48.1825 67.606 45.9581 68.6889 44.0327 68.8196C41.5279 68.969 39.5465 68.1474 38.5183 66.523L37.9763 65.6641L39.3221 64.3197C40.2194 63.4235 41.2288 62.6766 42.3317 62.0418C44.4066 60.9028 45.1917 60.2119 45.659 59.1663C46.1076 58.158 45.9768 57.3178 45.2104 56.4402C44.2197 55.3012 42.7242 55.1518 41.0606 55.9921C39.6586 56.7203 37.0977 58.4381 36.3313 59.185L35.5649 59.9132L35.3032 59.4837C34.1816 57.7099 34.1068 54.6104 35.135 52.5938C35.864 51.1747 37.8641 49.9424 40.0885 49.513C41.8457 49.1769 46.5936 49.2889 48.1264 49.7183Z" fill="#EDEDED"/>
</svg>
