<svg width="85" height="86" viewBox="0 0 85 86" fill="none" xmlns="http://www.w3.org/2000/svg">
<path d="M38.5171 1.07007C29.9642 1.95217 22.1615 5.16151 15.5405 10.5104C13.6274 12.0494 10.0449 15.7467 8.61943 17.6423C2.93625 25.2434 0.0665283 33.7641 0.0665283 43.1106C0.0665283 48.0466 0.704245 52.138 2.14849 56.4922C4.13666 62.5355 7.62535 68.1472 12.2582 72.7641C18.5228 79.0514 25.9503 82.9177 35.0472 84.6256C37.0166 85.0009 37.8981 85.0572 42.0808 85.0572C47.2388 85.0572 49.0957 84.832 53.0908 83.7435C56.8608 82.73 61.775 80.5529 65.1511 78.3758C75.5422 71.7319 82.6133 60.4147 84.2076 47.9527C84.6203 44.6308 84.489 39.113 83.9263 35.9036C82.9322 30.2732 80.5314 24.2111 77.5303 19.7255C70.9844 9.90983 60.3495 3.15332 48.6455 1.35159C46.2822 0.994995 40.7303 0.84485 38.5171 1.07007ZM45.7571 7.46998C54.5538 8.31455 62.0751 11.9743 68.2459 18.3742C70.9656 21.1894 72.5224 23.4229 74.3418 27.0639C75.9923 30.4233 76.7426 32.5254 77.4741 35.9787C77.943 38.137 77.9805 38.6813 77.9993 42.829C77.9993 46.8266 77.943 47.5774 77.5679 49.4917C75.4859 59.7391 69.4276 68.4099 60.6309 73.6838C57.0859 75.8046 53.3721 77.2309 49.1144 78.1506C46.8262 78.6385 46.3948 78.6573 42.0808 78.6573C37.7668 78.6573 37.3354 78.6385 35.0472 78.1506C30.3018 77.1371 26.0253 75.3541 22.2741 72.8204C14.1338 67.3589 8.91954 59.5326 6.96887 49.8671C6.59375 47.9715 6.53748 47.1645 6.53748 43.2044C6.53748 37.9869 6.80007 36.2602 8.24431 31.8873C10.0262 26.4257 12.8959 21.8463 17.1161 17.661C24.5624 10.2477 35.291 6.43774 45.7571 7.46998Z" fill="#EDEDED"/>
<path d="M46.1134 21.9777C44.5942 22.3343 42.8873 22.9912 40.7866 24.0422C38.5546 25.1683 36.7165 26.3694 32.5713 29.3723C28.5012 32.3189 25.3126 34.5148 22.199 36.4667C18.3915 38.869 16.816 40.7645 15.9907 43.9927C15.1654 47.2583 15.3717 50.2424 16.6847 54.1837C18.6166 59.9831 22.3116 64.112 28.2574 67.1149C31.9524 68.9917 35.4973 69.8926 39.83 70.0803C50.5774 70.5307 62.5065 65.5009 67.3644 58.4441C68.546 56.7174 68.9212 55.9667 69.5776 53.996C70.0466 52.5509 70.1028 52.1568 70.1028 49.5855C70.1216 46.395 69.934 45.5504 68.7149 43.0167C67.702 40.9335 66.0327 38.7751 63.0317 35.6784C60.6496 33.2198 60.462 32.9758 60.5746 32.469C60.7434 31.6245 60.3307 29.8791 59.618 28.3776C58.3988 25.8064 55.7917 23.5542 52.7344 22.4281C51.459 21.9589 50.8213 21.8463 49.2082 21.79C47.9515 21.7525 46.8262 21.8088 46.1134 21.9777ZM51.6841 28.6028C52.6594 29.0345 54.0286 30.1606 53.5785 30.1606C53.4659 30.1606 53.1095 30.367 52.7907 30.6298C52.2655 31.0802 52.1905 31.099 51.7028 30.855C51.4215 30.7048 49.9585 30.1793 48.458 29.6914L45.7383 28.7905L46.376 28.5278C47.1825 28.1899 48.9081 27.9647 49.8647 28.0585C50.2773 28.0961 51.0839 28.3401 51.6841 28.6028ZM40.6366 32.5817C41.068 32.8632 41.8557 33.3324 42.3621 33.5951C43.8627 34.3834 49.7897 36.6731 50.6337 36.8232C51.5528 36.9734 52.7157 36.6919 53.3721 36.1664L53.841 35.8098L54.6663 36.4854C55.1165 36.8608 55.8855 37.5552 56.3919 38.0244L57.2922 38.8877L55.6417 39.188C54.7226 39.3569 52.8094 39.7323 51.3652 40.0138C49.0582 40.483 48.3267 40.5393 45.3632 40.5206C41.5931 40.5018 40.0551 40.3141 38.1982 39.6385C36.6415 39.0566 34.8033 37.7053 34.3532 36.842L34.0156 36.1851L36.4164 34.4585C37.7293 33.5013 39.0048 32.5817 39.2673 32.394C39.5299 32.2063 39.755 32.0374 39.7925 32.0374C39.83 32.0374 40.2052 32.2814 40.6366 32.5817ZM29.5891 40.0514C30.4143 41.6466 32.8151 43.6736 35.5161 45.0437L37.2979 45.9633L36.3601 45.8319C34.9346 45.6255 32.1024 44.856 30.3956 44.1991C29.1577 43.7299 28.6512 43.4108 27.7697 42.51C27.1695 41.9094 26.7006 41.3464 26.7381 41.2337C26.7944 41.0648 28.9326 39.5822 29.1764 39.5634C29.2514 39.5446 29.439 39.7698 29.5891 40.0514ZM62.9004 45.6442C63.313 46.47 63.7069 47.5398 63.7632 48.009C63.8757 48.8536 63.8569 48.8724 63.2567 49.1163C62.9004 49.2665 61.6062 49.9421 60.3495 50.6366C55.5291 53.3204 52.8282 54.5403 48.6268 55.9291C44.8755 57.1678 42.6998 57.4306 38.292 57.1678C37.2417 57.1115 36.9603 57.1491 36.5289 57.4869C35.1972 58.4816 34.8033 59.9268 35.5536 61.203C36.0788 62.1038 36.904 62.5355 38.7234 62.9296C40.5803 63.3238 45.0068 63.1924 47.5201 62.6481C49.3958 62.254 53.5222 61.0528 54.1411 60.7338C54.3287 60.6212 54.535 60.5649 54.5725 60.6212C54.8164 60.8464 50.4461 62.4041 47.8953 62.986C41.9495 64.3748 36.2101 63.8868 31.4834 61.6159C27.1695 59.5514 24.6561 56.9989 23.0431 53.0389C21.8802 50.1673 21.5801 47.5961 22.1615 45.4753L22.3116 44.9498L23.0993 46.0008C24.206 47.446 25.5189 48.4595 27.7322 49.5105C31.4459 51.2747 34.1281 51.9879 41.3305 53.0764C45.9071 53.7708 48.0453 53.8459 49.0769 53.3579C50.8213 52.5134 51.2339 50.3175 49.921 48.8348C49.302 48.1029 47.764 47.5398 45.7383 47.2771C44.6504 47.1269 44.7067 47.1269 46.9575 46.9955C50.2961 46.7891 55.3978 45.8882 57.461 45.1375C58.924 44.5932 59.618 44.0114 60.0119 42.9979L60.3495 42.1158L61.2498 43.1293C61.7562 43.6924 62.5065 44.8184 62.9004 45.6442Z" fill="#EDEDED"/>
</svg>
