<svg width="85" height="85" viewBox="0 0 85 85" fill="none" xmlns="http://www.w3.org/2000/svg">
<path d="M38.614 0.157708C32.837 0.852127 28.5793 2.09082 23.7027 4.47437C14.4183 8.99747 6.87819 17.1428 3.07065 26.7708C-0.0241544 34.5971 -0.680627 43.9061 1.28879 52.1265C3.80215 62.5991 10.2731 71.7392 19.2949 77.5573C33.0621 86.4158 50.8806 86.5097 64.7416 77.7825C67.4425 76.0746 69.2431 74.667 71.6064 72.396C75.3952 68.7175 78.0399 65.114 80.2531 60.5722C82.3538 56.2555 83.6855 51.8638 84.2857 47.2844C84.6609 44.4128 84.6421 39.5519 84.267 36.6053C82.5039 22.8108 73.7072 10.5365 61.3092 4.47437C57.1453 2.42865 53.8817 1.37763 49.3989 0.570606C47.4107 0.232781 40.3396 -0.0487407 38.614 0.157708ZM47.2419 6.689C51.087 7.21451 54.238 8.15291 57.8768 9.89834C61.9282 11.8502 64.9667 13.971 67.9677 17.0302C72.0566 21.1404 75.0764 26.2453 76.7644 31.857C77.8898 35.5918 78.0961 37.1496 78.0961 42.1794C78.0774 46.3272 78.0399 46.8715 77.571 49.0486C76.4643 54.2849 74.026 59.6901 70.9312 63.7252C69.6933 65.358 66.5422 68.5674 64.8729 69.9187C53.8817 78.8147 38.4639 80.41 25.8596 73.9538C15.4123 68.6237 8.51 58.883 6.80317 47.153C6.37177 44.1501 6.52182 38.5197 7.10327 35.6106C9.4103 24.0682 16.7628 14.703 27.4539 9.69189C30.53 8.26552 34.6376 7.06436 38.0513 6.6327C40.0207 6.36994 45.1224 6.40748 47.2419 6.689Z" fill="#EDEDED"/>
<path d="M49.0238 26.3955C47.617 27.0148 46.3791 28.6664 45.4976 31.125L45.0474 32.3825L41.8588 32.5326L41.0711 31.2189C40.1145 29.6048 39.3455 29.0793 37.7699 28.9855C36.8321 28.9292 36.532 28.9855 35.9881 29.3608C34.7502 30.1866 34.4313 31.5942 34.9565 33.8276C35.069 34.2405 34.9752 34.3531 34.2437 34.7097L33.3997 35.1226L32.8745 34.447C32.2556 33.6212 31.4115 33.2646 30.1361 33.2646C27.754 33.2646 26.5536 35.6294 27.8103 37.8628L28.2792 38.7261L27.5477 39.6833C27.1351 40.19 26.7224 40.7531 26.6286 40.922C26.4786 41.1847 26.141 41.0721 24.0965 40.1525C19.7826 38.2006 17.9632 37.8065 16.0313 38.3695C14.4745 38.8387 13.1053 40.8469 13.1053 42.6299C13.1053 43.7372 13.593 45.4263 14.512 47.6222C14.9997 48.7483 15.6374 50.6814 15.9375 51.8825C16.8003 55.3359 17.8694 56.6684 20.1577 57.1564C21.2643 57.3816 23.1962 57.1751 25.9534 56.537C26.7787 56.3493 27.9791 56.0491 28.6356 55.8989L29.8172 55.6362L30.3049 56.3681C31.3177 57.9071 33.4372 58.6015 35.688 58.1323C36.3632 57.9822 37.1697 57.7194 37.4698 57.5505C37.9763 57.2502 38.07 57.2502 38.7828 57.5317C40.3396 58.1511 41.4462 57.9071 42.7591 56.6121C43.4906 55.8801 43.7157 55.7675 44.2596 55.8238C44.8786 55.8801 44.8974 55.8989 44.9536 56.8561C44.9911 57.6068 45.1975 58.1323 45.8914 59.2772C47.3544 61.7358 48.9112 62.5991 51.0682 62.1674C52.625 61.8672 53.8629 61.1915 55.1571 59.9528C56.4888 58.6766 57.3328 57.3816 57.5204 56.3493L57.6517 55.5423L59.4335 55.0543C64.329 53.6655 68.0427 51.6949 70.2747 49.3301C71.8878 47.6034 72.3567 45.8955 71.7752 43.8873C71.4001 42.6299 69.6745 41.0721 67.0862 39.6645C64.7791 38.4258 61.4405 36.8868 58.6083 35.7232C57.6892 35.3479 56.8827 34.9162 56.8077 34.766C56.7326 34.6159 56.4325 33.7713 56.1512 32.8892C54.9883 29.2858 53.6566 27.2213 52.0435 26.4893C51.1432 26.0764 49.8303 26.0389 49.0238 26.3955ZM48.7237 39.3079L50.8431 39.7021L50.7118 40.4715C50.468 41.9167 50.4117 45.9518 50.5993 47.153C50.7306 47.9788 50.9744 48.6357 51.3683 49.1612L51.931 49.9682H50.3555C49.4927 49.9682 48.2735 49.9119 47.6545 49.8556L46.5104 49.7242L46.9043 49.1612C47.4295 48.4292 47.5608 47.0591 47.1669 46.1583L46.8855 45.4451L47.617 44.7882C48.8362 43.6809 49.0613 42.1794 48.161 40.9407C46.9793 39.2704 44.616 39.5707 42.4028 41.6915C40.4146 43.6058 40.077 45.4826 41.2774 47.7911C41.6525 48.4855 41.8588 49.0298 41.7463 48.9735C41.615 48.936 40.6584 48.7483 39.5893 48.5606C37.7512 48.2415 37.6011 48.2415 36.6446 48.5418C36.0068 48.7295 35.4629 49.0673 35.144 49.4427L34.6564 50.0245L34.2437 49.6304C33.1934 48.6357 31.9742 48.6169 28.2042 49.499C26.6662 49.8556 25.2969 50.1559 25.1656 50.1559C25.0156 50.1559 25.0531 49.9494 25.3345 49.499C25.7096 48.8421 25.7471 47.7723 25.4095 46.9653C25.2032 46.4773 26.8912 45.9894 27.8666 46.2333C29.067 46.5524 30.1173 46.0081 31.0927 44.563C33.1184 41.5601 37.4323 39.4018 42.3652 38.895C44.2034 38.7073 46.0978 38.8387 48.7237 39.3079ZM58.2144 42.4797L59.1522 42.8926L58.3457 43.024C57.9143 43.0803 57.3141 43.3243 57.014 43.5495L56.47 43.9436L56.3575 43.5307C56.2075 42.9865 56.2075 41.9918 56.3575 41.8416C56.4888 41.729 56.7889 41.8228 58.2144 42.4797ZM62.6784 44.5442C63.7288 45.0697 64.6291 45.5389 64.6666 45.5765C64.8729 45.7641 64.0476 46.3272 62.3595 47.1717C61.3092 47.6785 60.4089 48.0914 60.3526 48.0914C60.2776 48.0914 60.4651 47.8286 60.7465 47.5283C61.6468 46.5712 61.7218 45.0885 60.9153 44.075C60.709 43.8123 60.5777 43.587 60.634 43.587C60.709 43.587 61.6093 44.0187 62.6784 44.5442ZM20.9455 45.1073C21.5832 45.3137 21.5832 45.6515 20.983 45.6515C20.7767 45.6515 20.5328 45.4826 20.4203 45.2762C20.1952 44.8445 20.1765 44.8445 20.9455 45.1073ZM56.8077 47.6785C56.8077 47.9225 58.0831 48.4667 58.627 48.4667C58.8896 48.4667 59.0772 48.5043 59.0397 48.5418C58.8896 48.692 55.8511 49.4427 55.7573 49.3488C55.701 49.3113 55.7948 49.0298 55.9449 48.7295C56.0949 48.4292 56.2637 48.0351 56.32 47.8474C56.4138 47.5283 56.8077 47.397 56.8077 47.6785Z" fill="#EDEDED"/>
</svg>
