<svg width="85" height="85" viewBox="0 0 85 85" fill="none" xmlns="http://www.w3.org/2000/svg">
<path d="M37.294 1.14195C34.7619 1.49854 30.3729 2.58709 28.1034 3.43166C22.6077 5.45861 17.1309 9.00578 12.9107 13.2474C4.92049 21.2613 0.531494 31.8278 0.531494 43.0886C0.531494 59.1916 9.8159 73.9621 24.2583 80.8312C30.2228 83.6652 36.1311 84.9977 42.6396 84.9977C57.5134 84.9977 71.0367 77.3591 78.9894 64.4842C81.7653 59.9799 83.8661 53.899 84.6726 48.0622C85.029 45.4346 85.0665 40.3672 84.7664 38.0212C83.9411 31.9028 82.0842 26.2724 79.327 21.6742C72.8373 10.77 62.7651 3.78825 50.0483 1.38594C47.3849 0.879198 40.1825 0.747821 37.294 1.14195ZM48.0226 7.5231C59.2952 9.23099 68.6546 15.6872 74.3003 25.6531C76.1384 28.8999 77.8265 34.0987 78.3704 38.2089C78.6893 40.5362 78.633 45.4534 78.2767 47.8557C77.3201 54.2556 74.6754 60.3177 70.7741 65.1411C65.1097 72.1416 57.4758 76.5896 48.4353 78.2037C45.2842 78.7667 40.1825 78.7667 36.9189 78.2225C29.0599 76.9087 22.1951 73.324 16.8308 67.7311C11.5227 62.1945 8.31539 55.5882 7.17125 47.7806C6.75861 44.8903 6.8899 39.1661 7.4526 36.4259C8.95311 29.1252 12.3105 22.8003 17.3935 17.7517C23.2267 11.9711 30.5042 8.42397 38.7007 7.37295C40.3138 7.16651 46.2595 7.26035 48.0226 7.5231Z" fill="#EDEDED"/>
<path d="M26.2465 18.54C25.2524 18.8778 23.7706 20.3792 23.0954 21.7118C22.1201 23.7012 21.8387 25.0525 21.8387 27.7926C21.8387 29.9697 21.895 30.3826 22.3452 31.7152C22.9641 33.4794 23.3955 34.1362 24.3521 34.7368L25.0461 35.1685L25.1399 37.4019C25.2336 39.7667 25.59 40.9491 26.3778 41.6435L26.7529 42.0001L26.2277 42.9009C25.9464 43.3889 25.4962 44.4024 25.2524 45.1531L24.8022 46.4856L22.9266 46.5419C21.5199 46.5795 20.7321 46.7109 19.6442 47.0862C17.2247 47.912 14.7488 49.5636 14.1111 50.8023C13.7735 51.478 13.7735 52.9043 14.1299 53.5987C14.4675 54.2556 15.3115 54.875 16.0805 55.0251L16.662 55.1377L16.0993 55.7758C15.3303 56.6579 15.0677 57.6339 15.3303 58.6098C15.7242 60.0925 17.2059 61.0497 18.7439 60.8057C19.4004 60.6931 19.4379 60.7118 19.5505 61.3687C19.8318 62.8514 21.4824 63.9212 23.0204 63.6397C23.3955 63.5646 25.2149 62.7576 27.053 61.8379C28.8911 60.9183 30.5229 60.1676 30.673 60.1676C30.8043 60.1676 31.5733 60.4866 32.3798 60.8995C36.4312 62.9265 40.8014 63.452 45.0966 62.4197L46.6347 62.0631L50.9111 64.8971C53.2744 66.4549 55.4689 67.8437 55.8065 67.9751C57.6634 68.7634 59.6891 67.6936 59.9329 65.8168C60.0642 64.8033 59.7266 63.9212 58.9013 63.1329C58.2636 62.5136 54.5499 60.0925 53.0681 59.3418L52.4491 59.0039L53.0681 58.4784C53.6871 57.9717 53.7246 57.9529 54.3623 58.2345C54.7187 58.3846 56.5005 59.079 58.3011 59.7359C62.0712 61.1435 63.6842 61.4063 64.8471 60.7869C66.2351 60.055 66.7602 58.3846 66.01 57.0333C65.3535 55.8885 64.4532 55.3817 61.1708 54.3119C59.4828 53.7677 58.1136 53.2797 58.1136 53.2046C58.1136 53.0169 59.1452 52.848 60.2518 52.848C61.7898 52.848 64.4907 53.5049 66.1038 54.2369C68.0732 55.1565 68.9172 55.2691 70.0051 54.7436C71.5806 53.9741 72.1621 52.285 71.3931 50.7835C70.2864 48.6064 65.6911 47.0487 60.4206 47.0299H58.4887V46.4106C58.4887 45.566 57.9823 43.9332 57.4196 42.8822L56.9319 42.0376L58.3762 39.2599C59.1639 37.7209 59.8016 36.3696 59.8016 36.2383C59.8016 36.1069 60.0267 35.8441 60.3268 35.6565C62.4088 34.3052 64.5845 31.7152 65.2597 29.8196C66.6102 26.0284 64.6783 22.256 61.3959 22.256C60.0267 22.256 58.1323 23.6824 56.9132 25.6155C56.6318 26.0284 56.3505 26.385 56.2754 26.385C56.1817 26.385 55.9191 26.1598 55.6565 25.8971C55.4126 25.6343 54.8687 25.2214 54.4561 24.9774C51.4551 23.2508 48.6041 25.334 49.2981 28.7686C49.7482 30.9269 51.6051 34.1175 53.1056 35.2811L53.6871 35.7503L53.3307 36.3884C52.6367 37.7022 52.4679 37.8336 51.6051 37.7022L50.7986 37.5896V36.5386C50.7986 34.7556 49.7482 33.6483 48.0601 33.6483C46.7097 33.6483 45.9032 34.3615 45.2092 36.1444C45.0404 36.5949 44.9653 36.6136 43.8212 36.5573L42.5833 36.4823L42.4707 35.7503C42.3207 34.7744 41.3641 33.7421 40.4263 33.5169C38.9258 33.1978 37.5941 34.0049 36.9001 35.6565C36.4875 36.6699 36.4875 36.6699 35.5309 36.7825C34.7056 36.8951 32.3235 37.6271 31.2544 38.0963C30.9731 38.2277 30.9168 38.1526 30.9168 37.7022C30.9168 37.2142 31.0106 37.1391 31.7984 36.9327C33.4114 36.501 35.4559 35.3562 36.5625 34.2676C37.988 32.8412 38.5132 31.7152 38.5132 30.0073C38.5132 28.8249 38.4569 28.5809 37.9505 27.8489C36.9001 26.3663 35.137 25.8032 32.8675 26.2536L32.0985 26.4038L31.9859 24.7522C31.7609 21.6555 30.9731 19.8162 29.5288 18.9716C28.5723 18.4086 27.1843 18.2397 26.2465 18.54ZM44.4214 43.0886C45.0966 44.7214 47.4412 45.1719 48.7354 43.9332C49.3543 43.3514 49.4856 43.3889 50.7048 44.5713C51.8677 45.6974 52.1866 46.4669 52.074 47.8557C51.924 49.6574 51.2487 51.1026 50.2359 51.8158C49.7107 52.1724 49.2418 52.7166 48.9792 53.2234C48.0414 55.1753 43.3711 56.8269 39.7323 56.5266C37.9317 56.3764 37.1439 56.1512 35.4371 55.3254C31.7796 53.5424 30.2603 50.5958 31.2732 47.2176C31.6296 46.0727 31.8546 45.6786 32.6799 44.8716C33.4864 44.0646 33.9178 43.8018 34.9494 43.4827C36.45 43.0135 36.7876 42.9948 37.369 43.3701C38.6069 44.1959 40.0137 44.0833 40.9515 43.0886C41.4579 42.5631 41.5892 42.5256 42.8459 42.5256C44.1588 42.5256 44.1963 42.5443 44.4214 43.0886Z" fill="#EDEDED"/>
</svg>
