<svg width="85" height="85" viewBox="0 0 85 85" fill="none" xmlns="http://www.w3.org/2000/svg">
<path d="M38.614 0.157708C32.837 0.852127 28.5793 2.09082 23.7027 4.47437C14.4183 8.99747 6.87819 17.1428 3.07065 26.7708C-0.0241544 34.5971 -0.680627 43.9061 1.28879 52.1265C3.80215 62.5991 10.2731 71.7392 19.2949 77.5573C33.0621 86.4158 50.8806 86.5097 64.7416 77.7825C67.4425 76.0746 69.2431 74.667 71.6064 72.396C75.3952 68.7175 78.0399 65.114 80.2531 60.5722C82.3538 56.2555 83.6855 51.8638 84.2857 47.2844C84.6609 44.4128 84.6421 39.5519 84.267 36.6053C82.5039 22.8108 73.7072 10.5365 61.3092 4.47437C57.1453 2.42865 53.8817 1.37763 49.3989 0.570606C47.4107 0.232781 40.3396 -0.0487407 38.614 0.157708ZM47.2419 6.689C51.087 7.21451 54.238 8.15291 57.8768 9.89834C61.9282 11.8502 64.9667 13.971 67.9677 17.0302C72.0566 21.1404 75.0764 26.2453 76.7644 31.857C77.8898 35.5918 78.0961 37.1496 78.0961 42.1794C78.0774 46.3272 78.0399 46.8715 77.571 49.0486C76.4643 54.2849 74.026 59.6901 70.9312 63.7252C69.6933 65.358 66.5422 68.5674 64.8729 69.9187C53.8817 78.8147 38.4639 80.41 25.8596 73.9538C15.4123 68.6237 8.51 58.883 6.80317 47.153C6.37177 44.1501 6.52182 38.5197 7.10327 35.6106C9.4103 24.0682 16.7628 14.703 27.4539 9.69189C30.53 8.26552 34.6376 7.06436 38.0513 6.6327C40.0207 6.36994 45.1224 6.40748 47.2419 6.689Z" fill="#EDEDED"/>
<path d="M46.6042 14.4027C44.2971 14.9845 40.6959 17.1428 37.7137 19.6953L36.7758 20.5023L35.2191 19.0009C33.2121 17.1053 32.4056 16.6736 30.9239 16.7862C29.292 16.8988 28.0354 17.9686 27.7915 19.4513C27.6602 20.3146 28.0541 21.497 29.5359 24.6125C30.5487 26.7521 30.6988 27.1837 30.5112 27.4465C30.3049 27.728 26.835 31.9133 26.4036 32.4013C26.3098 32.5139 25.5783 32.2699 24.603 31.8007C22.6523 30.881 19.9514 30.074 18.8448 30.074C17.2317 30.0928 15.5811 31.3503 15.1685 32.9268C14.7934 34.3156 15.0935 35.4417 17.1754 40.1149L18.0945 42.1794L17.5506 43.7747C17.0817 45.1073 16.9691 45.7454 16.8941 47.716C16.8003 50.3436 17.1754 53.6467 17.8132 55.7488C18.5634 58.1698 21.0392 62.3927 22.8211 64.2695C25.447 67.0284 29.761 68.9803 34.5438 69.5808C35.8005 69.7497 37.1697 69.9562 37.5824 70.0688C37.995 70.1814 39.7769 70.3128 41.5212 70.3691C46.1728 70.5192 49.2676 69.8811 52.9626 68.0418C55.6072 66.7093 57.1077 65.6208 59.3585 63.3874C62.6784 60.103 64.4415 57.0625 65.5294 52.7083C65.792 51.6385 66.2984 50.1746 66.6547 49.4614C67.7614 47.1905 67.8364 45.3325 66.8423 44.0187C66.4484 43.512 66.3546 43.0991 66.1858 41.1097C65.9608 38.4258 65.9232 38.1255 65.5294 35.5918L65.2293 33.6963L66.1671 32.3074C67.7989 29.8863 68.3241 28.6476 68.3428 27.2588C68.3428 25.626 67.8552 24.8377 66.4484 24.1433C65.4731 23.6553 65.3043 23.6366 63.4849 23.7492L61.5343 23.8618L60.3151 22.229C58.9084 20.3522 57.8768 19.3199 55.1383 17.049C52.5687 14.9282 51.2558 14.2901 49.2301 14.1962C48.2735 14.1587 47.2982 14.2338 46.6042 14.4027ZM50.7493 21.6659C51.5559 22.2853 52.9626 23.5615 53.8629 24.4811L55.5322 26.1515L54.5194 27.1274C53.0001 28.5913 52.6625 30.2242 53.6191 31.5755C54.4256 32.7016 56.0011 33.0018 57.3141 32.2511C58.2331 31.7256 58.3082 31.8007 58.3082 33.3772C58.3082 34.0904 58.4395 34.6722 58.7583 35.2915C59.0959 35.9109 59.3022 36.8493 59.5086 38.4821C59.9025 41.485 59.9025 42.6486 59.5273 42.6486C59.0584 42.6486 57.9518 43.7935 57.7267 44.5067C57.4266 45.5389 57.7642 46.6087 58.6458 47.3219C59.0209 47.6409 59.4335 47.9037 59.5648 47.9037C60.09 47.9037 59.7524 48.8046 58.8333 49.8743C57.2015 51.7699 56.9014 52.8397 57.5016 54.4913L57.8017 55.3734L56.9577 56.5558C55.9824 57.9259 53.7504 60.1217 52.4562 61.0038C51.2183 61.8484 48.8362 63.012 47.617 63.3686C44.2034 64.3445 40.302 64.3258 36.457 63.2748C35.0127 62.8806 33.531 62.8056 32.9683 63.1246C32.5181 63.3498 30.8488 62.6366 29.0857 61.4543C27.7165 60.5159 27.0976 59.8214 25.8784 57.7945C24.3216 55.2045 23.8339 53.9846 23.5151 51.9388C23.1024 49.2175 23.1212 49.0298 23.7589 49.0298C25.0906 49.0298 26.4223 47.5283 26.4223 45.9894C26.4223 45.5765 26.1972 44.6944 25.9347 44.0187L25.447 42.7988L26.1972 42.0481L26.9475 41.2786L28.5793 43.4557C30.6613 46.2521 31.6554 46.8152 33.2496 46.1395C34.2437 45.7266 34.9002 44.7131 34.9002 43.587C34.9002 42.78 34.7689 42.4422 33.8311 40.9595C33.2309 40.0023 32.3869 38.7449 31.9367 38.1255C31.4865 37.5249 31.1114 36.9431 31.1114 36.8493C31.1114 36.6992 34.3938 32.664 35.763 31.125L36.4195 30.3931L36.2882 31.2189C36.2319 31.6693 36.1569 32.7391 36.1381 33.5837C36.1381 34.7848 36.2132 35.254 36.4945 35.742C37.2635 37.0745 38.839 37.5625 40.227 36.9056C41.1273 36.4739 41.6337 35.5355 41.765 34.0904C41.8026 33.4335 41.9151 32.8517 41.9901 32.7954C42.0651 32.7579 42.459 33.2458 42.8717 33.9027C43.6782 35.1789 44.7661 35.8921 45.8539 35.8921C46.7542 35.8734 47.8984 35.254 48.3673 34.4845C48.7237 33.9027 48.7799 33.6212 48.7049 32.5139C48.6299 31.5004 48.4611 30.9749 47.8984 29.9426C46.2853 26.9773 44.9161 25.3069 43.4344 24.4436L42.534 23.9369L43.2468 23.3738C45.1787 21.8536 47.7483 20.5211 48.7799 20.5023C49.1175 20.5023 49.7553 20.8777 50.7493 21.6659Z" fill="#EDEDED"/>
<path d="M45.46 39.8147C43.7532 40.6029 42.0464 43.0428 39.1204 48.9547C37.0759 53.0649 36.532 55.2232 37.2072 56.537C38.0138 58.076 40.077 58.4889 41.4087 57.3628C41.7275 57.1001 42.1777 56.3306 42.5528 55.3734C42.8904 54.5101 43.5469 53.1212 44.0158 52.2579L44.8411 50.7189L45.5726 51.5447C46.8293 52.9711 48.6861 53.0649 49.9803 51.7699C50.8806 50.8691 51.0494 49.9682 50.9557 46.4023C50.8806 43.8123 50.8056 43.1366 50.468 42.2545C49.5677 39.9648 47.4107 38.9138 45.46 39.8147Z" fill="#EDEDED"/>
</svg>
