<svg width="85" height="85" viewBox="0 0 85 85" fill="none" xmlns="http://www.w3.org/2000/svg">
<path d="M38.622 0.928916C37.1826 1.05962 33.5562 1.75048 31.7991 2.21727C18.8824 5.69023 8.2462 15.1942 3.38608 27.5923C2.35797 30.2624 1.2364 34.6876 0.862549 37.7684C0.432614 41.148 0.563464 46.7869 1.12425 49.9051C3.34869 61.9671 10.0594 71.8259 20.49 78.3797C27.5185 82.8049 37.22 85.1576 45.4262 84.4667C51.3892 83.9439 56.0063 82.7115 61.0533 80.2469C69.6333 76.083 76.5871 69.0998 80.606 60.6414C85.4287 50.484 86.0456 39.2809 82.3631 28.6006C79.0919 19.1526 71.8578 10.6756 62.8292 5.76492C58.5859 3.46829 53.2211 1.76915 47.9871 1.07829C45.9869 0.816885 40.7343 0.742198 38.622 0.928916ZM47.8562 7.44539C62.9787 9.64866 74.7738 20.8518 77.8208 35.9013C78.1946 37.8058 78.2507 38.5527 78.2507 42.6231C78.232 46.8616 78.1946 47.3658 77.746 49.5504C76.6244 54.7785 74.1757 60.156 71.1101 64.1517C69.839 65.8135 67.2967 68.4276 65.4275 69.9774C58.7915 75.5229 49.4638 78.6598 40.9586 78.2116C33.0328 77.7822 25.7053 75.0001 19.9292 70.2388C18.4712 69.0438 15.6299 66.187 14.4709 64.7492C11.2744 60.7908 8.73221 55.2826 7.55457 49.7184C7.08725 47.5712 7.04986 47.0297 7.03117 42.9032C7.03117 38.9821 7.08725 38.1606 7.44241 36.3494C9.10607 28.2271 12.9381 21.4493 18.9011 16.1651C24.0977 11.5345 30.9766 8.37898 37.8743 7.42671C40.323 7.07195 45.4636 7.09062 47.8562 7.44539Z" fill="#EDEDED"/>
<path d="M41.4259 15.8477C39.4632 16.2585 38.1921 16.6319 36.8088 17.2294C28.8457 20.6837 22.1349 29.7769 20.2096 39.729C19.1254 45.3492 19.331 52.0524 20.6956 56.3469C21.6863 59.4464 23.2939 62.0978 25.3875 64.1144C27.6867 66.3363 29.7803 67.6247 32.3599 68.4089C33.1263 68.633 34.0236 69.0251 34.3413 69.2678C35.1825 69.9027 36.2293 70.1827 39.2762 70.6495C42.4914 71.135 45.8561 71.1723 47.8001 70.7429C55.8941 68.9877 61.9506 62.8821 63.932 54.4424C65.091 49.457 64.7358 42.0443 62.9974 35.5278C60.5486 26.3599 54.9595 19.0219 48.6787 16.7253C46.4169 15.9037 43.1269 15.5116 41.4259 15.8477ZM45.8374 22.4575C50.8097 23.9886 55.3146 30.281 57.1465 38.2352C58.4177 43.7808 58.6046 49.5317 57.6512 53.4341C57.3148 54.8718 56.2119 57.3365 55.352 58.6249C53.5014 61.3696 50.3797 63.5542 47.1272 64.3945C45.7252 64.7492 42.0802 64.8052 41.3324 64.4878C41.0707 64.3758 40.6221 64.0957 40.3417 63.8717C39.8931 63.4982 39.5192 63.4422 37.5378 63.3302C34.36 63.1621 32.8272 62.546 30.528 60.4547C27.7802 57.9714 26.4343 54.8345 25.967 49.8118C25.4996 44.6583 26.4904 38.9261 28.6213 34.2768C31.2757 28.5445 36.3975 23.6525 41.1081 22.3642C42.454 21.9907 44.4728 22.0281 45.8374 22.4575Z" fill="#EDEDED"/>
<path d="M51.6883 43.2019C50.6975 43.482 50.0246 44.4529 49.6507 46.0961C49.146 48.3554 47.8749 51.0068 46.0991 53.4901C44.9589 55.0585 44.6411 55.8428 44.7345 56.9071C44.8841 58.6809 46.1365 59.7452 47.8936 59.5771C49.1273 59.4464 49.9311 58.7929 51.1649 56.8884C53.5949 53.1167 55.1838 49.0275 55.2399 46.4135C55.2586 45.1438 55.2025 44.8077 54.866 44.3783C54.0436 43.2766 52.8659 42.8285 51.6883 43.2019Z" fill="#EDEDED"/>
</svg>
