<svg width="85" height="84" viewBox="0 0 85 84" fill="none" xmlns="http://www.w3.org/2000/svg">
<path d="M37.5258 0.240149C28.086 1.56585 19.8611 5.65498 13.113 12.3582C6.58924 18.8186 2.51421 26.9222 1.13094 36.1648C0.701008 39.1149 0.701008 44.8285 1.14964 47.7413C2.68244 57.9174 7.61734 66.9546 15.1879 73.4524C20.6649 78.1764 26.6279 81.1452 33.8059 82.7136C37.1146 83.4418 39.2082 83.6659 42.8533 83.6659C59.2095 83.6472 73.8272 74.4047 80.9118 59.5979C85.8654 49.2537 86.3327 37.2664 82.2203 26.7168C76.7994 12.8063 65.1538 3.30233 50.05 0.464211C47.3769 -0.0399284 40.3484 -0.170631 37.5258 0.240149ZM47.9377 6.5699C56.4429 7.78357 64.5182 12.1154 69.9017 18.3518C75.6217 25.0177 78.65 33.0652 78.65 41.6729C78.65 55.9942 69.9765 68.9712 56.6859 74.5354C54.2372 75.581 50.8538 76.5333 48.0686 76.9814C45.0964 77.4669 40.0493 77.4295 36.9463 76.9067C26.927 75.2076 18.347 69.6434 12.8887 61.3157C5.43029 49.9632 5.18728 35.0444 12.2532 23.5799C17.0572 15.7564 24.067 10.3603 32.8526 7.72755C34.7219 7.1674 37.2267 6.64459 39.1147 6.42053C40.6849 6.23381 46.218 6.32717 47.9377 6.5699Z" fill="#EDEDED"/>
<path d="M56.2747 16.9141C54.4054 17.3809 53.0595 18.8373 51.5641 21.9742C47.1339 31.3474 46.1432 33.9615 45.9937 36.7062C45.788 40.478 47.5265 44.0816 49.9004 44.7911C50.3304 44.9219 50.8912 45.2579 51.1342 45.538C52.181 46.7704 54.7232 46.9384 57.6206 45.9675C61.976 44.5111 64.9668 40.7954 65.9389 35.6046C66.2193 34.1109 66.1819 30.5259 65.8454 28.6587C64.7051 22.1049 61.3778 17.2875 57.714 16.8581C57.2467 16.8207 56.6112 16.8394 56.2747 16.9141ZM58.6487 26.3247C59.4525 28.3599 59.7702 30.0964 59.7702 32.3744C59.7702 37.3411 57.8823 39.8431 53.7512 40.3659L52.7604 40.4966L52.2931 39.6751C51.938 39.0402 51.8445 38.6108 51.8445 37.6398C51.8632 36.1087 51.9753 35.8847 52.5548 36.2581C54.2185 37.3598 56.1625 36.6876 56.9289 34.7457C57.2093 34.0362 57.9383 29.6109 57.9383 28.584C57.9383 27.7624 57.5645 26.8849 57.0785 26.4741C56.6859 26.138 56.7046 25.8392 57.1719 24.943C57.5271 24.2335 57.5645 24.1961 57.8075 24.5322C57.957 24.7189 58.3309 25.5218 58.6487 26.3247Z" fill="#EDEDED"/>
<path d="M35.6565 19.8642C34.535 20.2563 32.0488 22.7584 31.2076 24.3455C30.8712 24.9803 30.3665 25.6899 30.0861 25.8952C29.2075 26.5861 26.9083 29.2748 25.768 30.9366C23.4128 34.3723 22.4781 36.9116 22.5155 39.8058C22.5342 42.6439 23.338 44.5858 25.226 46.3782C30.3291 51.1956 38.6848 48.1521 42.7224 39.9925C44.1057 37.1917 44.816 34.4283 44.816 31.7769C44.816 28.9201 43.9935 26.7168 42.442 25.3351C41.7504 24.7376 41.6382 24.5322 41.6382 23.916C41.6382 22.777 41.3204 21.9181 40.5727 21.0406C39.3577 19.6215 37.5819 19.1921 35.6565 19.8642ZM37.4137 27.4263C37.4323 28.0798 37.6193 28.808 37.9744 29.5923C38.4791 30.6752 38.4978 30.8619 38.4044 32.393C38.1053 37.173 34.6097 41.953 31.1703 42.2891C30.3852 42.3638 30.2169 42.3078 29.6561 41.8036L29.0206 41.2248L29.8618 41.5236C31.6002 42.1397 32.9461 41.3742 33.9368 39.2083C36.3669 33.8494 36.6659 33.0652 36.6846 32.1503C36.6846 31.0673 36.1612 30.1711 35.2827 29.779C34.7032 29.5176 34.591 29.3495 34.9088 29.1628C35.021 29.0881 35.3201 28.6027 35.5818 28.0798C36.1799 26.8662 36.965 26.0073 37.2267 26.2687C37.3202 26.362 37.4137 26.8848 37.4137 27.4263Z" fill="#EDEDED"/>
<path d="M44.3487 45.6314C39.8624 46.2476 32.7405 48.7869 28.9832 51.1396C23.9922 54.2391 21.88 58.3096 23.2445 62.156C23.3754 62.5481 23.4502 62.9962 23.3941 63.1269C23.2071 63.6124 23.7119 64.9381 24.3474 65.6289C25.0764 66.4505 27.656 67.8509 29.7683 68.5791C31.0955 69.0459 31.5254 69.1019 33.6938 69.1019C35.8622 69.1019 36.2921 69.0459 37.7128 68.5791C42.5916 66.9546 47.0965 63.8364 49.5453 60.4008C51.0407 58.3096 51.5641 57.2266 52.5174 54.3698C53.3773 51.8118 53.4521 51.457 53.3773 50.2433C53.2278 47.984 51.9754 46.4156 49.807 45.7808C48.9097 45.5194 45.8067 45.426 44.3487 45.6314ZM46.3675 52.82C45.302 56.4797 42.5729 59.3739 38.1801 61.5585C36.1052 62.5854 34.8715 62.9215 33.3947 62.8281L32.3853 62.7721L36.0117 60.8303C38.0118 59.7473 39.9372 58.6083 40.3111 58.3096C41.9747 56.8345 41.956 54.5565 40.2737 53.5109L39.7129 53.1935L40.5354 52.9694C42.6477 52.3906 45.1712 51.8678 45.8815 51.8678L46.6666 51.8491L46.3675 52.82Z" fill="#EDEDED"/>
</svg>
