<svg width="85" height="84" viewBox="0 0 85 84" fill="none" xmlns="http://www.w3.org/2000/svg">
<path d="M38.3202 0.105898C29.7963 0.983475 22.0201 4.17636 15.4216 9.49783C13.5149 11.0289 9.94457 14.7073 8.52391 16.5931C2.86 24.1552 0 32.6322 0 41.9308C0 46.8415 0.635555 50.912 2.0749 55.2438C4.05634 61.2561 7.5332 66.839 12.1503 71.4323C18.3937 77.6874 25.7961 81.5338 34.8621 83.2329C36.8248 83.6063 37.7034 83.6624 41.8719 83.6624C47.0124 83.6624 48.863 83.4383 52.8445 82.3553C56.6018 81.347 61.4993 79.1811 64.864 77.0152C75.2198 70.4053 82.267 59.1462 83.8559 46.7481C84.2671 43.4432 84.1363 37.9537 83.5755 34.7608C82.5848 29.1593 80.1921 23.1283 77.2012 18.6657C70.6775 8.90033 60.0786 2.17847 48.4143 0.385976C46.059 0.0312111 40.526 -0.118164 38.3202 0.105898ZM45.5356 6.47299C54.3026 7.31323 61.7984 10.9542 67.9483 17.3213C70.6588 20.1221 72.2103 22.3441 74.0235 25.9664C75.6684 29.3086 76.4161 31.3999 77.1452 34.8355C77.6125 36.9828 77.6499 37.5243 77.6686 41.6507C77.6686 45.6278 77.6125 46.3747 77.2386 48.2792C75.1637 58.474 69.126 67.1004 60.359 72.3472C56.8261 74.4571 53.1249 75.8762 48.8817 76.7911C46.6011 77.2766 46.1712 77.2953 41.8719 77.2953C37.5725 77.2953 37.1426 77.2766 34.8621 76.7911C30.1328 75.7828 25.8708 74.009 22.1323 71.4883C14.0196 66.0548 8.823 58.2687 6.87895 48.6527C6.50509 46.7668 6.44901 45.9639 6.44901 42.0242C6.44901 36.8334 6.71071 35.1156 8.15006 30.765C9.92587 25.3315 12.7859 20.7756 16.9918 16.6118C24.4128 9.23643 35.1051 5.44604 45.5356 6.47299Z" fill="#EDEDED"/>
<path d="M60.2843 19.5993C59.2562 19.898 54.9942 21.3918 52.5268 22.3254C47.0498 24.398 32.9554 31.4186 25.2353 35.9185C20.1695 38.8686 12.7859 43.8353 12.2438 44.6756C11.926 45.161 11.5522 47.1029 11.5148 48.5593C11.4961 49.941 13.7018 53.8808 16.4497 57.3351C20.2443 62.0777 26.0391 66.727 31.4974 69.3784C35.4976 71.3389 38.2455 72.0485 41.8719 72.0485C50.7136 72.0858 60.0973 66.6336 65.4622 58.362C69.2194 52.5737 70.9392 46.4681 70.9205 38.85C70.9205 34.8915 70.7148 33.2111 69.8176 29.8501C68.9203 26.4892 66.8828 22.3254 65.35 20.7383C64.2284 19.5619 62.0975 19.0951 60.2843 19.5993ZM62.1348 27.3294C64.0789 31.1945 65.0322 36.9828 64.5088 41.8374C63.7237 49.1941 61.4058 54.3476 56.9196 58.8288C53.0875 62.6752 48.4517 65.0465 43.5355 65.6627C39.8904 66.1295 36.0771 65.0092 31.3478 62.059C27.871 59.9118 23.1043 55.86 20.6369 52.9285C19.2162 51.2667 17.1974 48.3726 17.1974 48.0178C17.2161 47.8124 20.0013 46.0386 20.3004 46.0386C20.3938 46.0573 20.6555 46.4681 20.8985 46.9722C21.4406 48.1299 24.338 51.192 26.5064 52.9098C32.2077 57.4284 37.0678 59.501 42.7317 59.7998C48.2461 60.0798 52.6202 58.418 56.4522 54.609C59.2375 51.8269 60.9198 48.7647 61.7984 44.9556C62.1909 43.2005 62.3405 37.9911 62.0788 35.5824C61.7236 32.5015 61.1628 30.0368 60.3777 28.1697L59.6674 26.4519L60.4338 26.1904C60.8637 26.0411 61.275 25.9664 61.3684 26.0037C61.4432 26.0597 61.7984 26.6572 62.1348 27.3294ZM54.3587 30.1115C55.1064 31.96 55.2933 32.7256 55.6111 35.1716C55.9101 37.3189 55.9849 40.6985 55.7419 40.5864C55.6671 40.5491 54.639 39.9516 53.4801 39.2421L51.3491 37.9537L52.2277 37.7296C54.4334 37.1695 55.2746 34.7235 53.8166 33.0617C53.5175 32.7256 52.9941 32.3522 52.6576 32.2401C51.779 31.9414 49.1621 31.4746 48.4704 31.4746C48.1339 31.4746 47.8536 31.3999 47.8536 31.3252C47.8536 31.2132 53.3119 28.7298 53.667 28.6925C53.7231 28.6738 54.0222 29.3273 54.3587 30.1115ZM45.4235 33.0057C45.2179 33.4538 45.0496 33.9579 45.0496 34.126C45.0496 34.5554 45.0309 34.5368 43.8907 34.0513L42.956 33.6405L44.3206 32.9497C45.087 32.5575 45.7226 32.2401 45.7413 32.2215C45.76 32.2215 45.6104 32.5762 45.4235 33.0057ZM36.5631 43.0138C36.3014 46.3 36.0771 49.5863 36.0771 50.3145C36.0771 51.0427 36.0397 51.6402 35.9836 51.6402C35.8528 51.6402 35.5163 51.4534 33.6096 50.3331L31.9647 49.3809L32.5255 48.8954C32.8432 48.634 33.2171 48.1859 33.3666 47.8871C33.8153 47.0469 34.9555 41.9868 34.9555 40.8852C34.9555 40.0263 34.8621 39.8022 34.3761 39.2234C34.0396 38.85 33.834 38.4952 33.9087 38.4392C34.2452 38.1031 36.9183 36.74 36.9743 36.8894C37.0117 36.9828 36.8248 39.7275 36.5631 43.0138ZM45.4609 41.5014C45.3861 41.52 45.0123 41.576 44.6197 41.6507C44.2272 41.7067 43.629 42.0242 43.2738 42.3416L42.6196 42.9017V41.52C42.6196 40.7545 42.6757 40.0823 42.7317 40.0263C42.7878 39.9703 43.4421 40.269 44.2085 40.6985C44.9562 41.1092 45.517 41.4827 45.4609 41.5014ZM28.7121 43.2005C28.3383 44.4142 28.0392 45.6092 28.0392 45.8332C28.0392 46.0386 27.9831 46.2253 27.9083 46.2253C27.684 46.2067 26.712 45.2731 25.8334 44.2274L25.0297 43.2565L25.8334 42.8084C28.1514 41.4827 29.2542 40.8665 29.3103 40.9225C29.3477 40.9412 29.0673 41.9681 28.7121 43.2005ZM43.386 48.0365C44.6384 51.5095 45.3861 52.387 47.0685 52.387C48.4704 52.387 49.5733 51.4908 49.835 50.1464C49.9472 49.5863 49.9845 49.5676 50.7322 49.6796C51.1435 49.7543 51.723 49.717 52.022 49.6049C52.8071 49.3062 52.6202 49.6609 51.5547 50.5759C49.106 52.6484 47.2367 53.3766 44.3954 53.3953C43.3673 53.414 42.5074 53.358 42.4887 53.2646C42.3953 53.0405 42.4326 45.8519 42.5074 45.8519C42.5448 45.8519 42.9374 46.8415 43.386 48.0365ZM54.2091 47.3643C54.0783 47.5697 53.9474 47.7191 53.91 47.6631C53.7792 47.5324 54.0409 46.9722 54.2278 46.9722C54.34 46.9722 54.3213 47.1402 54.2091 47.3643Z" fill="#EDEDED"/>
</svg>
