<svg width="85" height="84" viewBox="0 0 85 84" fill="none" xmlns="http://www.w3.org/2000/svg">
<path d="M38.3128 0.0699453C32.5554 0.760803 28.3121 1.99314 23.452 4.36447C14.1991 8.86438 6.68456 16.968 2.88992 26.5466C-0.194391 34.3328 -0.848639 43.594 1.1141 51.7723C3.61894 62.1911 10.068 71.2843 19.0592 77.0726C32.7797 85.8857 50.5379 85.9791 64.3518 77.2967C67.0436 75.5975 68.8381 74.1971 71.1934 71.9378C74.9693 68.2782 77.605 64.6932 79.8108 60.1746C81.9044 55.8801 83.2315 51.5108 83.8297 46.9549C84.2036 44.0981 84.1849 39.2621 83.811 36.3307C82.0539 22.6069 73.287 10.3955 60.931 4.36447C56.7812 2.32924 53.5287 1.28361 49.0611 0.480726C47.0797 0.144633 40.0325 -0.135445 38.3128 0.0699453ZM46.9114 6.56774C50.7435 7.09056 53.8839 8.02415 57.5103 9.76063C61.5479 11.7025 64.5761 13.8124 67.567 16.8559C71.642 20.9451 74.6516 26.0238 76.3339 31.6067C77.4555 35.3224 77.6611 36.8721 77.6611 41.8762C77.6424 46.0027 77.605 46.5441 77.1377 48.7101C76.0348 53.9195 73.6048 59.297 70.5204 63.3114C69.2867 64.9359 66.1463 68.1288 64.4827 69.4732C53.5287 78.3236 38.1632 79.9107 25.6017 73.4876C15.1898 68.1848 8.31083 58.4941 6.60979 46.8242C6.17985 43.8367 6.32939 38.2352 6.90887 35.341C9.20808 23.8579 16.5357 14.5406 27.1905 9.55524C30.2562 8.13618 34.3499 6.94118 37.752 6.51173C39.7147 6.25032 44.7992 6.28767 46.9114 6.56774Z" fill="#EDEDED"/>
<path d="M41.0045 10.3021C38.7988 11.4224 37.4903 14.7833 37.2099 20.0115L37.0977 22.2334L35.9761 22.5508C33.6395 23.1857 31.7142 24.2873 30.1066 25.9304L29.172 26.8827L28.5364 26.3972C27.6018 25.669 25.9942 25.0342 24.2931 24.6794C19.6013 23.7458 15.9188 26.2665 15.1337 30.9905C14.6477 33.8473 15.1524 38.8887 16.5543 44.957C19.5078 57.7472 22.1809 63.5542 26.2372 65.8508C28.1999 66.9711 32.032 67.6433 33.3405 67.1018L34.0695 66.8031L34.705 67.5499C35.4714 68.4275 36.2005 68.857 36.9856 68.857C37.3033 68.857 38.2006 69.081 39.0044 69.3424C42.9859 70.6495 47.0984 69.8652 50.407 67.1765L51.5846 66.2242L52.3136 66.6164C53.753 67.3446 56.5382 66.9898 58.744 65.8135C62.09 64.0396 63.9219 60.5107 65.8846 52.0523C67.324 45.8159 67.7352 42.3243 67.7539 36.7414C67.7539 32.3722 67.7352 32.0735 67.2492 30.1689C66.1463 25.8371 64.3892 23.5031 61.6974 22.8309C59.8282 22.3454 57.5102 22.9616 55.6597 24.4367C55.2858 24.7354 54.9119 24.9782 54.8372 24.9782C54.7811 24.9782 54.3885 24.6794 53.9773 24.306C53.024 23.4657 51.0238 22.4948 49.5471 22.1774C48.9116 22.0467 48.4069 21.8413 48.4069 21.7106C48.4069 21.5986 48.7994 20.3662 49.2667 18.9845C50.2948 15.997 50.3883 14.8767 49.734 13.5323C49.1919 12.4307 48.1452 11.6278 45.9768 10.6755C43.8458 9.72327 42.3691 9.62991 41.0045 10.3021ZM48.9676 28.6378C54.2016 31.0652 54.8559 44.5649 50.2761 56.2161C49.3228 58.6808 48.3695 60.2679 47.0984 61.575C45.2852 63.4608 43.528 63.965 40.9858 63.3861C40.2942 63.2181 39.4717 63.05 39.1539 63.0314C38.6492 62.9753 38.5744 62.882 38.1632 61.575C34.9667 51.3615 32.6675 34.1087 34.1069 31.0652C34.6863 29.8515 36.6304 28.7499 38.9296 28.3578C39.4717 28.2644 41.7522 28.1897 44.014 28.2084C47.7526 28.2457 48.2012 28.2831 48.9676 28.6378ZM60.6132 29.31C61.361 31.3079 61.3983 31.7374 61.3983 36.5547C61.3797 40.5318 61.3236 41.7828 60.9684 44.1168C59.8282 51.5669 57.8654 58.27 56.3513 59.7451C55.5849 60.5107 55.4727 60.38 55.9214 59.2783C56.856 56.963 57.2672 55.712 57.9589 53.0233C60.1646 44.3782 60.2955 36.8908 58.3327 31.1959L57.7906 29.6461L58.7627 29.086C60.0525 28.3391 60.2581 28.3764 60.6132 29.31ZM24.4614 30.6731C24.8913 30.8224 25.5082 31.1212 25.8073 31.3453C26.1063 31.5506 26.5737 31.7934 26.8541 31.8681L27.3214 31.9988L27.3027 34.3328C27.2092 40.5318 28.7233 50.5212 30.7982 57.7286L31.7142 60.8654L30.7982 60.7721C30.2935 60.6974 29.5832 60.4733 29.228 60.2493C27.3775 59.1103 25.5643 54.7224 23.3772 46.152C21.8257 39.9903 21.4518 37.6937 21.4145 34.1087C21.3958 31.7374 21.4518 30.9345 21.6575 30.7104C21.9752 30.2996 23.3959 30.281 24.4614 30.6731Z" fill="#EDEDED"/>
</svg>
