<svg width="85" height="86" viewBox="0 0 85 86" fill="none" xmlns="http://www.w3.org/2000/svg">
<path d="M38.6057 0.998053C38.3432 1.03559 37.4241 1.16697 36.5425 1.27957C30.9344 2.01153 23.9945 4.60152 19.1929 7.77333C14.335 11.0014 9.98351 15.3369 6.85119 20.1227C5.18188 22.6939 3.11868 26.9918 2.14334 29.9572C-1.70171 41.7435 -0.351254 53.9053 6.04467 64.772C9.27077 70.2335 14.6351 75.6199 20.2432 78.9982C32.5099 86.4116 47.7964 87.106 60.6632 80.8375C65.99 78.2287 70.8479 74.4751 74.4679 70.1584C85.3654 57.1146 87.6161 39.36 80.2449 24.4394C77.8441 19.5784 75.5558 16.4442 71.5607 12.578C65.5024 6.74108 58.0186 2.9687 49.4844 1.44849C47.6651 1.12943 46.2396 1.01682 43.1073 0.979285C40.894 0.941749 38.8683 0.941749 38.6057 0.998053ZM48.4528 7.69826C56.1242 9.16217 62.5389 12.4841 67.7719 17.7204C70.7542 20.7045 72.8174 23.6511 74.7305 27.63C80.0198 38.7031 79.157 51.8596 72.4422 62.2195C67.9407 69.1825 61.3009 74.3249 53.4983 76.8774C44.3264 79.8991 34.6106 79.2046 26.0015 74.9255C17.6736 70.7778 11.1652 63.2893 8.22041 54.4308C4.76924 44.0145 6.23223 32.7536 12.2343 23.5948C15.4229 18.7527 19.418 14.9427 24.2571 12.1651C28.8524 9.53753 32.8663 8.205 38.6995 7.3792C39.9937 7.19152 47.0086 7.4355 48.4528 7.69826Z" fill="#EDEDED"/>
<path d="M44.589 12.578C41.1754 13.5351 39.281 16.5005 38.7558 21.6805C38.6433 22.9004 38.5307 23.8951 38.512 23.9139C38.512 23.9327 37.818 23.8013 36.9927 23.6136C34.6294 23.0318 32.4724 22.7878 31.1219 22.9192C27.9146 23.2007 24.9136 25.0024 23.9758 27.1795C23.7507 27.705 23.5256 28.6997 23.4693 29.3754L23.3568 30.6329L22.2502 31.5337C19.9244 33.4481 19.0241 35.1372 18.7427 38.1401C18.6114 39.7354 18.5177 40.0357 17.9175 40.9178C15.4979 44.5775 15.3666 47.0925 17.411 50.4895C17.8237 51.1651 18.1613 51.9722 18.1613 52.2537C18.1613 52.5352 17.9175 53.2859 17.6361 53.9053C16.642 55.9698 16.4169 56.9269 16.5107 58.5035C16.6233 60.3427 17.1484 61.3187 18.9866 63.0078C21.2186 65.0723 21.8 65.7479 22.7566 67.5309C24.4634 70.7027 25.7576 71.566 29.5839 72.2042C31.272 72.4857 32.4724 72.8235 33.8979 73.4241C37.4804 74.888 38.4182 75.1132 40.9503 75.0944C43.1448 75.0944 43.2761 75.0569 46.127 74.1185L49.053 73.1613L51.4726 73.1801C53.5921 73.1989 54.0422 73.1426 55.0176 72.7672C56.6869 72.1291 58.0561 71.1156 59.913 69.145C60.832 68.1878 62.4263 66.6676 63.4579 65.7855C65.5962 63.9462 66.3839 63.0453 67.1342 61.5251C67.8282 60.1363 68.0532 58.7287 68.0532 55.9135C68.0532 53.605 68.0532 53.5862 68.8785 51.4842C69.3474 50.3206 69.8163 48.988 69.9476 48.4813C70.304 47.0174 70.0789 45.3283 69.1224 42.5318C68.3909 40.411 68.222 39.6415 68.0532 37.7084C67.7531 34.3114 67.4718 33.5607 65.2585 30.051C64.9209 29.5255 64.4895 28.4558 64.302 27.6675C63.8706 25.9408 63.3829 24.9649 62.5951 24.1766C61.2447 22.8253 59.6129 22.4124 56.5931 22.694L54.7362 22.8629L53.9109 22.206C52.9731 21.4177 51.8665 20.9861 50.3847 20.8359C49.7845 20.7796 49.2969 20.667 49.2969 20.6107C49.2969 20.5544 49.5032 19.8975 49.7658 19.1843C50.5536 16.9509 50.3285 15.0178 49.1468 13.7791C48.0402 12.6155 46.2021 12.1275 44.589 12.578ZM45.4518 27.4235C45.8645 27.4235 47.0274 27.3484 48.0214 27.2546L49.8408 27.1045L50.5348 27.7238C51.9228 28.925 52.6543 29.1314 55.5052 29.1126L58.0749 29.0751L58.3187 29.9572C58.6563 31.2522 59.5191 33.0727 60.2318 34.0674C60.9258 35.0058 61.4885 36.0381 61.4885 36.3384C61.4885 36.4322 61.0384 36.7513 60.5132 37.0703C59.2002 37.8023 56.3305 40.7864 56.1429 41.5934C55.7491 43.4139 57.0245 44.9904 58.8626 44.9904C59.8004 44.9904 60.5319 44.6338 61.601 43.6391C62.3325 42.9635 62.4263 42.9259 62.5389 43.2262C62.6139 43.4327 62.914 44.2022 63.2141 44.9529C63.4954 45.7036 63.7393 46.5294 63.7393 46.7922C63.7393 47.0549 63.4017 48.0496 62.989 49.0256C61.9199 51.5405 61.6761 52.7417 61.6761 55.6882C61.6761 58.8225 61.5823 59.029 59.3128 60.9433C58.3937 61.7128 56.8369 63.1767 55.8616 64.1902C53.2169 66.9303 53.367 66.8553 50.8724 66.799C48.4716 66.7426 47.1774 66.9679 44.3264 68.0189C42.7321 68.6007 42.207 68.6945 40.8565 68.7133C39.4498 68.7133 39.0559 68.6195 37.4804 68.0001C36.505 67.6247 35.6235 67.2306 35.5297 67.1368C35.4359 67.0429 35.6235 66.3485 35.9798 65.5227C36.7864 63.5708 36.8051 62.5011 36.0361 61.5439C35.3984 60.7556 34.3105 60.3052 33.4477 60.4553C32.2286 60.6993 31.6846 61.2436 30.8031 63.0829C30.3529 64.04 29.9778 65.016 29.9778 65.2224C29.9778 65.4289 29.9028 65.6729 29.7902 65.7292C29.3964 65.9732 28.8712 65.4101 27.9896 63.8148C27.2769 62.5198 26.6392 61.7128 24.9699 60.0237L22.8316 57.8841L23.5819 56.1762C25.1387 52.629 24.9699 50.6772 22.8691 47.2426C22.3064 46.2854 22.3627 45.8538 23.3756 44.1646C24.651 42.0251 24.9323 41.1993 25.0449 39.2662C25.1574 37.577 25.1574 37.577 25.9264 36.8263C26.3578 36.4134 27.1268 35.7378 27.652 35.3061C28.965 34.2176 29.6589 32.8663 29.7902 31.1208C29.884 29.7508 29.9028 29.6945 30.5405 29.3379C31.3845 28.8311 33.4102 28.8311 36.0736 29.3379C37.1052 29.5443 38.5307 29.6945 39.2247 29.6945H40.5001L41.3442 28.7936C41.8131 28.3056 42.3195 27.9115 42.4508 27.9115C42.5821 27.9115 42.8822 27.7426 43.126 27.5361C43.4636 27.2546 43.7075 27.1983 44.1389 27.3109C44.4577 27.3672 45.0392 27.4235 45.4518 27.4235Z" fill="#EDEDED"/>
<path d="M32.6974 36.6385C31.8346 37.1077 31.4595 37.5018 31.0843 38.3276C30.5967 39.3974 30.6342 40.2607 31.2907 41.537C32.0409 43.0384 33.8415 45.3281 34.7794 45.985C36.8613 47.4489 39.3559 46.2478 39.3559 43.8267C39.3559 43.1135 39.4684 42.7569 39.8436 42.2689C40.4813 41.4244 40.6313 40.2983 40.1999 39.3786C39.7873 38.459 39.2996 38.1024 37.1989 37.2203C35.2108 36.357 33.5789 36.1505 32.6974 36.6385Z" fill="#EDEDED"/>
<path d="M50.0471 52.6289C49.6157 52.7978 48.9217 53.4735 48.6216 54.0365C48.1151 55.0312 48.4152 56.4951 49.3156 57.3022C50.1971 58.0904 55.0362 61.0933 55.9178 61.3936C57.0807 61.7877 58.1123 61.5437 58.9751 60.6804C60.1192 59.5356 60.0067 57.8277 58.7313 56.589C58.3374 56.2136 56.6681 55.1438 55.0362 54.2054C52.4291 52.704 51.9414 52.4975 51.1912 52.5163C50.7223 52.5163 50.1971 52.5726 50.0471 52.6289Z" fill="#EDEDED"/>
</svg>
