<svg width="85" height="84" viewBox="0 0 85 84" fill="none" xmlns="http://www.w3.org/2000/svg">
<path d="M36.6379 0.229149C34.1143 0.583914 29.7402 1.66688 27.4784 2.50711C22.0014 4.52367 16.5431 8.05265 12.3372 12.2725C4.37411 20.2454 0 30.7576 0 41.9607C0 57.9811 9.25293 72.6759 23.6464 79.5098C29.5907 82.3292 35.4789 83.6549 41.9653 83.6549C56.7887 83.6549 70.2662 76.0555 78.192 63.2466C80.9585 58.7653 83.0521 52.7157 83.8559 46.9087C84.211 44.2947 84.2484 39.2533 83.9493 36.9193C83.1269 30.8323 81.2763 25.2307 78.5284 20.6561C72.0607 9.8078 62.0227 2.86188 49.349 0.471883C46.6946 -0.0322568 39.5166 -0.16296 36.6379 0.229149ZM47.3302 6.57757C58.5645 8.27671 67.8922 14.6998 73.5188 24.6146C75.3507 27.8448 77.033 33.0169 77.5751 37.106C77.8929 39.4213 77.8368 44.3133 77.4816 46.7033C76.5283 53.0704 73.8926 59.1014 70.0045 63.9001C64.3593 70.8647 56.7513 75.2899 47.7414 76.8957C44.601 77.4559 39.5166 77.4558 36.264 76.9144C28.4317 75.6073 21.5902 72.041 16.244 66.4768C10.954 60.9686 7.75751 54.3961 6.61725 46.6287C6.20601 43.7532 6.33686 38.0583 6.89764 35.3322C8.39307 28.0689 11.7391 21.7764 16.8048 16.7537C22.6183 11.0028 29.8711 7.47382 38.0398 6.4282C39.6474 6.22281 45.573 6.31617 47.3302 6.57757Z" fill="#EDEDED"/>
<path d="M44.9562 11.5816C42.6196 12.4592 40.096 14.6811 38.7128 17.0525L38.0585 18.1541H36.2827C34.6004 18.1541 34.4134 18.1914 33.3106 18.7889C30.2823 20.4321 28.6187 23.9424 28.8243 28.2182L28.9364 30.1227L28.2261 30.6269C27.8336 30.907 27.2167 31.5605 26.8615 32.102C25.1418 34.7534 24.7306 37.8902 25.497 42.7262L25.7213 44.1826L24.9175 44.9855C22.6931 47.1701 22.0201 50.7178 23.1791 54.3775C24.2259 57.701 27.9831 63.8254 30.3571 66.066C30.731 66.4208 31.03 66.8689 31.03 67.093C31.03 67.317 30.6936 68.456 30.2636 69.6323C29.3664 72.1157 29.329 73.3667 30.0954 74.431C30.6936 75.2712 31.9647 75.8314 32.9554 75.682C34.563 75.4206 35.2733 74.487 36.4136 71.1821L37.1987 68.9415L39.1053 68.8108C44.2272 68.4373 47.7975 67.149 50.321 64.759C52.452 62.7611 53.424 60.1657 53.0688 57.477L52.9006 56.3567L54.8447 54.4335C56.4896 52.7903 56.9009 52.2675 57.5925 50.8485C58.415 49.1867 58.415 49.1493 58.415 47.2075C58.415 45.4523 58.3589 45.1162 57.9103 44.1453C57.6299 43.5665 56.9569 42.6142 56.4149 42.0354C55.7232 41.2885 55.4989 40.9337 55.6111 40.7657C55.7232 40.635 56.3401 39.8134 56.9943 38.9545C59.7422 35.3322 60.9011 31.5045 60.116 28.6103C59.5366 26.4257 58.1907 24.7639 56.2279 23.849L55.0877 23.3075L55.125 21.1976C55.1998 17.5566 54.4708 15.1666 52.6763 13.2807C51.1809 11.6936 50.2275 11.2829 47.947 11.2082C46.3581 11.1522 45.9095 11.2082 44.9562 11.5816ZM48.3583 18.0047C48.7134 18.5275 48.7695 20.3387 48.5826 24.5959C48.5078 26.5751 48.6013 26.8738 49.6854 27.9942C50.3397 28.685 51.293 29.1145 52.7511 29.3572C53.6296 29.4879 54.0222 29.88 54.0222 30.5709C54.0222 32.0833 52.5828 34.5293 49.835 37.7222C48.0592 39.7761 47.5732 40.7844 47.704 42.0354C47.8722 43.4544 48.62 44.4627 50.1528 45.3403C50.8818 45.7697 51.6482 46.2552 51.8351 46.4046C52.5828 47.0581 52.0034 48.4211 50.2275 50.1203C49.5546 50.7738 48.9377 51.2966 48.8443 51.2966C48.7508 51.2966 48.4704 51.0912 48.2274 50.8298C47.1245 49.6721 45.0309 49.8589 42.956 51.3153C42.1896 51.8754 42.0775 51.7634 42.3766 50.7738C44.9562 42.3901 46.5077 35.0521 47.461 26.6498C48.2087 20.04 48.19 19.5358 47.0685 18.4528C46.5638 17.9487 46.5077 17.818 46.732 17.6873C47.2928 17.3325 48.0218 17.4819 48.3583 18.0047ZM37.0865 25.156C38.395 26.1456 39.9652 26.3137 41.0681 25.5855C41.3111 25.4174 41.5541 25.3241 41.5915 25.3801C41.6475 25.4174 41.5541 26.1643 41.3858 27.0419C40.8998 29.8053 40.1708 33.6517 40.096 33.8758C40.04 34.0438 39.7596 33.9878 39.1427 33.6517C38.6567 33.3903 38.0585 33.1849 37.8155 33.1849C36.6192 33.1849 35.2546 34.3239 35.049 35.5002C34.9181 36.1537 35.3107 38.6371 35.8341 40.5416C36.1519 41.6619 37.1052 42.8943 37.666 42.8943C37.8155 42.8943 37.9464 42.9876 37.9464 43.0997C37.9464 43.3984 36.6566 47.7676 34.9929 53.1638C34.1891 55.7778 33.404 58.3732 33.2732 58.896C33.1236 59.4375 32.9554 59.8856 32.8806 59.8856C32.6563 59.8856 30.7123 56.4874 30.0767 55.0123C29.2916 53.2011 28.9738 51.9875 28.9738 50.7925C28.9738 49.8402 28.9925 49.8029 30.0954 48.8506C32.1142 47.0954 32.3572 46.0685 31.7778 41.7553C31.4226 39.1973 31.3852 38.4877 31.5534 37.4234C31.7778 35.9297 32.0581 35.5749 33.404 34.9401C34.563 34.3799 35.2359 33.633 35.535 32.5688C35.7032 31.9339 35.6845 31.4111 35.4228 29.8613C35.049 27.7514 35.1238 26.1083 35.5911 25.1934C35.9649 24.4652 36.1519 24.4652 37.0865 25.156ZM46.5264 57.1596C46.9189 58.7467 46.7133 59.6616 45.7973 60.4085C45.2553 60.8566 43.8159 61.5288 42.8065 61.8275C41.6662 62.1449 39.0679 62.5557 38.9371 62.425C38.881 62.369 39.0306 61.7155 39.2549 60.9313C39.61 59.7549 39.7409 59.5309 40.1521 59.4188C40.4138 59.3628 41.8532 58.6346 43.3486 57.8131C44.844 57.0102 46.1338 56.338 46.1899 56.338C46.2647 56.338 46.4142 56.7114 46.5264 57.1596Z" fill="#EDEDED"/>
</svg>
