<svg width="85" height="85" viewBox="0 0 85 85" fill="none" xmlns="http://www.w3.org/2000/svg">
<path d="M38.7792 0.606078C33.0218 1.29693 28.7785 2.52926 23.9183 4.90057C14.6653 9.40045 7.15069 17.504 3.35602 27.0825C0.271671 34.8686 -0.382584 44.1298 1.58018 52.308C4.08504 62.7268 10.5341 71.8199 19.5255 77.6082C33.2461 86.4212 51.0045 86.5146 64.8186 77.8322C67.5104 76.1331 69.3049 74.7327 71.6602 72.4734C75.4362 68.8138 78.0719 65.2288 80.2777 60.7103C82.3713 56.4158 83.6985 52.0466 84.2967 47.4907C84.6706 44.6339 84.6519 39.798 84.278 36.8665C82.5209 23.1428 73.7538 10.9315 61.3978 4.90057C57.2479 2.86535 53.9953 1.81974 49.5277 1.01685C47.5463 0.680764 40.499 0.400689 38.7792 0.606078ZM47.378 7.10383C51.2101 7.62664 54.3505 8.56022 57.977 10.2967C62.0146 12.2385 65.0429 14.3484 68.0338 17.3919C72.9501 22.3399 76.3335 28.7443 77.6607 35.5595C77.8663 36.6238 78.0345 37.6694 78.0345 37.8935C78.0345 38.2669 77.9972 38.2482 77.5672 37.7067C76.4643 36.325 73.3987 34.906 70.5387 34.4579C69.0993 34.2338 65.6598 34.3458 64.3139 34.6633C63.7531 34.7753 63.4353 34.7566 63.0428 34.5512C62.7437 34.4019 61.3978 33.823 60.0332 33.2629C58.6686 32.7214 56.4815 31.7505 55.1356 31.1156C53.8084 30.4621 52.2195 29.7713 51.64 29.5472C50.8736 29.2485 50.4437 28.9684 50.1446 28.5016C49.9016 28.1468 49.3782 27.68 48.9669 27.4746C48.2566 27.1199 47.8827 27.1012 40.742 27.1199C36.6296 27.1386 31.3394 27.2506 28.9654 27.3626C21.9182 27.7174 16.4785 28.1095 15.7495 28.3149C14.441 28.6883 13.3194 29.6219 12.6464 30.9102L12.0296 32.1052L12.1417 38.491L11.0762 40.7689C9.8051 43.4763 9.31908 45.2501 9.05738 48.2002C8.7396 51.7665 9.20692 54.9781 10.3846 57.3494C10.9828 58.563 12.6838 60.9343 13.8241 62.1293C16.0299 64.4633 19.432 65.5462 25.2268 65.789C28.3486 65.901 31.302 65.6956 36.0501 65.0048C40.2373 64.4073 42.0879 63.9218 44.2002 62.9135C47.4528 61.3451 48.9482 59.3286 50.3876 54.5486C52.1074 48.7791 53.2289 47.416 57.061 46.4264C57.9022 46.221 58.7994 45.9596 59.0798 45.8663C59.4537 45.7169 59.6593 45.7542 60.0519 46.0343C60.3323 46.221 60.7622 46.4451 61.0239 46.5198C61.2856 46.5945 62.7624 47.1359 64.3139 47.7334C68.0525 49.1712 69.8096 49.5633 71.4359 49.2832C73.2304 48.9658 74.8567 48.0882 76.3335 46.6505C77.0251 45.9596 77.7355 45.1941 77.9037 44.9327C78.2215 44.4846 78.2215 44.5032 78.1093 45.7729C77.6046 51.7665 74.8007 58.8618 70.9873 63.8471C69.7535 65.4715 66.6131 68.6644 64.9494 70.0088C53.9953 78.8592 38.6297 80.4463 26.068 74.0232C15.656 68.7204 8.77699 59.0298 7.07592 47.36C6.64598 44.3725 6.79553 38.771 7.37501 35.8769C9.67425 24.3938 17.0019 15.0766 27.6569 10.0913C30.7226 8.67225 34.8163 7.47726 38.2185 7.04781C40.1812 6.78641 45.2657 6.82375 47.378 7.10383ZM46.1817 33.3376C46.4808 33.711 47.0602 34.0284 47.9014 34.2898C48.5931 34.5326 50.5371 35.4288 52.2382 36.325C53.9393 37.2026 56.2011 38.3229 57.2853 38.827C58.3508 39.3125 59.2481 39.742 59.2855 39.7793C59.3229 39.798 58.8555 39.8353 58.276 39.8353C56.7806 39.8353 53.7897 40.6755 51.7709 41.6651C50.7054 42.1693 49.8268 42.4867 49.3595 42.4867C48.4809 42.5054 47.378 43.1962 46.7051 44.1671C45.7144 45.6049 43.0039 50.1234 42.4805 51.225C41.415 53.447 41.1346 55.2955 41.6954 56.3598C41.8636 56.6772 41.9197 56.9946 41.8262 57.0693C41.2467 57.6481 38.2745 58.3203 33.3396 58.9925L32.6853 59.0858V57.8162C32.704 56.8079 32.6292 56.4344 32.3115 56.0237C31.246 54.5859 30.33 54.4179 25.7128 54.754C19.2451 55.2208 16.3663 55.0154 15.8429 54.0258C15.2261 52.8308 15.1887 48.2376 15.7869 46.053C16.0859 44.914 16.0486 44.9327 16.9645 45.2128C17.5066 45.3808 19.3198 45.4742 22.4416 45.5115L27.0961 45.5862L28.0682 45.0447C29.4888 44.2605 33.0779 40.5448 33.3396 39.5926C33.6013 38.659 33.6013 38.0428 33.3209 37.2586C32.8162 35.7275 31.732 34.9807 29.6197 34.6819C27.9373 34.4579 20.834 34.7753 19.6376 35.1487C19.1516 35.2981 18.703 35.4101 18.6843 35.3728C18.6469 35.3354 18.5721 35.0927 18.4973 34.794C18.3852 34.3832 18.4226 34.2898 18.703 34.2898C19.0394 34.2898 21.2826 34.1778 37.2838 33.2629C41.4523 33.0388 45.0414 32.8334 45.2844 32.8148C45.5461 32.7961 45.9013 33.0015 46.1817 33.3376ZM70.1461 40.8249C70.6695 40.9183 71.3985 41.1237 71.7724 41.273L72.4453 41.5718L72.1089 42.0199C71.5668 42.7294 70.6882 43.2522 69.9779 43.2522C69.2675 43.2522 63.211 41.3851 63.3792 41.217C63.5288 41.049 66.5384 40.6942 67.959 40.6569C68.6507 40.6569 69.6227 40.7129 70.1461 40.8249Z" fill="#EDEDED"/>
<path d="M37.6014 34.4765C37.0967 34.5699 36.4238 34.85 36.0873 35.1114C35.3396 35.6715 34.0124 38.1362 33.732 39.4805C33.3581 41.217 34.1058 42.8414 35.6387 43.5883L36.4425 43.9804L34.5545 43.8684C32.4235 43.7377 31.601 43.9244 30.6476 44.7646C28.8531 46.3517 28.5727 50.2915 30.1616 51.8785C31.0963 52.7935 31.9561 52.9615 33.246 52.4387C33.7694 52.2333 34.7414 51.9159 35.4144 51.7478C38.2183 51.057 39.882 49.5819 40.0502 47.6774C40.1811 46.1463 39.6577 45.2874 38.2183 44.5966L37.078 44.0551L38.3678 43.9431C39.3212 43.8497 39.8446 43.8871 40.3493 44.0924C42.1999 44.8767 44.0879 44.0364 45.116 41.9825C45.4525 41.3104 45.602 41.1983 46.1067 41.1983C46.8919 41.1983 48.2004 40.5448 48.7612 39.8726C49.7332 38.715 49.621 37.0159 48.4995 35.9516C47.3592 34.8686 45.4338 34.4205 41.583 34.3645C39.882 34.3272 38.0875 34.3832 37.6014 34.4765Z" fill="#EDEDED"/>
<path d="M19.3196 46.7625C17.8429 47.248 17.0204 47.9388 16.5344 49.0778C15.7119 51.001 16.3848 52.7561 18.2915 53.6337C19.0766 53.9885 19.544 54.0818 20.9272 54.0818C22.8152 54.0818 25.3949 53.6897 26.1987 53.2789C27.395 52.6441 27.9371 51.6545 27.9371 50.0487C27.9371 47.6214 26.5351 46.7252 22.4601 46.5198C20.7216 46.4451 20.1795 46.4824 19.3196 46.7625Z" fill="#EDEDED"/>
</svg>
