<svg width="85" height="84" viewBox="0 0 85 84" fill="none" xmlns="http://www.w3.org/2000/svg">
<path d="M38.0146 0.103721C36.5752 0.234423 32.9488 0.925281 31.1917 1.39208C18.275 4.86504 7.63878 14.369 2.77865 26.7671C1.75055 29.4372 0.628982 33.8624 0.255127 36.9433C-0.174808 40.3229 -0.043958 45.9618 0.516826 49.0799C2.74127 61.142 9.45198 71.0007 19.8826 77.5545C26.911 81.9797 36.6126 84.3324 44.8187 83.6415C50.7817 83.1187 55.3989 81.8864 60.4459 79.4217C69.0259 75.2579 75.9796 68.2746 79.9986 59.8163C84.8213 49.6588 85.4382 38.4557 81.7557 27.7754C78.4845 18.3274 71.2503 9.85042 62.2217 4.93973C57.9785 2.64309 52.6136 0.943953 47.3797 0.253095C45.3795 -0.00831041 40.1268 -0.0829978 38.0146 0.103721ZM47.2488 6.62019C62.3713 8.82347 74.1664 20.0266 77.2133 35.0761C77.5872 36.9806 77.6433 37.7275 77.6433 41.7979C77.6246 46.0364 77.5872 46.5406 77.1386 48.7252C76.017 53.9533 73.5683 59.3308 70.5026 63.3266C69.2315 64.9883 66.6893 67.6024 64.82 69.1522C58.1841 74.6977 48.8564 77.8346 40.3512 77.3865C32.4254 76.957 25.0978 74.1749 19.3218 69.4136C17.8637 68.2186 15.0224 65.3618 13.8635 63.9241C10.667 59.9656 8.12479 54.4574 6.94715 48.8932C6.47983 46.746 6.44244 46.2045 6.42375 42.078C6.42375 38.1569 6.47983 37.3354 6.83499 35.5242C8.49865 27.4019 12.3307 20.6241 18.2937 15.3399C23.4903 10.7093 30.3692 7.55378 37.2668 6.60152C39.7156 6.24675 44.8561 6.26543 47.2488 6.62019Z" fill="#EDEDED"/>
<path d="M28.9112 20.512C23.9015 21.7444 19.6769 25.8708 18.275 30.8936C17.5273 33.5636 17.789 36.9059 18.9479 39.1652C20.1442 41.5552 22.5556 43.7771 25.0605 44.8788L26.2942 45.4016L25.6212 46.0738C23.5463 48.2024 22.4435 51.2832 22.6491 54.4574C22.9295 58.8826 25.8829 62.617 30.5001 64.3908C33.117 65.3991 34.1825 65.5858 37.5472 65.6045C40.1829 65.6045 40.8559 65.5298 42.2204 65.1751C49.1928 63.2892 53.5296 57.7997 53.1931 51.2272C53.081 49.0799 52.5949 47.3808 51.6229 45.7564L50.9874 44.6921L51.6042 45.2709C53.9408 47.4555 57.1747 48.7065 60.5207 48.7065C63.7358 48.7065 65.8668 47.8849 67.923 45.8124C70.0727 43.6838 71.0073 41.2751 71.0073 37.9329C71.0073 35.0574 70.1849 32.8728 68.353 30.8749C67.3436 29.7546 64.9696 27.9808 64.5209 27.9808C64.3714 27.9808 63.9415 27.6447 63.5676 27.2339C62.7077 26.263 61.4179 25.8522 59.2309 25.8708C57.2681 25.8708 55.6792 26.263 53.623 27.2712C49.7162 29.1758 47.1553 33.3956 47.5292 37.2793C47.6974 38.9785 48.4638 41.1818 49.3237 42.5075C49.7349 43.1423 50.034 43.6651 49.9966 43.6651C49.9593 43.6651 49.6041 43.4037 49.2115 43.0863C48.09 42.19 45.9777 41.2191 43.7532 40.5656C43.5663 40.5096 43.6972 40.2295 44.1458 39.5946C45.8095 37.3354 46.7067 34.6093 46.7067 31.8458C46.7067 28.653 45.7347 26.2816 43.5289 24.041C41.4914 21.9684 39.8465 21.2216 35.8275 20.512C33.1357 20.0452 30.8178 20.0452 28.9112 20.512ZM32.3319 26.375C32.6871 26.5057 33.5657 26.6924 34.276 26.7671C37.6781 27.1032 39.3044 27.9994 40.0895 29.9787C40.5568 31.1923 40.3885 33.4329 39.6969 34.7586C38.6501 36.8312 36.407 38.605 33.8648 39.3706C32.7619 39.7067 32.145 39.7627 30.687 39.7067C29.0981 39.6507 28.6869 39.576 27.6401 39.0718C26.4063 38.4743 25.1913 37.4287 24.724 36.5511C24.3314 35.7856 24.0884 34.4786 24.2754 34.1611C24.4249 33.9184 24.4436 33.9371 24.4623 34.2918C24.4623 34.5159 24.7427 35.02 25.0791 35.3935C25.6212 35.9723 25.8455 36.0843 26.7428 36.159C28.0139 36.2524 28.7616 35.9163 29.472 34.8893C30.1075 33.9931 30.93 33.5076 32.5563 33.0968C34.7246 32.5554 35.8649 31.4537 35.8649 29.904C35.8649 27.6633 33.9769 26.5991 31.2291 27.3273C28.4999 28.0368 26.3689 29.3812 25.2287 31.099C24.4249 32.294 24.4997 31.8458 25.3222 30.4828C26.4811 28.5596 27.8831 27.2899 29.6776 26.5617C30.8926 26.0576 31.4721 26.0202 32.3319 26.375ZM59.3056 32.4807C59.8477 33.2836 61.0067 33.9371 61.9039 33.9558C62.5208 33.9558 63.9228 35.1694 64.3527 36.0843C64.6892 36.8125 64.7453 38.7357 64.4462 39.8C64.1658 40.8457 63.1377 41.8913 62.147 42.1714C58.3336 43.2356 53.8847 40.1548 53.9034 36.4764C53.9221 34.5906 54.9876 33.1155 57.0625 32.1633C58.4084 31.5284 58.7262 31.5844 59.3056 32.4807Z" fill="#EDEDED"/>
</svg>
