<svg width="85" height="85" viewBox="0 0 85 85" fill="none" xmlns="http://www.w3.org/2000/svg">
<path d="M38.4738 0.965596C38.2121 1.00294 37.2962 1.13364 36.4176 1.24567C30.8284 1.97387 23.912 4.55056 19.1266 7.70608C14.2851 10.9176 9.94831 15.2308 6.82658 19.992C5.16291 22.5501 3.10668 26.8259 2.13464 29.776C-1.69742 41.5018 -0.351527 53.6011 6.02279 64.412C9.23798 69.8455 14.5842 75.2042 20.1734 78.5652C32.3986 85.9405 47.6334 86.6313 60.4568 80.395C65.7656 77.7996 70.6071 74.0653 74.2148 69.7708C85.0755 56.794 87.3186 39.1305 79.9723 24.2865C77.5796 19.4506 75.299 16.3324 71.3174 12.486C65.2796 6.67913 57.8211 2.92612 49.3158 1.41372C47.5026 1.0963 46.0819 0.984268 42.9602 0.946924C40.7544 0.909581 38.7355 0.909581 38.4738 0.965596ZM48.2877 7.63139C55.9331 9.08778 62.3261 12.3927 67.5414 17.6021C70.5136 20.5709 72.5699 23.5023 74.4765 27.4607C79.748 38.477 78.8881 51.5659 72.196 61.8727C67.7097 68.7999 61.0924 73.9159 53.3161 76.4553C44.1752 79.4614 34.4922 78.7705 25.9121 74.5134C17.6124 70.387 11.126 62.937 8.19117 54.1239C4.75166 43.7611 6.20971 32.5581 12.1915 23.4463C15.3693 18.629 19.3509 14.8387 24.1737 12.0753C28.7535 9.46121 32.7538 8.13553 38.5673 7.31397C39.8571 7.12726 46.8483 7.36999 48.2877 7.63139Z" fill="#EDEDED"/>
<path d="M60.9055 23.2596C60.4381 23.3343 58.9427 23.7637 57.5594 24.1932C56.1948 24.6226 54.419 25.0894 53.6339 25.2388C51.7833 25.5562 48.6616 25.5562 45.8576 25.2388C42.0816 24.7907 39.2964 24.6973 35.2213 24.9214C26.8281 25.3695 22.4166 26.4338 19.6126 28.7491C14.0795 33.305 12.9392 41.5765 16.1544 53.8625C17.8555 60.3789 20.1921 66.0551 22.211 68.5945C24.4167 71.4139 27.9871 72.0114 31.4453 70.1629C32.8099 69.4347 35.3708 66.802 38.3804 63.0303C41.0535 59.6694 45.9698 54.46 47.4278 53.4517C48.1942 52.9289 50.2131 51.902 56.6061 48.7838C59.7091 47.2714 61.5784 45.983 62.7 44.5827C64.6628 42.118 65.8404 38.365 66.7003 32.0166C67.2424 27.9835 67.205 27.4794 66.4012 25.9296C66.0274 25.2388 65.5974 24.4919 65.4105 24.3052C64.6815 23.465 62.5505 22.9608 60.9055 23.2596ZM60.3073 31.8859C59.896 34.9854 58.9988 38.5144 58.3445 39.728C58.0641 40.2508 57.5407 40.9043 57.1669 41.2218C56.6248 41.6886 49.4841 45.3295 49.3719 45.2175C49.3532 45.1988 48.8111 43.5557 48.1568 41.5579C47.0166 37.9729 46.9979 37.8795 46.9792 35.7696C46.9792 33.1556 46.6988 32.5208 45.3529 31.9606C44.1939 31.4751 43.278 31.6619 42.3807 32.5768C41.2031 33.7344 40.8292 36.0497 41.3713 38.8318C41.7265 40.811 43.4275 47.1967 43.7266 47.7569C43.9135 48.0929 43.8575 48.205 43.3154 48.6158C42.0816 49.5493 37.2962 54.3666 35.8008 56.1965C29.4825 63.8705 28.8283 64.5987 27.8749 64.8228C27.2207 64.9908 26.8842 64.5801 25.6692 62.0034C23.8373 58.1757 21.7063 50.875 21.0146 46.0204C20.0613 39.5226 21.4259 34.612 24.6411 32.9689C26.286 32.1286 29.7255 31.5872 35.24 31.2698C39.2216 31.0457 41.5395 31.1204 45.7828 31.5872C49.0354 31.9606 52.2506 31.8486 54.5499 31.2884C56.307 30.859 59.354 29.888 59.7839 29.608C59.9334 29.5146 60.1951 29.4213 60.3634 29.4213C60.6251 29.4213 60.6251 29.664 60.3073 31.8859Z" fill="#EDEDED"/>
<path d="M26.2112 34.4813C25.4635 34.6867 24.2672 35.8443 23.6129 36.9646C22.5287 38.8131 21.6501 42.4728 21.6501 45.1055C21.6501 46.4685 22.267 49.4 22.7717 50.4456C23.8185 52.5742 26.8842 52.7796 28.174 50.763C28.7348 49.8855 28.7348 48.8025 28.1927 47.01C27.8375 45.8337 27.7815 45.3482 27.8562 43.5557C27.9684 41.2591 28.3049 40.0641 29.2208 38.8692C30.3424 37.4128 29.9498 35.5082 28.3796 34.6867C27.5011 34.2386 27.1272 34.2199 26.2112 34.4813Z" fill="#EDEDED"/>
</svg>
