<svg width="85" height="85" viewBox="0 0 85 85" fill="none" xmlns="http://www.w3.org/2000/svg">
<path d="M38.779 0.606078C33.0216 1.29693 28.7782 2.52926 23.9181 4.90057C14.665 9.40045 7.15045 17.504 3.35577 27.0825C0.271427 34.8686 -0.382828 44.1298 1.57994 52.308C4.0848 62.7268 10.5339 71.8199 19.5252 77.6082C33.2459 86.4212 51.0042 86.5146 64.8184 77.8322C67.5101 76.1331 69.3047 74.7327 71.66 72.4734C75.436 68.8138 78.0717 65.2288 80.2775 60.7103C82.3711 56.4158 83.6983 52.0466 84.2964 47.4907C84.6703 44.6339 84.6516 39.798 84.2778 36.8665C82.5206 23.1428 73.7536 10.9315 61.3975 4.90057C57.2477 2.86535 53.9951 1.81974 49.5275 1.01685C47.546 0.680764 40.4988 0.400689 38.779 0.606078ZM47.3778 7.10383C51.2098 7.62664 54.3503 8.56022 57.9767 10.2967C62.0144 12.2385 65.0427 14.3484 68.0335 17.3919C72.1086 21.481 75.1182 26.5597 76.8006 32.1426C77.9221 35.8582 78.1278 37.408 78.1278 42.412C78.1091 46.5385 78.0717 47.0799 77.6044 49.2458C76.5015 54.4552 74.0714 59.8327 70.987 63.8471C69.7533 65.4716 66.6129 68.6644 64.9492 70.0088C53.9951 78.8592 38.6295 80.4462 26.0678 74.0232C15.6558 68.7204 8.77674 59.0298 7.07568 47.36C6.64574 44.3725 6.79528 38.771 7.37477 35.8769C9.67401 24.3938 17.0017 15.0766 27.6567 10.0913C30.7223 8.67225 34.8161 7.47726 38.2182 7.04781C40.181 6.78641 45.2655 6.82375 47.3778 7.10383Z" fill="#EDEDED"/>
<path d="M49.2285 13.807C48.1817 14.4978 47.7891 15.5621 47.5461 18.3255C47.434 19.6512 47.247 21.3317 47.1349 22.0599L46.9105 23.3669L46.2563 23.3109C45.9011 23.2922 44.4618 23.2549 43.0785 23.2362C40.854 23.1988 40.3306 23.2549 38.723 23.703C35.433 24.5992 32.5543 26.2983 29.9747 28.875C26.6473 32.1986 25.2454 35.2608 23.077 43.9991C21.5441 50.1234 21.0394 51.7479 19.4318 55.4822C17.9364 58.9551 17.5625 60.0754 17.3756 61.5692C17.2261 62.8202 17.6373 64.8741 18.2729 66.1437C19.6748 68.9072 22.8527 70.9797 27.0025 71.8199C37.6762 73.9859 53.3409 65.6956 60.519 54.0818C62.3136 51.169 63.3043 48.3123 63.6782 44.9514C64.0707 41.4037 63.3604 37.464 61.8463 34.7006L61.192 33.543H61.8276C62.9304 33.543 65.697 32.9828 66.669 32.572C67.7906 32.1052 68.987 30.7796 69.2674 29.7339C69.5665 28.651 69.3608 27.2319 68.7814 26.0556C68.1645 24.8233 65.8279 22.4893 64.3511 21.6304C61.4724 19.9313 58.145 18.923 55.3785 18.9044L53.5839 18.8857L53.6026 17.2986C53.64 15.4314 53.2662 14.4792 52.2567 13.807C51.3969 13.2282 50.0884 13.2282 49.2285 13.807ZM56.6309 25.0473C58.6124 25.5701 61.3042 26.9332 60.8181 27.1946C60.6686 27.2693 59.6592 27.3813 58.5563 27.456C56.5561 27.568 56.5374 27.568 55.4719 26.9892C54.0139 26.205 53.883 26.093 54.0326 25.6262C54.3317 24.6739 54.7803 24.5805 56.6309 25.0473ZM47.4153 29.9767C49.1537 30.4248 51.6773 31.4517 51.7707 31.7505C51.8081 31.8625 51.8829 32.2733 51.9577 32.6467C52.0885 33.5243 52.7615 34.3272 54.0139 35.1114C56.5001 36.7172 57.902 40.8249 57.2852 44.802C56.687 48.7977 54.7803 52.084 50.7426 56.1544C46.4432 60.4862 40.611 63.9031 35.2274 65.2475C31.4888 66.1624 27.1334 65.845 25.1332 64.5006C23.32 63.2683 23.32 62.4841 25.1706 58.1896C26.9277 54.1378 27.4511 52.5134 29.0587 46.1464C30.4607 40.5635 31.0402 38.7524 32.0122 36.8105C33.9376 32.9455 37.6014 30.1447 41.4896 29.5472C42.6859 29.3605 46.0133 29.6032 47.4153 29.9767Z" fill="#EDEDED"/>
<path d="M35.0405 35.8956C32.4982 36.9972 30.7037 41.1797 30.199 47.2106C29.9747 49.7873 30.199 50.9823 31.0402 51.8599C32.0496 52.9055 33.9563 53.0175 35.0778 52.0653C35.9938 51.2811 36.1807 50.5715 36.3677 47.1733C36.4611 45.1381 36.6294 43.663 36.8724 42.8414C37.2275 41.5718 37.321 41.4037 38.293 40.1901C39.4333 38.7523 39.0408 36.8292 37.4705 36.0076C36.5172 35.5221 35.9564 35.5035 35.0405 35.8956Z" fill="#EDEDED"/>
</svg>
