<svg width="85" height="84" viewBox="0 0 85 84" fill="none" xmlns="http://www.w3.org/2000/svg">
<path d="M37.5269 0.243809C28.087 1.5695 19.8621 5.6586 13.1139 12.3617C6.59003 18.8221 2.51496 26.9257 1.13168 36.1682C0.701739 39.1183 0.701739 44.8318 1.15037 47.7446C2.6832 57.9207 7.61815 66.9578 15.1888 73.4555C20.6659 78.1795 26.6289 81.1483 33.807 82.7167C37.1157 83.4449 39.2093 83.6689 42.8545 83.6689C59.2108 83.6503 73.8287 74.4078 80.9134 59.6011C85.867 49.257 86.3344 37.2698 82.2219 26.7203C76.8009 12.8099 65.1552 3.30597 50.0513 0.46787C47.3782 -0.036266 40.3496 -0.166968 37.5269 0.243809ZM47.9389 6.57351C56.4443 7.78717 64.5196 12.119 69.9032 18.3554C75.6233 25.0211 78.6515 33.0686 78.6515 41.6763C78.6515 55.9975 69.978 68.9743 56.6873 74.5385C54.2385 75.5841 50.8551 76.5364 48.0698 76.9845C45.0976 77.4699 40.0505 77.4326 36.9475 76.9098C26.928 75.2107 18.3479 69.6465 12.8896 61.3189C5.43107 49.9665 5.18806 35.0478 12.254 23.5834C17.0581 15.76 24.068 10.3639 32.8537 7.73116C34.723 7.17101 37.2279 6.6482 39.1158 6.42414C40.6861 6.23742 46.2192 6.33078 47.9389 6.57351Z" fill="#EDEDED"/>
<path d="M34.0687 13.6501C32.6293 13.7995 30.3675 14.0049 29.0216 14.1356C25.283 14.4716 25.1147 14.4903 24.4979 14.8824C23.638 15.3866 23.3576 15.928 23.0959 17.4965C22.7407 19.7184 22.965 22.7619 23.6193 24.4237L23.9371 25.3012L21.0023 31.2388C19.376 34.525 17.9366 37.5125 17.7871 37.9233C17.3945 39.0249 17.4506 40.2386 17.974 41.1348C18.3479 41.7883 18.4226 42.2551 18.5348 44.4957C19.0769 55.4187 19.6938 62.7006 20.2546 64.4371C21.077 67.0511 22.8155 67.798 31.3582 69.1984C38.5176 70.3747 38.9475 70.412 44.8172 70.4307C47.8454 70.4307 50.425 70.4867 50.5185 70.5427C51.4158 71.1029 53.0608 70.8228 53.8833 69.9453C54.7431 69.049 56.4442 67.742 59.4351 65.7068C60.9305 64.6798 63.1924 63.0181 64.4448 62.0098C65.7159 60.9828 67.174 59.8812 67.7161 59.5638C68.4451 59.1157 68.819 58.7236 69.1367 58.0701C69.5667 57.1738 69.5854 57.0805 69.7536 47.5766C69.9032 38.9129 69.8845 37.942 69.6228 37.3631C69.4171 36.9337 69.3424 36.4669 69.4171 35.9441C69.4732 35.44 69.4171 34.8425 69.2302 34.3383C68.819 33.1807 63.3045 25.2826 62.2577 24.349C61.9212 24.0689 61.9026 23.9382 62.0708 23.2847C62.3138 22.4071 62.0147 19.5877 61.5287 18.206C61.1548 17.067 59.8089 15.5733 58.8369 15.1812C57.5284 14.6584 56.5564 14.5277 50.9485 14.0235C44.3124 13.4447 37.7512 13.314 34.0687 13.6501ZM50.5559 20.3532C53.2477 20.5773 55.5095 20.8387 55.5656 20.8947C55.6404 20.9507 55.7339 21.4735 55.7899 22.0524C55.9021 23.1166 55.7339 23.3594 55.2852 22.8366C55.1731 22.6872 54.6497 22.4258 54.1636 22.2577C51.5279 21.3802 36.7792 21.1748 29.8628 21.903L28.8346 22.015L28.4982 21.3428C28.2552 20.82 28.2178 20.5586 28.3673 20.2972C28.629 19.8304 29.8067 19.7744 38.7419 19.8491C44.1255 19.8864 46.7425 19.9985 50.5559 20.3532ZM41.6393 27.6725C52.5 28.158 53.0421 28.1953 53.0421 28.3447C53.0421 28.6808 49.0792 38.2967 48.8361 38.5581C48.7988 38.5955 48.5371 38.4834 48.2567 38.2967C47.6772 37.9046 48.1819 37.9233 33.8444 37.8299C28.872 37.7926 24.8156 37.7179 24.8156 37.6619C24.8156 37.6059 25.339 36.3922 25.9559 34.9545C26.5915 33.5168 27.5448 31.2948 28.0869 30.0065L29.059 27.6725L31.6573 27.5792C33.0779 27.5232 34.5547 27.4485 34.9099 27.4298C35.265 27.4111 38.2933 27.5232 41.6393 27.6725ZM60.9118 32.3218C61.9586 34.0209 62.7998 35.4586 62.7811 35.552C62.7437 35.72 55.8273 38.8382 55.7152 38.7262C55.6778 38.6888 56.1451 37.2698 56.762 35.5893C57.3602 33.9089 58.0892 31.799 58.3883 30.8841C58.6687 29.9878 58.9304 29.2596 58.9678 29.2596C58.9864 29.2596 59.865 30.6413 60.9118 32.3218ZM63.9775 42.9273C63.7719 44.7945 63.3232 51.9457 63.3232 53.5328V55.1199L62.6129 55.5307C62.239 55.7548 61.0427 56.6697 59.9585 57.5846C58.8743 58.4995 57.3602 59.7318 56.5937 60.3107L55.1918 61.3936L55.0796 60.8708C55.0048 60.5907 54.9488 59.7505 54.9301 59.0223C54.9301 58.2941 54.7057 55.0079 54.444 51.7403C54.1823 48.4728 53.9767 45.6721 53.9767 45.56C53.9767 45.4293 54.201 45.3173 54.5001 45.3173C54.7805 45.3173 55.5095 45.0932 56.1264 44.8318C56.7433 44.5704 58.3509 43.9543 59.6781 43.4688C61.024 42.9647 62.4073 42.4418 62.7624 42.2738C63.9588 41.751 64.1083 41.8257 63.9775 42.9273ZM34.8164 43.9169C40.5738 44.253 46.7799 44.3277 47.4716 44.0476L47.9576 43.8422L48.0697 45.1866C48.1258 45.9335 48.2754 49.3877 48.3688 52.8793C48.481 56.3709 48.6118 60.292 48.6866 61.5803L48.7988 63.933L47.0603 64.045C42.7983 64.3624 39.4523 64.1197 32.8536 63.0367C28.6477 62.3459 26.4419 61.9351 26.2737 61.7671C26.1989 61.711 25.769 57.9954 25.3017 53.5328C24.8343 49.0703 24.4044 44.9625 24.3296 44.4024L24.2175 43.3941L27.1897 43.5061C28.8159 43.5808 32.2555 43.7675 34.8164 43.9169Z" fill="#EDEDED"/>
<path d="M37.4335 46.3256C36.9288 46.5496 36.3867 46.8857 36.2372 47.0537C36.0129 47.3338 35.9194 47.3338 35.2091 46.9044C33.7136 46.0268 31.6761 46.4002 30.5545 47.7446C28.9469 49.6491 28.1992 54.4104 29.2647 55.9041C29.5077 56.2402 30.0311 56.6323 30.5171 56.819C31.2461 57.0804 31.4891 57.0991 32.1434 56.9124C33.0967 56.6137 33.9005 55.7921 34.1622 54.8212L34.3679 54.0743L35.2464 54.205C35.8446 54.2797 36.3867 54.2237 36.9662 53.9996C38.4242 53.4768 38.4242 53.4768 38.5551 53.9249C38.7981 54.6718 40.144 55.9415 40.9104 56.1469C42.8545 56.6697 44.6303 55.232 44.6303 53.1034C44.6303 52.3192 43.7704 49.5744 43.1349 48.3048C42.032 46.1388 39.6206 45.2986 37.4335 46.3256Z" fill="#EDEDED"/>
</svg>
