<svg width="85" height="85" viewBox="0 0 85 85" fill="none" xmlns="http://www.w3.org/2000/svg">
<path d="M39.024 1.05292C30.5 1.93049 22.7237 5.12335 16.1251 10.4448C14.2184 11.9759 10.648 15.6542 9.22738 17.54C3.5634 25.1021 0.703369 33.579 0.703369 42.8775C0.703369 47.7882 1.33893 51.8586 2.77829 56.1904C4.75975 62.2027 8.23665 67.7856 12.8538 72.3788C19.0973 78.6338 26.4997 82.4802 35.5658 84.1793C37.5286 84.5527 38.4071 84.6088 42.5757 84.6088C47.7163 84.6088 49.5669 84.3847 53.5485 83.3017C57.3058 82.2935 62.2033 80.1276 65.5681 77.9616C75.924 71.3519 82.9712 60.0928 84.5602 47.6948C84.9714 44.3899 84.8405 38.9004 84.2798 35.7076C83.289 30.1061 80.8963 24.0751 77.9054 19.6126C71.3816 9.84729 60.7827 3.12548 49.1182 1.33299C46.7629 0.978232 41.2298 0.828859 39.024 1.05292ZM46.2395 7.41997C55.0065 8.26019 62.5024 11.9012 68.6524 18.2682C71.3629 21.069 72.9144 23.2909 74.7276 26.9132C76.3726 30.2555 77.1203 32.3467 77.8494 35.7823C78.3167 37.9295 78.3541 38.471 78.3728 42.5974C78.3728 46.5745 78.3167 47.3214 77.9428 49.2259C75.8679 59.4206 69.8301 68.047 61.0631 73.2937C57.5301 75.4036 53.8289 76.8227 49.5856 77.7376C47.305 78.223 46.8751 78.2417 42.5757 78.2417C38.2763 78.2417 37.8464 78.223 35.5658 77.7376C30.8365 76.7293 26.5745 74.9555 22.8359 72.4348C14.7231 67.0014 9.52646 59.2153 7.58239 49.5993C7.20853 47.7135 7.15245 46.9106 7.15245 42.9709C7.15245 37.7801 7.41416 36.0624 8.85352 31.7118C10.6294 26.2784 13.4894 21.7225 17.6953 17.5587C25.1164 10.1834 35.8088 6.39302 46.2395 7.41997Z" fill="#EDEDED"/>
<path d="M40.5381 13.843C37.4912 14.6272 33.0983 16.9612 29.341 19.762C27.0418 21.4984 22.8172 25.6622 21.2096 27.8468C16.7606 33.8031 16.2185 39.4046 19.6394 43.9045C21.0787 45.809 23.7331 47.6948 26.0324 48.4417C26.724 48.6844 27.5839 49.0952 27.9577 49.3939C28.7428 50.0101 30.0327 50.4209 32.2197 50.7196L33.7152 50.9437L33.3787 52.4561C32.5188 56.3398 32.0702 59.2153 31.9767 61.3625C31.8833 63.4351 31.9207 63.8272 32.2945 64.8914C33.0422 67.1134 34.2386 68.3831 36.3883 69.242C37.2668 69.578 37.8089 69.6527 39.6782 69.6714C42.2018 69.6714 44.1459 69.2046 45.1553 68.3644C45.8096 67.8042 45.9404 67.7856 45.9404 68.215C45.9404 68.7565 46.9872 70.3996 47.7349 71.0718C49.8472 72.9203 53.6045 73.4057 56.3524 72.1921C57.4927 71.688 58.7264 70.4556 59.2124 69.3353C60.0536 67.3935 59.848 64.0326 58.6329 60.4476C58.1282 58.8978 58.0909 58.5617 58.4834 58.5617C59.1003 58.5617 61.5304 57.1054 62.2968 56.3025C63.381 55.1448 63.7174 54.3233 63.7174 52.8855C63.7174 50.9624 63.194 49.8981 61.2313 47.7882C59.5676 45.977 59.5863 46.033 60.9696 45.0434C64.8951 42.2427 65.8484 38.583 64.0539 33.1122C62.5211 28.4443 58.4647 22.2453 54.5205 18.5296C49.7351 14.0297 45.417 12.592 40.5381 13.843ZM46.5199 20.4341C51.6044 23.0108 58.3899 32.7388 58.5208 37.5934C58.5395 38.8071 58.2217 39.2926 56.745 40.2075L55.6795 40.861L54.5953 40.1888C51.1558 38.0789 46.8003 39.4233 43.4168 43.6057L42.4074 44.8567L40.2016 44.9314C38.9866 44.9874 36.6313 45.0248 34.9676 45.0248C31.958 45.0248 31.9393 45.0061 31.4159 44.5393C30.7617 43.9231 30.3878 43.7364 29.2289 43.4563C27.2661 42.9709 25.2473 41.5332 24.2939 39.9274C23.864 39.1805 23.7892 38.8444 23.8079 37.6494C23.8266 34.886 25.4903 32.0853 29.4719 28.1269C32.0702 25.5502 34.1451 23.9444 37.1547 22.1893C41.6036 19.6313 44.0337 19.1645 46.5199 20.4341ZM51.9409 45.9957C52.1839 46.6492 52.8007 47.3214 53.455 47.6575C54.0158 47.9562 56.8384 51.3358 57.044 51.9706C57.1562 52.3441 57.0627 52.4188 55.9598 52.7548C52.6886 53.7631 48.2023 54.3046 46.0526 53.9498L45.3422 53.8378L45.4544 53.0723C45.6226 52.008 46.8751 49.5246 47.9219 48.1243C48.9874 46.7239 50.5015 45.4916 51.2305 45.4916C51.6231 45.4916 51.7913 45.6223 51.9409 45.9957ZM39.5661 56.9373C40.0521 57.9269 41.1924 59.0285 42.1831 59.4393C43.1738 59.8688 44.6319 60.2422 45.3422 60.2422C45.6974 60.2422 45.9404 60.3356 45.9404 60.4663C45.9217 60.9144 45.5665 63.3044 45.4918 63.379C45.4357 63.4164 45.174 63.2857 44.8936 63.099C44.2393 62.6882 42.6504 62.6882 41.4728 63.1176C40.5007 63.4724 39.024 63.5097 38.6127 63.1737C38.052 62.7255 38.0707 60.5409 38.6875 56.4145C38.8745 55.1635 38.9305 55.0141 39.024 55.4996C39.0988 55.817 39.3418 56.4705 39.5661 56.9373ZM52.8755 63.1923C53.0624 63.8645 53.2681 64.8914 53.3428 65.4889L53.4737 66.5906H52.726C51.5857 66.5906 51.5109 66.3852 51.5296 63.5284C51.5483 60.4476 51.6605 60.0181 52.1652 61.1758C52.3708 61.6239 52.6886 62.5388 52.8755 63.1923Z" fill="#EDEDED"/>
<path d="M42.8187 23.3843C41.9775 23.8137 41.398 24.8033 41.4167 25.8116C41.4167 26.7452 41.6784 27.1933 43.1925 28.9858C43.7907 29.6953 45.1553 31.4131 46.2208 32.7948C48.5948 35.8756 49.2865 36.3984 50.838 36.3051C51.6605 36.2491 52.0343 36.1184 52.4082 35.7636C53.5111 34.7366 53.698 33.4856 52.969 31.9546C52.2213 30.3861 47.1181 24.4672 45.7722 23.6083C44.8001 23.0108 43.7533 22.9175 42.8187 23.3843Z" fill="#EDEDED"/>
</svg>
