<svg width="85" height="85" viewBox="0 0 85 85" fill="none" xmlns="http://www.w3.org/2000/svg">
<path d="M37.3643 0.241406C27.8923 1.57394 19.6395 5.68415 12.8685 12.4219C6.32252 18.9156 2.23363 27.061 0.845654 36.3512C0.414258 39.3166 0.414258 45.0596 0.864411 47.9874C2.40243 58.216 7.35412 67.2998 14.9504 73.8311C20.4461 78.5794 26.4293 81.5635 33.6318 83.14C36.9517 83.872 39.0524 84.0972 42.7099 84.0972C59.1217 84.0784 73.7892 74.7882 80.8979 59.9051C85.8683 49.5076 86.3372 37.4585 82.2108 26.8545C76.7715 12.8723 65.0862 3.31937 49.9311 0.466623C47.2489 -0.0401153 40.1965 -0.171492 37.3643 0.241406ZM47.8116 6.60379C56.3458 7.82371 64.4485 12.1779 69.8504 18.4464C75.5898 25.1467 78.6283 33.2357 78.6283 41.8878C78.6283 56.2829 69.9254 69.3267 56.5896 74.9196C54.1325 75.9706 50.7376 76.9278 47.9429 77.3782C44.9606 77.8662 39.8964 77.8287 36.7829 77.3031C26.7295 75.5953 18.1203 70.0024 12.6434 61.6318C5.15962 50.2208 4.91579 35.2251 12.0057 23.7015C16.8261 15.8377 23.8597 10.4137 32.6752 7.76741C34.5509 7.20436 37.0642 6.67886 38.9586 6.45364C40.5341 6.26596 46.086 6.3598 47.8116 6.60379Z" fill="#EDEDED"/>
<path d="M53.3072 17.1327C51.9755 17.4893 48.937 18.8406 46.2924 20.267C42.7286 22.1813 34.7009 27.793 30.1431 31.5841C27.1609 34.0427 21.7965 39.3916 20.6336 41.0432C18.7955 43.652 17.5951 46.4109 17.1074 49.2073C16.8073 50.9528 16.9574 55.382 17.37 56.9023C18.9643 62.6641 23.9723 67.2247 32.0188 70.2276C47.7741 76.1208 58.1089 69.2892 62.4228 50.1457C63.2481 46.4297 64.8236 37.5148 65.2363 34.099C65.6302 30.7959 65.6864 25.4845 65.3301 23.8704C64.9362 22.0312 64.1109 20.5297 62.9668 19.5162C61.8039 18.484 59.7782 17.3954 58.9904 17.3954C58.7091 17.3954 58.1276 17.2641 57.715 17.1139C56.7584 16.7761 54.6389 16.7761 53.3072 17.1327ZM56.327 23.1385C56.6271 23.42 57.2648 23.7391 57.7525 23.8704C59.103 24.2083 59.2155 24.5461 59.2155 28.0932C59.1967 30.6457 58.8966 34.5119 58.634 35.4691C58.559 35.7319 58.409 35.7694 57.9213 35.6943C57.5837 35.6192 56.1395 35.7882 54.6202 36.0509C50.8502 36.7266 49.5935 36.6703 48.5244 35.7319C47.8491 35.15 47.5678 33.4609 47.8491 31.6592C48.1492 29.7261 48.6932 28.6 49.5747 28.0182C50.5313 27.3801 50.8877 26.7982 51.0377 25.6159L51.1503 24.6212L53.1009 23.6264C54.1513 23.1009 55.2016 22.6505 55.4267 22.6505C55.633 22.6505 56.0457 22.8757 56.327 23.1385ZM41.7158 32.7853C41.5658 36.2949 42.241 38.4345 44.0604 40.255C45.6734 41.8878 48.3743 42.92 50.9815 42.92C52.1631 42.92 56.1582 42.357 57.1148 42.0567C57.5649 41.9066 57.5462 42.3007 56.7772 46.0168C55.9706 50.0519 55.0516 53.3926 54.095 55.7762L53.3635 57.653L51.9755 57.5967C50.9439 57.5591 50.1374 57.653 48.8057 58.0283C43.01 59.5861 40.928 60.0365 38.9586 60.1679C36.7454 60.3368 35.9764 60.5996 35.3386 61.4066C34.851 62.0259 34.6634 63.152 34.926 63.8277C35.0385 64.128 35.076 64.4095 35.0198 64.4658C34.8697 64.6159 32.0938 63.4711 30.4245 62.589C26.6169 60.5433 24.3099 58.0846 23.5596 55.2319C23.2033 53.9369 23.222 50.7839 23.5784 49.395C23.916 48.1188 25.1539 45.3599 25.3978 45.3599C25.4728 45.3599 25.5478 45.51 25.5478 45.6789C25.5478 45.8666 25.8104 46.561 26.1293 47.2367C27.0296 49.1698 29.5242 51.497 32.3939 53.0923C37.0267 55.6823 38.3209 56.1891 39.7464 55.9638C41.3407 55.7386 42.4473 54.1433 42.1472 52.5481C42.0909 52.1915 41.7158 51.5533 41.3407 51.1404C40.6842 50.4085 40.6842 50.371 41.1156 50.4836C41.9409 50.7088 46.5737 51.3281 49.012 51.5533C53.4573 51.9662 55.408 51.0654 55.408 48.6443C55.408 46.7675 53.9825 45.7165 50.9627 45.3599C50.0436 45.266 48.093 45.0408 46.6487 44.8907C45.2045 44.7218 43.4039 44.4215 42.6536 44.215C40.8718 43.7458 38.8648 42.7136 38.2271 41.9816C37.2705 40.8368 36.8204 38.1342 37.1768 35.7319C37.3081 34.8873 37.4769 34.0803 37.5519 33.9489C37.6269 33.78 41.5658 30.7771 41.7908 30.7208C41.7908 30.7208 41.7533 31.6592 41.7158 32.7853ZM31.6624 41.9816C32.0188 43.6145 32.844 45.2285 33.9319 46.486L34.8322 47.4994L34.082 47.049C32.1501 45.8854 30.9872 44.5153 30.9872 43.3705C30.9872 42.5071 30.612 41.3623 30.1806 40.8931L29.7867 40.4802L31.0809 39.1476L31.231 39.9547C31.3248 40.4051 31.5123 41.306 31.6624 41.9816ZM46.3674 65.1602C45.8797 65.423 44.7356 65.7045 43.085 65.9109C41.472 66.1361 42.3535 65.742 44.4542 65.3291C46.9113 64.8411 46.9488 64.8224 46.3674 65.1602Z" fill="#EDEDED"/>
</svg>
