<svg width="86" height="85" viewBox="0 0 86 85" fill="none" xmlns="http://www.w3.org/2000/svg">
<path d="M39.1104 0.490242C37.6662 0.621618 34.0274 1.31604 32.2643 1.78524C19.3037 5.2761 8.63131 14.8291 3.75466 27.2911C2.72306 29.9749 1.59767 34.4229 1.22255 37.5197C0.791151 40.9167 0.922445 46.5846 1.48514 49.7189C3.71714 61.8431 10.4507 71.7526 20.9167 78.3402C27.9691 82.7883 37.7037 85.1531 45.9377 84.4586C51.921 83.9331 56.5538 82.6944 61.6181 80.217C70.2272 76.0318 77.2046 69.0125 81.2372 60.5106C86.0764 50.3007 86.6953 39.0399 83.0003 28.3045C79.718 18.8079 72.4593 10.2872 63.3999 5.35117C59.1422 3.0427 53.7591 1.33481 48.5074 0.640386C46.5004 0.377633 41.2299 0.302561 39.1104 0.490242ZM48.3761 7.0403C63.55 9.25493 75.3852 20.5158 78.4425 35.6429C78.8177 37.5572 78.8739 38.3079 78.8739 42.3994C78.8552 46.6597 78.8177 47.1665 78.3675 49.3623C77.2421 54.6174 74.785 60.0226 71.709 64.039C70.4336 65.7093 67.8827 68.3369 66.0071 69.8946C59.3485 75.4687 49.9891 78.6218 41.455 78.1713C33.5023 77.7397 26.1498 74.9432 20.354 70.1574C18.8911 68.9562 16.0401 66.0847 14.8772 64.6395C11.6698 60.6607 9.11898 55.1241 7.93733 49.5312C7.46842 47.3729 7.43091 46.8286 7.41215 42.6809C7.41215 38.7396 7.46842 37.9138 7.82479 36.0933C9.49411 27.9292 13.3392 21.1164 19.3224 15.805C24.5367 11.1505 31.4391 7.9787 38.3602 7.02153C40.8172 6.66494 45.9753 6.68371 48.3761 7.0403Z" fill="#EDEDED"/>
<path d="M47.3445 14.9792C45.4501 15.4859 43.7808 16.293 41.8113 17.663C36.2595 21.4542 32.0205 27.5913 31.1202 33.1092C30.8201 35.0235 30.9889 37.8387 31.5141 39.3965C32.7145 42.9999 35.3216 46.5471 37.6099 47.692C38.0226 47.8984 38.3789 48.1049 38.4164 48.1236C38.454 48.1612 38.2664 48.5928 38.0226 49.0996C35.678 53.7165 36.4845 58.6901 40.0295 61.2988C42.1865 62.8941 44.0996 63.4759 47.1757 63.4759C49.5577 63.4759 50.9645 63.2507 53.4591 62.4437C57.0415 61.2988 60.3426 59.3282 63.0811 56.6819C66.4947 53.3975 68.2953 49.6251 68.3141 45.7588C68.3329 41.3108 65.8758 37.9326 61.7306 36.6939C61.1679 36.525 60.3614 36.3936 59.93 36.3936C59.4986 36.3936 59.1047 36.356 59.0485 36.2997C58.9922 36.2434 59.1047 35.549 59.311 34.742C59.7799 32.8464 59.9488 29.2429 59.6674 27.1409C59.1985 23.6688 57.7543 19.9715 55.9912 17.7756C55.0721 16.6308 53.2902 15.317 52.1836 14.9792C50.8894 14.6038 48.7887 14.5851 47.3445 14.9792ZM50.8707 21.6043C51.6209 22.4114 52.4275 24.0629 52.9339 25.8271C53.5341 27.9479 53.5528 31.9643 52.9526 33.8787C51.8835 37.2757 49.2764 39.4903 45.5439 40.2035C44.9437 40.3161 44.3997 40.3536 44.3435 40.2786C44.1559 40.0909 45.4688 37.8763 47.7384 34.498C48.92 32.7526 49.9891 30.9508 50.1767 30.4066C50.9269 28.1356 49.7453 26.2588 47.5508 26.2588C46.4442 26.2588 45.8252 26.5966 44.8124 27.7227C43.3681 29.318 38.2664 38.383 38.2664 39.3402C38.2664 39.4715 38.1914 39.5841 38.0788 39.5841C37.7787 39.5841 37.141 37.1631 37.141 36.037C37.141 34.7608 37.7037 32.4335 38.3414 31.0447C40.067 27.2723 44.4372 22.8993 47.9259 21.473C49.5015 20.8348 50.1767 20.8536 50.8707 21.6043ZM60.4364 42.9812C61.2429 43.3002 61.7306 43.9759 61.8807 44.9518C62.1995 47.1477 61.318 49.2872 59.1422 51.5957C56.854 54.0356 53.9092 55.781 50.6268 56.6443C49.2764 57.0009 47.0819 57.3012 47.0819 57.1511C47.0819 57.1135 47.6446 56.7569 48.3573 56.3816C53.928 53.3036 55.1284 52.4027 55.541 51.0702C56.0099 49.4937 55.1284 47.9547 53.5153 47.4667C52.3524 47.1101 51.152 47.5606 47.9259 49.5875C46.3879 50.5447 44.7186 51.577 44.2122 51.8585L43.3306 52.384L43.5182 51.896C44.1746 50.1318 46.538 47.6357 48.5261 46.5659C49.1638 46.2281 49.7453 45.8715 49.8016 45.7776C49.8578 45.6838 50.5143 45.3084 51.2646 44.9518C51.9961 44.5952 53.0839 43.9196 53.6654 43.4879L54.7345 42.6809L57.3229 42.7372C58.7671 42.7747 60.1551 42.8873 60.4364 42.9812Z" fill="#EDEDED"/>
<path d="M26.7687 44.4638C26.4686 44.5577 26.131 44.7266 25.981 44.8392C25.8309 44.9706 25.3245 44.9893 24.5367 44.9143C20.5229 44.5014 16.7528 47.0914 15.2523 51.2766C14.8209 52.4778 14.7647 52.9282 14.7459 55.1616C14.7459 57.4514 14.7834 57.8455 15.2711 59.2906C17.0342 64.6395 20.5604 67.7363 24.8931 67.7363C27.1814 67.7363 29.3384 66.7228 31.139 64.8084C33.0896 62.7252 34.0837 60.1539 34.2713 56.8508C34.4401 53.679 33.7836 51.2391 31.9455 48.1799C30.7638 46.2093 29.7322 45.0644 28.7944 44.6328C27.9879 44.2574 27.5753 44.2199 26.7687 44.4638ZM22.7549 55.0115C22.8862 59.0279 23.0362 59.8724 23.6552 60.6795C24.2366 61.4114 23.8052 61.2613 23.0362 60.4542C21.592 58.9903 20.6166 55.7247 20.9918 53.6227C21.1043 52.9282 21.3857 52.2338 21.667 51.8585C22.5673 50.6948 22.6236 50.8825 22.7549 55.0115Z" fill="#EDEDED"/>
</svg>
