<svg width="85" height="85" viewBox="0 0 85 85" fill="none" xmlns="http://www.w3.org/2000/svg">
<path d="M38.4738 0.965596C38.2121 1.00294 37.2962 1.13364 36.4176 1.24567C30.8284 1.97387 23.912 4.55056 19.1266 7.70608C14.2851 10.9176 9.94832 15.2308 6.82658 19.992C5.16291 22.5501 3.10668 26.8259 2.13464 29.776C-1.69742 41.5018 -0.351527 53.6011 6.02279 64.412C9.23798 69.8455 14.5842 75.2042 20.1734 78.5652C32.3986 85.9405 47.6334 86.6313 60.4568 80.395C65.7656 77.7996 70.6071 74.0653 74.2148 69.7708C85.0755 56.794 87.3186 39.1305 79.9723 24.2865C77.5796 19.4506 75.299 16.3324 71.3174 12.486C65.2796 6.67913 57.8211 2.92612 49.3158 1.41372C47.5026 1.0963 46.0819 0.984268 42.9602 0.946924C40.7544 0.909581 38.7355 0.909581 38.4738 0.965596ZM48.2877 7.63139C55.9331 9.08778 62.3261 12.3927 67.5414 17.6021C70.5136 20.5709 72.5699 23.5023 74.4765 27.4607C79.748 38.477 78.8881 51.5659 72.196 61.8727C67.7097 68.7999 61.0924 73.9159 53.3161 76.4553C44.1752 79.4614 34.4922 78.7705 25.9121 74.5134C17.6124 70.387 11.126 62.9369 8.19117 54.1239C4.75166 43.7611 6.20971 32.5581 12.1915 23.4463C15.3693 18.629 19.3509 14.8387 24.1737 12.0753C28.7535 9.46121 32.7538 8.13553 38.5673 7.31397C39.8571 7.12726 46.8483 7.36999 48.2877 7.63139Z" fill="#EDEDED"/>
<path d="M38.7355 15.8656C37.9878 16.015 37.0718 16.2391 36.6793 16.3698C36.268 16.5005 35.539 16.6312 35.053 16.6312C34.0436 16.6685 33.3893 17.0606 32.6977 18.0502C32.3051 18.629 32.2677 18.8344 32.3425 20.4775L32.436 22.27L30.6415 22.382C26.2299 22.6621 24.0428 23.8011 23.2203 26.2844C22.4726 28.5437 23.2016 30.8777 25.4822 33.6037C27.0898 35.5269 27.2393 35.8443 27.4076 37.6555L27.5571 39.1679L25.9682 39.9708C21.538 42.1927 18.3975 46.2071 17.0516 51.3605C16.6217 53.041 16.5843 53.4891 16.6591 55.7484C16.7152 57.9703 16.8086 58.4744 17.332 60.0429C18.3788 63.161 20.3416 65.9058 22.6595 67.4929C26.3795 70.0696 33.838 72.1608 39.2215 72.1795C44.9416 72.1981 53.1104 69.8268 57.4098 66.914C61.2232 64.3373 63.5224 60.6777 64.1767 56.1218C64.2702 55.3376 64.3636 55.2256 65.3357 54.6467C66.7002 53.8252 68.9621 51.6779 69.9902 50.2215C74.5139 43.8918 74.3831 34.0705 69.6724 28.3383C66.1768 24.0438 59.9147 22.5874 54.8115 24.8467C53.8021 25.2948 53.6899 25.3135 53.5217 25.0334C52.4936 23.3156 51.129 22.2327 49.1662 21.5605L48.0259 21.1871L47.8203 20.1788C47.4278 18.2743 46.0071 16.7619 43.9883 16.0897C42.7358 15.6602 40.3618 15.5669 38.7355 15.8656ZM44.6051 26.4151C45.1846 26.9566 45.6519 27.218 46.4183 27.3861C47.7829 27.6848 48.1942 28.1889 48.1942 29.496C48.1942 30.0188 48.0259 31.0831 47.8203 31.8486C47.596 32.6141 47.3904 34.0145 47.3156 34.9481C47.1287 37.9542 48.0259 39.9521 50.9794 43.089L52.5123 44.7321L51.5215 44.2653C49.3158 43.257 46.0071 42.7342 44.4182 43.1263C43.8761 43.2757 42.5863 43.4811 41.5582 43.5931C32.679 44.6387 29.146 45.9457 27.2393 48.8959C26.0804 50.6697 25.6691 52.1447 25.6878 54.4413C25.6878 56.7566 25.9682 57.6716 27.1833 59.5201C28.7161 61.8167 31.8752 64.244 34.4174 65.0655C35.782 65.5137 34.9595 65.4763 33.0902 64.9909C27.744 63.6465 25.1831 62.0967 23.9307 59.4454C23.1269 57.7836 22.9026 56.5512 22.996 54.5347C23.1082 52.5742 23.7811 50.651 24.9962 48.8585C26.043 47.3274 27.2393 46.3752 29.5012 45.2735C33.2959 43.4437 34.2118 41.8006 33.8006 37.6368C33.4267 34.0892 32.8472 32.5768 30.8658 30.1681C30.1928 29.3466 29.6694 28.6184 29.7255 28.581C29.8937 28.3943 34.6978 27.9275 36.2867 27.9275C38.343 27.9275 39.0533 27.6288 39.7076 26.5085L40.1936 25.6869H43.8387L44.6051 26.4151ZM62.2513 30.3922C64.401 31.3818 66.1208 33.7905 66.7002 36.6099C67.0554 38.309 66.9806 41.2031 66.532 42.9209C66.046 44.8068 65.373 46.0391 64.0645 47.4208L63.0177 48.5411L62.2139 46.9353C61.1297 44.7694 60.3259 43.7425 57.0734 40.2882C55.5592 38.7011 54.1572 37.1327 53.9703 36.8153C53.5591 36.1431 53.5217 35.3215 53.8769 33.9025C54.0825 33.0436 54.3068 32.6702 55.3162 31.6432C56.8117 30.0935 57.5968 29.776 59.6904 29.8507C60.8493 29.8881 61.4288 30.0188 62.2513 30.3922ZM57.3724 51.5472C57.9332 52.9663 57.9519 53.1343 57.8585 54.8895C57.765 56.4766 57.6715 56.8873 57.1481 57.9703C56.2696 59.7254 54.5124 61.4246 52.4936 62.4328C51.5963 62.881 51.1477 63.049 51.4655 62.8063C52.6244 61.9287 54.1946 60.3416 54.7554 59.464C56.4752 56.7753 56.9051 52.0327 55.7648 48.5598C55.4471 47.6262 56.849 50.2215 57.3724 51.5472ZM47.9699 49.6801C48.4933 49.8481 49.1662 50.1655 49.4466 50.4083C49.9326 50.819 49.97 50.9871 50.0261 52.4435C50.1383 54.7774 49.7644 55.8417 48.512 56.9994C46.3997 58.9039 44.1939 59.6694 40.6235 59.6694C37.3709 59.6694 35.6138 59.0533 33.5015 57.1861C31.9126 55.767 31.5387 54.46 32.2864 52.8356C32.5668 52.2007 32.8472 51.958 33.6884 51.5659C34.8661 51.0058 37.2775 50.3522 40.1562 49.7921C41.2404 49.5867 42.2872 49.3813 42.4928 49.3253C43.2031 49.1386 46.9978 49.4 47.9699 49.6801Z" fill="#EDEDED"/>
</svg>
