<svg width="85" height="84" viewBox="0 0 85 84" fill="none" xmlns="http://www.w3.org/2000/svg">
<path d="M38.4734 0.0446981C38.2117 0.0820417 37.2958 0.212745 36.4172 0.324776C30.8281 1.05298 23.9117 3.62969 19.1264 6.78523C14.2849 9.99679 9.9482 14.31 6.82651 19.0713C5.16285 21.6293 3.10664 25.9052 2.13462 28.8553C-1.6974 40.5812 -0.351523 52.6806 6.02272 63.4916C9.23788 68.9251 14.584 74.2839 20.1732 77.6448C32.3982 85.0202 47.6329 85.7111 60.4561 79.4747C65.7649 76.8793 70.6063 73.1449 74.214 68.8504C85.0745 55.8735 87.3177 38.2099 79.9714 23.3658C77.5787 18.5298 75.2982 15.4116 71.3166 11.5652C65.2789 5.75827 57.8204 2.00524 49.3152 0.492822C47.502 0.175401 46.0814 0.0633699 42.9597 0.0260262C40.7539 -0.0113174 38.7351 -0.0113174 38.4734 0.0446981ZM48.2871 6.71054C55.9325 8.16695 62.3254 11.4719 67.5407 16.6813C70.5128 19.6501 72.5691 22.5816 74.4757 26.54C79.7471 37.5564 78.8872 50.6454 72.1952 60.9522C67.7089 67.8795 61.0917 72.9955 53.3155 75.5349C44.1747 78.5411 34.4918 77.8502 25.9118 73.593C17.6122 69.4666 11.1259 62.0165 8.19108 53.2034C4.75161 42.8405 6.20965 31.6374 12.1913 22.5256C15.3691 17.7082 19.3507 13.9179 24.1734 11.1544C28.7532 8.54038 32.7534 7.21468 38.5669 6.39312C39.8567 6.2064 46.8478 6.44914 48.2871 6.71054Z" fill="#EDEDED"/>
<path d="M35.4827 14.6087C29.9496 15.5983 24.6222 18.175 19.4629 22.3762C17.8741 23.6645 12.4905 28.6873 11.5746 29.7142C10.7521 30.6665 10.3969 31.5627 10.3782 32.7017C10.3409 34.9423 12.1728 36.7162 15.4814 37.6497C17.7245 38.2659 20.2293 38.5833 23.0893 38.5833H25.7437L24.9212 40.1144C23.1641 43.4007 22.4725 46.5189 22.6407 50.3839C22.8276 55.3693 24.51 59.029 28.3607 62.8567C31.931 66.4044 35.8191 68.3649 41.6139 69.5226C44.1748 70.0454 49.3527 69.9894 52.0071 69.4292C62.6433 67.1512 68.8119 60.7841 70.326 50.4773C71.5971 41.9256 68.4754 34.2515 61.933 29.9009C60.4189 28.8927 57.4841 27.3802 57.0355 27.3802C56.6242 27.3802 56.7551 27.1562 57.9327 25.6998C59.4094 23.8699 59.7833 23.1231 59.7833 22.0214C59.7833 20.2663 58.3813 19.0339 56.5868 19.202C55.3718 19.3327 54.6989 19.8742 53.166 22.0588L51.8762 23.8513L51.2781 22.7496C49.9135 20.1729 47.1844 17.4095 44.8291 16.1958C42.4925 14.9821 41.1466 14.646 38.3801 14.59C37.0529 14.5527 35.7444 14.5714 35.4827 14.6087ZM40.9036 21.1438C41.4644 21.3119 42.3429 21.7227 42.8663 22.0588C43.857 22.6936 45.7263 24.5608 46.1189 25.3077C46.3432 25.7184 46.3432 25.7371 46.0254 25.6064C44.9225 25.1209 41.1653 24.1687 39.7072 23.982C37.5763 23.7206 36.6229 23.9446 35.6509 24.9156C34.7163 25.8678 34.5667 26.7641 35.1462 27.903C35.6696 28.9487 36.3612 29.3968 37.838 29.5835L38.9408 29.7329L37.5389 30.1623C32.361 31.7494 29.7066 32.1416 23.8931 32.1416C20.9584 32.1416 18.9956 32.0669 18.8087 31.9548C18.5283 31.7868 18.7152 31.5441 20.192 30.181C25.7811 25.0089 30.5852 22.0961 35.1088 21.1438C36.8099 20.7704 39.6699 20.7704 40.9036 21.1438ZM56.4747 34.0274C60.3254 35.9693 62.6059 38.658 63.7462 42.6351C64.1013 43.8488 64.1574 44.5397 64.1574 46.8923C64.1387 50.7947 63.5032 53.3528 61.8395 56.1535C58.1009 62.4646 48.8106 65.228 40.0624 62.6327C34.4359 60.9895 30.0618 56.6577 29.1084 51.8777C28.8093 50.2532 28.9963 46.7243 29.4823 45.0251C30.3048 42.2617 32.1553 39.4236 33.6882 38.6394C34.0059 38.4713 34.4733 38.1165 34.735 37.8365C35.0901 37.463 35.6696 37.2203 37.1837 36.8469C38.2866 36.5668 40.3802 35.9319 41.8569 35.4091C43.8944 34.6809 47.4647 33.7287 48.1003 33.7287C48.119 33.7287 48.0442 34.0461 47.8947 34.4195C47.7638 34.8116 47.6517 35.2598 47.633 35.4091C47.633 35.5585 47.3526 35.8759 46.9974 36.1C45.9506 36.7722 45.4459 38.3779 45.9693 39.3862C46.6423 40.6933 48.0816 41.3841 50.1939 41.4215C52.0445 41.4401 53.2408 40.5439 53.3717 39.0128C53.4277 38.5273 53.3904 37.9111 53.2969 37.6684C53.1661 37.3323 53.2782 36.8282 53.7455 35.5212C54.1007 34.5876 54.4185 33.71 54.4559 33.5793C54.5867 33.2058 55.0353 33.3179 56.4747 34.0274Z" fill="#EDEDED"/>
<path d="M36.1181 42.9525C35.2209 43.3446 34.5105 44.3902 34.5105 45.3425C34.4731 47.5271 36.4733 48.8341 38.3799 47.9192C40.4548 46.9109 40.4922 44.1475 38.4734 43.1019C37.5388 42.6351 36.9593 42.5977 36.1181 42.9525Z" fill="#EDEDED"/>
<path d="M32.716 47.7513C30.9776 48.1061 30.0616 50.3841 31.0524 51.8591C32.5104 54.0624 36.0433 53.1102 36.0807 50.5148C36.1181 48.6476 34.5479 47.3592 32.716 47.7513Z" fill="#EDEDED"/>
<path d="M38.0996 53.1101C37.221 53.5769 36.5481 54.8466 36.6789 55.8362C36.8471 57.2553 37.9874 58.2636 39.4081 58.2636C40.9783 58.2636 42.0998 57.1433 42.0998 55.5748C42.0998 53.5209 39.8754 52.1579 38.0996 53.1101Z" fill="#EDEDED"/>
</svg>
