<svg width="85" height="85" viewBox="0 0 85 85" fill="none" xmlns="http://www.w3.org/2000/svg">
<path d="M37.2939 1.14195C34.7617 1.49854 30.3728 2.58709 28.1032 3.43166C22.6076 5.45861 17.1308 9.00578 12.9106 13.2474C4.92036 21.2613 0.531372 31.8278 0.531372 43.0886C0.531372 59.1916 9.81578 73.9621 24.2582 80.8312C30.2227 83.6652 36.131 84.9977 42.6394 84.9977C57.5132 84.9977 71.0366 77.3591 78.9893 64.4842C81.7652 59.9799 83.8659 53.899 84.6725 48.0622C85.0288 45.4346 85.0663 40.3672 84.7662 38.0212C83.941 31.9028 82.0841 26.2724 79.3269 21.6742C72.8372 10.77 62.765 3.78825 50.0482 1.38594C47.3848 0.879198 40.1823 0.747821 37.2939 1.14195ZM48.0225 7.5231C59.2951 9.23099 68.6545 15.6872 74.3002 25.6531C76.1383 28.8999 77.8264 34.0987 78.3703 38.2089C78.6892 40.5362 78.6329 45.4534 78.2765 47.8557C77.32 54.2556 74.6753 60.3177 70.774 65.1411C65.1096 72.1416 57.4757 76.5896 48.4352 78.2037C45.2841 78.7667 40.1823 78.7667 36.9187 78.2225C29.0598 76.9087 22.195 73.324 16.8307 67.7311C11.5226 62.1945 8.31527 55.5882 7.17113 47.7806C6.75849 44.8903 6.88978 39.1661 7.45247 36.4259C8.95298 29.1252 12.3104 22.8003 17.3934 17.7517C23.2266 11.9711 30.5041 8.42397 38.7006 7.37295C40.3136 7.16651 46.2594 7.26035 48.0225 7.5231Z" fill="#EDEDED"/>
<path d="M45.828 22.5C44.9465 22.6877 40.0886 25.0525 37.4252 26.6102C35.8496 27.5299 32.8486 29.9322 31.4606 31.3773C30.8792 31.9967 29.4912 33.5732 28.3846 34.9245C27.2592 36.257 25.3648 38.4529 24.1644 39.8042C19.4941 45.0593 15.7616 50.014 14.3173 52.9231C12.2729 57.0145 12.2541 60.2239 14.261 63.2643C15.6303 65.3288 18.8939 67.1493 22.4951 67.8625C25.2148 68.388 30.5791 68.4068 34.4804 67.8625C36.7312 67.5622 43.3334 66.2109 46.4845 65.4226C52.3177 63.94 55.9565 62.4385 60.9269 59.4544C64.2468 57.4462 66.31 55.8884 67.9981 54.0867C71.5243 50.2956 72.6309 46.6358 71.5243 42.5256C71.3367 41.8124 71.2429 40.5362 71.2429 38.3403C71.2429 36.1632 71.1491 34.7931 70.9428 33.8923C70.5489 32.1093 67.9605 26.8918 66.9852 25.897C65.4472 24.3205 62.5587 23.0068 59.7453 22.6314C58.0572 22.3874 56.5942 22.5751 53.8745 23.4009L51.9614 23.9639L51.1173 23.3821C49.7481 22.4062 47.835 22.0871 45.828 22.5ZM47.4973 28.8436C47.6661 29.6694 48.8666 30.8331 49.7481 31.002C50.5921 31.1521 51.1548 31.0207 54.5497 29.8571C57.607 28.7873 58.8825 28.6935 60.7018 29.3691C61.3395 29.6131 62.0523 29.9885 62.2586 30.2137C62.4649 30.4202 63.1402 31.6588 63.7404 32.9538L64.8657 35.2999V38.5467C64.8657 40.9491 64.9595 42.169 65.1846 43.2388C65.8786 46.3167 65.5035 47.5179 63.0839 49.939C60.2142 52.8292 54.9624 55.926 49.8044 57.8028C46.8221 58.8913 40.2386 60.4491 34.7618 61.3687C30.5978 62.0819 24.9334 62.0444 22.4763 61.3124C19.9442 60.5429 18.8939 59.3981 19.194 57.784C19.344 56.9395 20.4131 54.7999 21.3885 53.3548C22.964 51.0463 27.1467 45.9226 30.5603 42.1502C31.4419 41.1743 33.0174 39.3538 34.049 38.1151C37.2376 34.3051 38.8882 32.9726 44.6089 29.6319C45.903 28.8812 47.0472 28.2618 47.1597 28.2618C47.2723 28.2618 47.4223 28.5246 47.4973 28.8436Z" fill="#EDEDED"/>
<path d="M46.8596 33.1415C44.8714 33.4418 42.5644 34.4365 40.7638 35.7315C40.2574 36.1069 38.513 37.6834 36.9187 39.2411C35.3245 40.7989 33.0362 42.8446 31.8545 43.783C28.047 46.7859 26.1151 49.1882 25.2523 51.9847C24.577 54.1993 25.196 56.4702 26.7903 57.7652C28.3658 59.0227 31.1605 59.3793 34.4992 58.7412C38.8882 57.9342 46.1656 55.7195 49.2417 54.2556C55.3 51.3841 58.8825 46.8985 58.1322 43.1261C57.8884 41.8687 57.1569 40.2546 56.5004 39.4664C56.1065 38.9972 56.0315 38.7532 56.1253 38.2089C56.3879 36.5761 55.375 35.206 53.1242 34.155C51.0798 33.1978 48.8478 32.8412 46.8596 33.1415ZM49.4855 39.1473C49.4855 39.2411 49.1104 39.5602 48.679 39.8793C48.2288 40.1796 47.5724 40.7614 47.2347 41.1555C45.0215 43.7267 39.976 47.2551 37.1063 48.2498L36.2623 48.5313L37.4814 47.4616C38.1567 46.861 40.0511 45.0593 41.7016 43.4452C44.7964 40.4235 45.6405 39.7667 47.0659 39.2599C47.985 38.9409 49.4855 38.8658 49.4855 39.1473ZM33.9927 51.2903C33.974 52.3413 33.974 52.36 33.3738 52.5289C33.0362 52.604 32.5298 52.6603 32.2672 52.6228C31.7983 52.5665 31.817 52.5289 32.8674 51.3841C33.4676 50.746 33.974 50.2205 33.9927 50.2205C33.9927 50.2205 34.0115 50.7084 33.9927 51.2903Z" fill="#EDEDED"/>
</svg>
