<svg width="85" height="86" viewBox="0 0 85 86" fill="none" xmlns="http://www.w3.org/2000/svg">
<path d="M38.5171 1.07007C29.9642 1.95217 22.1615 5.16151 15.5405 10.5104C13.6274 12.0494 10.0449 15.7467 8.61944 17.6423C2.93625 25.2434 0.0665283 33.7641 0.0665283 43.1106C0.0665283 48.0466 0.704245 52.138 2.14849 56.4922C4.13666 62.5355 7.62535 68.1472 12.2582 72.7641C18.5228 79.0514 25.9503 82.9177 35.0472 84.6256C37.0166 85.0009 37.8981 85.0572 42.0808 85.0572C47.2388 85.0572 49.0957 84.832 53.0908 83.7435C56.8608 82.73 61.775 80.5529 65.1511 78.3758C75.5422 71.7319 82.6133 60.4147 84.2076 47.9527C84.6203 44.6308 84.489 39.113 83.9263 35.9036C82.9322 30.2732 80.5314 24.2111 77.5304 19.7255C70.9844 9.90983 60.3495 3.15332 48.6455 1.35159C46.2822 0.994995 40.7304 0.84485 38.5171 1.07007ZM45.7571 7.46998C54.5538 8.31455 62.0751 11.9743 68.2459 18.3742C70.9656 21.1894 72.5224 23.4229 74.3418 27.0639C75.9923 30.4233 76.7426 32.5254 77.4741 35.9787C77.943 38.137 77.9805 38.6813 77.9993 42.829C77.9993 46.8266 77.943 47.5774 77.5679 49.4917C75.4859 59.7391 69.4276 68.4099 60.6309 73.6838C57.0859 75.8046 53.3721 77.2309 49.1144 78.1506C46.8262 78.6385 46.3948 78.6573 42.0808 78.6573C37.7668 78.6573 37.3354 78.6385 35.0472 78.1506C30.3018 77.1371 26.0254 75.3541 22.2741 72.8204C14.1338 67.3589 8.91954 59.5326 6.96887 49.8671C6.59375 47.9715 6.53748 47.1645 6.53748 43.2044C6.53748 37.9869 6.80007 36.2602 8.24431 31.8873C10.0262 26.4257 12.8959 21.8463 17.1161 17.661C24.5624 10.2477 35.291 6.43774 45.7571 7.46998Z" fill="#EDEDED"/>
<path d="M52.6031 11.1673C51.7966 11.9368 51.7216 12.162 51.5528 14.9584L51.4215 16.7414L49.7146 16.7602C48.4205 16.7789 47.7265 16.8728 46.9199 17.1918C44.8567 17.9989 43.2249 20.1009 42.8498 22.4844C42.756 23.0099 42.5872 23.5167 42.4559 23.5918C42.0433 23.8545 38.5921 24.5114 34.5783 25.0932C29.0451 25.9002 27.0569 26.5383 24.7124 28.2087C19.9108 31.6245 17.7163 38.8502 18.279 49.3791C18.6166 55.9104 19.7607 62.2352 21.1112 65.2569C22.2741 67.8281 25.4064 71.3378 27.7697 72.7454C28.5199 73.1958 29.7766 73.7776 30.5831 74.0404C31.8773 74.472 32.3462 74.5283 34.4845 74.5096C38.1795 74.5096 40.7866 73.6462 45.7008 70.8498C51.4215 67.5654 54.5913 64.4686 57.8362 59.0071C60.9685 53.7521 62.1126 50.1298 62.5628 44.0677C62.7878 40.971 62.5815 37.1423 62.0563 34.2896C61.9063 33.5201 61.7 31.099 61.5874 28.9407C61.4937 26.7636 61.3061 24.5302 61.1936 23.9671C60.8184 22.1466 59.9556 20.8704 58.155 19.4252L57.236 18.7121L57.2547 15.803C57.2922 13.2693 57.236 12.7813 56.9171 12.0494C56.4294 10.9608 55.6229 10.4541 54.3287 10.4541C53.4472 10.4541 53.2784 10.5292 52.6031 11.1673ZM51.1401 22.9349C53.3534 23.5167 54.9102 24.6428 55.1165 25.8252C55.1728 26.2193 55.2665 27.9647 55.2853 29.7102C55.3228 31.9436 55.4729 33.6327 55.773 35.4156C56.2794 38.3435 56.3732 43.561 55.9793 46.2636C55.4541 49.8858 53.9723 53.4518 51.4402 57.2805C49.0769 60.8089 46.7511 62.8921 42.2684 65.4821C36.0788 69.048 32.6088 69.1419 29.3265 65.8387C27.1507 63.6428 26.5318 62.3854 25.7628 58.4253C24.9 53.9585 24.7499 52.2131 24.7312 46.7703C24.7312 41.9282 24.7687 41.3651 25.1626 39.5446C25.6315 37.4614 26.4005 35.5658 27.1882 34.5335C28.4449 32.882 29.9079 32.3189 36.3601 31.0239C40.9929 30.0855 44.7442 29.0533 45.8884 28.4152C46.6761 27.9835 47.3326 27.0639 47.3326 26.407C47.3326 26.1818 47.5014 25.7501 47.7265 25.4498C47.9515 25.1307 48.2329 24.4551 48.3829 23.9296C48.5142 23.4041 48.7393 22.8973 48.8706 22.8223C49.227 22.5783 49.9397 22.6158 51.1401 22.9349Z" fill="#EDEDED"/>
<path d="M39.8113 34.8151C38.4046 35.547 37.6731 36.7482 37.6731 38.2684C37.6918 39.3569 37.6918 39.3569 37.1104 39.3569C35.0284 39.3757 32.2337 40.7082 31.3897 42.0783C30.0767 44.1991 30.902 46.47 33.1903 47.0518L34.1469 47.2958L33.4154 47.9527C32.5713 48.7034 32.2337 49.7357 32.4213 50.9744C32.5151 51.6688 32.7214 52.0066 33.3779 52.626C34.2031 53.433 34.2031 53.433 33.6967 53.433C31.6148 53.433 30.1893 55.0283 30.2268 57.318C30.2455 58.5942 30.5081 59.2699 31.3709 60.0769C31.7648 60.471 31.9524 60.8088 31.9524 61.203C31.9524 62.3478 33.0215 63.4739 34.2031 63.5678C35.4411 63.6804 35.7599 63.5678 36.5852 62.7232C37.3917 61.9349 37.4667 61.8974 38.2358 62.01C39.9989 62.2352 41.987 61.0153 44.2753 58.2752C46.3948 55.7602 46.9575 54.8031 46.9575 53.7896C46.9575 53.0013 47.0137 52.8887 47.5014 52.6823C48.7018 52.1943 49.3958 50.9931 49.3958 49.3603C49.3958 48.6284 49.4521 48.5345 50.0148 48.2905C50.8213 47.9527 51.5903 47.0331 51.8529 46.0571C52.1342 45.0624 51.8154 42.4537 51.2339 40.8959C50.69 39.4132 49.4521 38.1745 48.1016 37.7804C46.92 37.4426 46.4135 37.405 45.7571 37.6678C45.3069 37.8367 45.2882 37.7992 45.1569 36.9922C44.8005 34.5523 42.2684 33.5201 39.8113 34.8151ZM39.6237 45.3439C40.2239 46.1697 41.5556 46.7516 42.531 46.6202L43.3375 46.5076L43.4688 47.4835C43.5251 48.0278 43.5813 48.7785 43.5813 49.1726V49.9046L42.9999 49.4166C42.681 49.1539 42.2309 48.8723 41.9683 48.816C41.4806 48.6847 40.2802 48.7973 39.83 48.985C39.6425 49.0788 39.4362 48.9099 39.1736 48.4219C38.6671 47.5023 37.9732 47.0331 36.9416 46.9205C36.4727 46.8642 36.0788 46.7328 36.0788 46.6577C36.0788 46.5639 36.1726 46.4888 36.2663 46.4888C36.3789 46.4888 36.8103 46.151 37.2604 45.7568C37.6918 45.3627 38.2545 44.9874 38.5171 44.931C38.7797 44.8935 39.0423 44.8372 39.1173 44.8184C39.1923 44.8184 39.4174 45.0437 39.6237 45.3439ZM38.0482 54.0899C38.3671 54.3902 38.7797 54.7468 38.986 54.8594C39.3424 55.0658 39.3424 55.1034 38.7984 55.6852C38.4983 56.023 37.8981 56.511 37.4855 56.7737C37.0916 57.0177 36.604 57.4118 36.4164 57.637C36.0975 58.0124 36.0975 57.9936 36.3976 57.2429C36.9228 55.8541 36.2476 54.2963 34.8596 53.6957L34.2969 53.4518L35.2347 53.433C35.7599 53.433 36.3789 53.3016 36.6415 53.1515C37.0541 52.9075 37.1291 52.9263 37.2979 53.2078C37.4105 53.3767 37.7481 53.7708 38.0482 54.0899Z" fill="#EDEDED"/>
</svg>
