<svg width="85" height="85" viewBox="0 0 85 85" fill="none" xmlns="http://www.w3.org/2000/svg">
<path d="M37.3643 0.241162C27.8923 1.5737 19.6395 5.68391 12.8685 12.4216C6.32252 18.9154 2.23363 27.0608 0.845654 36.351C0.414258 39.3163 0.414258 45.0593 0.864411 47.9872C2.40243 58.2158 7.35412 67.2995 14.9504 73.8308C20.4461 78.5791 26.4293 81.5633 33.6318 83.1398C36.9517 83.8717 39.0524 84.0969 42.7099 84.0969C59.1217 84.0782 73.7892 74.788 80.8979 59.9049C85.8683 49.5074 86.3372 37.4583 82.2108 26.8543C76.7715 12.8721 65.0862 3.31913 49.9311 0.466379C47.2489 -0.0403594 40.1965 -0.171736 37.3643 0.241162ZM47.8116 6.60354C56.3458 7.82347 64.4485 12.1777 69.8504 18.4462C75.5898 25.1464 78.6283 33.2355 78.6283 41.8875C78.6283 56.2827 69.9254 69.3265 56.5896 74.9194C54.1325 75.9704 50.7376 76.9275 47.9429 77.378C44.9606 77.8659 39.8964 77.8284 36.7829 77.3029C26.7295 75.595 18.1203 70.0021 12.6434 61.6316C5.15962 50.2206 4.91579 35.2249 12.0057 23.7013C16.8261 15.8374 23.8597 10.4135 32.6752 7.76716C34.5509 7.20412 37.0642 6.67861 38.9586 6.4534C40.5341 6.26572 46.086 6.35956 47.8116 6.60354Z" fill="#EDEDED"/>
<path d="M50.55 20.004C45.9735 20.7359 39.9527 24.4145 36.7641 28.4496C35.5262 30.0074 35.1135 30.7205 34.2695 32.8789C33.5005 34.8683 33.4255 34.8871 29.4866 35.056C26.0542 35.2061 25.0976 35.4313 23.0157 36.5011C20.7649 37.6835 18.0828 40.555 17.0887 42.8447C16.3197 44.6277 16.1321 45.4723 16.0383 47.8183C15.8883 51.2341 16.5635 54.1806 18.064 56.7519C18.9456 58.2346 21.609 60.8621 23.2783 61.8756C24.0473 62.3448 24.9288 63.0204 25.2477 63.377C27.2359 65.6104 28.1549 66.0233 31.6624 66.1547C36.464 66.3236 40.159 64.9911 45.1857 61.2374C49.556 57.9718 51.7692 55.6446 54.1138 51.9097C54.4701 51.3279 55.0516 50.6335 55.4079 50.3895C61.3162 46.1104 66.9431 41.0242 69.2877 37.8524C70.0379 36.8389 71.0695 34.6806 71.3884 33.4419C72.5513 28.9 71.2196 24.3206 68.1435 22.3875C66.7931 21.5242 65.7427 21.299 62.4041 21.1488C60.1533 21.0362 58.559 20.8485 56.9835 20.5107C54.5076 19.9664 52.0506 19.7787 50.55 20.004ZM56.402 26.8919C57.9776 27.2109 59.5343 27.3986 61.5413 27.4737C64.1859 27.5675 64.486 27.6238 64.8612 27.9992C65.6677 28.8062 65.6114 31.1897 64.7299 33.0478C63.6607 35.3375 57.8463 40.8178 52.3882 44.7028C50.475 46.0728 49.5747 47.0488 48.2618 49.2259C46.0485 52.8481 40.2715 57.5964 36.1451 59.173C35.1135 59.5671 34.4008 59.6985 32.8065 59.7735L30.7808 59.8674L30.1806 59.2856C29.843 58.9665 29.0365 58.4598 28.3612 58.1595C25.6791 56.9583 23.7097 54.9314 22.8844 52.5291C22.528 51.4593 22.453 50.8962 22.453 48.8317C22.453 45.9039 22.7156 45.1907 24.3474 43.4828C25.9229 41.8312 26.6544 41.5685 30.4245 41.4184C34.0444 41.2494 35.3761 40.9116 37.1955 39.6729C38.6397 38.697 39.4275 37.5897 40.1027 35.5627C40.3841 34.6994 40.8155 33.6671 41.0781 33.2542C41.6032 32.4284 43.704 30.2701 44.6043 29.632L45.1857 29.2191L45.0919 30.0637C45.0169 30.7205 45.1107 31.1147 45.5233 31.978L46.0485 33.0478L45.5984 33.3293C44.1916 34.2677 41.9596 36.2571 38.0395 40.1046C35.62 42.4694 33.5568 44.4212 33.4817 44.4212C33.388 44.4212 33.0128 44.121 32.6565 43.7456C31.6999 42.7509 31.0997 42.4881 29.918 42.582C29.149 42.657 28.7926 42.7884 28.3612 43.2013C27.2921 44.2336 27.1796 45.7913 28.1174 47.0112C28.3613 47.3491 28.5488 47.6869 28.5113 47.7807C28.4738 47.8746 28.0049 48.2875 27.4609 48.7191C26.3168 49.6388 25.5666 50.671 25.4165 51.6094C25.2664 52.6041 25.9417 53.8991 26.8795 54.3683C28.1924 55.044 29.0927 54.8375 30.7621 53.4675C31.7186 52.6792 33.613 51.5531 33.9882 51.5531C34.1007 51.5531 33.7818 52.0223 33.2567 52.6041C31.8312 54.1619 31.5686 55.6821 32.5064 56.8832C33.538 58.197 35.8075 58.2909 36.8204 57.0709C37.1955 56.6017 40.6654 54.0493 44.2104 51.647C47.7366 49.2259 48.3368 48.7191 48.8245 47.7807C49.8561 45.7538 48.5431 43.4828 46.3299 43.4828C45.167 43.4828 43.9853 44.0646 41.8658 45.6975C40.9843 46.3544 40.1403 47.0112 39.9902 47.1238C39.5776 47.4054 44.8669 42.3192 46.7988 40.5363C47.7178 39.7105 48.7494 38.8659 49.087 38.6782C49.7248 38.3404 49.7435 38.3404 50.4563 38.7533C52.2569 39.7668 54.3951 38.8471 54.714 36.9328C54.8265 36.2384 54.9015 36.1821 55.9706 35.7879C58.6715 34.812 59.7219 32.466 58.2402 30.7205C57.171 29.4443 55.7456 29.2754 53.0446 30.1012C51.5629 30.5516 51.3753 30.5704 51.2253 30.3076C50.7188 29.388 49.4434 28.0179 48.8807 27.7927C48.5243 27.6426 48.243 27.4924 48.243 27.4549C48.243 27.3235 50.325 26.5728 51.1502 26.4039C52.1818 26.1787 53.7386 26.3288 56.402 26.8919Z" fill="#EDEDED"/>
</svg>
