<svg width="85" height="85" viewBox="0 0 85 85" fill="none" xmlns="http://www.w3.org/2000/svg">
<path d="M37.3643 0.241162C27.8923 1.5737 19.6395 5.68391 12.8685 12.4216C6.32252 18.9154 2.23363 27.0608 0.845654 36.351C0.414258 39.3163 0.414258 45.0593 0.864411 47.9872C2.40243 58.2158 7.35412 67.2995 14.9504 73.8308C20.4461 78.5791 26.4293 81.5633 33.6318 83.1398C36.9517 83.8717 39.0524 84.0969 42.7099 84.0969C59.1217 84.0782 73.7892 74.788 80.8979 59.9049C85.8683 49.5074 86.3372 37.4583 82.2108 26.8543C76.7715 12.8721 65.0862 3.31913 49.9311 0.466379C47.2489 -0.0403594 40.1965 -0.171736 37.3643 0.241162ZM47.8116 6.60354C56.3458 7.82347 64.4485 12.1777 69.8504 18.4462C75.5898 25.1464 78.6283 33.2355 78.6283 41.8875C78.6283 56.2827 69.9254 69.3265 56.5896 74.9194C54.1325 75.9704 50.7376 76.9275 47.9429 77.378C44.9606 77.8659 39.8964 77.8284 36.7829 77.3029C26.7295 75.595 18.1203 70.0021 12.6434 61.6316C5.15962 50.2206 4.91579 35.2249 12.0057 23.7013C16.8261 15.8374 23.8597 10.4135 32.6752 7.76716C34.5509 7.20412 37.0642 6.67861 38.9586 6.4534C40.5341 6.26572 46.086 6.35956 47.8116 6.60354Z" fill="#EDEDED"/>
<path d="M43.929 20.2855C38.9023 21.1864 34.5321 22.8755 24.8913 27.6238C18.1015 30.9645 16.1321 32.3346 13.0561 35.7692C9.99876 39.1662 8.92965 41.3433 9.0797 43.7644C9.13597 44.4776 9.34229 45.491 9.54861 46.0165C9.75493 46.5233 10.0363 47.3678 10.1488 47.8933C10.4114 49.0007 12.6247 53.4675 13.7876 55.2692C15.4756 57.878 17.7639 59.5108 20.5961 60.0926C21.3464 60.2427 23.6722 60.4867 25.7729 60.6556C27.8736 60.8058 31.1935 61.1624 33.1629 61.4439C36.4453 61.9319 37.1392 61.9694 42.4285 61.9506C48.318 61.9506 51.7317 61.6691 54.3201 61.0122C58.0151 60.0738 64.336 58.2346 65.3488 57.8029C68.0873 56.658 71.5572 53.749 72.8701 51.5156C73.6391 50.2018 73.9955 48.5315 73.8642 47.0675C73.6954 45.4347 73.6954 45.172 73.8455 43.2952C74.0893 40.4424 73.0389 37.8149 70.6756 35.2812C69.8128 34.3616 69.3627 33.7234 69.4002 33.4982C69.6065 32.3346 67.7309 29.4068 65.2738 27.0608C61.8414 23.7201 58.0714 21.7306 53.0259 20.5858C50.8314 20.079 45.9735 19.9289 43.929 20.2855ZM52.557 27.0232C56.1957 27.9804 59.3468 29.5569 61.4287 31.4713L62.4041 32.3721L62.0289 33.0103C61.5225 33.8736 61.5225 35.5815 62.0477 36.2947C62.254 36.5762 63.0043 37.2331 63.7358 37.7586C65.4801 39.016 67.1119 40.7052 67.3745 41.531C67.7309 42.5632 67.5058 43.7831 66.8868 44.4588C65.9115 45.491 64.6924 46.1104 61.7851 47.0488C57.171 48.5502 55.6705 48.813 51.6192 48.813C48.2055 48.813 48.0554 48.7942 42.3348 47.7432C36.8954 46.7485 28.999 45.5473 27.9111 45.5473C27.6485 45.5473 27.4234 45.4535 27.4234 45.3597C27.4234 45.247 27.5172 45.172 27.6485 45.172C28.1362 45.172 29.2991 44.1397 29.6742 43.4078C30.1431 42.4131 30.1431 41.6811 29.6742 40.4424C29.4679 39.9169 29.3366 39.4477 29.3553 39.4102C29.4491 39.3351 31.6061 41.4747 32.9941 43.0512C34.6259 44.8717 35.7888 45.5473 37.6457 45.6975C40.3841 45.9039 42.2785 44.5339 42.7099 42.0377C42.935 40.6676 41.9971 35.4876 41.2656 34.0237C39.9527 31.3774 37.7394 30.7769 34.3445 32.1282C33.3692 32.5035 32.5064 32.8976 32.4126 32.9915C32.3001 33.0853 32 33.1604 31.7186 33.1604C31.0247 33.1604 30.2369 33.4795 29.693 33.9674C29.0928 34.5305 28.3613 36.107 28.3613 36.914V37.5709L28.0424 36.9328C27.4797 35.7879 25.9604 35.1874 24.7038 35.6003C23.8597 35.8818 21.7778 38.2653 21.4589 39.3163C20.8212 41.4559 21.759 43.3702 24.0473 44.6089C24.61 44.9092 25.0039 45.172 24.8913 45.172C24.2911 45.172 19.3957 44.5526 18.064 44.3086C16.5072 44.0271 15.4194 43.6142 15.4194 43.3139C15.4194 43.2389 15.757 42.6383 16.1696 42.0189C17.1262 40.5175 20.0522 37.5897 21.609 36.5574C22.9407 35.6753 32.4877 30.9082 35.695 29.5194C38.2834 28.4121 41.6783 27.2672 43.929 26.798C46.3861 26.2537 50.0061 26.3476 52.557 27.0232ZM24.5162 51.5719C31.6061 52.3601 35.9013 52.9983 42.8037 54.2745C44.8106 54.6311 47.0614 54.9877 47.8116 55.0627C48.5619 55.1191 49.1808 55.2317 49.1808 55.3067C49.1808 55.5507 43.9666 55.7384 40.3091 55.6258C38.1521 55.5695 35.6575 55.363 33.5193 55.0627C31.6624 54.8 28.3237 54.4434 26.073 54.2745C21.1401 53.9179 20.4461 53.7302 19.3207 52.5291C18.8518 52.0223 18.3641 51.4405 18.2516 51.2153C18.0452 50.8024 18.0452 50.8024 18.7392 50.8962C19.1331 50.9525 21.7403 51.2528 24.5162 51.5719Z" fill="#EDEDED"/>
<path d="M46.161 28.4496C45.2232 28.6373 44.3417 29.1815 43.6664 30.0261C42.8224 31.0959 42.8787 32.222 44.0228 37.477C44.3604 38.9597 44.548 40.4987 44.5855 41.6435C44.623 43.1825 44.698 43.6142 45.1294 44.4963C46.705 47.7056 50.6626 48.1561 54.9203 45.6411C55.5017 45.3033 55.5205 45.3033 56.0269 45.6974C56.3082 45.9227 56.8897 46.2042 57.3211 46.298C57.7337 46.4106 58.5215 46.6171 59.0654 46.786C59.8157 47.0112 60.1908 47.03 60.791 46.8611C62.1415 46.5045 64.9362 43.8769 65.2738 42.657C65.799 40.8177 64.2609 38.9972 62.3665 39.2225C61.5413 39.3163 61.5413 39.2975 60.8285 38.2465C60.4159 37.6647 59.7031 36.8201 59.2155 36.3509C58.6528 35.7879 58.0901 34.9809 57.6212 33.9674C56.7209 32.0155 55.3517 30.5516 53.7949 29.7821C53.0446 29.4067 51.788 29.0689 50.1374 28.7499C47.5115 28.2619 47.2677 28.2431 46.161 28.4496Z" fill="#EDEDED"/>
</svg>
