<svg width="85" height="85" viewBox="0 0 85 85" fill="none" xmlns="http://www.w3.org/2000/svg">
<path d="M38.4751 0.961934C38.2134 0.999278 37.2975 1.12998 36.4189 1.24201C30.8298 1.97021 23.9134 4.54693 19.1281 7.70247C14.2866 10.914 9.94991 15.2272 6.82822 19.9885C5.16456 22.5466 3.10835 26.8224 2.13633 29.7726C-1.6957 41.4985 -0.349814 53.5978 6.02443 64.4088C9.23959 69.8423 14.5857 75.2011 20.1749 78.5621C32.4 85.9374 47.6346 86.6283 60.4578 80.3919C65.7666 77.7965 70.608 74.0622 74.2157 69.7676C85.0763 56.7907 87.3194 39.1272 79.9731 24.283C77.5804 19.447 75.2999 16.3288 71.3184 12.4825C65.2806 6.67551 57.8222 2.92248 49.3169 1.41006C47.5037 1.09264 46.0831 0.980606 42.9614 0.943263C40.7556 0.905919 38.7368 0.905919 38.4751 0.961934ZM48.2888 7.62778C55.9342 9.08418 62.3271 12.3891 67.5424 17.5985C70.5146 20.5674 72.5708 23.4988 74.4774 27.4573C79.7488 38.4736 78.8889 51.5626 72.1969 61.8694C67.7107 68.7967 61.0934 73.9128 53.3172 76.4521C44.1764 79.4583 34.4936 78.7675 25.9136 74.5103C17.614 70.3838 11.1276 62.9337 8.19279 54.1206C4.75332 43.7578 6.21136 32.5547 12.193 23.4428C15.3708 18.6255 19.3524 14.8351 24.1751 12.0717C28.7549 9.45761 32.7551 8.13192 38.5686 7.31036C39.8584 7.12364 46.8495 7.36637 48.2888 7.62778Z" fill="#EDEDED"/>
<path d="M31.4279 18.4014C29.9699 18.9802 28.6801 20.2499 27.9324 21.837C27.2968 23.1441 27.1473 23.7416 25.8388 29.5112C25.0724 32.9654 24.1191 35.9343 23.334 37.428C23.0162 38.0068 21.8011 39.7807 20.6235 41.3678C18.1747 44.654 16.4924 47.7909 15.8195 50.3302C15.2026 52.5895 15.2213 56.9401 15.8195 59.3861C16.698 62.9337 18.6981 66.0333 21.446 68.1432C22.9414 69.2822 23.6517 69.6183 24.8294 69.6743C25.4836 69.6929 26.5117 69.973 27.6333 70.4025C30.3624 71.4668 31.6149 71.6908 35.0169 71.6908C37.69 71.7095 38.1947 71.6535 39.7836 71.2054C41.9707 70.6079 43.9521 69.7116 45.9148 68.4419L47.429 67.4897L48.4945 67.6764C53.1303 68.5353 57.953 66.8175 61.7476 62.9337C63.7478 60.8985 65.4114 58.5272 66.6265 56.0252C67.8228 53.5231 68.3836 51.5813 68.5518 49.266C68.7948 45.8864 68.5518 44.3553 66.7199 37.372C66.2713 35.6542 66.2339 33.9364 66.6078 32.2186C67.0751 30.1273 67.1685 27.6253 66.7947 26.2623C65.9535 23.0507 64.1964 21.3889 61.6355 21.3889C59.7288 21.3889 58.7942 21.9304 56.252 24.5444C53.8406 26.9718 52.8499 27.7187 49.6908 29.3805C47.0177 30.7995 45.4662 31.9198 44.5316 33.1522C43.9334 33.9364 43.7839 34.0484 43.5596 33.8243C43.0922 33.3576 42.4193 31.1169 41.9333 28.4469C41.1295 23.9843 40.307 21.9677 38.5686 20.1939C37.204 18.8122 35.7834 18.1774 33.8954 18.084C32.7177 18.0466 32.1943 18.1027 31.4279 18.4014ZM34.4562 25.2166C35.0543 26.2249 35.1665 26.5984 35.7647 29.8846C36.3068 32.8721 36.7554 34.3845 37.6526 36.2143C38.4751 37.8761 39.0172 38.567 41.7464 41.3678C44.3073 44.0005 45.2606 45.3075 46.4382 47.8096C48.6814 52.5149 48.4945 56.548 45.8775 60.0209C44.8681 61.3653 42.5315 63.2325 40.8117 64.0727C38.4377 65.2304 37.0171 65.5105 34.3627 65.3984C32.0261 65.3051 30.4185 64.8943 28.5306 63.942C27.2594 63.3072 26.2313 63.1205 25.5023 63.4005C24.9976 63.5872 24.9042 63.5499 24.1377 62.803C22.5489 61.2719 21.6516 58.4525 21.6516 55.1289C21.6516 51.5813 22.6049 49.266 25.9136 44.8781C29.7643 39.7246 30.4372 38.1002 32.4 29.2311C33.2598 25.3287 33.5402 24.3764 33.8206 24.3764C33.8954 24.3764 34.1945 24.7498 34.4562 25.2166ZM60.3457 31.2663C59.8597 33.7123 59.8784 35.9529 60.3644 38.1002C60.5887 39.0151 60.7943 39.9861 60.8504 40.2288L60.9625 40.6769L60.327 40.3035C58.8316 39.3886 57.1118 39.8554 56.308 41.3864C56.1585 41.6852 55.9903 42.5068 55.9342 43.1976C55.7659 45.2515 54.6631 49.6581 54.1771 50.1995C54.121 50.2742 53.878 49.6581 53.6537 48.8365C53.2237 47.2494 51.7657 43.9818 50.775 42.3947C50.4385 41.8906 49.6721 40.8076 49.0739 40.0234C48.0084 38.6417 47.9711 38.5483 48.1954 38.0068C48.5505 37.1293 49.9712 35.9716 51.5227 35.2621C55.5977 33.4136 57.224 32.4053 59.411 30.3887C60.084 29.7726 60.6448 29.2871 60.6635 29.3058C60.7008 29.3244 60.5513 30.202 60.3457 31.2663ZM62.1589 46.876C62.2523 48.9859 62.215 49.5087 61.8598 50.797C60.6261 55.2596 56.8501 59.8529 53.4107 61.0666C52.5134 61.384 52.5134 61.4587 53.3172 59.5728C53.5602 58.9566 53.9154 57.743 54.1023 56.8654L54.4014 55.2596L55.3173 55.7077C55.9716 56.0438 56.4015 56.1372 56.8314 56.0438C57.7287 55.8758 58.5886 55.297 59.112 54.4941C59.9157 53.2804 61.2803 47.9776 61.5794 44.9154C61.7663 42.8989 62.0467 43.8138 62.1589 46.876Z" fill="#EDEDED"/>
<path d="M36.2881 43.235C35.559 43.6644 35.1852 44.2432 35.017 45.1208C34.8487 46.0357 35.2413 46.9133 36.3068 47.9403C38.0265 49.6394 38.5873 51.88 38.0265 54.8302C37.447 57.9484 37.7835 59.4981 39.2228 60.245C41.1856 61.2906 43.3352 60.077 43.896 57.5563C44.2886 55.8571 44.3633 51.5252 44.0082 50.1435C43.3166 47.3988 41.1295 44.1125 39.3911 43.235C38.4564 42.7495 37.0732 42.7495 36.2881 43.235Z" fill="#EDEDED"/>
</svg>
