<svg width="85" height="84" viewBox="0 0 85 84" fill="none" xmlns="http://www.w3.org/2000/svg">
<path d="M38.3202 0.105898C29.7963 0.983475 22.0201 4.17636 15.4216 9.49783C13.5149 11.0289 9.94457 14.7073 8.52391 16.5931C2.86 24.1552 0 32.6322 0 41.9308C0 46.8415 0.635555 50.912 2.0749 55.2438C4.05634 61.2561 7.5332 66.839 12.1503 71.4323C18.3937 77.6874 25.7961 81.5338 34.8621 83.2329C36.8248 83.6063 37.7034 83.6624 41.8719 83.6624C47.0124 83.6624 48.863 83.4383 52.8445 82.3553C56.6018 81.347 61.4993 79.1811 64.864 77.0152C75.2198 70.4053 82.267 59.1462 83.8559 46.7481C84.2671 43.4432 84.1363 37.9537 83.5755 34.7608C82.5848 29.1593 80.1921 23.1283 77.2012 18.6657C70.6775 8.90033 60.0786 2.17847 48.4143 0.385976C46.059 0.0312111 40.526 -0.118164 38.3202 0.105898ZM45.5356 6.47299C54.3026 7.31323 61.7984 10.9542 67.9483 17.3213C70.6588 20.1221 72.2103 22.3441 74.0235 25.9664C75.6684 29.3086 76.4161 31.3999 77.1452 34.8355C77.6125 36.9828 77.6499 37.5243 77.6686 41.6507C77.6686 45.6278 77.6125 46.3747 77.2386 48.2792C75.1637 58.474 69.126 67.1004 60.359 72.3472C56.8261 74.4571 53.1249 75.8762 48.8817 76.7911C46.6011 77.2766 46.1712 77.2953 41.8719 77.2953C37.5725 77.2953 37.1426 77.2766 34.8621 76.7911C30.1328 75.7828 25.8708 74.009 22.1323 71.4883C14.0196 66.0548 8.823 58.2687 6.87895 48.6527C6.50509 46.7668 6.44901 45.9639 6.44901 42.0242C6.44901 36.8334 6.71071 35.1156 8.15006 30.765C9.92587 25.3315 12.7859 20.7756 16.9918 16.6118C24.4128 9.23643 35.1051 5.44604 45.5356 6.47299Z" fill="#EDEDED"/>
<path d="M29.5159 23.2963C26.8616 25.0328 25.1418 26.6572 24.3754 28.1137C23.9268 28.9912 23.8333 29.3647 23.8333 30.6343C23.8333 31.9974 23.8894 32.2028 24.3941 32.9683C26.1512 35.5637 29.9272 35.9185 33.8527 33.8832C38.6006 31.4186 40.0961 26.8626 37.1426 23.9125C35.8902 22.6801 34.0396 21.7652 32.7685 21.7652C31.9273 21.7652 31.6282 21.8959 29.5159 23.2963Z" fill="#EDEDED"/>
<path d="M44.2459 22.0266C42.6196 22.6241 41.3111 24.3606 41.3111 25.929C41.3111 26.3585 41.1242 26.9746 40.8251 27.4788C40.4138 28.1696 40.3391 28.4871 40.4138 29.3086C40.5821 31.3065 41.6849 32.0907 44.5449 32.1841C48.5826 32.3335 50.9753 31.3065 51.966 29.0099C52.7511 27.1987 52.1903 25.3315 50.3958 23.6697C48.7508 22.1573 45.9282 21.3918 44.2459 22.0266Z" fill="#EDEDED"/>
<path d="M52.3585 32.5015C51.4426 32.9123 49.6855 34.4994 48.8817 35.6757L48.1713 36.684L47.4049 35.8251C44.358 32.3708 38.5259 31.6426 34.3013 34.182C32.8619 35.0595 32.0955 35.7878 31.1983 37.1321C29.9272 39.0927 29.3851 41.408 29.7215 43.5179C30.1702 46.2813 31.7964 48.8394 33.8713 49.997L34.563 50.3891L34.1704 50.9493C32.6563 53.0592 32.4881 55.86 33.7592 57.7085L34.2265 58.418L33.7031 58.9968C33.4227 59.3143 33.1236 59.6504 33.0489 59.7437C32.9928 59.8184 32.7311 59.7624 32.5068 59.5943C31.5161 58.9035 29.1982 59.4263 27.7027 60.696C26.3568 61.835 25.7026 63.8889 26.1512 65.5693C26.4316 66.6336 27.6466 67.9407 28.9364 68.5755C29.8337 69.0049 30.2823 69.0983 31.8899 69.1543C34.077 69.2477 35.3855 69.0049 36.937 68.2767C38.395 67.5672 39.4231 66.6523 40.096 65.4386C40.6194 64.505 40.6568 64.281 40.6381 62.6565C40.6381 61.6856 40.5821 60.7333 40.5447 60.5466C40.4886 60.2852 40.7316 60.1358 41.6849 59.7997C42.956 59.3516 43.5542 59.0155 44.6758 58.1566L45.3487 57.6525L45.8721 58.6607C46.1712 59.2209 46.6572 59.8744 46.9376 60.1358L47.4797 60.5839L46.3955 61.6669C44.3019 63.7582 44.115 66.1108 45.8908 67.8286C46.9937 68.8742 48.2648 69.1917 49.7415 68.7435C51.0126 68.3888 52.1903 67.5672 52.8632 66.5589C53.1436 66.1481 53.6483 65.476 53.9661 65.0652C54.7886 64.0569 55.069 63.0673 54.7886 62.2644C54.6764 61.9283 54.6017 61.6482 54.6203 61.6296C54.6577 61.6109 55.0877 61.4055 55.5737 61.1814C57.7234 60.2479 59.5366 58.25 60.3964 55.804C60.8077 54.665 60.9759 51.9015 60.7142 50.7999L60.5647 50.2397L60.8824 50.7065C61.4058 51.4721 62.4152 52.3683 63.2564 52.8165C63.8733 53.1339 64.3406 53.2272 65.6117 53.2272C66.995 53.2272 67.3314 53.1526 68.1913 52.7044C70.2101 51.6401 71.6869 49.5489 72.1916 47.0095C72.8458 43.7046 70.7709 39.8209 67.5745 38.3645C65.9669 37.6363 64.0602 37.2068 63.1443 37.3562C62.7517 37.4309 62.1349 37.6736 61.7797 37.935L61.1254 38.3645L60.6394 37.4122C60.0226 36.1985 58.8075 34.9849 56.9569 33.7338C54.7512 32.2401 53.6483 31.96 52.3585 32.5015ZM41.1615 39.1487C41.5541 39.242 42.0962 39.5221 42.3579 39.7649C43.4794 40.7171 42.3766 41.7627 38.6006 43.2565C37.3295 43.7606 36.1893 44.1714 36.0958 44.1714C35.5724 44.1714 35.4789 41.9681 35.9462 41.0532C36.75 39.5034 39.2175 38.6072 41.1615 39.1487ZM54.5269 39.8022L55.2372 40.4744L54.7886 40.8291C54.2465 41.2586 53.3492 41.2959 53.1997 40.8852C53.0502 40.5117 53.4053 39.13 53.6483 39.13C53.7418 39.13 54.1343 39.4288 54.5269 39.8022ZM50.0967 46.3934L51.1809 47.1029L50.2088 47.663C49.6854 47.9805 48.8443 48.5966 48.3583 49.0261L47.461 49.8103L46.6759 48.9701C46.246 48.5219 45.6104 47.9991 45.274 47.8311L44.6571 47.5137L45.6478 46.7855C46.2086 46.3934 46.975 45.6838 47.3675 45.1984L48.0779 44.3395L48.5452 45.0116C48.8069 45.3851 49.4985 46.0012 50.0967 46.3934ZM59.6861 45.8705C59.6113 45.9452 59.4057 45.9452 59.2562 45.8519C59.0318 45.7212 59.0505 45.6278 59.3496 45.273L59.7235 44.8809L59.7796 45.2917C59.8169 45.5158 59.7796 45.7772 59.6861 45.8705ZM65.8547 46.0759L65.6491 46.6921L65.6304 45.8519C65.6117 45.2357 65.6678 45.0863 65.836 45.2544C65.9856 45.4037 65.9856 45.6278 65.8547 46.0759ZM54.583 52.7978C54.583 53.638 53.9474 54.8517 53.2932 55.2438C52.9941 55.4118 52.452 55.5612 52.0781 55.5612C51.4987 55.5612 51.4052 55.5052 51.4052 55.1131C51.4052 54.5529 52.1342 53.6567 53.2745 52.8351C54.34 52.0509 54.583 52.0322 54.583 52.7978Z" fill="#EDEDED"/>
<path d="M22.3379 41.7441C20.3378 42.1549 17.8516 43.6113 16.674 45.0863C15.7019 46.3 15.0103 47.7564 14.6552 49.3435C14.3935 50.5572 14.3748 50.9866 14.543 52.1443C15.3468 57.223 20.1321 59.7064 24.824 57.4844C27.0485 56.4388 28.6747 54.0115 29.2916 50.8933C29.5533 49.5863 29.572 49.1195 29.3851 47.8311C28.8991 44.5262 27.9831 42.5843 26.5251 41.8374C25.9456 41.5387 23.6464 41.4827 22.3379 41.7441ZM23.0856 48.4659C23.3473 50.0717 22.394 52.107 21.4406 51.9762C20.2817 51.8082 20.4499 49.6983 21.721 48.4286C22.637 47.5137 22.9174 47.5137 23.0856 48.4659Z" fill="#EDEDED"/>
</svg>
