<svg width="85" height="84" viewBox="0 0 85 84" fill="none" xmlns="http://www.w3.org/2000/svg">
<path d="M36.715 0.243811C27.2752 1.56951 19.0503 5.65864 12.3022 12.3618C5.77845 18.8223 1.70342 26.9259 0.320151 36.1684C-0.109783 39.1186 -0.109783 44.8321 0.338844 47.745C1.87165 57.9211 6.80655 66.9583 14.3771 73.4561C19.8541 78.18 25.8171 81.1489 32.9952 82.7173C36.3038 83.4455 38.3974 83.6696 42.0425 83.6696C58.3987 83.6509 73.0164 74.4083 80.101 59.6016C85.0546 49.2574 85.5219 37.2701 81.4095 26.7205C75.9886 12.81 64.343 3.30599 49.2392 0.467873C46.5661 -0.0362663 39.5376 -0.166969 36.715 0.243811ZM47.1269 6.57356C55.6321 7.78723 63.7074 12.1191 69.0909 18.3555C74.8109 25.0213 77.8392 33.0689 77.8392 41.6766C77.8392 55.9979 69.1657 68.9748 55.8751 74.539C53.4264 75.5847 50.043 76.5369 47.2578 76.985C44.2856 77.4705 39.2386 77.4332 36.1355 76.9104C26.1162 75.2112 17.5362 69.647 12.0779 61.3194C4.61949 49.9669 4.37649 35.0481 11.4424 23.5836C16.2464 15.7601 23.2562 10.3639 32.0418 7.73122C33.9111 7.17106 36.4159 6.64825 38.3039 6.42419C39.8741 6.23747 45.4072 6.33083 47.1269 6.57356Z" fill="#EDEDED"/>
<path d="M47.0895 13.0901C45.3511 13.8929 43.594 16.0589 41.9116 19.4571C41.4443 20.3721 40.8835 21.6604 40.6405 22.2953C40.248 23.3782 39.8928 23.733 39.6311 23.3035C39.4442 23.0235 36.8085 21.9965 35.257 21.6044C30.4529 20.3907 26.1349 21.343 22.9197 24.3118C20.4897 26.5711 18.9756 29.3345 18.1905 32.9942C17.8166 34.712 17.7605 35.4776 17.7605 39.3426C17.7605 44.1226 18.0222 47.0168 18.9569 52.5063C20.1719 59.6203 21.5926 63.4667 23.8357 65.7073C26.4901 68.3587 31.3689 69.1242 34.9205 67.4251L35.8178 66.9956L36.8833 67.8545C40.4536 70.7673 45.6502 71.1221 49.8 68.7134C51.0711 67.9666 53.4077 65.8006 53.9872 64.811L54.3236 64.2322L56.2303 64.2509C58.0435 64.2695 58.1743 64.2509 59.2959 63.6347C62.7915 61.7302 64.9598 56.6701 66.0627 47.745C66.2683 46.0458 66.5861 43.6932 66.7543 42.5169C67.2404 39.268 67.1843 34.0212 66.6609 31.5938C65.4271 25.9363 61.8381 22.6687 57.2023 22.9675C54.2676 23.1542 51.3702 24.7226 49.5196 27.1126C49.3513 27.318 49.5757 26.7765 49.9869 25.9363C51.9123 22.0339 52.9778 18.8783 52.9778 17.0485C52.9778 13.6689 50.0617 11.7083 47.0895 13.0901ZM35.1822 27.6728C35.7056 27.8408 36.1542 28.0462 36.1542 28.1396C36.1542 28.2329 35.8925 28.9424 35.5748 29.7453C33.5933 34.6747 32.4531 40.8177 32.0418 48.6972C31.7801 53.6826 32.1727 59.3589 32.9017 61.2634C32.9578 61.4314 32.64 61.5995 31.911 61.8049C30.6959 62.141 29.4248 62.0103 28.5837 61.4501C27.3125 60.6285 26.2284 57.4543 25.2376 51.6474C24.3591 46.5126 24.1161 43.8052 24.1161 39.3426C24.1161 35.627 24.1722 34.9734 24.5273 33.6664C25.0694 31.7245 25.5928 30.6976 26.677 29.5213C28.378 27.6541 29.5931 27.1686 32.3222 27.2806C33.3503 27.3367 34.6401 27.5047 35.1822 27.6728ZM58.5856 29.1665C59.2772 29.5213 59.9875 30.8656 60.3801 32.5648C61.0343 35.3095 60.6792 44.048 59.7258 48.6786C58.9968 52.1515 58.137 55.195 57.5575 56.2967L57.1089 57.1743L57.0902 56.5581C57.0902 55.7925 56.6415 54.6909 56.0808 54.0934C55.6508 53.6266 55.6508 53.6079 55.8938 52.0022C56.4172 48.5105 56.7163 44.6081 56.7163 41.3405C56.7163 36.4859 56.2116 33.7224 54.9218 31.3324C54.5666 30.6789 54.2862 30.1374 54.3236 30.1188C56.1555 28.8678 57.4453 28.569 58.5856 29.1665ZM43.2575 31.9673C43.8183 32.5088 44.4725 33.0502 44.6968 33.1623C44.9585 33.293 45.8932 33.349 47.1082 33.3303C49.37 33.2743 49.4074 33.2743 49.9495 35.0481C50.4729 36.7286 50.3981 45.2803 49.8187 49.7055C49.314 53.6079 49.37 54.4295 50.1925 55.4564C50.772 56.166 50.772 56.2033 50.5664 57.2303C50.3047 58.612 49.2392 60.7032 48.2298 61.8609C46.4914 63.8401 43.9678 64.5123 41.8929 63.56C40.1732 62.7758 39.2385 61.114 38.6591 57.7718C37.8927 53.4399 38.5656 42.1994 40.005 35.4029C40.4162 33.461 40.9957 31.4071 41.2948 30.959C41.5004 30.6229 42.2481 31.015 43.2575 31.9673Z" fill="#EDEDED"/>
</svg>
