<svg width="85" height="85" viewBox="0 0 85 85" fill="none" xmlns="http://www.w3.org/2000/svg">
<path d="M37.3655 0.245066C27.8934 1.57759 19.6405 5.68777 12.8694 12.4255C6.32331 18.9192 2.23438 27.0645 0.84639 36.3546C0.414989 39.3199 0.414989 45.0629 0.865147 47.9907C2.40319 58.2192 7.35492 67.3029 14.9513 73.8342C20.447 78.5825 26.4304 81.5666 33.6329 83.1431C36.9528 83.875 39.0535 84.1002 42.7111 84.1002C59.1231 84.0815 73.7907 74.7913 80.8995 59.9084C85.87 49.5109 86.3389 37.4619 82.2124 26.858C76.773 12.8759 65.0877 3.32301 49.9324 0.470281C47.2502 -0.0364529 40.1977 -0.167829 37.3655 0.245066ZM47.8129 6.6074C56.3471 7.82731 64.4499 12.1815 69.8518 18.45C75.5914 25.1501 78.6299 33.2391 78.6299 41.8911C78.6299 56.2861 69.9269 69.3299 56.5909 74.9227C54.1338 75.9737 50.7389 76.9309 47.9442 77.3813C44.9619 77.8693 39.8976 77.8317 36.784 77.3062C26.7305 75.5984 18.1212 70.0055 12.6443 61.635C5.1604 50.2241 4.91657 35.2285 12.0066 23.705C16.827 15.8412 23.8607 10.4173 32.6763 7.77101C34.552 7.20797 37.0653 6.68247 38.9598 6.45725C40.5353 6.26958 46.0873 6.36342 47.8129 6.6074Z" fill="#EDEDED"/>
<path d="M68.1824 29.4292C67.0007 29.767 63.2119 32.113 60.3609 34.2713L59.0854 35.2285L58.0538 34.2901C56.1969 32.6009 52.4456 31.0244 48.3379 30.2362C46.2747 29.8421 39.8224 29.6731 37.3278 29.9734C29.2812 30.9118 19.6403 36.0167 14.3697 42.1538C12.6441 44.162 12.0252 45.2693 11.9126 46.6957C11.7063 48.9666 12.9067 50.5056 16.0391 52.007C20.7095 54.2591 26.1301 55.3852 32.1135 55.3852C34.5518 55.3665 35.6209 55.2914 37.1027 54.9723C41.1354 54.109 44.5866 52.6639 48.8068 50.0551C51.8266 48.1971 54.5463 46.6769 54.8277 46.6769C55.1653 46.6769 61.4675 50.3554 64.5624 52.3636C66.1567 53.3958 67.976 54.4844 68.595 54.7846C70.5457 55.7043 72.14 55.4415 73.453 53.9964C75.2911 51.9507 74.6909 48.7226 71.4273 43.0734L70.9208 42.1914L71.521 40.8213C73.4342 36.4671 73.9219 33.2203 72.9278 31.3435C72.065 29.6731 70.0955 28.8849 68.1824 29.4292ZM46.7061 36.3733C48.9944 36.6173 50.7012 36.9739 52.0517 37.4806C53.1771 37.9123 54.8652 38.9633 54.884 39.2448C54.9027 39.3386 53.4209 40.202 51.6203 41.1404C49.8197 42.0787 47.2875 43.5239 45.9933 44.3309C44.7179 45.1379 42.9923 46.1326 42.167 46.5455C40.8165 47.2024 37.7967 48.366 37.3841 48.366C37.309 48.366 37.3466 47.9343 37.4779 47.3901C38.0968 45.0253 37.6279 40.202 36.54 37.7809C36.2774 37.1615 36.0711 36.636 36.1086 36.6173C36.5213 36.2044 43.705 36.0355 46.7061 36.3733ZM65.2939 39.2073C64.4873 41.0277 64.356 42.7732 64.9 44.1995C65.1063 44.7438 65.2188 45.1755 65.1438 45.1379C65.0688 45.1004 64.1497 44.5749 63.0993 43.9555C61.4675 42.9984 61.1862 42.7732 61.28 42.4541C61.355 42.2477 61.4675 41.7409 61.5613 41.328C61.6551 40.8776 61.9177 40.4272 62.2553 40.1457C63.0806 39.4512 65.744 37.6683 65.8378 37.7434C65.8753 37.7809 65.6315 38.4378 65.2939 39.2073ZM31.1006 39.6765C31.6258 40.9151 31.6446 41.0277 31.6446 44.4247C31.6446 47.4839 31.6821 47.9719 31.9822 48.4411C32.1697 48.7226 32.2823 49.0041 32.226 49.0604C32.0572 49.2481 27.1242 48.7414 25.1173 48.3472C23.0353 47.9343 19.9404 46.9772 19.4153 46.5643C19.0964 46.3391 19.1527 46.2452 20.1093 45.2693C21.4597 43.8805 24.3482 41.7034 26.5615 40.3896C28.2121 39.4137 30.1815 38.419 30.4441 38.419C30.5192 38.419 30.8193 38.982 31.1006 39.6765Z" fill="#EDEDED"/>
<path d="M25.4551 41.5908C24.6486 42.0788 24.311 42.5292 24.0484 43.4301C23.4482 45.4195 24.7799 47.24 26.8243 47.24C29.6191 47.24 30.6319 42.7356 28.0998 41.5345C27.2557 41.1404 26.1491 41.1591 25.4551 41.5908Z" fill="#EDEDED"/>
</svg>
