<svg width="86" height="85" viewBox="0 0 86 85" fill="none" xmlns="http://www.w3.org/2000/svg">
<path d="M39.1104 0.490242C37.6662 0.621618 34.0274 1.31604 32.2643 1.78524C19.3037 5.2761 8.63131 14.8291 3.75466 27.2911C2.72306 29.9749 1.59767 34.4229 1.22255 37.5197C0.791151 40.9167 0.922445 46.5847 1.48514 49.7189C3.71714 61.8431 10.4507 71.7527 20.9167 78.3402C27.9691 82.7883 37.7037 85.1531 45.9377 84.4586C51.921 83.9331 56.5538 82.6944 61.6181 80.2171C70.2272 76.0318 77.2046 69.0125 81.2372 60.5106C86.0764 50.3007 86.6953 39.0399 83.0003 28.3045C79.718 18.8079 72.4593 10.2872 63.3999 5.35117C59.1422 3.0427 53.7591 1.33481 48.5074 0.640386C46.5004 0.377633 41.2299 0.302561 39.1104 0.490242ZM48.3761 7.0403C63.55 9.25494 75.3852 20.5158 78.4425 35.6429C78.8177 37.5572 78.8739 38.3079 78.8739 42.3994C78.8552 46.6597 78.8177 47.1665 78.3675 49.3623C77.2421 54.6174 74.785 60.0226 71.709 64.039C70.4336 65.7093 67.8827 68.3369 66.0071 69.8946C59.3485 75.4687 49.9891 78.6218 41.455 78.1713C33.5023 77.7397 26.1498 74.9432 20.354 70.1574C18.8911 68.9562 16.0401 66.0847 14.8772 64.6395C11.6698 60.6607 9.11898 55.1241 7.93733 49.5312C7.46842 47.3729 7.43091 46.8286 7.41215 42.6809C7.41215 38.7396 7.46842 37.9138 7.82479 36.0933C9.49411 27.9292 13.3392 21.1164 19.3224 15.805C24.5367 11.1505 31.4391 7.97871 38.3602 7.02153C40.8172 6.66494 45.9753 6.68371 48.3761 7.0403Z" fill="#EDEDED"/>
<path d="M46.9506 13.9657C43.4056 15.5985 41.1924 20.178 40.5171 27.2911C40.2733 29.7309 40.067 30.3315 39.2042 30.9508C38.5477 31.42 38.6415 31.6077 38.0788 28.6987C37.3848 25.0577 36.1469 22.3926 34.1212 20.178C32.3769 18.2824 29.5822 16.8748 27.5565 16.8748C25.5495 16.8748 23.3926 18.3387 22.7173 20.178C21.9296 22.2612 22.2297 24.0066 24.1053 28.4171C24.7618 29.9561 25.3807 31.6077 25.4933 32.0769C25.8496 33.6159 25.7371 35.1549 25.0431 37.9326C23.8802 42.512 23.9928 44.6703 25.5308 47.8421C26.2248 49.2873 26.5436 49.6814 28.9445 52.0086L31.5891 54.5986L31.7204 56.7006C31.7954 57.8643 31.9455 59.103 32.058 59.4408C32.2081 59.9288 32.1705 60.229 31.908 60.8484C31.0827 62.7627 30.8764 63.8513 30.8764 66.0471C30.8764 67.8301 30.9514 68.3932 31.3078 69.3316C32.0955 71.3398 32.9583 72.2031 34.4963 72.4471C34.9652 72.5221 35.828 72.7286 36.3907 72.8975C38.0413 73.3855 40.0107 72.9538 41.5675 71.7714L42.1677 71.321L42.374 72.128C43.068 74.9057 45.7689 76.4259 48.4136 75.525C49.6702 75.0934 50.4955 74.3051 51.8835 72.2031C53.384 69.9134 54.3969 68.7873 56.2725 67.3609C59.8174 64.6583 60.7178 63.063 62.4621 56.4754C63.55 52.3652 64.319 50.282 66.6823 45.1207C68.6704 40.7478 69.2894 38.7584 69.1769 36.9754C69.0456 34.5168 67.4325 32.9403 65.088 32.959C62.8747 32.9966 60.7365 34.3291 57.0227 38.0639C55.5222 39.5842 53.8342 41.461 53.2715 42.2492C52.7088 43.0375 52.2024 43.6944 52.1461 43.6944C52.0148 43.6944 49.9891 40.7665 49.9328 40.4663C49.8953 40.3161 50.2142 39.8094 50.6081 39.3214C53.4403 35.8868 55.3347 29.6371 55.3347 23.6688C55.3347 19.7275 54.6219 17.1375 53.0089 15.242C51.5271 13.5341 49.0138 12.9898 46.9506 13.9657ZM48.9575 23.5562C48.9575 26.0899 48.6199 28.3796 47.9071 30.7632C47.2694 32.8276 46.5942 34.1414 45.3938 35.6429C43.912 37.4634 43.4431 38.627 43.4431 40.3349C43.4431 42.0052 43.9308 43.2252 45.375 45.1958C47.6258 48.255 48.8075 52.3277 47.9259 54.0356C47.7571 54.3546 46.8005 55.1241 45.4501 56.025C43.0492 57.6203 40.911 59.5909 39.992 61.0736L39.3918 62.012V61.2425C39.3918 60.5669 39.5418 60.2853 40.6297 58.9903C45.6751 53.0033 45.8627 49.9066 41.6425 43.6193C40.0482 41.2357 39.7294 40.6164 39.6919 39.7718C39.6731 38.8897 40.0857 38.2704 41.3237 37.332C43.9871 35.2675 44.4185 34.8734 45.0749 33.935C46.1065 32.4335 46.5192 31.0259 46.8193 28.0418C47.1194 25.0201 47.4757 23.4248 48.151 21.8859C48.4886 21.1351 48.6949 20.8724 48.7887 21.0413C48.8825 21.1727 48.9575 22.3175 48.9575 23.5562ZM30.6138 25.6395C30.8764 26.0899 30.8764 26.24 30.67 26.6342L30.4262 27.1034L30.2199 26.5779C30.1073 26.2964 29.8448 25.6958 29.6384 25.2453C29.4321 24.7761 29.2633 24.3445 29.2633 24.2694C29.2633 24.0442 30.2762 25.0764 30.6138 25.6395ZM59.5549 45.4023C58.2982 48.1987 57.0603 51.8209 56.1975 55.293C55.3722 58.5399 54.9033 59.8724 54.2656 60.6232C53.9842 60.9422 52.9526 61.8619 51.9398 62.6689L50.1204 64.1328L49.9891 63.4572C49.9328 63.0818 49.6515 62.4437 49.4077 62.0495C49.1451 61.6367 48.9575 61.2988 48.995 61.2801C53.1964 58.7651 54.7532 56.1376 54.5281 51.9523C54.4531 50.3195 54.4719 50.1318 54.7907 49.9254C54.9971 49.8128 55.466 49.2309 55.8411 48.6304C56.8727 46.9975 60.0425 43.2439 60.4364 43.1689C60.4927 43.1689 60.0988 44.1636 59.5549 45.4023ZM38.4164 64.6771C37.8912 66.46 37.7787 66.6102 37.1222 66.6102H36.5408L36.6721 65.7093C36.8034 64.7709 37.0472 64.358 37.4411 64.358C37.5724 64.358 37.9288 64.1516 38.2101 63.8888C38.4914 63.6448 38.754 63.4196 38.7728 63.4196C38.7728 63.4196 38.6227 63.9827 38.4164 64.6771Z" fill="#EDEDED"/>
</svg>
