<svg width="85" height="86" viewBox="0 0 85 86" fill="none" xmlns="http://www.w3.org/2000/svg">
<path d="M38.6057 0.997809C38.3432 1.03535 37.4241 1.16672 36.5425 1.27933C30.9344 2.01129 23.9945 4.60128 19.1929 7.77309C14.335 11.0012 9.98351 15.3366 6.85119 20.1225C5.18188 22.6937 3.11868 26.9916 2.14334 29.957C-1.70171 41.7433 -0.351254 53.905 6.04467 64.7717C9.27077 70.2333 14.6351 75.6197 20.2432 78.9979C32.5099 86.4113 47.7964 87.1058 60.6632 80.8372C65.99 78.2285 70.8479 74.4748 74.4679 70.1582C85.3654 57.1144 87.6161 39.3598 80.2449 24.4391C77.8441 19.5782 75.5558 16.4439 71.5607 12.5777C65.5024 6.74084 58.0186 2.96846 49.4844 1.44824C47.6651 1.12919 46.2396 1.01658 43.1073 0.979041C40.894 0.941505 38.8683 0.941505 38.6057 0.997809ZM48.4528 7.69801C56.1242 9.16192 62.5389 12.4839 67.7719 17.7202C70.7542 20.7043 72.8174 23.6509 74.7305 27.6297C80.0198 38.7029 79.157 51.8593 72.4422 62.2193C67.9407 69.1822 61.3009 74.3247 53.4983 76.8772C44.3264 79.8988 34.6106 79.2044 26.0015 74.9253C17.6736 70.7775 11.1652 63.2891 8.22041 54.4305C4.76924 44.0142 6.23223 32.7534 12.2343 23.5946C15.4229 18.7524 19.418 14.9425 24.2571 12.1648C28.8524 9.53728 32.8663 8.20475 38.6995 7.37896C39.9937 7.19128 47.0086 7.43526 48.4528 7.69801Z" fill="#EDEDED"/>
<path d="M38.2306 14.0416C32.4912 15.5431 27.727 17.8703 23.6757 21.1735C21.9688 22.5623 20.6371 23.9136 20.2808 24.6268C20.1119 24.9271 19.5305 25.6028 18.9866 26.0907C16.4357 28.3992 15.873 32.2279 17.2985 37.5768C19.2867 45.009 22.6816 48.4811 29.4151 49.9262C31.6659 50.4142 36.3362 50.4517 39.6373 50.0013C45.9207 49.1755 49.6908 49.1192 51.0975 49.8324C51.979 50.2828 52.8043 51.1837 52.9731 51.8593C53.4608 53.8112 51.8852 56.4575 47.8151 60.4551C45.9395 62.2944 45.6956 62.482 45.2267 62.3694C44.9266 62.2944 43.2198 62.2005 41.4004 62.1254C37.6116 62.0128 36.0174 62.2381 34.3855 63.1765C31.8722 64.6216 31.4783 67.906 33.5978 69.689C34.9482 70.8338 37.7992 71.6409 40.4439 71.6409H41.9256L42.0757 73.086C42.2445 74.9816 42.6571 76.0701 43.5011 76.7458C45.0954 78.0408 47.3837 77.5153 48.3403 75.6009C48.5279 75.2256 48.903 74.137 49.1656 73.1798C49.4282 72.2227 49.7845 71.228 49.9346 70.984C50.2722 70.4772 51.1913 69.8391 54.0797 68.15C58.9189 65.2973 62.6889 61.6938 64.7521 57.9214C67.9032 52.1596 67.8844 46.135 64.6771 39.829C62.0137 34.6114 58.3187 31.4209 52.2979 29.1687C50.4035 28.4555 47.44 27.6485 45.2642 27.2356C44.5515 27.1042 43.5949 26.8602 43.1448 26.7101C42.6384 26.5036 42.0757 26.4473 41.6068 26.5224C41.2129 26.5975 40.6689 26.5975 40.4251 26.5224L39.9562 26.4098L40.5939 25.7529C42.1319 24.1013 41.4567 21.7178 39.2059 21.0046L38.2118 20.6668L40.0125 20.16C43.5949 19.1653 44.9266 17.4574 43.8763 15.2615C43.1073 13.6663 41.1941 13.2534 38.2306 14.0416ZM27.3332 31.008C29.9403 31.4396 33.654 31.8525 37.7617 32.1528C39.3372 32.2654 39.7311 32.3593 40.2375 32.7346C40.969 33.2977 41.0065 33.0537 39.431 38.4214C38.7745 40.636 38.2306 42.7192 38.2306 43.0383C38.2306 43.8641 37.968 43.9392 34.3855 43.9204C28.6836 43.9016 26.2078 42.7005 24.5947 39.2096C23.6944 37.2577 23.0192 34.5364 22.9817 32.6408C22.9254 30.276 22.9817 30.2572 27.3332 31.008ZM48.7717 34.6677C51.3413 35.5123 54.061 36.9199 55.6365 38.2337C56.368 38.853 56.987 39.4348 56.987 39.5287C56.987 39.6413 53.7984 42.4002 52.673 43.2448C52.4667 43.3949 52.0541 43.3761 51.0787 43.1885C50.2722 43.0383 48.7342 42.9445 47.1399 42.9445C44.664 42.982 44.514 42.9632 44.5703 42.6254C44.6078 42.419 44.9266 41.124 45.2642 39.7351C45.6019 38.3463 45.977 36.6947 46.1083 36.0753C46.4459 34.1985 46.4834 34.1047 46.746 34.1047C46.896 34.1047 47.7964 34.3675 48.7717 34.6677ZM60.4569 46.5479C60.6257 47.2987 60.7383 48.481 60.7007 49.1942C60.6445 50.4705 60.6445 50.4705 59.988 50.6957L59.3503 50.9021L58.9189 49.701C58.6938 49.0441 58.2999 48.1808 58.0373 47.7866C57.7747 47.3925 57.5497 46.9984 57.5497 46.9233C57.5684 46.7169 59.6504 45.1966 59.9317 45.1779C60.0443 45.1779 60.2881 45.7784 60.4569 46.5479Z" fill="#EDEDED"/>
<path d="M26.7892 33.2038C25.7201 33.7669 25.2324 34.6302 25.345 35.8126C25.4388 36.9387 26.0202 37.7457 27.1831 38.3275C29.3401 39.4348 31.5158 38.5152 31.7972 36.4132C31.9847 34.9868 31.0844 33.8044 29.2651 33.11C28.2147 32.6971 27.7833 32.7159 26.7892 33.2038Z" fill="#EDEDED"/>
</svg>
