<svg width="85" height="85" viewBox="0 0 85 85" fill="none" xmlns="http://www.w3.org/2000/svg">
<path d="M37.2939 1.14195C34.7618 1.49854 30.3728 2.58709 28.1032 3.43166C22.6076 5.45861 17.1308 9.00578 12.9106 13.2474C4.92036 21.2613 0.531372 31.8278 0.531372 43.0886C0.531372 59.1916 9.81578 73.9621 24.2582 80.8312C30.2227 83.6652 36.131 84.9977 42.6394 84.9977C57.5132 84.9977 71.0366 77.3591 78.9893 64.4842C81.7652 59.9799 83.8659 53.899 84.6725 48.0622C85.0288 45.4346 85.0664 40.3672 84.7663 38.0212C83.941 31.9028 82.0841 26.2724 79.3269 21.6742C72.8372 10.77 62.765 3.78825 50.0482 1.38594C47.3848 0.879198 40.1823 0.747821 37.2939 1.14195ZM48.0225 7.5231C59.2951 9.23099 68.6545 15.6872 74.3002 25.6531C76.1383 28.8999 77.8264 34.0987 78.3703 38.2089C78.6892 40.5362 78.6329 45.4534 78.2765 47.8557C77.32 54.2556 74.6753 60.3177 70.774 65.1411C65.1096 72.1416 57.4757 76.5896 48.4352 78.2037C45.2841 78.7667 40.1823 78.7667 36.9187 78.2225C29.0598 76.9087 22.195 73.324 16.8307 67.7311C11.5226 62.1945 8.31527 55.5882 7.17113 47.7806C6.75849 44.8903 6.88978 39.1661 7.45247 36.4259C8.95298 29.1252 12.3104 22.8003 17.3934 17.7517C23.2266 11.9711 30.5041 8.42397 38.7006 7.37295C40.3136 7.16651 46.2594 7.26035 48.0225 7.5231Z" fill="#EDEDED"/>
<path d="M34.9493 21.3927C27.8969 22.7628 21.7073 28.5058 20.0943 35.1497C19.6066 37.1954 19.6816 40.0294 20.3006 41.8687C22.2137 47.593 27.3905 50.0516 33.6739 48.2311C39.5259 46.5419 46.447 41.2306 48.7353 36.7075C50.5359 33.1228 50.5359 29.0126 48.6977 26.1598C47.4035 24.0953 45.0778 22.5376 42.1518 21.7118C40.3136 21.205 36.7687 21.0361 34.9493 21.3927ZM38.8319 27.3047C39.3758 27.5111 40.3136 27.8114 40.8951 27.9803C42.8082 28.5058 43.671 29.5756 43.671 31.4149C43.671 33.104 42.8833 34.5304 40.7826 36.6324C36.6374 40.7989 30.4478 43.4264 27.9532 42.0939C27.1654 41.6622 26.5089 40.6112 26.2464 39.3162C25.3461 34.962 30.2227 28.6935 35.6621 27.2296C37.0125 26.873 37.669 26.8918 38.8319 27.3047Z" fill="#EDEDED"/>
<path d="M34.7618 29.1627C34.4617 29.2002 33.0549 29.782 31.667 30.4765C28.8347 31.8841 28.2908 32.4096 28.2908 33.7796C28.2908 35.7503 30.2415 36.989 32.3234 36.3509C34.1428 35.7878 36.7124 34.5491 37.3501 33.9298C39.5259 31.809 37.8941 28.7686 34.7618 29.1627Z" fill="#EDEDED"/>
<path d="M47.7974 43.783C43.6898 44.4962 40.0135 46.373 37.0313 49.2633C29.1161 56.9395 30.204 67.5059 39.1695 69.8707C40.67 70.2648 44.1962 70.3023 45.828 69.9457C50.067 69.0073 54.3997 66.6613 57.457 63.6397C61.7334 59.4356 63.6466 54.3682 62.4649 50.4832C61.9022 48.7003 60.4205 46.5795 59.07 45.6411C58.2635 45.078 56.144 44.3085 54.3059 43.9332C53.1055 43.6704 48.9603 43.5766 47.7974 43.783ZM53.2368 49.6762C54.5497 49.8827 55.3 50.4082 56.0877 51.6844C57.6445 54.2181 53.6307 59.7922 48.4539 62.3071C46.0156 63.4895 44.8339 63.7898 42.6394 63.8086C40.4449 63.8273 39.3383 63.4332 38.6068 62.401C37.7065 61.1435 37.9879 58.6849 39.3196 56.4515L39.7885 55.6069L40.0323 56.3952C40.4262 57.7465 41.364 58.4784 42.6957 58.4784C43.8023 58.4784 49.0541 56.2075 49.8419 55.4005C51.0423 54.1618 50.9673 52.4539 49.6731 51.2715C49.0166 50.6709 48.8103 50.5958 47.9287 50.5958C47.3098 50.5958 46.5408 50.7835 45.828 51.0838C44.1962 51.7595 44.0837 51.797 44.7026 51.4029C45.6592 50.7835 47.6849 50.0516 49.2417 49.77C51.061 49.4322 51.6988 49.4135 53.2368 49.6762Z" fill="#EDEDED"/>
</svg>
