<svg width="84" height="84" viewBox="0 0 84 84" fill="none" xmlns="http://www.w3.org/2000/svg">
<path d="M36.5732 0.224488C34.0542 0.58073 29.6878 1.66821 27.4299 2.51194C21.9626 4.53689 16.5139 8.08057 12.3155 12.318C4.3664 20.3241 0 30.8801 0 42.1298C0 58.217 9.23661 72.9729 23.6047 79.8353C29.5385 82.6665 35.4163 83.9977 41.8913 83.9977C56.6885 83.9977 70.1423 76.3666 78.054 63.5044C80.8157 59.0045 82.9056 52.9296 83.7079 47.0985C84.0625 44.4735 84.0998 39.4111 83.8012 37.0674C82.9802 30.9551 81.1329 25.3302 78.3899 20.7365C71.9336 9.84303 61.9133 2.86818 49.2619 0.468233C46.6122 -0.0380064 39.4468 -0.169254 36.5732 0.224488ZM47.2467 6.59935C58.4612 8.30556 67.7724 14.7554 73.3891 24.7115C75.2177 27.9551 76.8971 33.1488 77.4382 37.2549C77.7554 39.5799 77.6995 44.4923 77.3449 46.8922C76.3933 53.2858 73.7622 59.342 69.881 64.1606C64.2457 71.1542 56.6512 75.5979 47.6572 77.2103C44.5223 77.7728 39.4468 77.7728 36.2 77.2291C28.3816 75.9166 21.5521 72.3354 16.2154 66.748C10.9347 61.2169 7.74382 54.6171 6.60557 46.8172C6.19506 43.9298 6.32568 38.2112 6.88547 35.4737C8.37826 28.1801 11.7184 21.8615 16.7752 16.8179C22.5784 11.043 29.8184 7.49933 37.9727 6.44935C39.5775 6.24311 45.4926 6.33686 47.2467 6.59935Z" fill="#EDEDED"/>
<path d="M37.6928 7.93057C31.3671 9.63678 22.9143 19.8741 19.7048 29.7551C18.5852 33.2425 18.1933 35.4737 18.212 38.5674C18.212 42.2986 18.9957 45.5047 20.787 49.0859C22.6157 52.7233 24.407 54.6921 25.8625 54.6921C26.2544 54.6921 26.4969 54.7858 26.4969 54.917C26.4969 55.4983 25.0042 58.9857 23.4927 61.9294C21.6267 65.5856 21.4588 66.1481 21.9253 67.348C22.7277 69.5042 25.1161 70.048 26.8328 68.473C27.6912 67.7043 30.1916 63.0169 31.4604 59.8482C31.9456 58.6107 32.3561 57.5795 32.3561 57.5607C32.3748 57.542 32.6174 57.5045 32.8973 57.467C33.4011 57.4107 33.457 57.4857 34.2221 59.417C34.6513 60.5232 35.2857 61.8544 35.6029 62.3794C35.9388 62.9044 36.2 63.4106 36.2 63.5044C36.2 63.5794 35.2671 64.5731 34.1475 65.6793C31.9456 67.8543 31.5724 68.5105 31.7963 69.748C32.1135 71.4917 33.9795 72.4104 35.6962 71.6792C36.3866 71.3792 38.7005 69.4667 40.6038 67.5918L41.9286 66.298L43.3467 66.5793C45.1194 66.9543 47.7318 66.9543 49.915 66.598C56.5952 65.5106 61.6894 61.5544 66.6342 53.6233C67.4366 52.3296 68.1083 51.1484 68.1083 50.9796C68.1083 50.8296 68.2763 50.4359 68.4629 50.1171C69.004 49.2547 69.1719 48.3734 69.6011 44.661C70.1982 39.5424 70.2729 36.6737 69.8997 33.7488C69.1906 28.1989 67.7165 25.3302 64.8802 24.0177C63.8352 23.5302 63.5367 23.474 61.764 23.474C60.0473 23.4927 59.5808 23.5677 58.032 24.1115C56.166 24.749 53.5537 26.0427 51.837 27.1864C51.2772 27.5801 50.7734 27.8801 50.7174 27.8801C50.6614 27.8801 50.5681 26.3427 50.5121 24.449C50.3628 19.4616 49.6911 16.2179 48.161 13.068C47.4519 11.5867 45.7352 9.58053 44.5596 8.83055C42.7683 7.68682 39.9693 7.31183 37.6928 7.93057ZM41.7047 14.7742C43.3094 16.5741 44.2238 20.624 44.2238 25.9302C44.2051 35.5862 41.6114 44.0985 37.4689 48.0359C36.2187 49.2172 35.0805 50.0047 35.0805 49.6484C35.0805 49.5547 35.379 48.5234 35.7522 47.3422C37.6742 41.2111 39.3909 34.3675 40.1186 30.0176C41.2195 23.4927 41.5367 18.2616 40.9023 17.0054C40.2119 15.6367 38.5139 15.1117 37.133 15.8616C36.1067 16.4054 35.8082 17.0991 35.5283 19.7803C34.9312 25.2739 33.3078 32.9988 31.1432 40.6299C30.005 44.6423 28.3069 50.0047 28.1577 50.0047C27.7098 50.0047 25.9931 46.611 25.3027 44.3798C24.0712 40.2924 24.2204 36.205 25.7879 31.5363C28.5309 23.3615 36.1814 14.0054 40.1186 14.0054C40.921 14.0054 41.0703 14.0804 41.7047 14.7742ZM62.7343 30.5051C63.7979 32.7363 64.0218 38.1924 63.2941 44.3423C63.0702 46.2172 62.8836 48.0547 62.8836 48.3922C62.8836 48.8797 62.5477 49.4984 61.3535 51.1484C57.3603 56.6983 53.0872 59.7919 48.5715 60.4107C48.0304 60.4857 47.5825 60.4857 47.5825 60.4107C47.5825 60.3544 47.9184 59.9044 48.3103 59.417C50.8293 56.3983 58.088 45.7297 59.6741 42.7486C60.6071 40.9861 60.7564 39.8611 60.1966 38.7736C59.6181 37.6674 58.0507 37.0299 56.8378 37.4424C55.7369 37.7987 54.6173 39.1674 51.0719 44.5485C46.4443 51.5421 40.6597 59.2482 40.3052 58.8732C40.1559 58.742 38.999 55.3108 38.999 55.0483C38.999 54.992 39.4655 54.6171 40.0253 54.2421C40.5851 53.8483 41.6114 52.9296 42.3018 52.1796C45.8472 48.4109 48.2356 43.2173 49.6351 36.2612C49.7657 35.605 49.9523 35.1925 50.1016 35.1925C50.2322 35.1925 51.2399 34.5925 52.3408 33.88C56.4273 31.1613 59.6927 29.6988 61.4841 29.7926C62.3424 29.8488 62.4357 29.9051 62.7343 30.5051Z" fill="#EDEDED"/>
</svg>
