<svg width="85" height="85" viewBox="0 0 85 85" fill="none" xmlns="http://www.w3.org/2000/svg">
<path d="M37.3643 0.241162C27.8923 1.5737 19.6395 5.68391 12.8685 12.4216C6.32252 18.9154 2.23363 27.0608 0.845654 36.351C0.414258 39.3163 0.414258 45.0593 0.864411 47.9872C2.40243 58.2158 7.35412 67.2995 14.9504 73.8308C20.4461 78.5791 26.4293 81.5633 33.6318 83.1398C36.9517 83.8717 39.0524 84.0969 42.7099 84.0969C59.1217 84.0782 73.7892 74.788 80.8979 59.9049C85.8683 49.5074 86.3372 37.4583 82.2108 26.8543C76.7715 12.8721 65.0862 3.31913 49.9311 0.466379C47.2489 -0.0403594 40.1965 -0.171736 37.3643 0.241162ZM47.8116 6.60354C56.3458 7.82347 64.4485 12.1777 69.8504 18.4462C75.5898 25.1464 78.6283 33.2355 78.6283 41.8875C78.6283 56.2827 69.9254 69.3265 56.5896 74.9194C54.1325 75.9704 50.7376 76.9275 47.9429 77.378C44.9606 77.8659 39.8964 77.8284 36.7829 77.3029C26.7295 75.595 18.1203 70.0021 12.6434 61.6316C5.15962 50.2206 4.91579 35.2249 12.0057 23.7013C16.8261 15.8374 23.8597 10.4135 32.6752 7.76716C34.5509 7.20412 37.0642 6.67861 38.9586 6.4534C40.5341 6.26572 46.086 6.35956 47.8116 6.60354Z" fill="#EDEDED"/>
<path d="M25.9229 23.2321C23.8035 23.645 21.8528 25.1839 20.8775 27.2109C19.2269 30.5891 19.9584 34.9246 22.7906 38.697C24.1411 40.4799 26.6732 42.413 29.1866 43.5579C30.1619 44.0083 33.7819 45.1532 36.0326 45.735C36.8204 45.9414 36.8391 45.9602 36.7266 46.542C36.4828 47.7807 35.8638 52.8856 35.6575 55.4944C35.3011 60.055 35.7138 64.4655 36.7079 66.3799C38.3209 69.4766 42.8975 69.927 45.5421 67.2432C47.3615 65.3664 47.6053 63.3958 46.8738 56.339C46.3299 51.2716 46.1423 47.1614 46.3299 45.3596L46.4612 44.1585L50.7376 42.2441C56.6834 39.5791 58.8966 38.2465 61.2224 35.9193C62.3103 34.812 63.5857 32.9164 64.0734 31.6589C64.486 30.5704 64.6549 28.3933 64.3923 27.4361C64.0922 26.3288 63.1919 24.9963 62.3666 24.452C60.0408 22.913 56.7397 23.1945 52.4445 25.2778C49.012 26.9481 45.8797 29.4631 43.0663 32.8226L41.7158 34.4554L40.703 32.6724C37.9458 27.7364 33.8194 24.3581 29.3366 23.3259C27.8924 23.0068 27.2171 22.9881 25.9229 23.2321ZM29.5429 30.1012C32.4877 31.5839 34.8885 34.0237 36.4265 37.1017C37.2893 38.8283 37.4206 39.3538 37.008 39.3538C36.4078 39.3538 32.8065 38.209 31.6436 37.6647C30.0118 36.8765 28.1362 35.3938 27.461 34.3428C26.3356 32.5786 26.0355 30.439 26.8045 29.6695C27.1984 29.2754 28.2487 29.4255 29.5429 30.1012ZM57.64 30.3076C57.096 31.3211 53.8699 33.9299 52.8196 34.2114C52.557 34.2865 52.2569 34.1551 51.9193 33.8548L51.4129 33.3856L52.3132 32.7287C53.4761 31.8841 55.1266 30.9645 56.4771 30.4202C57.7525 29.8947 57.865 29.876 57.64 30.3076Z" fill="#EDEDED"/>
</svg>
