<svg width="85" height="84" viewBox="0 0 85 84" fill="none" xmlns="http://www.w3.org/2000/svg">
<path d="M36.6379 0.229149C34.1143 0.583914 29.7402 1.66688 27.4784 2.50711C22.0014 4.52367 16.5431 8.05265 12.3372 12.2725C4.37411 20.2454 0 30.7576 0 41.9607C0 57.9811 9.25293 72.6759 23.6464 79.5098C29.5907 82.3292 35.4789 83.6549 41.9653 83.6549C56.7887 83.6549 70.2662 76.0555 78.192 63.2466C80.9585 58.7654 83.0521 52.7157 83.8559 46.9087C84.211 44.2947 84.2484 39.2533 83.9493 36.9193C83.1269 30.8323 81.2763 25.2307 78.5284 20.6561C72.0607 9.8078 62.0227 2.86188 49.349 0.471883C46.6946 -0.0322568 39.5166 -0.16296 36.6379 0.229149ZM47.3302 6.57757C58.5645 8.27671 67.8922 14.6998 73.5188 24.6146C75.3507 27.8448 77.033 33.0169 77.5751 37.106C77.8929 39.4213 77.8368 44.3134 77.4816 46.7033C76.5283 53.0704 73.8926 59.1014 70.0045 63.9001C64.3593 70.8647 56.7513 75.2899 47.7414 76.8957C44.601 77.4559 39.5166 77.4559 36.264 76.9144C28.4317 75.6073 21.5902 72.041 16.244 66.4768C10.954 60.9686 7.75751 54.3961 6.61725 46.6287C6.20601 43.7532 6.33686 38.0583 6.89764 35.3322C8.39307 28.0689 11.7391 21.7764 16.8048 16.7537C22.6183 11.0028 29.8711 7.47382 38.0398 6.4282C39.6474 6.22281 45.573 6.31617 47.3302 6.57757Z" fill="#EDEDED"/>
<path d="M38.3763 12.1604C36.6005 13.0007 35.7406 14.9799 35.9462 17.762C36.0958 19.6479 36.6379 21.6271 37.5912 23.6436C37.9838 24.5025 38.3202 25.2307 38.3202 25.2681C38.3202 25.3054 37.8903 25.3428 37.3856 25.3428C35.2359 25.3428 31.8525 26.3324 29.5346 27.6394C27.9083 28.5543 25.31 31.0003 24.1698 32.7181C22.3566 35.4069 20.9172 39.0479 20.263 42.6142C19.777 45.1723 19.777 51.8194 20.2443 54.5642C21.9827 64.5163 26.2073 70.902 32.0581 72.3958C33.834 72.8439 36.694 72.8813 38.6006 72.4892C44.4888 71.2381 51.8912 66.7569 57.6673 60.9313C60.3777 58.2239 62.0788 55.9832 63.4433 53.3505C64.9575 50.4377 65.4622 48.5519 65.4809 45.7884C65.4995 42.5022 64.6771 39.9441 62.733 37.3301C62.2657 36.6952 61.8731 36.1351 61.8731 36.0791C61.8731 36.0231 62.2844 35.9857 62.7704 35.9857C64.7705 35.9857 66.3968 35.1081 67.0884 33.6704C67.8548 32.0086 67.4436 30.3095 65.9108 28.8344C64.9575 27.9008 62.6582 26.6498 61.1067 26.2017L60.0599 25.9029L60.9759 24.0544C62.0975 21.7951 62.7143 19.4985 62.5274 18.2848C62.4339 17.6313 62.2283 17.2579 61.7236 16.735C61.1254 16.1562 60.8263 16.0255 59.63 15.8201C57.8916 15.5214 57.3495 15.54 56.4896 15.9882C55.8541 16.3056 54.1343 17.9861 51.8725 20.4321C51.3865 20.9736 50.9192 21.4217 50.8631 21.4217C50.807 21.4217 50.5453 20.9736 50.2836 20.4507C48.1152 15.8575 43.7411 11.9924 40.4699 11.7683C39.5539 11.7123 39.1801 11.7683 38.3763 12.1604ZM43.629 21.5524C44.0776 22.2619 44.5823 23.1582 44.7692 23.5689C45.33 24.8946 45.7786 26.2764 45.6478 26.2764C45.5543 26.2764 45.4048 25.9216 45.2926 25.4735C45.1618 25.044 44.7318 24.2411 44.3206 23.6996C43.6477 22.8034 42.6196 20.8615 42.6196 20.4694C42.6196 20.1146 42.8439 20.3574 43.629 21.5524ZM43.3299 32.1393C43.9654 32.3074 44.8066 32.6435 45.1992 32.9049C45.573 33.1476 46.3581 33.521 46.9376 33.7077C48.8256 34.3613 50.8257 35.3882 51.8725 36.2284C52.4333 36.6952 53.181 37.1434 53.4988 37.1994C54.4334 37.4048 57.5177 40.5977 58.2841 42.1474C59.6674 44.9669 59.4244 47.6743 57.4616 51.1286C54.9194 55.6472 48.3769 61.4168 42.5261 64.3296C34.7312 68.2133 30.8992 66.9436 28.114 59.5496C26.6559 55.6845 26.0578 51.7074 26.226 47.2822C26.5812 38.8798 29.9272 33.4277 35.6285 31.9713C37.0304 31.6165 41.6288 31.7285 43.3299 32.1393Z" fill="#EDEDED"/>
<path d="M43.442 35.0708C42.5261 35.3322 42.0401 35.9297 40.6007 38.5438C38.9745 41.5312 38.7128 42.3528 39.0492 43.4731C39.6848 45.6017 42.1335 46.1432 43.7411 44.5187C44.0963 44.1826 44.9188 42.7636 45.6291 41.2698C47.0684 38.3197 47.2367 37.3488 46.545 36.2284C45.9656 35.2575 44.5636 34.7347 43.442 35.0708Z" fill="#EDEDED"/>
<path d="M32.5068 37.5355C31.5721 38.1516 31.1983 39.0852 30.974 41.3632C30.7496 43.7532 30.8618 44.5561 31.6095 45.415C32.9928 46.9834 35.1051 46.6473 36.1145 44.7055C36.5818 43.7719 36.9183 40.2055 36.6379 39.1599C36.1706 37.4234 33.9648 36.5645 32.5068 37.5355Z" fill="#EDEDED"/>
<path d="M46.0777 48.1224C45.274 48.4585 44.6571 49.3921 44.0028 51.2779C43.2738 53.4252 43.2178 54.2281 43.7225 55.3484C44.4702 56.9729 46.4516 57.3836 47.8536 56.2073C48.5826 55.6098 48.9004 54.975 49.4611 53.0891C50.2089 50.5311 49.9845 49.0747 48.7321 48.3091C48.1153 47.917 46.7694 47.8237 46.0777 48.1224Z" fill="#EDEDED"/>
<path d="M31.8151 53.6493C30.7683 54.1908 30.4693 54.8256 29.9832 57.6077C29.4972 60.3338 29.5159 61.1367 30.1141 62.1076C30.6001 62.9105 31.946 63.508 32.8806 63.34C33.7592 63.1719 34.6378 62.4997 35.0116 61.6968C35.1798 61.3607 35.4602 59.923 35.6285 58.504C35.9089 56.114 35.9089 55.8899 35.6098 55.1243C35.4415 54.6576 35.049 54.1161 34.7312 53.892C33.9835 53.3505 32.6189 53.2385 31.8151 53.6493Z" fill="#EDEDED"/>
</svg>
