<svg width="85" height="85" viewBox="0 0 85 85" fill="none" xmlns="http://www.w3.org/2000/svg">
<path d="M38.614 0.157708C32.837 0.852127 28.5793 2.09082 23.7027 4.47437C14.4183 8.99747 6.87819 17.1428 3.07065 26.7708C-0.0241544 34.5971 -0.680627 43.9061 1.28879 52.1265C3.80215 62.5991 10.2731 71.7392 19.2949 77.5573C33.0621 86.4158 50.8806 86.5097 64.7416 77.7825C67.4425 76.0746 69.2431 74.667 71.6064 72.396C75.3952 68.7175 78.0399 65.114 80.2531 60.5722C82.3538 56.2555 83.6855 51.8638 84.2857 47.2844C84.6609 44.4128 84.6421 39.5519 84.267 36.6053C82.5039 22.8108 73.7072 10.5365 61.3092 4.47437C57.1453 2.42865 53.8817 1.37763 49.3989 0.570606C47.4107 0.232781 40.3396 -0.0487407 38.614 0.157708ZM47.2419 6.689C51.087 7.21451 54.238 8.15291 57.8768 9.89834C61.9282 11.8502 64.9667 13.971 67.9677 17.0302C72.0566 21.1404 75.0764 26.2453 76.7644 31.857C77.8898 35.5918 78.0961 37.1496 78.0961 42.1794C78.0774 46.3272 78.0399 46.8715 77.571 49.0486C76.4643 54.2849 74.026 59.6901 70.9312 63.7252C69.6933 65.358 66.5422 68.5674 64.8729 69.9187C53.8817 78.8147 38.4639 80.41 25.8596 73.9538C15.4123 68.6237 8.51 58.883 6.80317 47.153C6.37177 44.1501 6.52182 38.5197 7.10327 35.6106C9.4103 24.0682 16.7628 14.703 27.4539 9.69189C30.53 8.26552 34.6376 7.06436 38.0513 6.6327C40.0207 6.36994 45.1224 6.40748 47.2419 6.689Z" fill="#EDEDED"/>
<path d="M53.6191 16.6924C48.1797 17.5369 42.0839 19.6953 36.457 22.7732C33.3997 24.4436 28.2229 27.8594 25.6533 29.9051C19.3512 34.9162 15.2623 40.9032 14.1557 46.7776C13.2178 51.6761 14.6808 56.4244 18.3196 60.3094C20.1389 62.2425 21.5832 63.3311 23.984 64.4947C25.0719 65.0202 26.4223 65.8084 26.985 66.2401C29.8735 68.3984 33.6623 69.6747 37.2072 69.6747C41.5587 69.6747 47.0543 67.7979 51.087 64.9639C54.4444 62.5803 58.2144 58.32 60.859 53.9095C63.4662 49.5928 66.0358 44.0562 67.0862 40.4715C68.1553 36.8868 68.3428 35.6857 68.3241 32.2323C68.3241 29.3984 68.2678 28.8353 67.8364 27.2213C66.2421 21.3656 63.2223 17.8748 58.8333 16.8425C57.7642 16.5985 54.8007 16.5047 53.6191 16.6924ZM57.8017 23.1486C58.1956 23.2612 58.8896 23.7116 59.3773 24.1808L60.2588 25.0066L59.5086 25.8137C59.0772 26.2453 58.2144 27.2776 57.5392 28.1034C56.8827 28.9292 54.9508 31.2939 53.2439 33.3584C50.2804 36.9244 45.0099 43.5683 40.2458 49.7054C36.8321 54.1159 34.7877 56.2367 32.687 57.588C31.6554 58.2449 30.8301 59.1082 30.6425 59.7463C30.53 60.0654 30.3987 60.1217 29.9673 60.0279C29.2921 59.8965 28.4855 59.3898 28.4855 59.0895C28.4855 58.9581 28.7481 58.6203 29.067 58.3012C29.8923 57.5317 35.4629 51.1506 38.2576 47.8099C39.5518 46.2521 42.0839 43.2117 43.8658 41.0533C47.6733 36.4552 49.5114 34.5033 53.2252 31.1438C56.0199 28.6101 56.6013 27.8031 56.6201 26.5456C56.6201 26.2078 56.5076 25.6635 56.3575 25.3257C56.0949 24.6688 55.0633 23.6929 54.6507 23.6929C54.3318 23.6929 54.1255 23.3738 54.2755 23.1298C54.4256 22.8858 56.9014 22.8858 57.8017 23.1486ZM41.0336 27.9532C35.9881 32.2323 27.9228 40.1337 26.1035 42.5548C24.3966 44.8257 22.5585 47.6972 21.4519 49.8368L20.4578 51.7324L20.3078 51.0192C19.9326 48.9172 20.8142 45.4826 22.4272 42.7988C24.8468 38.7636 28.4293 35.3854 34.5814 31.3315C36.9447 29.7737 41.3336 27.2588 41.69 27.2588C41.7838 27.2588 41.5025 27.5779 41.0336 27.9532ZM62.0032 33.5836C61.7781 37.0745 60.2776 41.4287 57.4829 46.8714C54.3693 52.9148 51.2745 56.9124 47.6733 59.5774C46.4541 60.4783 43.5281 62.0736 43.3593 61.9235C43.3218 61.8671 44.616 60.0279 46.2666 57.8132C50.0366 52.7646 53.2815 48.0538 53.9942 46.6087C54.6319 45.3325 54.7257 44.0938 54.2568 43.1929C54.013 42.7049 54.013 42.5548 54.2193 42.2733C55.1758 40.922 61.9844 31.9508 62.0407 31.9508C62.0782 31.9508 62.0594 32.6828 62.0032 33.5836Z" fill="#EDEDED"/>
</svg>
