<svg width="85" height="85" viewBox="0 0 85 85" fill="none" xmlns="http://www.w3.org/2000/svg">
<path d="M38.6219 0.931845C37.1826 1.06255 33.5561 1.7534 31.799 2.22019C18.8821 5.69313 8.2458 15.197 3.38562 27.595C2.3575 30.2651 1.23592 34.6903 0.862063 37.7711C0.432124 41.1507 0.562975 46.7895 1.12376 49.9077C3.34823 61.9696 10.059 71.8283 20.4897 78.382C27.5183 82.8072 37.2199 85.1599 45.4262 84.469C51.3892 83.9462 56.0064 82.7139 61.0535 80.2492C69.6336 76.0854 76.5874 69.1022 80.6064 60.6439C85.4292 50.4865 86.046 39.2835 82.3635 28.6033C79.0923 19.1554 71.8581 10.6785 62.8293 5.76781C58.586 3.4712 53.2211 1.77207 47.9871 1.08122C45.987 0.819815 40.7342 0.745128 38.6219 0.931845ZM47.8563 7.44827C62.9789 9.65153 74.7742 20.8545 77.8211 35.9039C78.195 37.8084 78.2511 38.5553 78.2511 42.6257C78.2324 46.8642 78.195 47.3684 77.7464 49.5529C76.6248 54.781 74.176 60.1585 71.1103 64.1542C69.8392 65.816 67.297 68.43 65.4277 69.9798C58.7917 75.5253 49.4639 78.6621 40.9585 78.214C33.0327 77.7845 25.7051 75.0025 19.9289 70.2412C18.4709 69.0462 15.6295 66.1894 14.4706 64.7517C11.2741 60.7933 8.73181 55.2852 7.55416 49.721C7.08683 47.5737 7.04945 47.0323 7.03075 42.9058C7.03075 38.9848 7.08683 38.1632 7.442 36.3521C9.10567 28.2299 12.9377 21.452 18.9008 16.168C24.0975 11.5374 30.9765 8.38185 37.8742 7.42959C40.323 7.07483 45.4636 7.0935 47.8563 7.44827Z" fill="#EDEDED"/>
<path d="M33.9674 19.5849C27.967 20.7612 22.6208 24.5515 18.8261 30.3024C15.8352 34.821 13.3864 39.7503 11.9658 44.1195C10.6573 48.1152 10.7694 50.7479 12.3583 53.8288C14.5641 58.0299 19.1439 61.5215 24.4153 62.9966C26.3781 63.538 28.6025 63.8555 33.5749 64.2849C36.0423 64.4903 40.6782 64.9571 43.856 65.3119C49.8565 65.9654 52.0249 66.1521 58.0814 66.5442C62.0817 66.8056 63.035 66.7122 64.8109 65.8347C67.6335 64.453 69.7271 60.812 69.7458 57.2644C69.7458 55.7146 69.2972 53.2686 68.5308 50.5612C65.7829 41.02 61.0349 33.85 53.6698 28.2112C51.1463 26.2693 47.5572 23.9727 45.6505 23.0578C44.4916 22.4977 43.6878 21.9748 43.2205 21.4707C42.4727 20.6305 40.8651 19.8276 39.3136 19.4915C38.0051 19.2114 35.575 19.2488 33.9674 19.5849ZM38.2481 25.1864C38.3977 25.2611 38.6781 25.6158 38.8276 25.9893C39.2575 27.0162 39.7623 27.427 41.3138 28.0805C43.2765 28.902 44.0243 29.2755 45.5945 30.2651C46.8469 31.068 46.9404 31.18 46.8656 31.6655C46.8095 31.9455 46.0431 33.5886 45.1832 35.3064C44.3233 37.0429 43.5195 38.798 43.4074 39.2275C42.8092 41.4308 44.8467 43.466 46.9777 42.8125C47.4264 42.6818 48.0432 42.3083 48.361 41.9722C48.8657 41.4308 51.2771 36.4641 51.5388 35.3998C51.6136 35.1571 51.7258 34.9703 51.8005 34.9703C52.0996 34.9703 53.7259 36.5574 55.1092 38.2006C58.1562 41.8415 60.418 46.0053 61.9695 50.8039C63.8201 56.5548 63.8201 59.1128 61.9882 60.1024C61.4461 60.3825 61.1097 60.4012 58.2309 60.1958C53.0904 59.841 47.8002 59.4116 47.5385 59.3369C47.3703 59.2809 47.5198 58.8141 48.0619 57.7685C49.277 55.4345 49.2957 54.1462 48.1554 53.0072C46.9777 51.8309 45.1645 51.9989 43.9308 53.418C43.613 53.7727 42.8653 55.0984 42.2671 56.3494L41.2016 58.6087L40.0613 58.4967C39.4258 58.4407 38.865 58.3286 38.7902 58.2539C38.7154 58.1979 39.4258 57.3764 40.3791 56.4615C41.3885 55.4719 42.2297 54.4823 42.454 53.9968C43.37 51.9616 42.454 50.0384 40.4165 49.777C39.1641 49.609 37.9116 50.3558 36.0797 52.391C35.2199 53.3246 33.93 54.7437 33.201 55.5092C32.472 56.2748 31.7616 57.0963 31.6121 57.339L31.3317 57.7685L29.1633 57.4697C25.6864 57.0216 23.7237 56.2934 21.3496 54.613C20.0411 53.6794 20.0224 53.7727 21.6113 53.2686C25.6303 52.0176 31.07 47.2376 34.0609 42.2896C36.4162 38.4433 38.5285 32.375 38.5285 29.5556C38.5285 27.7071 37.4256 26.4 35.7806 26.2507C33.8179 26.0826 32.8271 27.2029 31.986 30.6012C30.9765 34.7089 29.9858 36.9682 27.7053 40.4225C25.4621 43.8394 21.8544 47.219 19.6112 47.9845C19.0878 48.1712 18.4148 48.5447 18.1158 48.8247C17.798 49.1235 17.5176 49.3476 17.4802 49.3476C17.2933 49.3476 17.4428 48.0032 17.7606 46.8269C19.256 41.4681 23.5741 33.7007 26.9762 30.2838C28.2287 29.0141 30.5653 27.3523 32.2664 26.5121C34.3226 25.5038 37.3135 24.8316 38.2481 25.1864Z" fill="#EDEDED"/>
<path d="M55.0532 46.0613C54.7354 46.2107 54.268 46.6028 54.0063 46.9389C53.3521 47.8351 51.838 51.2521 51.6884 52.1296C51.2772 54.7623 54.2307 56.4615 56.2121 54.7063C56.9785 54.0528 57.3711 53.3246 58.287 50.972C58.7917 49.6463 58.9226 49.0675 58.8478 48.3953C58.6796 46.4161 56.829 45.2958 55.0532 46.0613Z" fill="#EDEDED"/>
</svg>
