<svg width="85" height="85" viewBox="0 0 85 85" fill="none" xmlns="http://www.w3.org/2000/svg">
<path d="M38.622 0.928916C37.1826 1.05962 33.5562 1.75048 31.7991 2.21727C18.8824 5.69023 8.2462 15.1942 3.38608 27.5923C2.35797 30.2624 1.2364 34.6876 0.862549 37.7684C0.432614 41.148 0.563464 46.7869 1.12425 49.9051C3.34869 61.9671 10.0594 71.8259 20.49 78.3797C27.5185 82.8049 37.22 85.1576 45.4262 84.4667C51.3892 83.9439 56.0063 82.7115 61.0533 80.2469C69.6333 76.083 76.587 69.0998 80.606 60.6414C85.4287 50.484 86.0456 39.2809 82.3631 28.6006C79.0919 19.1526 71.8578 10.6756 62.8292 5.76492C58.5859 3.46829 53.2211 1.76915 47.9871 1.07829C45.9869 0.816885 40.7343 0.742198 38.622 0.928916ZM47.8562 7.44539C62.9787 9.64866 74.7738 20.8518 77.8208 35.9013C78.1946 37.8058 78.2507 38.5527 78.2507 42.6231C78.232 46.8616 78.1946 47.3658 77.746 49.5504C76.6244 54.7785 74.1757 60.156 71.1101 64.1517C69.839 65.8135 67.2967 68.4276 65.4275 69.9774C58.7915 75.5229 49.4638 78.6598 40.9586 78.2116C33.0328 77.7822 25.7053 75.0001 19.9292 70.2388C18.4712 69.0438 15.6299 66.187 14.4709 64.7492C11.2744 60.7908 8.73221 55.2826 7.55457 49.7184C7.08725 47.5712 7.04986 47.0297 7.03117 42.9032C7.03117 38.9821 7.08725 38.1606 7.44241 36.3494C9.10607 28.2271 12.9381 21.4493 18.9011 16.1651C24.0977 11.5345 30.9766 8.37898 37.8743 7.42671C40.323 7.07195 45.4636 7.09062 47.8562 7.44539Z" fill="#EDEDED"/>
<path d="M47.4076 13.4204C45.8561 13.8125 43.9869 14.5593 42.7718 15.2689C40.9773 16.3145 38.9211 18.2377 38.0239 19.6941L37.3509 20.7771H35.8368C31.3692 20.7957 27.0886 24.2874 25.9109 28.8993C25.5558 30.2624 25.5558 32.4656 25.8922 33.9034L26.1539 34.9863L25.1819 35.6025C24.0416 36.3494 22.621 37.8244 22.1163 38.8141C21.1069 40.7933 20.8078 43.6314 21.406 45.7973C21.5555 46.3575 21.6677 46.8243 21.649 46.8429C21.2751 46.9923 19.1628 48.8035 18.7329 49.3636C14.5457 54.5544 16.9758 62.9007 23.7799 66.6911C26.0418 67.9421 29.4065 68.7637 32.3786 68.7637C33.2946 68.7637 34.0423 68.8384 34.0423 68.9317C34.0423 69.0251 33.6871 69.4545 33.2572 69.884C32.0795 71.0416 31.7992 71.5458 31.7992 72.498C31.7992 74.5519 33.6684 75.7843 35.6499 75.0187C36.6593 74.6266 38.0052 73.3383 39.0707 71.7325C39.4819 71.079 39.8558 70.4815 39.8931 70.3881C39.9118 70.2948 40.4913 70.4255 41.1455 70.6495C42.1737 71.023 42.7344 71.079 44.7906 71.0977C47.7441 71.0977 49.4825 70.6869 52.2678 69.3238C56.1933 67.438 58.3429 64.4692 58.3429 60.9962C58.3429 60.0626 58.3429 60.0439 59.128 59.6892C60.53 59.073 62.5301 57.6539 63.3713 56.7017C65.6705 54.125 66.0817 50.3906 64.4368 47.1417C63.7264 45.7413 62.0067 43.8741 60.8104 43.2019C60.5487 43.0526 60.5861 42.9032 61.0908 41.9509C61.9693 40.3078 62.3432 38.8327 62.3432 37.0216C62.3432 35.117 62.0441 33.8287 61.2403 32.0735C60.4178 30.2624 59.1841 28.7126 57.6139 27.4989L56.2867 26.472L56.4176 25.0716C57.0157 19.2273 55.5951 15.4556 52.2117 13.9058C51.3892 13.5324 50.8284 13.4204 49.4825 13.383C48.5479 13.3457 47.6133 13.3643 47.4076 13.4204ZM45.4075 21.3746C43.2391 24.6795 42.1176 27.0135 40.7717 30.9159L40.0801 32.9511L39.6875 31.1959C39.4632 30.2437 39.2202 29.1047 39.1641 28.6566C39.052 27.9657 39.0893 27.8724 39.4071 27.8724C40.0614 27.8724 41.725 26.9014 42.0989 26.3039C42.3045 25.9865 42.6223 25.1836 42.8279 24.5114C43.2765 23.0364 43.6878 22.4015 44.7159 21.58C45.6318 20.8518 45.7814 20.8144 45.4075 21.3746ZM50.2863 29.3288C50.6976 30.113 51.5201 30.9159 53.2398 32.1295C55.0904 33.4552 55.9689 34.9677 55.9876 36.9095C55.9876 38.3846 55.6885 38.9634 53.838 40.868C52.5295 42.2683 51.9874 43.1646 51.9874 44.0235C51.9874 44.6957 52.4921 45.76 53.1463 46.4695C53.7258 47.1043 54.1744 47.3658 55.0904 47.6645C57.7821 48.4861 59.0906 49.6811 59.0906 51.2868C59.0906 52.2764 58.3803 52.93 56.0811 54.1063C52.4921 55.9361 51.9126 56.7203 51.8939 59.8385C51.8752 61.7991 51.8565 61.8551 51.3331 62.4152C49.5947 64.2264 45.0523 65.3841 42.9214 64.5812C42.155 64.2824 42.0989 64.2077 42.1923 63.7596C42.3419 63.1621 42.155 63.3488 45.258 60.6974C46.6412 59.5211 48.0619 58.2514 48.3797 57.878C49.7816 56.2722 49.2956 53.8822 47.4076 53.1727C46.3982 52.7806 45.4636 52.9113 44.4355 53.5648L43.7252 54.0503L43.8373 53.3221C43.8934 52.93 44.0429 51.1375 44.1364 49.345C44.3794 45.4799 44.6598 42.4737 44.8093 42.231C44.8654 42.119 46.1552 41.2227 47.6693 40.1958C50.6041 38.2539 51.6883 37.2083 51.8752 36.1813C52.2865 34.0341 50.305 32.3536 48.174 32.9884C47.688 33.1378 47.1646 33.3619 47.0151 33.4926C46.8655 33.6046 46.6973 33.6606 46.6412 33.6233C46.473 33.4552 47.8563 29.9449 48.7909 28.1711L49.6508 26.5093L49.7816 27.5549C49.8564 28.1338 50.0807 28.9367 50.2863 29.3288ZM33.7058 29.0487C33.631 30.281 34.547 35.9573 35.0891 37.6377C35.5938 39.1688 36.7714 40.1958 38.0612 40.1958C38.6033 40.1958 38.622 40.3451 38.3416 42.2497C38.2482 42.9219 38.0425 45.4799 37.8743 47.9446C37.7248 50.4093 37.5378 52.7806 37.4818 53.2287L37.3696 54.0129L36.0611 52.1084C34.6218 49.9798 34.2666 49.625 33.2572 49.345C31.1823 48.7661 29.2756 50.8014 29.986 52.8366C30.3224 53.7889 33.9488 59.7265 34.6778 60.5107C34.9956 60.8655 35.4816 61.2576 35.7807 61.407C36.2854 61.687 36.3976 61.9485 36.1359 62.3592C35.8555 62.7887 33.3694 63.0314 31.5748 62.8074C27.7989 62.3219 24.9576 60.4734 23.5369 57.6166C23.0322 56.6083 22.9762 56.3096 23.0509 55.2639C23.1444 53.7328 23.6304 53.042 25.2754 52.1457C25.9296 51.791 26.8456 51.1188 27.3316 50.652C28.7709 49.2703 28.9392 47.8512 27.9671 45.4799C27.6494 44.677 27.4998 43.9675 27.4998 43.2019C27.4998 41.5775 28.098 40.9426 30.1729 40.3078C31.3131 39.953 31.8552 39.673 32.3039 39.2248C33.6871 37.7498 33.818 36.5921 32.7899 34.3328C32.0235 32.671 31.7992 31.1399 32.1543 30.0756C32.3226 29.5528 33.5376 27.8724 33.7432 27.8724C33.7619 27.8724 33.7432 28.3952 33.7058 29.0487Z" fill="#EDEDED"/>
</svg>
