<svg width="85" height="85" viewBox="0 0 85 85" fill="none" xmlns="http://www.w3.org/2000/svg">
<path d="M38.6219 0.931845C37.1826 1.06255 33.5561 1.7534 31.799 2.22019C18.8821 5.69313 8.2458 15.197 3.38562 27.595C2.3575 30.2651 1.23592 34.6903 0.862063 37.7711C0.432124 41.1507 0.562975 46.7895 1.12376 49.9077C3.34823 61.9696 10.059 71.8283 20.4897 78.382C27.5183 82.8072 37.2199 85.1599 45.4262 84.469C51.3892 83.9462 56.0064 82.7139 61.0535 80.2492C69.6336 76.0854 76.5874 69.1022 80.6064 60.6439C85.4292 50.4865 86.046 39.2835 82.3635 28.6033C79.0923 19.1554 71.8581 10.6785 62.8293 5.76781C58.586 3.4712 53.2211 1.77207 47.9871 1.08122C45.987 0.819815 40.7342 0.745128 38.6219 0.931845ZM47.8563 7.44827C62.9789 9.65153 74.7742 20.8545 77.8211 35.9039C78.195 37.8084 78.2511 38.5553 78.2511 42.6257C78.2324 46.8642 78.195 47.3684 77.7464 49.5529C76.6248 54.781 74.176 60.1585 71.1103 64.1542C69.8392 65.816 67.297 68.43 65.4277 69.9798C58.7917 75.5253 49.4639 78.6621 40.9585 78.214C33.0327 77.7845 25.7051 75.0025 19.9289 70.2412C18.4709 69.0462 15.6295 66.1894 14.4706 64.7517C11.2741 60.7933 8.73181 55.2852 7.55416 49.721C7.08683 47.5737 7.04945 47.0323 7.03075 42.9058C7.03075 38.9848 7.08683 38.1632 7.442 36.3521C9.10567 28.2299 12.9377 21.452 18.9008 16.168C24.0975 11.5374 30.9765 8.38185 37.8742 7.42959C40.323 7.07483 45.4636 7.0935 47.8563 7.44827Z" fill="#EDEDED"/>
<path d="M46.2861 22.3856C41.8185 23.1885 32.9393 25.6532 28.9951 27.1842C26.9763 27.9498 23.462 29.7049 21.7796 30.7879C20.845 31.3667 20.2094 32.1696 19.929 33.1032C19.8542 33.3459 19.5738 33.7193 19.3121 33.9247C18.8261 34.3168 18.3401 35.2878 18.3401 35.9039C18.3401 36.1093 18.041 36.5761 17.6858 36.9309C16.826 37.8084 16.6203 38.7047 16.7512 41.0013C16.8073 42.0469 16.9381 44.7916 17.0316 47.1069C17.3307 53.6794 17.8354 56.6668 19.0317 59.2062C19.7795 60.7746 21.2936 62.4364 22.7143 63.2206C24.7518 64.3409 28.6212 65.4425 35.3507 66.8056C39.781 67.6832 41.7998 67.8512 43.5383 67.4404C45.2393 67.0483 48.2115 65.4052 52.9221 62.287C61.7265 56.4428 64.5118 54.1088 65.7268 51.5321C66.755 49.3849 67.1849 47.0136 67.2036 43.5593C67.2036 40.3291 66.6241 35.7359 66.0259 34.3355C65.7082 33.626 64.5305 32.3563 64.1566 32.3563C64.0632 32.3563 63.8949 32.1136 63.7828 31.8335C63.4276 30.9746 61.9882 29.7236 59.1843 27.8191C55.7635 25.5038 53.8568 24.3835 52.3614 23.8233C51.6884 23.5806 50.9407 23.1698 50.679 22.9271C49.7256 22.0308 48.8658 21.9188 46.2861 22.3856ZM48.3424 28.0618C48.4171 28.1738 49.1648 28.5846 49.9873 28.9767C51.5576 29.7049 53.7633 31.2173 56.7916 33.6073C57.7262 34.3542 58.717 35.0637 58.9787 35.1944C59.2404 35.3064 59.4647 35.4745 59.4647 35.5492C59.4647 35.6238 58.9039 35.8666 58.2123 36.0906C55.3335 37.0242 52.081 38.2752 49.0901 39.6009C45.4076 41.244 41.1082 43.3353 40.024 44.0261L39.2763 44.4929L36.4162 43.0552C31.986 40.8146 29.5746 39.4889 28.0605 38.4059C26.3968 37.2296 25.1257 36.1653 25.2565 36.0533C25.5182 35.8292 29.0886 33.9994 30.3971 33.4393C32.9954 32.3003 46.8656 27.9124 48.0059 27.8751C48.118 27.8751 48.2863 27.9684 48.3424 28.0618ZM25.0322 43.634C26.6585 44.8663 30.4532 47.1256 33.4814 48.6754L36.005 49.9637L36.4349 52.9885C37.0144 57.0216 37.1453 57.4884 37.9677 58.31C39.1828 59.5236 40.996 59.4676 42.0615 58.1793C42.9027 57.171 42.9401 56.3681 42.3419 53.2126L41.8185 50.4865L42.1924 49.7957C42.4914 49.2168 42.8279 48.9741 44.2299 48.3206C47.4264 46.8082 52.3427 44.8663 57.9319 42.9058C60.362 42.0469 60.8106 41.9349 60.9041 42.1776C61.0536 42.5884 60.848 45.8559 60.5676 47.1069C60.2685 48.5073 59.8199 49.3475 58.9039 50.1691C56.5486 52.2977 46.5291 59.1502 43.7252 60.5506C41.7811 61.5215 41.1082 61.5215 36.5284 60.5692C29.6494 59.1315 26.6585 58.31 25.6117 57.5444C25.1257 57.2083 24.3219 55.8453 24.3219 55.3598C24.3219 55.2291 24.6209 55.1358 25.0509 55.1358C26.4342 55.1358 27.6866 53.8101 27.6866 52.2977C27.6866 51.1027 26.4715 47.331 25.8921 46.7148C25.2939 46.08 24.3032 45.7252 23.5741 45.8559C22.976 45.9866 22.9386 45.8746 22.7143 43.1859L22.6021 41.5988L23.219 42.1776C23.5741 42.495 24.3779 43.1485 25.0322 43.634Z" fill="#EDEDED"/>
<path d="M29.4625 50.6919C28.3222 51.3641 28.0231 52.1109 28.1166 54.0155C28.2287 55.92 28.6213 56.9843 29.4812 57.7311C31.0701 59.1315 33.2759 58.366 33.874 56.2187C34.1357 55.2291 33.6871 52.3163 33.1637 51.6068C32.1917 50.3185 30.7336 49.9637 29.4625 50.6919Z" fill="#EDEDED"/>
</svg>
