<svg width="85" height="85" viewBox="0 0 85 85" fill="none" xmlns="http://www.w3.org/2000/svg">
<path d="M38.4751 0.961934C38.2134 0.999278 37.2975 1.12998 36.4189 1.24201C30.8298 1.97021 23.9134 4.54693 19.1281 7.70247C14.2866 10.914 9.94991 15.2272 6.82822 19.9885C5.16456 22.5466 3.10835 26.8224 2.13633 29.7726C-1.6957 41.4985 -0.349814 53.5978 6.02443 64.4088C9.23959 69.8423 14.5857 75.2011 20.1749 78.5621C32.4 85.9374 47.6346 86.6283 60.4578 80.3919C65.7666 77.7965 70.608 74.0622 74.2157 69.7676C85.0763 56.7907 87.3194 39.1272 79.9731 24.283C77.5804 19.447 75.2999 16.3288 71.3184 12.4825C65.2806 6.67551 57.8222 2.92248 49.3169 1.41006C47.5037 1.09264 46.0831 0.980606 42.9614 0.943263C40.7556 0.905919 38.7368 0.905919 38.4751 0.961934ZM48.2888 7.62778C55.9342 9.08418 62.3271 12.3891 67.5424 17.5985C70.5146 20.5674 72.5708 23.4988 74.4774 27.4573C79.7488 38.4736 78.8889 51.5626 72.1969 61.8694C67.7107 68.7967 61.0934 73.9128 53.3172 76.4521C44.1764 79.4583 34.4936 78.7675 25.9136 74.5103C17.614 70.3838 11.1276 62.9337 8.19279 54.1206C4.75332 43.7578 6.21136 32.5547 12.193 23.4428C15.3708 18.6255 19.3524 14.8351 24.1751 12.0717C28.7549 9.45761 32.7551 8.13192 38.5686 7.31036C39.8584 7.12364 46.8495 7.36637 48.2888 7.62778Z" fill="#EDEDED"/>
<path d="M32.6804 20.474C24.8481 21.3516 22.2311 22.4532 21.6329 25.142C21.3338 26.4677 21.7077 27.5506 22.9975 29.1004C23.4087 29.6045 23.7265 30.0153 23.6891 30.0526C23.6517 30.0713 22.9788 30.5008 22.1937 30.9862C19.0346 32.9094 18.0439 34.7579 19.0533 36.8305C20.1562 39.1085 25.2593 41.1064 31.4279 41.6665C32.213 41.7412 32.8673 41.8159 32.8673 41.8159C32.8673 41.8346 32.5495 42.6001 32.1756 43.5337C31.5962 44.9341 31.484 45.4196 31.4653 46.6146C31.4653 47.8656 31.5214 48.1083 31.9887 48.7805C33.3533 50.7597 35.7647 50.8531 39.3163 49.0606C40.6248 48.4071 42.6062 46.9693 43.1483 46.2785C43.5969 45.6996 43.6904 45.7743 44.326 47.0627C45.3728 49.1353 45.6718 51.88 45.1111 54.158C44.7372 55.7638 44.7559 57.0148 45.2045 57.743L45.5597 58.3405L44.6998 58.8073C44.2325 59.0687 43.7278 59.2927 43.5969 59.2927C43.4661 59.2927 42.3071 58.7513 41.0547 58.0977C38.0639 56.548 35.3534 55.465 33.3533 55.0542C31.484 54.6808 30.0821 54.8675 28.9605 55.6517C27.7641 56.4733 27.3529 57.2948 27.3529 58.8073C27.3529 60.5064 27.6894 61.0852 30.3438 64.0727C32.6804 66.6868 33.3533 67.8258 34.2505 70.5892C35.3721 74.0061 36.3068 75.2571 38.2134 75.836C38.8864 76.0414 39.2602 76.06 39.8584 75.892C41.5407 75.4625 42.3819 74.4543 43.5222 71.5788C43.9895 70.3465 45.055 69.0581 46.2513 68.2365L47.0738 67.6764L47.6533 68.2365C48.4571 69.0394 49.4291 69.3008 50.5694 69.0208C51.8592 68.6847 52.5695 68.0685 53.3172 66.5561C54.1023 64.9876 54.2144 63.6806 53.6537 62.747L53.2985 62.1869L54.2705 61.0666C54.8126 60.4504 55.579 59.4795 55.9903 58.9006L56.7193 57.8363L57.2988 58.5272C58.3456 59.7782 59.9344 59.9089 61.4673 58.8633C62.4206 58.2284 62.8505 57.3695 62.8505 56.0438C62.8505 54.6435 62.5327 53.6725 61.785 52.8323C61.1121 52.0667 60.3644 51.6373 59.6727 51.6373C59.2054 51.6373 59.1867 51.5999 59.2989 50.9278C59.6914 48.6124 59.8036 47.1 59.7475 44.5793L59.6914 41.7412L60.2148 41.5358C61.5607 40.9757 63.1309 38.5857 63.5235 36.5318C63.8973 34.5339 63.5422 30.9115 62.7571 28.5216C61.6729 25.2727 59.0372 24.0403 56.1772 25.4594L55.0182 26.0382L53.9901 25.3287C51.0741 23.2934 46.4382 21.5196 41.9333 20.7354C39.8771 20.362 34.83 20.2313 32.6804 20.474ZM41.466 27.1025C43.7839 27.4946 46.27 28.1481 47.9711 28.8203C49.1113 29.2498 49.4104 29.4738 49.7843 30.09C51.1675 32.3866 52.2891 35.5422 52.906 38.9218C53.4854 42.152 53.5041 48.0896 52.9246 50.3303C52.7003 51.2078 52.3639 52.2908 52.1582 52.7576L51.8031 53.5978L51.7096 51.1705C51.5227 46.7079 50.2142 43.5897 47.3542 40.6956C44.1203 37.428 41.0921 36.3451 32.5495 35.3928C30.6802 35.1874 28.9605 34.9447 28.7362 34.8513C28.3623 34.7206 28.3997 34.6833 29.1474 34.3845C31.5027 33.4509 32.4934 30.8555 31.2971 28.8203C31.0167 28.3348 30.6802 27.8494 30.5307 27.7373C29.9138 27.2332 30.1568 27.1585 33.2598 26.8037C35.1665 26.5797 39.335 26.7291 41.466 27.1025Z" fill="#EDEDED"/>
<path d="M38.1013 27.4012C37.0732 27.9241 36.5311 28.895 36.5498 30.202C36.5872 33.0401 39.8771 34.1791 41.5781 31.9385C42.5875 30.6128 42.1763 28.3162 40.8117 27.5319C39.821 26.9718 39.0359 26.9345 38.1013 27.4012Z" fill="#EDEDED"/>
</svg>
