<svg width="85" height="86" viewBox="0 0 85 86" fill="none" xmlns="http://www.w3.org/2000/svg">
<path d="M38.5172 1.07007C29.9643 1.95217 22.1617 5.16151 15.5407 10.5104C13.6275 12.0494 10.045 15.7467 8.61956 17.6423C2.93638 25.2434 0.0666504 33.7641 0.0666504 43.1106C0.0666504 48.0466 0.704367 52.138 2.14861 56.4922C4.13678 62.5355 7.62547 68.1472 12.2583 72.7641C18.5229 79.0514 25.9504 82.9177 35.0473 84.6256C37.0167 85.0009 37.8983 85.0572 42.0809 85.0572C47.2389 85.0572 49.0958 84.832 53.0909 83.7435C56.861 82.73 61.7751 80.5529 65.1513 78.3758C75.5423 71.7319 82.6135 60.4147 84.2077 47.9527C84.6204 44.6308 84.4891 39.113 83.9264 35.9036C82.9323 30.2732 80.5315 24.2111 77.5305 19.7255C70.9845 9.90983 60.3496 3.15332 48.6457 1.35159C46.2824 0.994995 40.7305 0.84485 38.5172 1.07007ZM45.7572 7.46998C54.5539 8.31455 62.0752 11.9743 68.2461 18.3742C70.9657 21.1894 72.5225 23.4229 74.3419 27.0639C75.9925 30.4233 76.7427 32.5254 77.4742 35.9787C77.9431 38.137 77.9806 38.6813 77.9994 42.829C77.9994 46.8266 77.9431 47.5774 77.568 49.4917C75.486 59.7391 69.4277 68.4099 60.631 73.6838C57.086 75.8046 53.3723 77.2309 49.1146 78.1506C46.8263 78.6385 46.3949 78.6573 42.0809 78.6573C37.767 78.6573 37.3356 78.6385 35.0473 78.1506C30.3019 77.1371 26.0255 75.3541 22.2742 72.8204C14.1339 67.3589 8.91966 59.5326 6.969 49.8671C6.59387 47.9715 6.5376 47.1645 6.5376 43.2044C6.5376 37.9869 6.80019 36.2602 8.24443 31.8873C10.0263 26.4257 12.896 21.8463 17.1162 17.661C24.5625 10.2477 35.2911 6.43774 45.7572 7.46998Z" fill="#EDEDED"/>
<path d="M52.3032 26.6885C51.6842 26.8199 50.4275 27.214 49.4897 27.533C44.6881 29.2409 41.612 31.7559 41.1806 34.3083L41.0306 35.1341L38.4234 35.8661L35.7976 36.5793L35.1223 36.2039C34.0345 35.5845 33.2842 35.5282 32.3276 36.0162C31.5399 36.4291 31.3335 36.6731 30.6583 38.2121C30.5458 38.4561 27.3947 39.92 26.9633 39.92C26.8508 39.92 26.4756 39.3757 26.1568 38.7188C25.1439 36.6543 22.0491 34.1957 19.8734 33.7077C18.1103 33.3136 16.4597 34.0831 15.6532 35.6972C15.2218 36.5417 15.1655 36.842 15.1843 38.7C15.1843 41.1211 15.4844 42.3411 16.7036 45.1563L17.5476 47.0894L17.2287 49.4917C16.8349 52.3444 16.9099 54.1649 17.4163 55.216C18.2791 56.9239 20.6612 57.6933 22.4055 56.8112C22.8557 56.5673 24.0748 55.5538 25.1252 54.5403C26.1568 53.5081 27.0758 52.6823 27.1509 52.6823C27.2259 52.6823 27.7323 52.8887 28.2762 53.1327C28.8202 53.3767 29.9081 53.8084 30.6958 54.0899C31.99 54.5591 32.1401 54.6529 32.1401 55.1033C32.1401 56.3233 33.528 57.562 34.916 57.562C35.76 57.562 37.3356 56.8863 38.0858 56.2107C38.4797 55.8353 38.5923 55.8353 40.5242 56.0418C41.6308 56.1544 42.9062 56.2482 43.3564 56.2482H44.1629L44.0316 57.1678C43.8065 58.857 44.8569 60.1707 46.5825 60.3396C48.1017 60.4898 48.9083 59.8329 50.1649 57.4118C50.5588 56.6423 50.8964 56.2107 51.159 56.1731C51.3841 56.1356 52.7158 55.9291 54.1413 55.7039C55.5668 55.4787 57.5925 55.0283 58.6428 54.728C62.2065 53.6582 67.5896 50.9556 69.1839 49.4166C70.7032 47.9527 70.7407 46.226 69.2777 44.8372C68.865 44.4618 68.5274 43.9926 68.5274 43.805C68.5274 43.2419 67.8334 42.0783 67.1582 41.4965C66.8018 41.1962 65.5077 40.2015 64.2697 39.3006C62.4691 37.9869 61.9439 37.4989 61.6626 36.8795C61.1937 35.8473 60.0683 35.1341 58.3802 34.8338C57.3111 34.6461 57.086 34.5523 57.1798 34.3083C57.4237 33.7077 58.0239 31.2116 58.0239 30.8175C58.0239 30.0667 57.4612 28.4902 56.9547 27.9084C55.9419 26.6885 54.2351 26.238 52.3032 26.6885ZM50.8964 33.7265C50.8964 33.8203 50.6151 33.9142 50.2962 33.8954C49.7711 33.8954 49.7335 33.8579 50.0524 33.7265C50.5776 33.5013 50.8964 33.5013 50.8964 33.7265ZM55.2292 40.7458C56.6359 40.971 56.9923 41.1211 57.9488 41.8343C59.6181 43.0542 62.9005 45.7756 62.9005 45.9258C62.9005 46.151 58.9429 47.9339 57.3111 48.4407C55.2104 49.0976 51.8343 49.7732 51.6654 49.5668C51.4966 49.3791 51.084 44.8935 51.084 43.2982C51.084 42.7352 51.234 41.8718 51.4029 41.3651L51.7217 40.483H52.6595C53.1847 40.483 54.3476 40.5956 55.2292 40.7458ZM45.3258 45.4002L45.307 49.9421L44.1066 49.8858C39.8864 49.7544 35.2161 49.1726 32.5527 48.4594C30.5833 47.9339 30.0581 47.69 28.5201 46.6202C27.5635 45.9445 27.2822 45.8507 26.4569 45.8507C25.8192 45.8507 25.2002 46.0008 24.6938 46.2636L23.8873 46.6765L23.7935 46.1697C23.7185 45.8695 23.5121 45.1563 23.3246 44.5557C23.0245 43.6173 23.0245 43.4671 23.2495 43.561C23.4184 43.6173 23.7747 43.6736 24.0748 43.6736C24.4687 43.6736 24.6938 43.8237 24.9751 44.2929C25.1627 44.6308 25.6316 45.0624 26.0067 45.2313C27.1134 45.7568 28.1262 45.6255 30.9584 44.5932C34.2783 43.3733 37.0917 42.5663 40.9556 41.7405C42.6624 41.3651 44.2192 41.0273 44.4255 40.9898C45.4196 40.7645 45.3633 40.5205 45.3258 45.4002Z" fill="#EDEDED"/>
<path d="M54.2726 42.5663C53.5598 42.8478 52.8096 43.6548 52.5658 44.368C51.703 46.9955 55.2292 49.0976 57.1236 47.1081C58.0801 46.0947 58.2302 45.1563 57.63 43.9363C57.0298 42.6976 55.5105 42.0783 54.2726 42.5663Z" fill="#EDEDED"/>
</svg>
