<svg width="85" height="84" viewBox="0 0 85 84" fill="none" xmlns="http://www.w3.org/2000/svg">
<path d="M37.5269 0.243811C28.087 1.5695 19.8621 5.6586 13.1139 12.3617C6.59003 18.8221 2.51496 26.9257 1.13168 36.1682C0.701739 39.1183 0.701739 44.8318 1.15037 47.7446C2.6832 57.9207 7.61815 66.9578 15.1888 73.4555C20.6659 78.1795 26.6289 81.1483 33.807 82.7167C37.1157 83.4449 39.2093 83.6689 42.8544 83.6689C59.2108 83.6503 73.8287 74.4078 80.9134 59.6011C85.867 49.257 86.3344 37.2698 82.2219 26.7203C76.8009 12.8099 65.1552 3.30597 50.0513 0.467872C47.3782 -0.036264 40.3496 -0.166966 37.5269 0.243811ZM47.9389 6.57352C56.4443 7.78718 64.5196 12.119 69.9032 18.3554C77.3243 26.9817 80.1657 37.942 77.8664 49.1263C77.4739 51.1055 76.3897 54.4104 75.5485 56.2216L75.0438 57.3419L74.6512 56.8564C74.0157 56.1095 73.1558 55.6054 72.1277 55.3813C71.2678 55.1946 71.1743 55.1386 71.2865 54.7838C71.5295 54.037 71.3987 50.452 71.0809 48.7715C70.2584 44.421 67.6227 38.0353 65.043 34.2076C62.6129 30.5666 59.9025 28.3074 56.463 27.019C55.6218 26.7016 55.1731 26.3842 54.4441 25.5626C52.6122 23.4341 49.1727 20.0545 47.9016 19.0836C45.7519 17.4404 43.7143 16.5815 41.2282 16.2828L40.3683 16.1708L40.2374 15.1998C39.901 12.4551 38.8168 11.1481 36.8727 11.1481C34.9847 11.1481 33.6014 12.6978 33.6014 14.8264C33.6014 15.5546 33.5266 15.5546 31.9564 15.0691C30.4423 14.6023 29.6572 14.6023 28.7412 15.0691C27.9001 15.4986 27.2458 16.5629 27.2458 17.4965C27.2458 18.2247 27.844 19.3823 28.4048 19.7371C28.6478 19.8864 29.6385 20.3159 30.6105 20.6893C31.7321 21.1188 32.3677 21.4549 32.3303 21.6229C32.2929 21.7536 32.1434 22.3138 31.9938 22.8926C31.6573 24.1996 31.6573 26.8323 31.9938 28.102C32.1247 28.6435 32.1994 29.0729 32.1621 29.0729C32.1247 29.0729 31.7508 28.8488 31.3022 28.5688C30.1806 27.8592 27.0028 26.4029 25.526 25.9174L24.2549 25.4879V23.5648C24.2549 22.3138 24.1615 21.3615 23.9745 20.8387C23.1707 18.5794 20.7032 17.7579 18.9835 19.1769C18.1049 19.9051 17.8058 20.596 17.432 22.8179C17.2637 23.8448 17.0955 24.7784 17.0581 24.9091C17.002 25.0585 16.6469 24.9838 15.8991 24.6664C13.9738 23.8822 12.5157 24.1623 11.5063 25.5253C10.2352 27.2431 11.5811 29.5397 14.7776 31.0521C15.4879 31.3882 15.5066 31.4255 15.3757 32.1537C14.9084 34.9732 14.9458 37.7552 15.4692 40.2199C15.6748 41.1162 15.6374 41.2842 15.0206 42.9273C13.0952 48.0807 13.3195 54.1303 15.5627 58.1634L16.0487 59.0223L15.301 59.7692C14.8897 60.1986 14.3476 60.9828 14.1046 61.543L13.6747 62.5513L12.6653 60.9828C8.60888 54.6718 6.59003 46.6243 7.2256 39.361C7.87985 32.0044 10.123 26.0668 14.4224 20.3906C20.2359 12.6978 29.2459 7.60046 39.1158 6.42414C40.6861 6.23743 46.2192 6.33078 47.9389 6.57352ZM42.5927 23.154C43.1535 23.4154 44.1443 24.1436 44.8172 24.7597C45.9762 25.8054 46.0136 25.8614 45.5649 25.9547C45.3032 26.0108 44.1817 26.2348 43.0414 26.4589C41.9198 26.6829 40.2561 27.0937 39.3589 27.3925L37.7139 27.9153L37.6017 27.2804C37.3961 26.1415 37.6017 24.2743 38.013 23.7141C38.9476 22.4445 40.7234 22.2204 42.5927 23.154ZM24.6288 32.0604C26.9093 32.8072 30.704 34.7491 31.0966 35.3279C31.2648 35.5893 32.4985 36.6163 33.8631 37.6059C36.7605 39.7531 37.9569 40.8174 38.6859 41.9377C39.3215 42.946 39.3776 44.0663 38.8355 45.1119C38.013 46.755 35.0034 48.6969 32.7602 49.033C30.2367 49.4064 27.8253 48.5101 25.6382 46.3442C24.0306 44.7385 22.9838 43.002 22.18 40.6494C21.6566 39.1183 21.5631 38.5581 21.4884 36.5229C21.3949 34.0396 21.6753 32.4151 22.3108 31.799C22.6847 31.4069 22.7221 31.4069 24.6288 32.0604ZM52.7991 32.5272C56.519 33.4234 59.0426 35.8134 61.5474 40.7801C63.2672 44.2157 65.0057 49.369 65.0057 51.0122C65.0057 51.4416 64.8935 51.3109 64.5757 50.3586C63.4728 47.2591 61.5661 43.4128 60.2389 41.5829C58.5005 39.2116 55.9769 37.5125 54.4815 37.7179C51.8832 38.0727 51.2663 41.3402 53.5095 42.89C53.9581 43.1887 54.575 43.7675 54.874 44.1596C55.7526 45.2613 57.2481 48.3981 58.164 51.0682C59.1547 53.9623 59.3604 54.3917 60.1642 55.1759C61.3792 56.3709 63.0803 56.4269 64.2019 55.3066C64.9122 54.5971 64.987 54.6718 64.4449 55.5307C63.6971 56.7444 61.1362 58.2008 58.8557 58.6862C55.9209 59.3024 38.256 59.3584 33.6949 58.7609C32.9845 58.6675 31.8443 58.5929 31.1713 58.5742C29.788 58.5742 28.4421 58.2568 27.3019 57.6779C26.3672 57.1925 25.04 57.1365 24.2175 57.5659L23.638 57.8647L22.6286 56.8564C21.3949 55.6614 20.8902 54.9145 20.3481 53.4768C20.0116 52.5619 19.5256 49.6491 19.6751 49.4624C19.7125 49.4251 20.3107 49.9852 21.021 50.6761C25.713 55.3813 31.5452 56.6697 37.1905 54.2797C40.0879 53.0474 42.9853 50.6574 44.2564 48.4355C45.5089 46.2695 45.9201 43.3941 45.2658 41.1908C44.6303 38.9876 42.6488 36.4109 39.9757 34.2636L39.1532 33.5915L40.2 33.2927C41.6207 32.8819 43.6956 32.4712 45.378 32.2471C47.266 32.023 51.3598 32.1724 52.7991 32.5272ZM67.9218 67.1072C62.2578 72.5033 55.79 75.7148 48.0698 76.9845C45.0976 77.4699 40.0505 77.4326 36.9475 76.9098C31.3583 75.9575 25.9747 73.7169 21.7127 70.5614C20.0116 69.3104 18.1236 67.7233 18.3292 67.7233C18.3853 67.7233 19.0583 67.854 19.806 68.0034C25.2083 69.161 33.4145 69.4598 42.9292 68.8623C46.3687 68.6382 51.2102 68.4702 53.7151 68.4702C60.6502 68.4702 63.8467 67.8914 68.09 65.8748C68.9125 65.4827 69.6228 65.2026 69.6789 65.2587C69.735 65.296 68.9312 66.1362 67.9218 67.1072Z" fill="#EDEDED"/>
</svg>
