<svg width="85" height="84" viewBox="0 0 85 84" fill="none" xmlns="http://www.w3.org/2000/svg">
<path d="M37.1574 0.571922C34.6339 0.926687 30.2598 2.00965 27.9979 2.84989C22.521 4.86644 17.0627 8.39542 12.8568 12.6153C4.89365 20.5881 0.519531 31.1004 0.519531 42.3035C0.519531 58.3239 9.77246 73.0186 24.1659 79.8525C30.1102 82.672 35.9985 83.9977 42.4849 83.9977C57.3082 83.9977 70.7857 76.3982 78.7115 63.5894C81.478 59.1081 83.5716 53.0585 84.3754 47.2515C84.7306 44.6375 84.768 39.5961 84.4689 37.2621C83.6464 31.1751 81.7958 25.5735 79.048 20.9989C72.5803 10.1506 62.5422 3.20465 49.8685 0.814656C47.2141 0.310517 40.0361 0.179814 37.1574 0.571922ZM47.8497 6.92035C59.0841 8.61948 68.4118 15.0426 74.0383 24.9573C75.8702 28.1876 77.5525 33.3597 78.0946 37.4488C78.4124 39.7641 78.3563 44.6561 78.0012 47.0461C77.0478 53.4132 74.4121 59.4442 70.524 64.2429C64.8788 71.2075 57.2709 75.6327 48.2609 77.2385C45.1205 77.7986 40.0361 77.7986 36.7836 77.2571C28.9513 75.9501 22.1097 72.3838 16.7636 66.8196C11.4735 61.3114 8.27704 54.7389 7.13678 46.9714C6.72554 44.096 6.85639 38.4011 7.41717 35.675C8.9126 28.4116 12.2586 22.1192 17.3244 17.0965C23.1378 11.3456 30.3906 7.81659 38.5594 6.77097C40.1669 6.56558 46.0926 6.65894 47.8497 6.92035Z" fill="#EDEDED"/>
<path d="M46.2234 9.51573C45.6813 9.77713 44.9897 10.3186 44.5784 10.8041C43.6438 11.9617 41.868 13.1941 39.737 14.1837C37.7369 15.1173 33.3815 16.8538 31.4561 17.4699C27.6802 18.7023 24.6145 21.0736 22.2592 24.6212C20.9134 26.6378 17.7543 33.7331 16.6888 37.0754C15.9224 39.5587 15.4738 42.5649 15.4738 45.347C15.4738 52.4796 17.7356 58.4359 22.091 62.7678C24.7641 65.4379 27.2315 66.6889 31.2879 67.4171C32.2038 67.5851 33.3254 67.8652 33.7927 68.0519C34.26 68.2386 35.1012 68.4627 35.662 68.5187C36.2228 68.5934 37.9986 68.9482 39.5875 69.3216C42.1297 69.9191 42.7839 69.9938 44.9149 69.9938C55.495 69.9938 63.5703 63.4213 67.4584 51.6394C70.0754 43.6852 70.3745 36.4032 68.3183 31.2871C67.0659 28.2062 64.6732 25.1627 62.2431 23.5756C61.5515 23.1275 59.9065 22.1752 58.598 21.4657C54.5417 19.2998 53.3827 17.8807 52.0182 13.5115C51.3078 11.2335 50.5414 10.0199 49.4946 9.47838C48.4292 8.95557 47.4011 8.95557 46.2234 9.51573ZM46.8777 17.8434C46.8777 18.2168 47.8871 20.2334 48.6722 21.391C50.2237 23.7437 52.2799 25.3681 56.411 27.478C60.0935 29.3452 62.0375 31.6979 62.9908 35.4509C63.3273 36.7953 63.3647 37.3368 63.2712 39.8761C62.9348 48.876 58.9158 57.6891 53.5323 61.2367C50.0741 63.5147 45.4009 64.2242 40.896 63.1412C38.2042 62.4877 35.8489 62.0956 34.6339 62.0956C33.3067 62.0956 30.8205 61.4608 29.456 60.7699C26.5212 59.2948 23.5677 55.1497 22.4275 50.9112C21.9975 49.2867 21.9415 48.7639 21.9415 45.571C21.9228 40.679 22.2966 39.2226 25.3623 32.5194C27.2315 28.4303 27.9232 27.2913 29.456 25.8349C30.7084 24.6212 31.7926 24.0424 34.4283 23.1275C36.7649 22.3246 42.2231 20.084 43.6625 19.3558C44.242 19.0384 45.1579 18.5156 45.6626 18.1608C46.5599 17.5633 46.8777 17.4699 46.8777 17.8434Z" fill="#EDEDED"/>
<path d="M34.7273 25.8909C33.7927 26.2644 32.8581 27.0673 32.316 27.9075C31.7365 28.8784 31.3066 30.4842 31.4561 31.2124C31.5122 31.4551 31.587 31.8659 31.643 32.1086C31.7178 32.5194 31.6056 32.6315 30.7271 33.0236C27.4372 34.536 25.9044 38.8492 27.2502 42.7889L27.6428 43.9279L27.082 45.3283C25.9978 48.0357 25.8857 49.7535 26.6894 51.9008C27.1755 53.1891 28.5587 54.7389 29.8485 55.4298C31.0449 56.102 32.9141 56.4941 34.8395 56.4941H36.3349L37.5687 57.5023C39.251 58.9027 39.8679 59.1828 41.1016 59.1828C43.4195 59.1641 45.0084 57.409 45.0084 54.8696C45.0084 54.4215 44.7841 52.9464 44.5037 51.602C43.8494 48.3345 43.8494 45.7204 44.5224 38.7558C45.0271 33.6397 45.0271 32.7808 44.6158 31.2311C44.3915 30.4095 43.3634 29.1772 42.6157 28.8784C42.3353 28.7477 41.9428 28.3743 41.7558 28.0195C41.3446 27.254 39.9613 26.3204 38.7276 25.9469C37.7182 25.6482 35.419 25.6109 34.7273 25.8909ZM34.26 39.4467C34.1853 39.8201 33.9796 40.3429 33.774 40.5857L33.4189 41.0338L33.2319 40.5296C32.8581 39.54 33.1572 38.7558 33.9049 38.7558C34.3722 38.7558 34.3909 38.7932 34.26 39.4467Z" fill="#EDEDED"/>
<path d="M52.2986 29.6626C50.5601 30.1481 49.233 31.3244 48.4292 33.0796C47.9618 34.1065 46.672 39.6707 46.3169 42.2101C46.1486 43.4051 45.7748 51.266 45.6813 55.4111C45.6439 56.9982 46.7842 58.0252 48.5974 58.0812C49.2516 58.0998 50.0928 58.2492 50.4667 58.4173C52.8407 59.4816 55.8876 57.5584 58.1681 53.5626C59.8505 50.5564 60.243 48.1104 60.0935 41.3325C59.9439 34.7787 59.5888 33.2103 57.8129 31.3058C56.411 29.812 54.1678 29.1398 52.2986 29.6626ZM53.794 39.0359C53.794 39.3907 53.7005 39.7268 53.5884 39.7828C53.2893 39.9882 53.2519 39.8388 53.3641 38.9986C53.4762 38.0836 53.794 38.1023 53.794 39.0359Z" fill="#EDEDED"/>
</svg>
