<svg width="1512" height="800" viewBox="0 0 1512 800" fill="none" xmlns="http://www.w3.org/2000/svg">
<path opacity="0.5" fill-rule="evenodd" clip-rule="evenodd" d="M-593.867 -704.436C-502.524 -816.894 -296.84 -832.947 -130.733 -893.408C123.119 -985.806 265.213 -1223.99 617.587 -1145.39C997.05 -1060.75 1336.22 -782.037 1527.05 -523.639C1713.35 -271.391 1759 5.88395 1593.75 176.384C1448.04 326.735 1062.61 243.33 768.012 259.547C527.04 272.813 317.337 345.889 51.1995 261.299C-245.109 167.121 -554.463 -0.195091 -690.642 -204.071C-821.574 -400.09 -707.177 -564.934 -593.867 -704.436Z" fill="#EAA9B3"/>
<path fill-rule="evenodd" clip-rule="evenodd" d="M-634.081 -732.218C-542.738 -844.675 -337.054 -860.729 -170.947 -921.189C82.9051 -1013.59 224.999 -1251.77 577.373 -1173.17C956.836 -1088.53 1296.01 -809.818 1486.84 -551.421C1673.13 -299.173 1718.78 -21.8978 1553.54 148.602C1407.82 298.953 1022.39 215.549 727.799 231.766C486.826 245.031 277.123 318.107 10.9856 233.518C-285.323 139.339 -594.676 -27.9768 -730.856 -231.853C-861.788 -427.872 -747.391 -592.716 -634.081 -732.218Z" fill="url(#paint0_linear_291_3262)"/>
<path fill-rule="evenodd" clip-rule="evenodd" d="M-532.407 -757.173C-441.064 -869.63 -235.38 -885.683 -69.2729 -946.144C184.579 -1038.54 326.673 -1276.72 679.047 -1198.13C1058.51 -1113.49 1397.68 -834.773 1588.51 -576.375C1774.81 -324.128 1820.46 -46.8524 1655.21 123.648C1509.5 273.999 1124.07 190.594 829.472 206.811C588.5 220.076 378.797 293.152 112.659 208.563C-183.649 114.384 -493.003 -52.9314 -629.182 -256.808C-760.114 -452.827 -645.717 -617.671 -532.407 -757.173Z" fill="url(#paint1_linear_291_3262)"/>
<mask id="mask0_291_3262" style="mask-type:alpha" maskUnits="userSpaceOnUse" x="-688" y="-1214" width="2446" height="1463">
<path fill-rule="evenodd" clip-rule="evenodd" d="M-532.407 -757.172C-441.064 -869.63 -235.38 -885.683 -69.2729 -946.144C184.579 -1038.54 326.673 -1276.72 679.047 -1198.13C1058.51 -1113.49 1397.68 -834.773 1588.51 -576.375C1774.81 -324.128 1820.46 -46.8524 1655.21 123.648C1509.5 273.999 1124.07 190.594 829.472 206.811C588.5 220.076 378.797 293.152 112.659 208.563C-183.649 114.384 -493.003 -52.9314 -629.182 -256.808C-760.114 -452.827 -645.717 -617.67 -532.407 -757.172Z" fill="url(#paint2_linear_291_3262)"/>
</mask>
<g mask="url(#mask0_291_3262)">
<g opacity="0.5">
<path d="M773.59 38.4561L765.509 38.4479L765.518 30.3669L773.599 30.3751L773.59 38.4561Z" fill="#F2A1AD"/>
<path d="M397.667 -36.9267L388.549 -36.936L388.558 -46.054L397.676 -46.0447L397.667 -36.9267Z" fill="#EDEDED"/>
<path d="M518.578 50.1965L506.713 50.1844L506.725 38.3194L518.59 38.3314L518.578 50.1965Z" fill="#E76068"/>
<path d="M775.748 -116.542L766.874 -116.551L766.883 -125.425L775.757 -125.416L775.748 -116.542Z" fill="#EDEDED"/>
<path d="M1257.95 -312.051L1250.74 -312.058L1250.75 -319.263L1257.95 -319.255L1257.95 -312.051Z" fill="#EDEDED"/>
<path d="M368.448 178.044L361.169 178.036L361.177 170.757L368.455 170.765L368.448 178.044Z" fill="#EDEDED"/>
<path d="M990.776 -144.323L980.615 -144.333L980.626 -154.494L990.787 -154.484L990.776 -144.323Z" fill="#EDEDED"/>
<path d="M1255.49 138.947L1247.71 138.939L1247.72 131.164L1255.5 131.172L1255.49 138.947Z" fill="#EDEDED"/>
<path d="M841.058 -420.475L831.458 -420.485L831.468 -430.085L841.067 -430.075L841.058 -420.475Z" fill="#EDEDED"/>
<path d="M693.093 -455.626L685.34 -455.634L685.348 -463.388L693.101 -463.38L693.093 -455.626Z" fill="#E76068"/>
<path d="M950.539 88.6363L939.275 88.6248L939.286 77.3606L950.551 77.3721L950.539 88.6363Z" fill="#EDEDED"/>
<path d="M70.1771 -538.26L62.9354 -538.268L62.9428 -545.51L70.1845 -545.502L70.1771 -538.26Z" fill="#EDEDED"/>
<path d="M581.728 -96.7393L572.136 -96.7491L572.146 -106.341L581.738 -106.331L581.728 -96.7393Z" fill="#EDEDED"/>
<path d="M577.499 128.256L566.871 128.246L566.882 117.618L577.51 117.629L577.499 128.256Z" fill="#EDEDED"/>
<path d="M29.7546 -123.301L17.9344 -123.313L17.9464 -135.134L29.7666 -135.122L29.7546 -123.301Z" fill="#F2A1AD"/>
<path d="M66.4552 170.736L58.8001 170.728L58.8079 163.073L66.463 163.081L66.4552 170.736Z" fill="#F2A1AD"/>
<path d="M402.161 -521.922L392.521 -521.932L392.531 -531.572L402.17 -531.562L402.161 -521.922Z" fill="#E76068"/>
<path d="M503.581 47.1812L495.771 47.1732L495.779 39.3635L503.589 39.3714L503.581 47.1812Z" fill="#E76068"/>
<path d="M1213.44 185.904L1204.66 185.895L1204.67 177.116L1213.45 177.125L1213.44 185.904Z" fill="#E76068"/>
<path d="M1025.36 268.713L1017.38 268.704L1017.38 260.725L1025.36 260.733L1025.36 268.713Z" fill="#EDEDED"/>
<path d="M520.422 203.198L510.74 203.189L510.75 193.506L520.432 193.516L520.422 203.198Z" fill="#F2A1AD"/>
<path d="M648.006 -369.672L638.468 -369.682L638.477 -379.22L648.015 -379.21L648.006 -369.672Z" fill="#EDEDED"/>
<path d="M281.212 -572.046L270.782 -572.056L270.793 -582.486L281.222 -582.475L281.212 -572.046Z" fill="#EDEDED"/>
<path d="M991.833 -199.322L981.697 -199.332L981.708 -209.467L991.843 -209.457L991.833 -199.322Z" fill="#E76068"/>
<path d="M1210.48 149.901L1200.5 149.891L1200.51 139.913L1210.49 139.923L1210.48 149.901Z" fill="#E76068"/>
<path d="M937.009 -372.378L928.166 -372.387L928.175 -381.229L937.018 -381.22L937.009 -372.378Z" fill="#EDEDED"/>
<path d="M719.114 -475.6L712.042 -475.607L712.049 -482.678L719.121 -482.671L719.114 -475.6Z" fill="#F2A1AD"/>
<path d="M792.813 -180.524L781.728 -180.536L781.739 -191.621L792.825 -191.61L792.813 -180.524Z" fill="#E76068"/>
<path d="M715.402 223.397L707.483 223.389L707.491 215.47L715.41 215.478L715.402 223.397Z" fill="#E76068"/>
<path d="M-79.9501 -413.413L-89.1047 -413.423L-89.0954 -422.577L-79.9408 -422.568L-79.9501 -413.413Z" fill="#EDEDED"/>
<path d="M375.467 159.051L364.871 159.04L364.882 148.444L375.478 148.454L375.467 159.051Z" fill="#E76068"/>
<path d="M1027.39 236.715L1017.7 236.705L1017.71 227.013L1027.4 227.023L1027.39 236.715Z" fill="#E76068"/>
<path d="M-36.9725 -391.369L-48.9326 -391.382L-48.9204 -403.342L-36.9603 -403.329L-36.9725 -391.369Z" fill="#EDEDED"/>
<path d="M893.321 302.578L882.143 302.567L882.154 291.388L893.333 291.4L893.321 302.578Z" fill="#F2A1AD"/>
<path d="M80.1069 -469.25L71.9158 -469.259L71.9242 -477.45L80.1152 -477.441L80.1069 -469.25Z" fill="#E76068"/>
<path d="M214.485 141.887L205.157 141.877L205.167 132.55L214.494 132.56L214.485 141.887Z" fill="#E76068"/>
<path d="M449.836 -202.874L440.706 -202.883L440.715 -212.013L449.845 -212.003L449.836 -202.874Z" fill="#EDEDED"/>
<path d="M501.932 -297.821L491.549 -297.831L491.56 -308.215L501.943 -308.204L501.932 -297.821Z" fill="#E76068"/>
<path d="M1042.62 12.73L1030.73 12.7179L1030.74 0.828918L1042.63 0.841064L1042.62 12.73Z" fill="#EDEDED"/>
<path d="M997.675 -44.3158L990.127 -44.3235L990.135 -51.8709L997.682 -51.8633L997.675 -44.3158Z" fill="#EDEDED"/>
<path d="M981.753 -121.332L970.872 -121.343L970.883 -132.224L981.764 -132.213L981.753 -121.332Z" fill="#E76068"/>
<path d="M394.541 87.0702L384.947 87.0604L384.957 77.4667L394.55 77.4765L394.541 87.0702Z" fill="#EDEDED"/>
<path d="M288.665 -35.0377L277.538 -35.049L277.549 -46.1763L288.676 -46.1649L288.665 -35.0377Z" fill="#E76068"/>
<path d="M1188.86 -228.121L1180.93 -228.129L1180.94 -236.06L1188.87 -236.052L1188.86 -228.121Z" fill="#EDEDED"/>
<path d="M708.906 -271.61L700.307 -271.619L700.315 -280.218L708.915 -280.209L708.906 -271.61Z" fill="#EDEDED"/>
<path d="M590.789 -156.73L579.774 -156.741L579.785 -167.757L590.8 -167.745L590.789 -156.73Z" fill="#E76068"/>
<path d="M40.9603 -325.29L30.574 -325.301L30.5846 -335.687L40.9708 -335.676L40.9603 -325.29Z" fill="#F2A1AD"/>
<path d="M179.315 308.851L171.286 308.843L171.294 300.814L179.323 300.822L179.315 308.851Z" fill="#F2A1AD"/>
<path d="M-74.2993 -70.4073L-83.1395 -70.4163L-83.1305 -79.2565L-74.2903 -79.2475L-74.2993 -70.4073Z" fill="#EDEDED"/>
<path d="M422.406 219.099L411.109 219.087L411.12 207.79L422.418 207.801L422.406 219.099Z" fill="#EDEDED"/>
<path d="M508.59 -155.534L516.657 -155.051L516.174 -146.984L508.107 -147.467L508.59 -155.534Z" fill="#F2A1AD"/>
<path d="M879.434 -58.1894L888.536 -57.6443L887.991 -48.5425L878.889 -49.0876L879.434 -58.1894Z" fill="#EDEDED"/>
<path d="M763.852 -152.267L775.695 -151.558L774.986 -139.714L763.142 -140.424L763.852 -152.267Z" fill="#E76068"/>
<path d="M497.327 -0.93042L506.186 -0.399902L505.655 8.45831L496.797 7.9278L497.327 -0.93042Z" fill="#EDEDED"/>
<path d="M4.47206 165.904L11.6637 166.334L11.233 173.526L4.04135 173.095L4.47206 165.904Z" fill="#EDEDED"/>
<path d="M921.235 -271.071L928.501 -270.636L928.066 -263.37L920.8 -263.805L921.235 -271.071Z" fill="#EDEDED"/>
<path d="M281.038 14.1662L291.181 14.7737L290.574 24.9166L280.431 24.3092L281.038 14.1662Z" fill="#EDEDED"/>
<path d="M33.4306 -284.17L41.1919 -283.705L40.7271 -275.944L32.9658 -276.409L33.4306 -284.17Z" fill="#EDEDED"/>
<path d="M414.27 298.64L423.852 299.214L423.278 308.797L413.696 308.223L414.27 298.64Z" fill="#EDEDED"/>
<path d="M559.913 342.425L567.652 342.889L567.189 350.628L559.449 350.165L559.913 342.425Z" fill="#E76068"/>
<path d="M334.896 -216.026L346.14 -215.352L345.467 -204.108L334.223 -204.782L334.896 -216.026Z" fill="#EDEDED"/>
<path d="M1176.9 461.523L1184.12 461.956L1183.69 469.185L1176.46 468.752L1176.9 461.523Z" fill="#EDEDED"/>
<path d="M692.176 -9.29675L701.751 -8.72333L701.178 0.851623L691.603 0.278198L692.176 -9.29675Z" fill="#EDEDED"/>
<path d="M709.62 -233.655L720.229 -233.02L719.593 -222.411L708.985 -223.047L709.62 -233.655Z" fill="#EDEDED"/>
<path d="M1241.63 49.6569L1253.43 50.3636L1252.73 62.1626L1240.93 61.456L1241.63 49.6569Z" fill="#F2A1AD"/>
<path d="M1222.28 -246.029L1229.92 -245.572L1229.46 -237.93L1221.82 -238.388L1222.28 -246.029Z" fill="#F2A1AD"/>
<path d="M846.446 425.704L856.069 426.28L855.493 435.903L845.87 435.327L846.446 425.704Z" fill="#E76068"/>
<path d="M778.645 -148.376L786.441 -147.909L785.974 -140.113L778.178 -140.58L778.645 -148.376Z" fill="#E76068"/>
<path d="M78.1653 -328.575L86.9286 -328.05L86.4037 -319.287L77.6404 -319.812L78.1653 -328.575Z" fill="#E76068"/>
<path d="M270.791 -400.188L278.757 -399.71L278.279 -391.745L270.314 -392.222L270.791 -400.188Z" fill="#EDEDED"/>
<path d="M771.002 -305.113L780.667 -304.535L780.088 -294.869L770.423 -295.448L771.002 -305.113Z" fill="#F2A1AD"/>
<path d="M609.973 259.269L619.495 259.84L618.924 269.361L609.403 268.79L609.973 259.269Z" fill="#EDEDED"/>
<path d="M964.241 482.848L974.652 483.472L974.028 493.883L963.617 493.259L964.241 482.848Z" fill="#EDEDED"/>
<path d="M276.752 69.0081L286.869 69.614L286.263 79.7311L276.146 79.1252L276.752 69.0081Z" fill="#E76068"/>
<path d="M79.0077 -292.46L88.9678 -291.864L88.3713 -281.904L78.4112 -282.5L79.0077 -292.46Z" fill="#E76068"/>
<path d="M321.311 244.987L330.137 245.515L329.609 254.342L320.782 253.813L321.311 244.987Z" fill="#EDEDED"/>
<path d="M532.763 360.835L539.822 361.258L539.4 368.317L532.341 367.894L532.763 360.835Z" fill="#F2A1AD"/>
<path d="M476.532 61.9388L487.597 62.6016L486.935 73.6672L475.869 73.0045L476.532 61.9388Z" fill="#E76068"/>
<path d="M577.546 -336.735L585.451 -336.262L584.977 -328.357L577.073 -328.831L577.546 -336.735Z" fill="#E76068"/>
<path d="M1334.1 345.714L1343.24 346.262L1342.69 355.4L1333.55 354.853L1334.1 345.714Z" fill="#EDEDED"/>
<path d="M913.112 -252.524L923.689 -251.89L923.056 -241.313L912.479 -241.946L913.112 -252.524Z" fill="#E76068"/>
<path d="M266.882 -368.364L276.556 -367.785L275.976 -358.111L266.302 -358.69L266.882 -368.364Z" fill="#E76068"/>
<path d="M1292.49 321.183L1304.43 321.898L1303.72 333.837L1291.78 333.122L1292.49 321.183Z" fill="#EDEDED"/>
<path d="M404.587 -426.235L415.746 -425.567L415.078 -414.409L403.919 -415.077L404.587 -426.235Z" fill="#F2A1AD"/>
<path d="M1171.04 392.049L1179.22 392.539L1178.73 400.715L1170.55 400.225L1171.04 392.049Z" fill="#E76068"/>
<path d="M1072.81 -225.929L1082.12 -225.371L1081.56 -216.061L1072.25 -216.618L1072.81 -225.929Z" fill="#E76068"/>
<path d="M817.603 104.405L826.716 104.951L826.171 114.064L817.057 113.518L817.603 104.405Z" fill="#EDEDED"/>
<path d="M760.017 196.126L770.381 196.747L769.761 207.112L759.396 206.491L760.017 196.126Z" fill="#E76068"/>
<path d="M238.517 -145.662L250.385 -144.951L249.674 -133.083L237.806 -133.794L238.517 -145.662Z" fill="#EDEDED"/>
<path d="M280.029 -86.0734L287.563 -85.6222L287.112 -78.0882L279.578 -78.5394L280.029 -86.0734Z" fill="#EDEDED"/>
<path d="M291.397 -8.25464L302.259 -7.60413L301.608 3.25757L290.746 2.60706L291.397 -8.25464Z" fill="#E76068"/>
<path d="M889.842 -181.788L899.418 -181.215L898.845 -171.638L889.268 -172.212L889.842 -181.788Z" fill="#EDEDED"/>
<path d="M988.359 -53.6694L999.466 -53.0042L998.801 -41.8969L987.693 -42.5621L988.359 -53.6694Z" fill="#E76068"/>
<path d="M78.3704 86.179L86.2872 86.6531L85.813 94.5698L77.8963 94.0957L78.3704 86.179Z" fill="#EDEDED"/>
<path d="M554.941 157.798L563.525 158.312L563.011 166.896L554.427 166.382L554.941 157.798Z" fill="#EDEDED"/>
<path d="M679.605 50.0579L690.601 50.7164L689.942 61.7119L678.947 61.0533L679.605 50.0579Z" fill="#E76068"/>
<path d="M1218.58 250.638L1228.95 251.259L1228.32 261.627L1217.96 261.006L1218.58 250.638Z" fill="#F2A1AD"/>
<path d="M1117.73 -390.538L1125.74 -390.058L1125.26 -382.043L1117.25 -382.523L1117.73 -390.538Z" fill="#F2A1AD"/>
<path d="M1348.62 2.96912L1357.44 3.49762L1356.91 12.3221L1348.09 11.7936L1348.62 2.96912Z" fill="#EDEDED"/>
<path d="M869.783 -315.226L881.06 -314.551L880.385 -303.274L869.108 -303.949L869.783 -315.226Z" fill="#EDEDED"/>
</g>
</g>
<defs>
<linearGradient id="paint0_linear_291_3262" x1="343.179" y1="-75.647" x2="356.395" y2="284.069" gradientUnits="userSpaceOnUse">
<stop offset="0.593361" stop-color="#F497AA"/>
<stop offset="1" stop-color="#EDB5B2"/>
</linearGradient>
<linearGradient id="paint1_linear_291_3262" x1="-556.47" y1="-294.955" x2="-628.706" y2="292.277" gradientUnits="userSpaceOnUse">
<stop stop-color="#DB425D"/>
<stop offset="1" stop-color="#FF9C7D"/>
</linearGradient>
<linearGradient id="paint2_linear_291_3262" x1="-556.47" y1="-294.955" x2="-628.706" y2="292.277" gradientUnits="userSpaceOnUse">
<stop stop-color="#E35565"/>
<stop offset="1" stop-color="#FF9C7D"/>
</linearGradient>
</defs>
</svg>
