<svg width="85" height="86" viewBox="0 0 85 86" fill="none" xmlns="http://www.w3.org/2000/svg">
<path d="M38.5174 1.07373C29.9644 1.95582 22.1617 5.16514 15.5406 10.514C13.6274 12.053 10.0449 15.7503 8.61941 17.6458C2.93616 25.2468 0.0664062 33.7675 0.0664062 43.1139C0.0664062 48.0499 0.70413 52.1413 2.14839 56.4955C4.13658 62.5387 7.62531 68.1504 12.2582 72.7673C18.5229 79.0545 25.9505 82.9207 35.0474 84.6286C37.0169 85.004 37.8984 85.0603 42.0811 85.0603C47.2392 85.0603 49.0961 84.8351 53.0913 83.7465C56.8613 82.733 61.7756 80.556 65.1517 78.3789C75.5429 71.735 82.6141 60.418 84.2084 47.956C84.6211 44.6341 84.4898 39.1163 83.9271 35.907C82.933 30.2766 80.5321 24.2146 77.5311 19.7291C70.985 9.91343 60.3501 3.15697 48.6459 1.35525C46.2826 0.998657 40.7307 0.848513 38.5174 1.07373ZM45.7574 7.4736C54.5543 8.31815 62.0757 11.9779 68.2466 18.3778C70.9663 21.193 72.5231 23.4263 74.3425 27.0673C75.993 30.4268 76.7433 32.5288 77.4748 35.9821C77.9437 38.1404 77.9812 38.6847 78 42.8324C78 46.83 77.9437 47.5807 77.5686 49.495C75.4866 59.7423 69.4282 68.4131 60.6314 73.6869C57.0864 75.8077 53.3726 77.234 49.1149 78.1537C46.8266 78.6416 46.3952 78.6604 42.0811 78.6604C37.7671 78.6604 37.3357 78.6416 35.0474 78.1537C30.302 77.1402 26.0255 75.3572 22.2742 72.8236C14.1338 67.3621 8.91951 59.5359 6.96883 49.8704C6.5937 47.9748 6.53743 47.1678 6.53743 43.2078C6.53743 37.9903 6.80002 36.2636 8.24428 31.8907C10.0262 26.4292 12.8959 21.8498 17.1161 17.6646C24.5625 10.2513 35.2913 6.44136 45.7574 7.4736Z" fill="#EDEDED"/>
<path d="M52.3034 16.7825C50.5028 17.1578 49.0773 18.0399 46.1512 20.5548C42.7 23.5389 41.4433 24.2334 37.617 25.1718C33.453 26.204 32.0838 26.8421 30.3582 28.5875C29.7955 29.1318 28.989 30.2391 28.5576 31.0086C27.5822 32.7915 27.3947 32.9792 26.5506 32.9792C26.1755 32.998 25.1814 33.1106 24.3561 33.2607C19.6107 34.1053 16.7597 37.6524 16.7597 42.7385C16.7597 45.0095 17.4724 47.2053 18.5791 48.3877L19.0292 48.8944L18.3352 49.0258C17.4349 49.1947 16.4596 50.1519 16.2908 51.034C16.1782 51.6533 16.1032 51.7096 15.1654 51.9161C12.802 52.4416 11.4891 54.3371 12.0705 56.3078C12.4832 57.7154 14.04 59.0103 17.1723 60.5493C20.7173 62.276 21.8802 63.1581 23.9059 65.7293C26.9633 69.5767 28.2387 70.0459 37.3544 70.6277C41.4058 70.8717 42.7375 70.8905 44.7633 70.7215C47.9519 70.44 52.2284 69.5767 54.5542 68.7509C57.6303 67.6436 58.6431 66.8929 61.738 63.4208C63.2573 61.7317 65.2455 60.3053 68.903 58.3159C72.5418 56.3265 73.4796 55.3318 73.4796 53.4363C73.4796 51.034 71.5289 49.3073 67.7963 48.4065C66.746 48.1625 66.4834 48.0311 66.5959 47.8059C66.6522 47.6557 66.8773 47.0552 67.0836 46.4921C67.8339 44.3901 67.1774 41.65 65.4705 39.6418C64.9078 38.985 64.814 38.741 64.739 37.5586C64.6077 35.7944 64.045 34.5933 62.3757 32.6039C60.3687 30.2391 60.2562 29.92 60.0686 26.4855C59.8811 23.1073 59.5622 21.5308 58.7369 19.9918C57.4052 17.4957 54.8543 16.2194 52.3034 16.7825ZM53.41 23.6328C53.4851 23.8768 53.6164 25.4345 53.7102 27.0861C53.954 31.3652 54.6292 33.242 56.9738 36.0759C57.4052 36.5827 57.8741 37.1645 58.0242 37.3709C58.2117 37.6149 58.268 38.1029 58.2305 39.0037C58.1742 40.6178 58.5306 41.4811 59.9748 43.0764C60.5563 43.7145 61.0252 44.3526 61.0252 44.484C61.0252 44.6153 60.6313 45.291 60.1624 46.0229L59.3184 47.3367L55.6233 47.6557C46.789 48.3877 45.401 48.4252 38.4235 48.1062C27.9199 47.6182 27.5635 47.6557 26.4381 48.9695L25.7816 49.7202L21.8615 49.4575L22.6868 48.6692C23.4558 47.9373 23.5121 47.8059 23.5121 46.9238C23.5121 46.3045 23.3432 45.61 23.0244 44.8969C22.6117 43.996 22.5367 43.6394 22.6305 42.7573C22.743 41.3309 23.362 40.1486 24.131 39.8295C24.4686 39.6981 25.369 39.5292 26.138 39.4542C28.1449 39.2665 29.8518 38.8536 30.7521 38.3281C31.6712 37.7838 32.8341 36.5076 33.3593 35.4753C34.8223 32.6226 35.2349 32.3223 38.7612 31.4778C41.6872 30.7834 42.8313 30.3705 44.7257 29.3945C46.4889 28.4749 47.9894 27.4051 49.8651 25.7536C51.3843 24.421 52.9224 23.2199 53.1475 23.2199C53.2225 23.2199 53.3538 23.4076 53.41 23.6328ZM63.4636 54.0744C59.5622 56.4767 58.0242 57.7529 55.9234 60.3241C54.6105 61.9381 53.5038 62.5575 50.5966 63.2707C45.9637 64.4155 42.7563 64.622 36.2665 64.1715C32.4214 63.9088 30.8834 63.6648 30.2269 63.2331C29.9643 63.0642 29.2141 62.2384 28.5763 61.4126C27.0946 59.5734 26.0067 58.5036 24.6562 57.584C23.5683 56.852 21.6739 55.8386 20.511 55.3881L19.8545 55.1254L20.7924 55.2192C24.6374 55.6133 26.1755 55.7072 31.5774 55.8949C40.7494 56.2139 48.3645 56.1764 51.8345 55.801C54.6855 55.5007 61.2315 54.2808 62.9009 53.7366C64.3639 53.2861 64.5702 53.3987 63.4636 54.0744Z" fill="#EDEDED"/>
<path d="M52.3973 38.0466C51.3094 38.4595 50.3716 38.7973 50.2778 38.7973C50.2028 38.7973 49.7714 38.9662 49.3024 39.1914C48.2333 39.6982 47.7081 40.524 47.7081 41.6876C47.7081 43.4142 48.7585 44.4277 50.5029 44.4277C51.572 44.4277 55.6234 43.189 56.6738 42.5509C57.9305 41.7814 58.3806 40.1486 57.6866 38.8161C56.8426 37.1457 55.3421 36.9205 52.3973 38.0466Z" fill="#EDEDED"/>
</svg>
